<svg width="24" height="25" viewBox="0 0 24 25" fill="none" xmlns="http://www.w3.org/2000/svg">
<path d="M6 23.4792C5.16667 23.4792 4.45833 23.1876 3.875 22.6042C3.29167 22.0209 3 21.3126 3 20.4792C3 19.6459 3.29167 18.9376 3.875 18.3542C4.45833 17.7709 5.16667 17.4792 6 17.4792C6.23333 17.4792 6.45 17.5042 6.65 17.5542C6.85 17.6042 7.04167 17.6709 7.225 17.7542L8.65 15.9792C8.18333 15.4626 7.85833 14.8792 7.675 14.2292C7.49167 13.5792 7.45 12.9292 7.55 12.2792L5.525 11.6042C5.24167 12.0209 4.88333 12.3542 4.45 12.6042C4.01667 12.8542 3.53333 12.9792 3 12.9792C2.16667 12.9792 1.45833 12.6876 0.875 12.1042C0.291667 11.5209 0 10.8126 0 9.97925C0 9.14591 0.291667 8.43758 0.875 7.85425C1.45833 7.27091 2.16667 6.97925 3 6.97925C3.83333 6.97925 4.54167 7.27091 5.125 7.85425C5.70833 8.43758 6 9.14591 6 9.97925V10.1792L8.025 10.8792C8.35833 10.2792 8.80417 9.77091 9.3625 9.35425C9.92083 8.93758 10.55 8.67091 11.25 8.55425V6.37925C10.6 6.19591 10.0625 5.84175 9.6375 5.31675C9.2125 4.79175 9 4.17925 9 3.47925C9 2.64591 9.29167 1.93758 9.875 1.35425C10.4583 0.770915 11.1667 0.479248 12 0.479248C12.8333 0.479248 13.5417 0.770915 14.125 1.35425C14.7083 1.93758 15 2.64591 15 3.47925C15 4.17925 14.7833 4.79175 14.35 5.31675C13.9167 5.84175 13.3833 6.19591 12.75 6.37925V8.55425C13.45 8.67091 14.0792 8.93758 14.6375 9.35425C15.1958 9.77091 15.6417 10.2792 15.975 10.8792L18 10.1792V9.97925C18 9.14591 18.2917 8.43758 18.875 7.85425C19.4583 7.27091 20.1667 6.97925 21 6.97925C21.8333 6.97925 22.5417 7.27091 23.125 7.85425C23.7083 8.43758 24 9.14591 24 9.97925C24 10.8126 23.7083 11.5209 23.125 12.1042C22.5417 12.6876 21.8333 12.9792 21 12.9792C20.4667 12.9792 19.9792 12.8542 19.5375 12.6042C19.0958 12.3542 18.7417 12.0209 18.475 11.6042L16.45 12.2792C16.55 12.9292 16.5083 13.5751 16.325 14.2167C16.1417 14.8584 15.8167 15.4459 15.35 15.9792L16.775 17.7292C16.9583 17.6459 17.15 17.5834 17.35 17.5417C17.55 17.5001 17.7667 17.4792 18 17.4792C18.8333 17.4792 19.5417 17.7709 20.125 18.3542C20.7083 18.9376 21 19.6459 21 20.4792C21 21.3126 20.7083 22.0209 20.125 22.6042C19.5417 23.1876 18.8333 23.4792 18 23.4792C17.1667 23.4792 16.4583 23.1876 15.875 22.6042C15.2917 22.0209 15 21.3126 15 20.4792C15 20.1459 15.0542 19.8251 15.1625 19.5167C15.2708 19.2084 15.4167 18.9292 15.6 18.6792L14.175 16.9042C13.4917 17.2876 12.7625 17.4792 11.9875 17.4792C11.2125 17.4792 10.4833 17.2876 9.8 16.9042L8.4 18.6792C8.58333 18.9292 8.72917 19.2084 8.8375 19.5167C8.94583 19.8251 9 20.1459 9 20.4792C9 21.3126 8.70833 22.0209 8.125 22.6042C7.54167 23.1876 6.83333 23.4792 6 23.4792Z" fill="#F6C23C"/>
</svg>
