<svg width="20" height="20" viewBox="0 0 20 20" fill="none" xmlns="http://www.w3.org/2000/svg">
<path fill-rule="evenodd" clip-rule="evenodd" d="M14.167 15H5C4.76399 15 4.56594 15.0797 4.40625 15.2393C4.24662 15.3989 4.16708 15.5971 4.16699 15.833C4.16699 16.069 4.24666 16.2671 4.40625 16.4268C4.56597 16.5865 4.76389 16.667 5 16.667H15.833V3.33301H17.5V18.333H5C4.30569 18.333 3.71555 18.0904 3.22949 17.6045C2.74338 17.1184 2.5 16.5275 2.5 15.833V4.16699C2.5 3.47255 2.74338 2.88162 3.22949 2.39551C3.71553 1.90964 4.30573 1.66699 5 1.66699H14.167V15ZM8.4668 5.41699C8.27023 6.33519 7.87454 7.34421 7.29688 7.92188C6.71917 8.49977 5.71038 8.89555 4.79199 9.0918C5.70982 9.28842 6.71914 9.68345 7.29688 10.2607C7.87482 10.8387 8.27025 11.8491 8.4668 12.7676C8.66302 11.8494 9.05812 10.8397 9.63574 10.2617C10.2137 9.68396 11.2233 9.28804 12.1416 9.0918C11.2237 8.89519 10.2145 8.50036 9.63672 7.92285C9.05912 7.34495 8.66305 6.3354 8.4668 5.41699ZM11.2549 3.75C11.1766 4.11567 11.0192 4.51803 10.7891 4.74805C10.559 4.97798 10.1575 5.13558 9.79199 5.21387C10.1575 5.29219 10.559 5.44992 10.7891 5.67969C11.0192 5.90984 11.1766 6.31205 11.2549 6.67773C11.333 6.31211 11.4909 5.90972 11.7207 5.67969C11.9509 5.44966 12.3532 5.29202 12.7188 5.21387C12.3532 5.13546 11.9507 4.97808 11.7207 4.74805C11.4907 4.51787 11.333 4.11577 11.2549 3.75Z" fill="#F6C23C"/>
</svg>
