<svg width="24" height="25" viewBox="0 0 24 25" fill="none" xmlns="http://www.w3.org/2000/svg">
<path d="M17.15 21.1792L11.1 15.0792C10.7667 15.2126 10.4292 15.3126 10.0875 15.3792C9.74583 15.4459 9.38333 15.4792 9 15.4792C7.33333 15.4792 5.91667 14.8959 4.75 13.7292C3.58333 12.5626 3 11.1459 3 9.47925C3 8.87925 3.08333 8.30841 3.25 7.76675C3.41667 7.22508 3.65 6.71258 3.95 6.22925L7.6 9.87925L9.4 8.07925L5.75 4.42925C6.23333 4.12925 6.74583 3.89591 7.2875 3.72925C7.82917 3.56258 8.4 3.47925 9 3.47925C10.6667 3.47925 12.0833 4.06258 13.25 5.22925C14.4167 6.39591 15 7.81258 15 9.47925C15 9.86258 14.9667 10.2251 14.9 10.5667C14.8333 10.9084 14.7333 11.2459 14.6 11.5792L20.7 17.6292C20.9 17.8292 21 18.0709 21 18.3542C21 18.6376 20.9 18.8792 20.7 19.0792L18.6 21.1792C18.4 21.3792 18.1583 21.4792 17.875 21.4792C17.5917 21.4792 17.35 21.3792 17.15 21.1792Z" fill="#FF7826"/>
</svg>
