<svg width="20" height="20" viewBox="0 0 20 20" fill="none" xmlns="http://www.w3.org/2000/svg">
<path fill-rule="evenodd" clip-rule="evenodd" d="M14.167 15H5C4.76399 15 4.56594 15.0797 4.40625 15.2393C4.24662 15.3989 4.16708 15.5971 4.16699 15.833C4.16699 16.069 4.24666 16.2671 4.40625 16.4268C4.56597 16.5865 4.76389 16.667 5 16.667H15.833V3.33301H17.5V18.333H5C4.30569 18.333 3.71555 18.0904 3.22949 17.6045C2.74338 17.1184 2.5 16.5275 2.5 15.833V4.16699C2.5 3.47255 2.74338 2.88162 3.22949 2.39551C3.71553 1.90964 4.30573 1.66699 5 1.66699H14.167V15ZM8.5 4.5C8.28606 5.49949 7.85636 6.59872 7.22754 7.22754C6.59869 7.8566 5.49969 8.2864 4.5 8.5C5.4993 8.71403 6.59772 9.14481 7.22656 9.77344C7.85563 10.4025 8.28607 11.5013 8.5 12.501C8.71358 11.5016 9.14371 10.4025 9.77246 9.77344C10.4015 9.14459 11.5005 8.71458 12.5 8.50098C11.5008 8.28697 10.4023 7.85626 9.77344 7.22754C9.1447 6.59847 8.7136 5.49971 8.5 4.5Z" fill="#F6C23C"/>
</svg>
