<svg width="24" height="25" viewBox="0 0 24 25" fill="none" xmlns="http://www.w3.org/2000/svg">
<path d="M16.4 21.4792L15 20.0792L16.575 18.4792L15 16.9042L16.4 15.4792L18 17.0792L19.575 15.4792L21 16.9042L19.4 18.4792L21 20.0792L19.575 21.4792L18 19.9042L16.4 21.4792ZM6 19.4792C6.28333 19.4792 6.52083 19.3834 6.7125 19.1917C6.90417 19.0001 7 18.7626 7 18.4792C7 18.1959 6.90417 17.9584 6.7125 17.7667C6.52083 17.5751 6.28333 17.4792 6 17.4792C5.71667 17.4792 5.47917 17.5751 5.2875 17.7667C5.09583 17.9584 5 18.1959 5 18.4792C5 18.7626 5.09583 19.0001 5.2875 19.1917C5.47917 19.3834 5.71667 19.4792 6 19.4792ZM6 21.4792C5.16667 21.4792 4.45833 21.1876 3.875 20.6042C3.29167 20.0209 3 19.3126 3 18.4792C3 17.6459 3.29167 16.9376 3.875 16.3542C4.45833 15.7709 5.16667 15.4792 6 15.4792C6.61667 15.4792 7.17917 15.6501 7.6875 15.9917C8.19583 16.3334 8.56667 16.7959 8.8 17.3792C9.45 17.1959 9.97917 16.8376 10.3875 16.3042C10.7958 15.7709 11 15.1626 11 14.4792V10.4792C11 9.09591 11.4875 7.91675 12.4625 6.94175C13.4375 5.96675 14.6167 5.47925 16 5.47925H17.15L15.575 3.90425L17 2.47925L21 6.47925L17 10.4792L15.575 9.07925L17.15 7.47925H16C15.1667 7.47925 14.4583 7.77091 13.875 8.35425C13.2917 8.93758 13 9.64591 13 10.4792V14.4792C13 15.6959 12.6083 16.7667 11.825 17.6917C11.0417 18.6167 10.05 19.1876 8.85 19.4042C8.65 20.0209 8.2875 20.5209 7.7625 20.9042C7.2375 21.2876 6.65 21.4792 6 21.4792ZM4.4 9.47925L3 8.07925L4.575 6.47925L3 4.90425L4.4 3.47925L6 5.07925L7.575 3.47925L9 4.90425L7.4 6.47925L9 8.07925L7.575 9.47925L6 7.90425L4.4 9.47925Z" fill="#4FCD44"/>
</svg>
