<svg width="24" height="25" viewBox="0 0 24 25" fill="none" xmlns="http://www.w3.org/2000/svg">
<path d="M12 19.9792C11.2 19.3459 10.3333 18.8542 9.4 18.5042C8.46667 18.1542 7.5 17.9792 6.5 17.9792C5.8 17.9792 5.1125 18.0709 4.4375 18.2542C3.7625 18.4376 3.11667 18.6959 2.5 19.0292C2.15 19.2126 1.8125 19.2042 1.4875 19.0042C1.1625 18.8042 1 18.5126 1 18.1292V6.07925C1 5.89591 1.04583 5.72092 1.1375 5.55425C1.22917 5.38758 1.36667 5.26258 1.55 5.17925C2.31667 4.77925 3.11667 4.47925 3.95 4.27925C4.78333 4.07925 5.63333 3.97925 6.5 3.97925C7.46667 3.97925 8.4125 4.10425 9.3375 4.35425C10.2625 4.60425 11.15 4.97925 12 5.47925V17.5792C12.85 17.0459 13.7417 16.6459 14.675 16.3792C15.6083 16.1126 16.55 15.9792 17.5 15.9792C18.1 15.9792 18.6875 16.0292 19.2625 16.1292C19.8375 16.2292 20.4167 16.3792 21 16.5792V4.57925C21.25 4.66258 21.4958 4.75008 21.7375 4.84175C21.9792 4.93341 22.2167 5.04591 22.45 5.17925C22.6333 5.26258 22.7708 5.38758 22.8625 5.55425C22.9542 5.72092 23 5.89591 23 6.07925V18.1292C23 18.5126 22.8375 18.8042 22.5125 19.0042C22.1875 19.2042 21.85 19.2126 21.5 19.0292C20.8833 18.6959 20.2375 18.4376 19.5625 18.2542C18.8875 18.0709 18.2 17.9792 17.5 17.9792C16.5 17.9792 15.5333 18.1542 14.6 18.5042C13.6667 18.8542 12.8 19.3459 12 19.9792ZM14 14.9792V5.47925L19 0.479248V10.4792L14 14.9792Z" fill="#868DFF"/>
</svg>
