<svg width="24" height="25" viewBox="0 0 24 25" fill="none" xmlns="http://www.w3.org/2000/svg">
<path d="M6.99999 2.47925H17V10.3292C17 10.7126 16.9167 11.0542 16.75 11.3542C16.5833 11.6542 16.35 11.8959 16.05 12.0792L12.5 14.1792L13.2 16.4792H17L13.9 18.6792L15.1 22.4792L12 20.1292L8.89999 22.4792L10.1 18.6792L6.99999 16.4792H10.8L11.5 14.1792L7.94999 12.0792C7.64999 11.8959 7.41666 11.6542 7.24999 11.3542C7.08332 11.0542 6.99999 10.7126 6.99999 10.3292V2.47925ZM11 4.47925V11.5292L12 12.1292L13 11.5292V4.47925H11Z" fill="#4FCD44"/>
</svg>
