<svg width="24" height="25" viewBox="0 0 24 25" fill="none" xmlns="http://www.w3.org/2000/svg">
<path d="M6 20.4792C5.45 20.4792 4.97917 20.2834 4.5875 19.8917C4.19583 19.5001 4 19.0292 4 18.4792C4 17.9292 4.19583 17.4584 4.5875 17.0667C4.97917 16.6751 5.45 16.4792 6 16.4792C6.55 16.4792 7.02083 16.6751 7.4125 17.0667C7.80417 17.4584 8 17.9292 8 18.4792C8 19.0292 7.80417 19.5001 7.4125 19.8917C7.02083 20.2834 6.55 20.4792 6 20.4792ZM12 20.4792C11.45 20.4792 10.9792 20.2834 10.5875 19.8917C10.1958 19.5001 10 19.0292 10 18.4792C10 17.9292 10.1958 17.4584 10.5875 17.0667C10.9792 16.6751 11.45 16.4792 12 16.4792C12.55 16.4792 13.0208 16.6751 13.4125 17.0667C13.8042 17.4584 14 17.9292 14 18.4792C14 19.0292 13.8042 19.5001 13.4125 19.8917C13.0208 20.2834 12.55 20.4792 12 20.4792ZM18 20.4792C17.45 20.4792 16.9792 20.2834 16.5875 19.8917C16.1958 19.5001 16 19.0292 16 18.4792C16 17.9292 16.1958 17.4584 16.5875 17.0667C16.9792 16.6751 17.45 16.4792 18 16.4792C18.55 16.4792 19.0208 16.6751 19.4125 17.0667C19.8042 17.4584 20 17.9292 20 18.4792C20 19.0292 19.8042 19.5001 19.4125 19.8917C19.0208 20.2834 18.55 20.4792 18 20.4792ZM6 14.4792C5.45 14.4792 4.97917 14.2834 4.5875 13.8917C4.19583 13.5001 4 13.0292 4 12.4792C4 11.9292 4.19583 11.4584 4.5875 11.0667C4.97917 10.6751 5.45 10.4792 6 10.4792C6.55 10.4792 7.02083 10.6751 7.4125 11.0667C7.80417 11.4584 8 11.9292 8 12.4792C8 13.0292 7.80417 13.5001 7.4125 13.8917C7.02083 14.2834 6.55 14.4792 6 14.4792ZM12 14.4792C11.45 14.4792 10.9792 14.2834 10.5875 13.8917C10.1958 13.5001 10 13.0292 10 12.4792C10 11.9292 10.1958 11.4584 10.5875 11.0667C10.9792 10.6751 11.45 10.4792 12 10.4792C12.55 10.4792 13.0208 10.6751 13.4125 11.0667C13.8042 11.4584 14 11.9292 14 12.4792C14 13.0292 13.8042 13.5001 13.4125 13.8917C13.0208 14.2834 12.55 14.4792 12 14.4792ZM18 14.4792C17.45 14.4792 16.9792 14.2834 16.5875 13.8917C16.1958 13.5001 16 13.0292 16 12.4792C16 11.9292 16.1958 11.4584 16.5875 11.0667C16.9792 10.6751 17.45 10.4792 18 10.4792C18.55 10.4792 19.0208 10.6751 19.4125 11.0667C19.8042 11.4584 20 11.9292 20 12.4792C20 13.0292 19.8042 13.5001 19.4125 13.8917C19.0208 14.2834 18.55 14.4792 18 14.4792ZM6 8.47925C5.45 8.47925 4.97917 8.28341 4.5875 7.89175C4.19583 7.50008 4 7.02925 4 6.47925C4 5.92925 4.19583 5.45841 4.5875 5.06675C4.97917 4.67508 5.45 4.47925 6 4.47925C6.55 4.47925 7.02083 4.67508 7.4125 5.06675C7.80417 5.45841 8 5.92925 8 6.47925C8 7.02925 7.80417 7.50008 7.4125 7.89175C7.02083 8.28341 6.55 8.47925 6 8.47925ZM12 8.47925C11.45 8.47925 10.9792 8.28341 10.5875 7.89175C10.1958 7.50008 10 7.02925 10 6.47925C10 5.92925 10.1958 5.45841 10.5875 5.06675C10.9792 4.67508 11.45 4.47925 12 4.47925C12.55 4.47925 13.0208 4.67508 13.4125 5.06675C13.8042 5.45841 14 5.92925 14 6.47925C14 7.02925 13.8042 7.50008 13.4125 7.89175C13.0208 8.28341 12.55 8.47925 12 8.47925ZM18 8.47925C17.45 8.47925 16.9792 8.28341 16.5875 7.89175C16.1958 7.50008 16 7.02925 16 6.47925C16 5.92925 16.1958 5.45841 16.5875 5.06675C16.9792 4.67508 17.45 4.47925 18 4.47925C18.55 4.47925 19.0208 4.67508 19.4125 5.06675C19.8042 5.45841 20 5.92925 20 6.47925C20 7.02925 19.8042 7.50008 19.4125 7.89175C19.0208 8.28341 18.55 8.47925 18 8.47925Z" fill="#3CB3F6"/>
</svg>
