<svg width="24" height="25" viewBox="0 0 24 25" fill="none" xmlns="http://www.w3.org/2000/svg">
<path d="M11.5 14.4792C10.8 14.4792 10.2083 14.2376 9.725 13.7542C9.24167 13.2709 9 12.6792 9 11.9792C9 11.2792 9.24167 10.6876 9.725 10.2042C10.2083 9.72091 10.8 9.47925 11.5 9.47925C12.2 9.47925 12.7917 9.72091 13.275 10.2042C13.7583 10.6876 14 11.2792 14 11.9792C14 12.6792 13.7583 13.2709 13.275 13.7542C12.7917 14.2376 12.2 14.4792 11.5 14.4792ZM4 20.4792C3.45 20.4792 2.97917 20.2834 2.5875 19.8917C2.19583 19.5001 2 19.0292 2 18.4792V6.47925C2 5.92925 2.19583 5.45841 2.5875 5.06675C2.97917 4.67508 3.45 4.47925 4 4.47925H20C20.55 4.47925 21.0208 4.67508 21.4125 5.06675C21.8042 5.45841 22 5.92925 22 6.47925V18.4792C22 18.8292 21.9167 19.1501 21.75 19.4417C21.5833 19.7334 21.3583 19.9709 21.075 20.1542L15.3 14.3792C15.5333 14.0292 15.7083 13.6542 15.825 13.2542C15.9417 12.8542 16 12.4292 16 11.9792C16 10.7292 15.5625 9.66675 14.6875 8.79175C13.8125 7.91675 12.75 7.47925 11.5 7.47925C10.25 7.47925 9.1875 7.91675 8.3125 8.79175C7.4375 9.66675 7 10.7292 7 11.9792C7 13.2292 7.4375 14.2917 8.3125 15.1667C9.1875 16.0417 10.25 16.4792 11.5 16.4792C11.9333 16.4792 12.3542 16.4209 12.7625 16.3042C13.1708 16.1876 13.55 16.0126 13.9 15.7792L18.6 20.4792H4Z" fill="#FA25A5"/>
</svg>
