<svg width="21" height="20" viewBox="0 0 21 20" fill="none" xmlns="http://www.w3.org/2000/svg">
<path d="M10.4999 18.3332C8.56936 17.8471 6.97561 16.7394 5.71867 15.0103C4.46172 13.2811 3.83325 11.3609 3.83325 9.24984V4.1665L10.4999 1.6665L17.1666 4.1665V9.24984C17.1666 11.3609 16.5381 13.2811 15.2812 15.0103C14.0242 16.7394 12.4305 17.8471 10.4999 18.3332ZM10.4999 16.5832C11.8471 16.1665 12.9721 15.3436 13.8749 14.1144C14.7777 12.8853 15.3055 11.5137 15.4583 9.99984H10.4999V3.43734L5.49992 5.31234V9.62484C5.49992 9.72206 5.51381 9.84706 5.54159 9.99984H10.4999V16.5832Z" fill="#3CB3F6"/>
</svg>
