<svg width="24" height="25" viewBox="0 0 24 25" fill="none" xmlns="http://www.w3.org/2000/svg">
<path d="M6 22.4792C5.45 22.4792 4.97917 22.2834 4.5875 21.8917C4.19583 21.5001 4 21.0292 4 20.4792V10.4792C4 9.92925 4.19583 9.45842 4.5875 9.06675C4.97917 8.67508 5.45 8.47925 6 8.47925H7V6.47925C7 5.09591 7.4875 3.91675 8.4625 2.94175C9.4375 1.96675 10.6167 1.47925 12 1.47925C13.3833 1.47925 14.5625 1.96675 15.5375 2.94175C16.5125 3.91675 17 5.09591 17 6.47925V8.47925H18C18.55 8.47925 19.0208 8.67508 19.4125 9.06675C19.8042 9.45842 20 9.92925 20 10.4792V20.4792C20 21.0292 19.8042 21.5001 19.4125 21.8917C19.0208 22.2834 18.55 22.4792 18 22.4792H6ZM12 17.4792C12.55 17.4792 13.0208 17.2834 13.4125 16.8917C13.8042 16.5001 14 16.0292 14 15.4792C14 14.9292 13.8042 14.4584 13.4125 14.0667C13.0208 13.6751 12.55 13.4792 12 13.4792C11.45 13.4792 10.9792 13.6751 10.5875 14.0667C10.1958 14.4584 10 14.9292 10 15.4792C10 16.0292 10.1958 16.5001 10.5875 16.8917C10.9792 17.2834 11.45 17.4792 12 17.4792ZM9 8.47925H15V6.47925C15 5.64591 14.7083 4.93758 14.125 4.35425C13.5417 3.77091 12.8333 3.47925 12 3.47925C11.1667 3.47925 10.4583 3.77091 9.875 4.35425C9.29167 4.93758 9 5.64591 9 6.47925V8.47925Z" fill="#29C7D1"/>
</svg>
