<svg width="24" height="25" viewBox="0 0 24 25" fill="none" xmlns="http://www.w3.org/2000/svg">
<path d="M0.99999 21.4792L12 2.47925L23 21.4792H0.99999ZM12 18.4792C12.2833 18.4792 12.5208 18.3834 12.7125 18.1917C12.9042 18.0001 13 17.7626 13 17.4792C13 17.1959 12.9042 16.9584 12.7125 16.7667C12.5208 16.5751 12.2833 16.4792 12 16.4792C11.7167 16.4792 11.4792 16.5751 11.2875 16.7667C11.0958 16.9584 11 17.1959 11 17.4792C11 17.7626 11.0958 18.0001 11.2875 18.1917C11.4792 18.3834 11.7167 18.4792 12 18.4792ZM11 15.4792H13V10.4792H11V15.4792Z" fill="#FF6F55"/>
</svg>
