<svg width="24" height="25" viewBox="0 0 24 25" fill="none" xmlns="http://www.w3.org/2000/svg">
<path d="M6.5 11.4792L12 2.47925L17.5 11.4792H6.5ZM17.5 22.4792C16.25 22.4792 15.1875 22.0417 14.3125 21.1667C13.4375 20.2917 13 19.2292 13 17.9792C13 16.7292 13.4375 15.6667 14.3125 14.7917C15.1875 13.9167 16.25 13.4792 17.5 13.4792C18.75 13.4792 19.8125 13.9167 20.6875 14.7917C21.5625 15.6667 22 16.7292 22 17.9792C22 19.2292 21.5625 20.2917 20.6875 21.1667C19.8125 22.0417 18.75 22.4792 17.5 22.4792ZM3 21.9792V13.9792H11V21.9792H3Z" fill="#4FCD44"/>
</svg>
