<svg width="20" height="20" viewBox="0 0 20 20" fill="none" xmlns="http://www.w3.org/2000/svg">
<g clip-path="url(#clip0_90_163)">
<path d="M5 19.1667C4.30556 19.1667 3.71528 18.9236 3.22917 18.4375C2.74306 17.9514 2.5 17.3611 2.5 16.6667C2.5 15.9722 2.74306 15.3819 3.22917 14.8958C3.71528 14.4097 4.30556 14.1667 5 14.1667C5.19444 14.1667 5.375 14.1875 5.54167 14.2292C5.70833 14.2708 5.86806 14.3264 6.02083 14.3958L7.20833 12.9167C6.81944 12.4861 6.54861 12 6.39583 11.4583C6.24306 10.9167 6.20833 10.375 6.29167 9.83333L4.60417 9.27083C4.36806 9.61806 4.06944 9.89583 3.70833 10.1042C3.34722 10.3125 2.94444 10.4167 2.5 10.4167C1.80556 10.4167 1.21528 10.1736 0.729167 9.6875C0.243056 9.20139 0 8.61111 0 7.91667C0 7.22222 0.243056 6.63194 0.729167 6.14583C1.21528 5.65972 1.80556 5.41667 2.5 5.41667C3.19444 5.41667 3.78472 5.65972 4.27083 6.14583C4.75694 6.63194 5 7.22222 5 7.91667V8.08333L6.6875 8.66667C6.96528 8.16667 7.33681 7.74306 7.80208 7.39583C8.26736 7.04861 8.79167 6.82639 9.375 6.72917V4.91667C8.83333 4.76389 8.38542 4.46875 8.03125 4.03125C7.67708 3.59375 7.5 3.08333 7.5 2.5C7.5 1.80556 7.74306 1.21528 8.22917 0.729167C8.71528 0.243056 9.30556 0 10 0C10.6944 0 11.2847 0.243056 11.7708 0.729167C12.2569 1.21528 12.5 1.80556 12.5 2.5C12.5 3.08333 12.3194 3.59375 11.9583 4.03125C11.5972 4.46875 11.1528 4.76389 10.625 4.91667V6.72917C11.2083 6.82639 11.7326 7.04861 12.1979 7.39583C12.6632 7.74306 13.0347 8.16667 13.3125 8.66667L15 8.08333V7.91667C15 7.22222 15.2431 6.63194 15.7292 6.14583C16.2153 5.65972 16.8056 5.41667 17.5 5.41667C18.1944 5.41667 18.7847 5.65972 19.2708 6.14583C19.7569 6.63194 20 7.22222 20 7.91667C20 8.61111 19.7569 9.20139 19.2708 9.6875C18.7847 10.1736 18.1944 10.4167 17.5 10.4167C17.0556 10.4167 16.6493 10.3125 16.2812 10.1042C15.9132 9.89583 15.6181 9.61806 15.3958 9.27083L13.7083 9.83333C13.7917 10.375 13.7569 10.9132 13.6042 11.4479C13.4514 11.9826 13.1806 12.4722 12.7917 12.9167L13.9792 14.375C14.1319 14.3056 14.2917 14.2535 14.4583 14.2188C14.625 14.184 14.8056 14.1667 15 14.1667C15.6944 14.1667 16.2847 14.4097 16.7708 14.8958C17.2569 15.3819 17.5 15.9722 17.5 16.6667C17.5 17.3611 17.2569 17.9514 16.7708 18.4375C16.2847 18.9236 15.6944 19.1667 15 19.1667C14.3056 19.1667 13.7153 18.9236 13.2292 18.4375C12.7431 17.9514 12.5 17.3611 12.5 16.6667C12.5 16.3889 12.5451 16.1215 12.6354 15.8646C12.7257 15.6076 12.8472 15.375 13 15.1667L11.8125 13.6875C11.2431 14.0069 10.6354 14.1667 9.98958 14.1667C9.34375 14.1667 8.73611 14.0069 8.16667 13.6875L7 15.1667C7.15278 15.375 7.27431 15.6076 7.36458 15.8646C7.45486 16.1215 7.5 16.3889 7.5 16.6667C7.5 17.3611 7.25694 17.9514 6.77083 18.4375C6.28472 18.9236 5.69444 19.1667 5 19.1667Z" fill="#868DFF"/>
</g>
<defs>
<clipPath id="clip0_90_163">
<rect width="20" height="20" fill="white"/>
</clipPath>
</defs>
</svg>
