<svg width="20" height="20" viewBox="0 0 20 20" fill="none" xmlns="http://www.w3.org/2000/svg">
<path d="M15.8334 17.5C15.2917 17.5 14.8056 17.3438 14.3751 17.0312C13.9445 16.7188 13.6459 16.3194 13.4792 15.8333H9.16675C8.25008 15.8333 7.46536 15.5069 6.81258 14.8542C6.1598 14.2014 5.83341 13.4167 5.83341 12.5C5.83341 11.5833 6.1598 10.7986 6.81258 10.1458C7.46536 9.49306 8.25008 9.16667 9.16675 9.16667H10.8334C11.2917 9.16667 11.6841 9.00347 12.0105 8.67708C12.3369 8.35069 12.5001 7.95833 12.5001 7.5C12.5001 7.04167 12.3369 6.64931 12.0105 6.32292C11.6841 5.99653 11.2917 5.83333 10.8334 5.83333H6.52092C6.34036 6.31944 6.03828 6.71875 5.61466 7.03125C5.19105 7.34375 4.70841 7.5 4.16675 7.5C3.4723 7.5 2.88203 7.25694 2.39591 6.77083C1.9098 6.28472 1.66675 5.69444 1.66675 5C1.66675 4.30556 1.9098 3.71528 2.39591 3.22917C2.88203 2.74306 3.4723 2.5 4.16675 2.5C4.70841 2.5 5.19105 2.65625 5.61466 2.96875C6.03828 3.28125 6.34036 3.68056 6.52092 4.16667H10.8334C11.7501 4.16667 12.5348 4.49306 13.1876 5.14583C13.8404 5.79861 14.1667 6.58333 14.1667 7.5C14.1667 8.41667 13.8404 9.20139 13.1876 9.85417C12.5348 10.5069 11.7501 10.8333 10.8334 10.8333H9.16675C8.70841 10.8333 8.31605 10.9965 7.98966 11.3229C7.66328 11.6493 7.50008 12.0417 7.50008 12.5C7.50008 12.9583 7.66328 13.3507 7.98966 13.6771C8.31605 14.0035 8.70841 14.1667 9.16675 14.1667H13.4792C13.6598 13.6806 13.9619 13.2812 14.3855 12.9688C14.8091 12.6562 15.2917 12.5 15.8334 12.5C16.5279 12.5 17.1181 12.7431 17.6042 13.2292C18.0904 13.7153 18.3334 14.3056 18.3334 15C18.3334 15.6944 18.0904 16.2847 17.6042 16.7708C17.1181 17.2569 16.5279 17.5 15.8334 17.5ZM4.16675 5.83333C4.40286 5.83333 4.60078 5.75347 4.7605 5.59375C4.92022 5.43403 5.00008 5.23611 5.00008 5C5.00008 4.76389 4.92022 4.56597 4.7605 4.40625C4.60078 4.24653 4.40286 4.16667 4.16675 4.16667C3.93064 4.16667 3.73272 4.24653 3.573 4.40625C3.41328 4.56597 3.33341 4.76389 3.33341 5C3.33341 5.23611 3.41328 5.43403 3.573 5.59375C3.73272 5.75347 3.93064 5.83333 4.16675 5.83333Z" fill="#FF6F55"/>
</svg>
