<svg width="20" height="20" viewBox="0 0 20 20" fill="none" xmlns="http://www.w3.org/2000/svg">
<g id="Vulnerability">
<path id="Union" d="M10.0007 13.3332C10.2368 13.3332 10.4347 13.2533 10.5944 13.0936C10.7541 12.9339 10.834 12.7359 10.834 12.4998C10.834 12.2637 10.7541 12.0658 10.5944 11.9061C10.4347 11.7464 10.2368 11.6665 10.0007 11.6665C9.76454 11.6665 9.56662 11.7464 9.4069 11.9061C9.24718 12.0658 9.16732 12.2637 9.16732 12.4998C9.16732 12.7359 9.24718 12.9339 9.4069 13.0936C9.56662 13.2533 9.76454 13.3332 10.0007 13.3332ZM9.16732 9.99984H10.834V5.83317H9.16732V9.99984ZM10.0007 18.3332C8.0701 17.8471 6.47635 16.7394 5.2194 15.0103C3.96246 13.2811 3.33398 11.3609 3.33398 9.24984V4.1665L10.0007 1.6665L16.6673 4.1665V9.24984C16.6673 11.3609 16.0388 13.2811 14.7819 15.0103C13.525 16.7394 11.9312 17.8471 10.0007 18.3332Z" fill="#FF6F55"/>
</g>
</svg>
