<svg width="20" height="20" viewBox="0 0 20 20" fill="none" xmlns="http://www.w3.org/2000/svg">
<path d="M9.01488 15.5978C9.01643 15.5978 9.01798 15.6024 9.01798 15.6117C9.01953 15.6768 9.02108 15.7403 9.02263 15.8054C9.03193 15.7558 9.04122 15.7062 9.05207 15.6551C9.04432 15.5606 8.96995 15.6086 9.01488 15.5978Z" fill="#FEFEFE"/>
<path d="M13.0428 10.2986C13.0414 10.3 13.0387 10.3 13.0373 10.3013C13.0387 10.3027 13.0414 10.3041 13.0428 10.3055C13.0414 10.3041 13.0428 10.3013 13.0428 10.2986Z" fill="#FEFEFE"/>
<path d="M10.5056 3.79419V3.79555H10.5097C10.5083 3.79555 10.5069 3.79419 10.5056 3.79419Z" fill="#FEFEFE"/>
<path d="M12.6626 16.8575C12.6826 16.6329 12.6718 16.4051 12.6995 16.182C12.7609 15.6908 12.7025 15.1888 12.83 14.7038C12.8929 14.4528 12.6918 14.1584 12.9497 13.9383L12.8852 13.7245C12.8581 13.6689 12.8446 13.6074 12.8459 13.5454C12.8472 13.4833 12.8634 13.4225 12.8929 13.3681C12.8778 12.9374 12.9035 12.5063 12.9697 12.0805C12.9927 11.4886 13.0173 10.8967 13.0403 10.3033C13.0388 10.3017 13.0357 10.3002 13.0342 10.2986C11.7798 10.8797 10.5976 10.0662 10.3965 9.09005C10.2645 8.44857 10.3351 7.84273 10.831 7.3531C10.9139 7.27097 10.9845 7.17646 11.0613 7.08659C11.264 5.86095 11.1227 4.73604 10.0849 3.85904C10.2399 3.76917 10.3796 3.8203 10.5055 3.79706V3.79554C9.23277 3.47325 7.68827 4.35179 7.17701 5.69364C7.01802 6.09016 6.94626 6.5168 6.96668 6.94406C8.22869 6.35371 9.3602 7.05872 9.67187 8.1325C9.99581 9.24967 9.13298 10.4319 7.98611 10.449C7.65772 10.4506 7.33102 10.4014 7.01735 10.3033C7.04038 10.92 7.06392 11.5367 7.08797 12.1534C7.1442 12.5557 7.16833 12.9619 7.16013 13.3682C7.1632 13.4642 7.16627 13.5603 7.16934 13.6564C7.16627 13.7199 7.1632 13.7834 7.16013 13.8485C7.23997 14.2379 7.28772 14.6334 7.30291 15.0307C7.30013 15.0206 7.29808 15.0102 7.29677 14.9998C7.2983 15.0106 7.30138 15.0199 7.30291 15.0307C7.33362 15.7048 7.35204 16.3803 7.39963 17.0543C7.41959 17.3333 7.3198 17.4727 7.06494 17.544C6.76402 17.6292 6.46771 17.7315 6.16986 17.8275C6.56288 17.8774 6.95926 17.895 7.35511 17.8802C7.78038 17.8709 7.97383 17.6803 8.01528 17.2542C8.04138 16.9831 8.06441 16.7119 8.08898 16.4408C8.11661 15.9496 8.14425 15.4569 8.17188 14.9657H8.23176V16.3679C8.23943 16.5802 8.2425 16.794 8.25632 17.0063C8.31773 17.9964 8.3469 17.9902 7.36892 18.1901C7.34653 18.1971 7.32492 18.2065 7.30444 18.218C7.36278 18.2567 7.42112 18.2955 7.47946 18.3358C7.48832 18.3372 7.49676 18.3406 7.50419 18.3457C7.51161 18.3508 7.51785 18.3574 7.52245 18.3652C7.75581 18.3667 7.99072 18.3869 8.22101 18.3652C8.64014 18.3249 8.8382 18.0987 8.8689 17.6788C8.88733 17.4092 8.91496 17.1396 8.93799 16.87C8.91412 16.514 8.94205 16.1564 9.02089 15.8086C9.01936 15.7435 9.01783 15.68 9.01629 15.6149C9.01629 15.6056 9.01322 15.5994 9.01322 15.601C8.96869 15.6118 9.04239 15.5638 9.05006 15.6583C9.05774 15.6164 9.06695 15.5746 9.07463 15.5328V17.1566C9.07923 17.3472 9.08538 17.5362 9.08845 17.7268C9.09612 18.4163 9.05314 18.4783 8.40217 18.6751C8.22254 18.7293 8.03524 18.7619 7.85714 18.8223C7.72818 18.8672 7.5639 18.8424 7.44261 18.9958C7.97229 18.9757 8.46819 19.0361 8.96102 18.9556C9.47074 18.8719 9.67339 18.6643 9.7778 18.1622C9.85456 17.7934 9.8868 17.4138 10.0265 17.0404C10.0423 17.0659 10.0557 17.0929 10.0664 17.121C10.1371 17.4696 10.2077 17.8198 10.2752 18.1684C10.3704 18.6565 10.5669 18.8641 11.0582 18.9509C11.5664 19.0392 12.0807 18.9788 12.6073 18.9912C12.5321 18.861 12.4139 18.8827 12.3187 18.8548C11.9917 18.7588 11.6585 18.6766 11.3377 18.5651C11.1043 18.483 10.9369 18.3327 10.94 18.0429C10.9477 17.2496 10.9431 16.4563 10.9431 15.6629H11.0383C11.0721 16.1603 11.112 16.6561 11.1381 17.1535C11.1979 18.3032 11.333 18.4287 12.4768 18.3652C12.5413 18.2567 12.6995 18.342 12.7593 18.2258C12.4845 18.2242 12.245 18.091 11.9932 18.0057C11.9253 17.9821 11.8671 17.9365 11.8276 17.8759C11.7882 17.8154 11.7697 17.7433 11.7752 17.671C11.7875 16.856 11.7568 16.0379 11.8658 15.226C11.9318 15.9077 11.984 16.5911 12.0362 17.2728C12.0608 17.592 12.2036 17.8415 12.5352 17.8632C12.9835 17.8942 13.4333 17.8709 13.8832 17.8709C13.6493 17.7613 13.4069 17.6712 13.1585 17.6013C12.6089 17.4231 12.6119 17.4216 12.6626 16.8576L12.6626 16.8575ZM9.20514 5.23187C9.20415 5.34087 9.1608 5.44512 9.08443 5.5222C9.00805 5.59928 8.90475 5.64303 8.79675 5.64403C8.55571 5.64868 8.37454 5.50923 8.36994 5.19313C8.37098 5.1389 8.38292 5.08544 8.40503 5.036C8.42715 4.98656 8.45898 4.94217 8.4986 4.90552C8.53822 4.86886 8.58481 4.84071 8.63553 4.82277C8.68625 4.80482 8.74006 4.79746 8.79368 4.80112C9.08078 4.79647 9.20974 4.9917 9.20514 5.23187ZM11.0506 12.0093C11.0521 12.6368 10.5762 13.1838 10.0327 13.1822C9.51988 13.1807 8.99634 12.5702 9.01476 11.9938C8.98713 11.8233 8.95796 11.6513 8.91957 11.4127C9.28651 11.6653 9.5951 11.924 10.0081 11.9333C10.4303 11.9411 10.7619 11.7226 11.1074 11.4669C11.1811 11.6715 10.9953 11.8311 11.0506 12.0093H11.0506Z" fill="#FE733E"/>
<path d="M7.16167 13.3666C7.13096 13.3558 7.10179 13.3418 7.07262 13.331C6.66104 13.1495 6.28187 12.9008 5.95032 12.595C4.7313 11.532 3.9268 10.2011 3.73182 8.5865C3.51074 6.75193 3.91759 5.05836 5.13047 3.60341C6.23742 2.27707 7.64836 1.50388 9.33257 1.32569C11.2041 1.12891 12.8852 1.65728 14.3008 2.96193C15.4564 3.99737 16.1865 5.43166 16.3473 6.98281C16.5132 8.31423 16.2396 9.66371 15.5689 10.8224C14.9441 11.8993 14.1119 12.7732 12.9866 13.3263C12.9559 13.3418 12.9252 13.3573 12.8945 13.3713C12.8645 13.4256 12.8482 13.4864 12.8469 13.5485C12.8455 13.6106 12.8592 13.6721 12.8868 13.7277C12.9108 13.7016 12.9376 13.6782 12.9666 13.6579C14.6662 12.7499 15.8453 11.4003 16.3965 9.52239C16.4441 9.36279 16.5177 9.28377 16.6943 9.30236C16.9338 9.32715 16.9983 9.16601 16.9983 8.96457C16.9998 8.19139 17.0003 7.41872 16.9998 6.64657C16.9998 6.48077 16.9599 6.29794 16.7895 6.27934C16.4763 6.24215 16.4379 6.01128 16.3749 5.78661C16.0284 4.50597 15.2809 3.37272 14.244 2.55597C12.0792 0.840707 9.70256 0.530814 7.20924 1.68982C5.35614 2.54977 4.1755 4.04191 3.64122 6.03918C3.60744 6.16314 3.62279 6.31034 3.41399 6.26695C3.11615 6.20497 3.00407 6.38161 3.00254 6.64812C2.99793 7.42131 3.00101 8.19294 3.00101 8.96613C3.00101 9.22334 3.12997 9.35969 3.37562 9.29926C3.60131 9.24348 3.65504 9.3566 3.7011 9.53014C3.90069 10.2647 4.23445 10.9552 4.68522 11.5661C5.3454 12.4695 6.14989 13.1946 7.1724 13.6564C7.16933 13.5603 7.16626 13.4627 7.16165 13.3666L7.16167 13.3666Z" fill="#B5D2F3"/>
<path d="M7.16323 13.8469C6.936 14.49 6.3311 14.4745 5.81677 14.6356C6.20367 14.7363 6.5967 14.8525 6.9836 14.7859C7.21389 14.7456 7.25841 14.8293 7.29219 14.9672C7.29526 14.978 7.2968 14.9889 7.29987 14.9997C7.3014 15.009 7.30447 15.0199 7.30601 15.0307C7.29082 14.6328 7.24306 14.2369 7.16323 13.8469Z" fill="#FE684B"/>
<path d="M12.8299 14.7054C13.3212 14.9301 13.7849 14.7038 14.2593 14.6388C13.7956 14.4404 13.1953 14.5427 12.9512 13.9399C12.6917 14.16 12.8929 14.4544 12.8299 14.7054Z" fill="#FE6446"/>
<path d="M9.07751 15.5298C9.06976 15.5716 9.06046 15.6135 9.05272 15.6553C9.04342 15.7049 9.03257 15.7545 9.02328 15.8056C8.94371 16.1534 8.91552 16.511 8.93961 16.867C9.05582 16.9274 8.9706 17.087 9.07751 17.1521L9.07751 15.5298Z" fill="#FED6C8"/>
<path d="M8.17571 14.9624C8.14782 15.4536 8.11993 15.9463 8.09204 16.4375C8.14007 16.4127 8.18811 16.3895 8.23614 16.3647V14.9624H8.17571Z" fill="#FEEBE3"/>
<path d="M6.73181 18.3623H7.52402C7.5102 18.353 7.49485 18.3437 7.48103 18.3329C7.42269 18.2941 7.36435 18.2554 7.30601 18.2151C7.10492 18.2106 6.90641 18.2615 6.73181 18.3623Z" fill="#FE9166"/>
<path d="M12.4769 18.3619H13.2476C13.1066 18.2581 12.9334 18.2087 12.7594 18.2225C12.6995 18.3402 12.5398 18.2535 12.4769 18.3619Z" fill="#FE8F64"/>
<path d="M12.9882 13.3249C14.1135 12.7733 14.9441 11.8994 15.5705 10.8209C16.2412 9.66226 16.5148 8.31279 16.3489 6.98136C16.1894 5.42981 15.4591 3.99505 14.3024 2.96049C12.8868 1.65739 11.2057 1.12747 9.33415 1.3258C7.65147 1.50244 6.239 2.27717 5.13205 3.60352C3.91763 5.05847 3.51231 6.75204 3.7334 8.58661C3.92838 10.2027 4.73287 11.5321 5.9519 12.5951C6.28357 12.9008 6.66271 13.1494 7.0742 13.3311C7.10337 13.3435 7.13254 13.3559 7.16324 13.3667C7.17145 12.9605 7.14732 12.5543 7.09109 12.1519C7.06038 12.1302 7.02967 12.1086 6.99897 12.0853C6.6953 11.8483 6.41182 11.586 6.15149 11.3013C6.07012 11.2176 5.96879 11.1463 5.96879 11.01C5.78762 11.1417 5.65712 11.0503 5.55119 10.9046C4.95656 10.1173 4.61044 9.16762 4.55785 8.1791C4.51486 7.2835 4.5947 6.4127 4.96778 5.57444C5.42353 4.539 6.18631 3.67173 7.15096 3.09219C7.31677 2.98992 7.41196 3.08135 7.52711 3.15727C7.58174 3.1551 7.6353 3.14128 7.68426 3.1167C7.73322 3.09213 7.77646 3.05737 7.81114 3.01471L7.79732 2.98218C7.69906 2.773 7.69446 2.53593 7.93089 2.48015C8.16886 2.42282 8.30397 2.61805 8.3055 2.87061C10.0818 2.28182 11.7338 2.52043 13.2246 3.66859C14.3392 4.527 14.9779 5.67825 15.1729 7.08207C15.4247 8.88721 14.8198 10.384 13.5731 11.6499C13.426 11.8022 13.2573 11.9317 13.0726 12.0342C13.0404 12.0512 13.0081 12.0667 12.9759 12.0822C12.9097 12.508 12.884 12.9391 12.8991 13.3698C12.9267 13.3559 12.9559 13.3404 12.9882 13.3249Z" fill="#E2F5FC"/>
<path d="M13.57 11.6513C14.8151 10.3853 15.42 8.88856 15.1698 7.08343C14.9748 5.67806 14.3361 4.5268 13.2215 3.66994C11.7307 2.52179 10.0772 2.28472 8.3024 2.87197C8.29933 2.87349 8.29626 2.87662 8.29319 2.87816C8.15348 2.96803 8.04447 3.16171 7.84335 3.04085C7.83107 3.0331 7.82032 3.02691 7.80804 3.01761C7.77347 3.0604 7.73025 3.09525 7.68127 3.11983C7.63229 3.14441 7.57868 3.15816 7.52401 3.16016C7.5194 3.17875 7.51326 3.1958 7.50712 3.21439C7.37969 3.57542 6.9974 3.66994 6.74101 3.88686C6.0534 4.44994 5.52975 5.19046 5.22567 6.02978C4.73745 7.40261 4.83725 8.74755 5.49128 10.046C5.59987 10.2566 5.72568 10.4577 5.86743 10.6472C5.94469 10.7504 5.97985 10.8796 5.96569 11.0082V11.0129C5.96569 11.1477 6.06702 11.2205 6.14839 11.3042C6.40908 11.5885 6.69254 11.8508 6.99587 12.0882C7.02657 12.1099 7.05728 12.1331 7.08799 12.1548C7.06496 11.5381 7.04142 10.9215 7.01736 10.3048C7.01583 10.3048 7.01583 10.3032 7.01429 10.3032C6.48308 9.95149 6.09311 9.50214 6.02556 8.83277C5.94112 8.00691 6.28503 7.39641 6.95441 6.95172C6.95749 6.95017 6.96056 6.94707 6.96363 6.94552C6.94295 6.51824 7.01472 6.09155 7.17396 5.6951C7.68521 4.3548 9.22972 3.47471 10.5025 3.797C10.5033 3.79689 10.5042 3.79698 10.505 3.79724C10.5057 3.79751 10.5065 3.79794 10.5071 3.79853C11.3515 3.93643 12.0454 4.32534 12.5429 5.03965C12.9442 5.58951 13.1425 6.26369 13.1033 6.9455C13.5823 7.31272 13.9692 7.74347 14.0321 8.38031C14.1166 9.23716 13.7542 9.86315 13.0403 10.3001V10.3078C13.0173 10.8997 12.9927 11.4916 12.9697 12.0851C13.0035 12.0696 13.0357 12.0541 13.0664 12.0371C13.253 11.9354 13.4228 11.8053 13.57 11.6512L13.57 11.6513Z" fill="#CDECF6"/>
<path d="M11.5019 6.87576C12.0285 6.6139 12.5398 6.7549 13.048 6.92379C13.0664 6.92999 13.0863 6.93619 13.1048 6.94238C13.1444 6.26053 12.9461 5.5862 12.5444 5.03654C12.047 4.32223 11.353 3.93331 10.5086 3.79541H10.504C10.3781 3.8202 10.2384 3.76752 10.0833 3.85739C11.1212 4.73439 11.264 5.8593 11.0598 7.08493C11.092 7.06944 11.1227 7.05549 11.1549 7.04C11.2732 6.98577 11.3883 6.93309 11.5019 6.87576Z" fill="#FE6B3C"/>
<path d="M14.0352 8.37896C13.9722 7.74213 13.5853 7.31137 13.1063 6.94415C13.0879 6.93795 13.0679 6.93176 13.0495 6.92556C12.5398 6.75666 12.0301 6.61566 11.5035 6.87752C11.3898 6.93485 11.2732 6.98909 11.158 7.04332C11.1258 7.05881 11.0951 7.07276 11.0628 7.08825C10.9861 7.17657 10.9154 7.27264 10.8325 7.35476C10.3351 7.8444 10.266 8.45024 10.398 9.09171C10.5992 10.0694 11.7813 10.8829 13.0372 10.3034C13.0387 10.3019 13.0418 10.3019 13.0434 10.3003C13.7573 9.8618 14.1211 9.23427 14.0352 8.37896ZM12.1575 10.0911C11.8694 10.0881 11.5887 9.99878 11.351 9.83461C11.1132 9.67045 10.9291 9.43877 10.8219 9.16891C10.7146 8.89906 10.6892 8.60316 10.7487 8.3187C10.8082 8.03423 10.95 7.77398 11.1562 7.57091C11.3624 7.36784 11.6236 7.23108 11.9068 7.17794C12.1901 7.1248 12.4825 7.15767 12.7472 7.2724C13.0119 7.38713 13.237 7.57855 13.3938 7.82242C13.5506 8.0663 13.6323 8.35166 13.6283 8.64237C13.6295 8.83599 13.592 9.02787 13.5181 9.20654C13.4442 9.38521 13.3353 9.547 13.198 9.68224C13.0607 9.81749 12.8978 9.9234 12.719 9.99365C12.5402 10.0639 12.3493 10.0971 12.1575 10.0911Z" fill="#FE6142"/>
<path d="M6.95596 6.94883C6.28657 7.39353 5.94267 8.00402 6.02711 8.82989C6.09467 9.49926 6.48463 9.94861 7.01584 10.3003C7.01737 10.3003 7.01737 10.3019 7.01891 10.3019C7.33256 10.4001 7.65928 10.4492 7.98768 10.4475C9.13301 10.4305 9.99738 9.24979 9.67343 8.13108C9.36177 7.05729 8.22872 6.35228 6.96824 6.94263C6.96386 6.94405 6.95972 6.94614 6.95596 6.94883L6.95596 6.94883ZM7.871 10.0912C7.67827 10.0937 7.48695 10.0577 7.30803 9.98539C7.12911 9.91304 6.96613 9.80571 6.82846 9.66956C6.69079 9.53342 6.58114 9.37115 6.50582 9.1921C6.4305 9.01304 6.391 8.82072 6.38958 8.6262C6.38817 8.43168 6.42486 8.23879 6.49757 8.05864C6.57027 7.87848 6.67754 7.7146 6.81322 7.57643C6.94889 7.43826 7.11029 7.32852 7.28814 7.25352C7.46598 7.17852 7.65676 7.13975 7.84951 7.13942C8.043 7.13565 8.23531 7.17068 8.41529 7.24248C8.59526 7.31427 8.75934 7.4214 8.89799 7.55766C9.03664 7.69392 9.14712 7.85659 9.22303 8.03626C9.29893 8.21592 9.33875 8.409 9.34017 8.60431C9.34159 8.79962 9.30459 8.99327 9.23131 9.17405C9.15803 9.35482 9.04993 9.51911 8.91328 9.65741C8.77662 9.79571 8.61413 9.90527 8.43522 9.97972C8.2563 10.0542 8.06453 10.0921 7.871 10.0912Z" fill="#FE6143"/>
<path d="M9.2082 12.13C9.1514 12.0727 9.10994 11.9952 9.01476 11.9937C8.99633 12.5701 9.51833 13.1805 10.0327 13.1821C10.5777 13.1836 11.0521 12.6367 11.0506 12.0091C10.8448 12.1161 10.7143 12.3361 10.4779 12.4012C10.0066 12.5313 9.5736 12.4988 9.2082 12.13Z" fill="#070909"/>
<path d="M11.1073 11.4671C10.7619 11.7227 10.4318 11.9412 10.0081 11.9335C9.59355 11.9257 9.28649 11.6654 8.91956 11.4128C8.95947 11.6515 8.98711 11.8219 9.01474 11.9939C9.10993 11.997 9.15138 12.0729 9.20819 12.1302C9.57205 12.499 10.0065 12.5316 10.4779 12.4014C10.7143 12.3363 10.8448 12.1179 11.0505 12.0094C10.9953 11.8312 11.181 11.6716 11.1073 11.4671Z" fill="#FDFCFB"/>
<path d="M8.79367 4.80269C8.73993 4.7985 8.68591 4.8055 8.63497 4.82325C8.58402 4.841 8.53723 4.86913 8.4975 4.90588C8.45776 4.94264 8.42594 4.98724 8.404 5.03693C8.38205 5.08661 8.37046 5.14032 8.36993 5.19471C8.37454 5.5108 8.5557 5.64871 8.79675 5.64561C8.90475 5.6446 9.00805 5.60086 9.08442 5.52378C9.16079 5.4467 9.20414 5.34245 9.20513 5.23345C9.20974 4.99173 9.08077 4.7965 8.79367 4.80269Z" fill="#FEA777"/>
<path d="M5.96569 11.0068C5.97985 10.8782 5.94469 10.749 5.86743 10.6457C5.72622 10.4559 5.60043 10.2548 5.49129 10.0445C4.83725 8.74609 4.73592 7.40115 5.22568 6.02832C5.52976 5.189 6.05341 4.44848 6.74102 3.8854C6.99741 3.66848 7.3797 3.57551 7.50713 3.21293C7.51367 3.19516 7.51931 3.17706 7.52402 3.1587C7.40887 3.08278 7.31368 2.99136 7.14787 3.09362C6.18321 3.67317 5.42044 4.54044 4.96468 5.57588C4.5916 6.41414 4.51177 7.28494 4.55476 8.18053C4.60832 9.16886 4.95434 10.1183 5.54809 10.9061C5.65403 11.0517 5.78606 11.1431 5.96569 11.0114L5.96569 11.0068Z" fill="#FDFEFE"/>
<path d="M8.29168 2.87841C8.29475 2.87688 8.29782 2.87376 8.30089 2.87221C8.29782 2.61965 8.16425 2.42442 7.92628 2.48175C7.68985 2.53908 7.69445 2.77615 7.79271 2.98377L7.80653 3.01631C7.81781 3.02479 7.82961 3.03255 7.84184 3.03956C8.04297 3.16196 8.15197 2.96673 8.29168 2.87841L8.29168 2.87841Z" fill="#FBFDFE"/>
<path d="M13.6283 8.64378C13.6336 8.45017 13.6004 8.25746 13.5307 8.07702C13.4609 7.89658 13.356 7.73209 13.2222 7.59327C13.0884 7.45445 12.9283 7.34412 12.7515 7.2688C12.5747 7.19348 12.3847 7.15469 12.1928 7.15474C12.0012 7.15154 11.8108 7.18657 11.6325 7.25784C11.4543 7.3291 11.2918 7.43519 11.1543 7.57001C11.0169 7.70483 10.9071 7.86573 10.8314 8.04347C10.7557 8.22121 10.7156 8.41229 10.7132 8.60574C10.7109 8.79919 10.7465 8.9912 10.8179 9.17074C10.8893 9.35028 10.9951 9.51382 11.1293 9.65197C11.2635 9.79012 11.4234 9.90015 11.5999 9.97576C11.7763 10.0514 11.9658 10.091 12.1575 10.0925C12.3492 10.0982 12.5401 10.0649 12.7187 9.99452C12.8974 9.92417 13.0602 9.81825 13.1975 9.68306C13.3347 9.54787 13.4436 9.38619 13.5176 9.20764C13.5916 9.02909 13.6293 8.83733 13.6283 8.64378ZM12.2297 8.80493C12.1708 8.81083 12.1113 8.80412 12.0552 8.78525C11.999 8.76637 11.9475 8.73575 11.9039 8.69539C11.8603 8.65502 11.8256 8.60583 11.8021 8.55101C11.7786 8.49619 11.7668 8.43699 11.7676 8.37727C11.7637 8.31505 11.7728 8.2527 11.7941 8.19419C11.8155 8.13568 11.8486 8.08229 11.8915 8.03741C11.9344 7.99253 11.9861 7.95714 12.0432 7.93349C12.1004 7.90984 12.1618 7.89845 12.2235 7.90004C12.4938 7.92018 12.6457 8.07978 12.678 8.36488C12.6411 8.61899 12.5122 8.80028 12.2297 8.80493Z" fill="#FEFEFE"/>
<path d="M7.84949 7.1409C7.65674 7.14123 7.46596 7.18001 7.28812 7.255C7.11028 7.33 6.94888 7.43974 6.8132 7.57791C6.67753 7.71608 6.57025 7.87996 6.49755 8.06012C6.42485 8.24027 6.38815 8.43316 6.38957 8.62768C6.39098 8.8222 6.43049 9.01452 6.5058 9.19358C6.58112 9.37263 6.69077 9.5349 6.82844 9.67104C6.96611 9.80719 7.1291 9.91452 7.30801 9.98687C7.48693 10.0592 7.67825 10.0952 7.87098 10.0926C8.06451 10.0935 8.25629 10.0557 8.4352 9.9812C8.61411 9.90675 8.77661 9.79719 8.91326 9.6589C9.04992 9.5206 9.15802 9.3563 9.2313 9.17553C9.30457 8.99476 9.34157 8.8011 9.34015 8.60579C9.33873 8.41048 9.29891 8.2174 9.22301 8.03774C9.14711 7.85807 9.03663 7.6954 8.89797 7.55914C8.75932 7.42288 8.59525 7.31575 8.41527 7.24396C8.23529 7.17216 8.04298 7.13713 7.84949 7.1409ZM7.85102 8.80503C7.79199 8.81049 7.73248 8.8033 7.67639 8.78393C7.62031 8.76456 7.56891 8.73345 7.52557 8.69263C7.48222 8.65182 7.44792 8.60222 7.42489 8.54709C7.40187 8.49196 7.39065 8.43254 7.39197 8.37273C7.3887 8.3104 7.39838 8.24807 7.42039 8.18974C7.4424 8.1314 7.47624 8.07836 7.51976 8.03401C7.56327 7.98965 7.61549 7.95497 7.67307 7.93218C7.73064 7.9094 7.7923 7.89901 7.85409 7.90169C7.97461 7.90335 8.08955 7.95325 8.17362 8.04042C8.25769 8.12759 8.30401 8.24489 8.3024 8.36653C8.26862 8.62839 8.12737 8.80193 7.85102 8.80503Z" fill="#FEFEFE"/>
<path d="M12.2235 7.9001C12.1617 7.89825 12.1001 7.90947 12.0429 7.93303C11.9856 7.95659 11.9338 7.99197 11.8909 8.03691C11.8479 8.08184 11.8148 8.13534 11.7935 8.19396C11.7723 8.25259 11.7634 8.31505 11.7675 8.37734C11.7666 8.43709 11.7783 8.49636 11.8018 8.55124C11.8252 8.60612 11.8599 8.65537 11.9035 8.69576C11.9472 8.73615 11.9988 8.76677 12.055 8.78559C12.1112 8.80442 12.1707 8.81103 12.2296 8.80499C12.5106 8.80034 12.6411 8.61905 12.6779 8.36494C12.6457 8.07984 12.4937 7.92024 12.2235 7.9001Z" fill="#090B0B"/>
<path d="M7.8541 7.90178C7.79231 7.8991 7.73065 7.90949 7.67307 7.93228C7.6155 7.95506 7.56328 7.98974 7.51976 8.0341C7.47625 8.07845 7.4424 8.1315 7.4204 8.18983C7.39839 8.24816 7.38871 8.31049 7.39198 8.37282C7.39066 8.43263 7.40188 8.49205 7.4249 8.54718C7.44792 8.60231 7.48223 8.65191 7.52557 8.69272C7.56891 8.73354 7.62031 8.76465 7.6764 8.78402C7.73248 8.80339 7.79199 8.81058 7.85103 8.80512C8.12738 8.80202 8.26863 8.62848 8.3024 8.36662C8.27631 8.07997 8.11971 7.92347 7.8541 7.90178Z" fill="#090C0C"/>
</svg>
