<svg fill="none" height="40" viewBox="0 0 40 40" width="50" xmlns="http://www.w3.org/2000/svg" xmlns:xlink="http://www.w3.org/1999/xlink"><clipPath id="a"><path d="m0 0h188.868v40h-188.868z"/></clipPath><clipPath id="b"><path d="m0 0h188.868v40h-188.868z"/></clipPath><g clip-path="url(#a)"><g clip-path="url(#b)"><path d="m4.47691 4.44816c5.42755-5.395234 14.23989-5.395234 19.66749 0 5.4276 5.39353 5.4276 14.14124 0 19.53464-5.4276 5.3953-14.23994 5.3953-19.66749 0-5.427547-5.3917-5.427547-14.14111 0-19.53464z" fill="#ffccc5"/><path d="m14.3075 28.3662c-3.6484 0-7.29685-1.3794-10.07442-4.14-2.6891-2.6737-4.17058-6.2269-4.17058-10.0097s1.48148-7.336 4.17058-10.00979c5.55683-5.5211 14.59362-5.5211 20.14882 0 2.6891 2.6721 4.1706 6.22699 4.1706 10.00979 0 3.781-1.4815 7.336-4.1706 10.0097-2.7775 2.7606-6.426 4.14-10.0744 4.14zm-9.59306-23.67643c-2.55985 2.54453-3.969882 5.92763-3.969882 9.52673s1.410032 6.9822 3.969882 9.5267c2.64489 2.6278 6.11986 3.9427 9.59306 3.9427 3.4749 0 6.9482-1.3149 9.5948-3.9427 2.5598-2.5445 3.9698-5.9276 3.9698-9.5267s-1.41-6.9822-3.9698-9.52673c-5.2899-5.257467-13.8981-5.257467-19.18786 0z" fill="#eeb3ab"/><path d="m12.598 16.016c5.4276-5.3952 14.2399-5.3952 19.6674 0 5.4276 5.3934 5.4276 14.1412 0 19.5348-5.4275 5.3952-14.2398 5.3952-19.6674 0-5.42755-5.3936-5.42755-14.1431 0-19.5348z" fill="#ffefb8"/><path d="m22.4325 39.9323c-3.6484 0-7.2968-1.3795-10.0744-4.14-2.68913-2.6738-4.1706-6.227-4.1706-10.0098 0-3.781 1.48147-7.3359 4.1706-10.0097 5.5551-5.5211 14.5937-5.5211 20.1471 0 2.689 2.6721 4.1705 6.227 4.1705 10.0097 0 3.7811-1.4815 7.336-4.1705 10.0098-2.7776 2.7605-6.4261 4.14-10.0744 4.14zm0-27.6191c-3.4749 0-6.9482 1.3148-9.5931 3.9427-2.5598 2.5445-3.96984 5.9275-3.96984 9.5266 0 3.5992 1.41004 6.9822 3.96984 9.5268 2.6449 2.6279 6.1199 3.9426 9.5931 3.9426 3.4749 0 6.9481-1.3147 9.593-3.9426 2.5599-2.5446 3.9698-5.9276 3.9698-9.5268 0-3.5991-1.4099-6.9821-3.9698-9.5266-2.6449-2.6296-6.1198-3.9427-9.593-3.9427z" fill="#e0d19b"/><path d="m20.4457 4.44816c5.4276-5.395234 14.2398-5.395234 19.6674 0 5.4275 5.39353 5.4275 14.14124 0 19.53464-5.4276 5.3953-14.2398 5.3953-19.6674 0-5.4276-5.3934-5.4276-14.14281 0-19.53464z" fill="#c2e9ff"/><path d="m30.2802 28.3662c-3.6485 0-7.297-1.3794-10.0745-4.14-2.6891-2.6737-4.1705-6.2269-4.1705-10.0097s1.4814-7.336 4.1705-10.00979c5.5552-5.5211 14.592-5.5211 20.1471 0 2.6891 2.6721 4.1706 6.22699 4.1706 10.00979s-1.4815 7.336-4.1706 10.0097c-2.7775 2.7606-6.426 4.14-10.0743 4.14zm0-27.619107c-3.4749 0-6.9481 1.314787-9.593 3.942677-2.5599 2.54453-3.97 5.92763-3.97 9.52673s1.4101 6.9822 3.97 9.5267c5.2896 5.2574 13.8979 5.2574 19.1877 0 2.5598-2.5445 3.9698-5.9276 3.9698-9.5267s-1.41-6.9822-3.9698-9.52673c-2.6449-2.62959-6.1198-3.942677-9.593-3.942677z" fill="#a7d1ea"/><g clip-rule="evenodd" fill-rule="evenodd"><path d="m16.074 13.1112c.3352-4.50986 2.7025-8.28879 6.2175-10.62109 3.5538 2.31008 5.9325 6.11089 6.1932 10.47839.2606 4.3674-2.4615 9.2593-6.1515 12.5936-4.1937-2.8055-6.5944-7.941-6.2592-12.4509z" fill="#a183f9"/><path d="m28.4849 12.9695c-.3472 4.8994-2.3709 8.9026-6.1851 12.9773-4.1923 2.8232-9.5663 3.1774-14.05705 1.0802-.35719-4.0309 1.01776-8.1705 4.11675-11.2525 1.1184-1.1119 2.3764-1.9998 3.7179-2.6642 4.5017-1.0412 7.4145-1.3543 12.4075-.1408z" fill="#f084b8"/><path d="m36.6353 26.8864c.3113-3.9853-1.0129-8.0323-4.0899-11.0803-1.1994-1.1925-2.6088-2.1605-4.0592-2.8378-4.8225-1.355-6.9951-1.8996-12.3584.1752-.3112 3.9852 1.1146 7.9646 4.1795 11.0125.6546.6508 1.1457 1.1176 1.993 1.7912 4.2784 2.882 9.7833 3.186 14.335.9392z" fill="#6cdc92"/></g><path d="m22.2979 25.947c4.3481-3.0525 6.1872-7.054 6.1872-12.9784-4.4621-1.7224-8.0202-1.8993-12.4108.1424-.3219 6.0052 2.2135 9.9169 6.2236 12.836z" fill="#35198e"/></g></g></svg>