<svg width="16" height="16" viewBox="0 0 16 16" fill="none" xmlns="http://www.w3.org/2000/svg">
<path d="M6.3335 10.9999L11.0002 7.99986L6.3335 4.99986V10.9999ZM8.00016 14.6665C7.07794 14.6665 6.21127 14.4915 5.40016 14.1415C4.58905 13.7915 3.8835 13.3165 3.2835 12.7165C2.6835 12.1165 2.2085 11.411 1.8585 10.5999C1.5085 9.78875 1.3335 8.92208 1.3335 7.99986C1.3335 7.07763 1.5085 6.21097 1.8585 5.39986C2.2085 4.58875 2.6835 3.88319 3.2835 3.28319C3.8835 2.68319 4.58905 2.20819 5.40016 1.85819C6.21127 1.50819 7.07794 1.33319 8.00016 1.33319C8.92238 1.33319 9.78905 1.50819 10.6002 1.85819C11.4113 2.20819 12.1168 2.68319 12.7168 3.28319C13.3168 3.88319 13.7918 4.58875 14.1418 5.39986C14.4918 6.21097 14.6668 7.07763 14.6668 7.99986C14.6668 8.92208 14.4918 9.78875 14.1418 10.5999C13.7918 11.411 13.3168 12.1165 12.7168 12.7165C12.1168 13.3165 11.4113 13.7915 10.6002 14.1415C9.78905 14.4915 8.92238 14.6665 8.00016 14.6665Z" fill="#3CB3F6"/>
</svg>
