<svg width="20" height="20" viewBox="0 0 20 20" fill="none" xmlns="http://www.w3.org/2000/svg">
<path d="M7.33395 2.4621H12.0685L7.15357 17.0245C7.10306 17.1741 7.00689 17.3042 6.8786 17.3963C6.75031 17.4884 6.59636 17.5379 6.43843 17.538H2.75378C2.63412 17.538 2.51617 17.5095 2.4097 17.4549C2.30323 17.4003 2.21129 17.3211 2.14149 17.2239C2.0717 17.1267 2.02605 17.0143 2.00832 16.8959C1.99059 16.7776 2.00129 16.6567 2.03955 16.5434L6.61862 2.97559C6.66912 2.82589 6.7653 2.6958 6.89363 2.60365C7.02196 2.51149 7.17596 2.4621 7.33395 2.4621Z" fill="url(#paint0_linear_2382_5214)"/>
<path d="M14.2139 12.2292H6.70608C6.63628 12.2292 6.56808 12.2501 6.51035 12.2894C6.45262 12.3286 6.40805 12.3843 6.38245 12.4492C6.35684 12.5142 6.35138 12.5853 6.36678 12.6534C6.38218 12.7215 6.41773 12.7833 6.46879 12.8309L11.2932 17.3338C11.4336 17.4648 11.6186 17.5377 11.8107 17.5377H16.0619L14.2139 12.2292Z" fill="#0078D4"/>
<path d="M7.33409 2.46192C7.17438 2.46131 7.01865 2.51178 6.88966 2.60596C6.76067 2.70014 6.66518 2.8331 6.61712 2.98541L2.04532 16.5308C2.00449 16.6446 1.99168 16.7666 2.00795 16.8864C2.02423 17.0062 2.06912 17.1203 2.13882 17.2191C2.20853 17.3178 2.301 17.3984 2.40841 17.4539C2.51582 17.5093 2.63502 17.5381 2.75592 17.5378H6.53566C6.67644 17.5127 6.80801 17.4506 6.91695 17.3579C7.02588 17.2653 7.10828 17.1454 7.15571 17.0105L8.06742 14.3236L11.324 17.3611C11.4605 17.4739 11.6317 17.5364 11.8088 17.5378H16.0442L14.1866 12.2294L8.77147 12.2307L12.0857 2.46192H7.33409Z" fill="url(#paint1_linear_2382_5214)"/>
<path d="M13.3811 2.97468C13.3307 2.82522 13.2347 2.69535 13.1065 2.60336C12.9784 2.51137 12.8246 2.4619 12.6669 2.46191H7.39032C7.54805 2.46192 7.7018 2.5114 7.82993 2.60339C7.95806 2.69538 8.05411 2.82524 8.10456 2.97468L12.6838 16.543C12.7221 16.6564 12.7328 16.7773 12.7151 16.8957C12.6974 17.014 12.6518 17.1265 12.582 17.2237C12.5122 17.321 12.4202 17.4002 12.3137 17.4548C12.2072 17.5095 12.0893 17.538 11.9696 17.538H17.2463C17.366 17.5379 17.484 17.5094 17.5904 17.4548C17.6969 17.4001 17.7888 17.3209 17.8586 17.2236C17.9284 17.1264 17.974 17.014 17.9917 16.8956C18.0094 16.7773 17.9987 16.6564 17.9604 16.543L13.3811 2.97468Z" fill="url(#paint2_linear_2382_5214)"/>
<defs>
<linearGradient id="paint0_linear_2382_5214" x1="9.05954" y1="3.57927" x2="4.14262" y2="18.1051" gradientUnits="userSpaceOnUse">
<stop stop-color="#114A8B"/>
<stop offset="1" stop-color="#0669BC"/>
</linearGradient>
<linearGradient id="paint1_linear_2382_5214" x1="10.5956" y1="10.3485" x2="9.45825" y2="10.7331" gradientUnits="userSpaceOnUse">
<stop stop-opacity="0.3"/>
<stop offset="0.071" stop-opacity="0.2"/>
<stop offset="0.321" stop-opacity="0.1"/>
<stop offset="0.623" stop-opacity="0.05"/>
<stop offset="1" stop-opacity="0"/>
</linearGradient>
<linearGradient id="paint2_linear_2382_5214" x1="9.96997" y1="3.15542" x2="15.3673" y2="17.5349" gradientUnits="userSpaceOnUse">
<stop stop-color="#3CCBF4"/>
<stop offset="1" stop-color="#2892DF"/>
</linearGradient>
</defs>
</svg>
