<svg width="20" height="20" viewBox="0 0 20 20" fill="none" xmlns="http://www.w3.org/2000/svg">
<path d="M15.6391 7.97522C15.8422 7.8503 16.0316 7.70429 16.2041 7.53962C16.2367 7.50784 16.269 7.47564 16.3008 7.44303C16.4214 7.32007 16.5327 7.18836 16.6338 7.04897C16.7369 6.90724 16.8259 6.75571 16.8993 6.59657C17.0002 6.37944 17.062 6.14626 17.082 5.9077C17.1447 5.0932 16.662 4.2832 15.5858 3.63002L11.2519 1L6.20014 5.8405L2.91101 8.99185L7.47296 11.7605C8.20357 12.2077 9.04273 12.4461 9.89929 12.4498C10.9461 12.4498 11.9493 12.0802 12.6894 11.3707C13.4943 10.5995 13.7614 9.60137 13.2649 8.77172C13.1841 8.63708 13.0883 8.51208 12.9792 8.39913C13.2457 8.45871 13.5178 8.48899 13.7908 8.48942H13.7971C14.2425 8.49021 14.6842 8.40772 15.0993 8.2462C15.2869 8.17208 15.4676 8.0814 15.6391 7.97522ZM11.4153 10.4877C10.6038 11.2653 9.29816 11.3795 8.23534 10.7355L5.07896 8.81957L7.91239 6.10427L11.1221 8.05255C12.2786 8.75365 12.2151 9.72108 11.4153 10.4877ZM11.7904 7.0339L8.82266 5.23217L11.5283 2.6383L14.4423 4.4068C15.532 5.0671 15.6735 5.96102 14.8856 6.71718C14.477 7.10421 13.9518 7.34516 13.3919 7.40245C12.832 7.45974 12.2689 7.33016 11.7904 7.0339ZM13.0448 15.0153C12.2227 15.8028 11.1053 16.2372 9.89929 16.2372C8.94871 16.2334 8.01738 15.969 7.20664 15.4727L2.91101 12.8679V13.9041L7.47296 16.6728C8.20353 17.1201 9.04268 17.3587 9.89929 17.3626C10.9461 17.3626 11.9493 16.9925 12.6894 16.2833C13.2304 15.7651 13.5295 15.1437 13.5161 14.5406V14.4654C13.3776 14.6643 13.2197 14.8491 13.0448 15.0169V15.0153ZM13.0448 13.3769C12.2227 14.1646 11.1053 14.5985 9.89929 14.5985C8.94877 14.5946 8.0175 14.3303 7.20664 13.8344L2.91101 11.23V12.2668L7.47296 15.0354C8.20353 15.4827 9.04268 15.7213 9.89929 15.7252C10.9461 15.7252 11.9493 15.3552 12.6894 14.646C13.2304 14.1277 13.5295 13.5064 13.5161 12.9027V12.828C13.3776 13.0269 13.2197 13.2117 13.0448 13.3795V13.3769ZM13.0448 11.7387C12.2227 12.5267 11.1053 12.9606 9.89929 12.9606C8.94877 12.9568 8.0175 12.6925 7.20664 12.1965L2.91101 9.59253V10.6292L7.47296 13.3979C8.20356 13.8451 9.04272 14.0835 9.89929 14.0873C10.9461 14.0873 11.9493 13.7176 12.6894 13.0086C13.2304 12.4898 13.5295 11.8689 13.5161 11.2653V11.1888C13.3779 11.3884 13.22 11.5736 13.0448 11.7416V11.7387ZM16.5608 12.8199C15.8751 13.4731 14.9778 13.8586 14.0319 13.9062V15.0303C14.8451 14.9852 15.6156 14.6521 16.2054 14.0906C16.7934 13.5286 17.0934 12.9099 17.0875 12.2994V12.2075C16.9333 12.4299 16.7568 12.6361 16.5608 12.8228V12.8199ZM13.0448 16.6514C12.2227 17.4395 11.1053 17.8734 9.89929 17.8734C8.94872 17.8696 8.01739 17.6051 7.20664 17.1089L2.91101 14.5052V15.542L7.47296 18.3102C8.20353 18.7575 9.04268 18.9961 9.89929 19C10.9461 19 11.9493 18.6303 12.6894 17.9208C13.2304 17.4025 13.5295 16.7812 13.5161 16.178V16.1027C13.3778 16.3019 13.2199 16.4867 13.0448 16.6543V16.6514ZM16.6473 7.82402C16.6188 7.85297 16.5906 7.882 16.5612 7.91057C16.4212 8.04238 16.2718 8.16383 16.1142 8.27395C15.9593 8.38387 15.7964 8.48214 15.627 8.56795C15.2795 8.74329 14.9081 8.86658 14.5247 8.93388C14.3283 8.97032 14.1295 8.99238 13.9299 8.99988C13.9505 9.06763 13.968 9.1363 13.9824 9.20568C14.0173 9.37132 14.0334 9.54041 14.0302 9.70967V10.1155H14.0326C14.3975 10.0932 14.7566 10.0145 15.0975 9.8824C15.5094 9.72117 15.8859 9.48116 16.206 9.17583C16.2396 9.14357 16.269 9.11027 16.301 9.07757C16.4217 8.95473 16.533 8.82301 16.6341 8.68353C16.7371 8.54216 16.826 8.39103 16.8996 8.23232C17.0002 8.01447 17.0617 7.78056 17.0811 7.54135C17.0845 7.48968 17.0894 7.43755 17.089 7.38587V7.30105C17.0588 7.3442 17.0273 7.38745 16.9945 7.4308C16.8874 7.56921 16.7713 7.70056 16.6473 7.82402ZM16.6473 11.0972C16.6183 11.1266 16.5923 11.1565 16.5633 11.1854C15.8775 11.8385 14.9802 12.2239 14.0345 12.2718V13.3921C14.8476 13.347 15.6181 13.0138 16.2079 12.4524C16.4966 12.1843 16.7313 11.8635 16.8993 11.5072C17 11.2895 17.0614 11.0557 17.0808 10.8166C17.0844 10.7646 17.0892 10.7129 17.0888 10.6607V10.5688C17.0577 10.6138 17.0274 10.6591 16.9934 10.7036C16.8867 10.8422 16.7711 10.9737 16.6473 11.0972ZM16.6473 9.45895C16.6183 9.48835 16.5923 9.5182 16.5633 9.54715C16.4235 9.67907 16.2743 9.80053 16.1167 9.91053C15.9614 10.0205 15.7981 10.1187 15.6282 10.2045C15.1324 10.456 14.5896 10.6016 14.0345 10.6322V11.7538C14.8475 11.7085 15.618 11.3754 16.2079 10.814C16.2415 10.7817 16.2709 10.7486 16.3029 10.7158C16.4236 10.593 16.5349 10.4612 16.6359 10.3217C16.7383 10.1801 16.8265 10.0287 16.8993 9.8698C17 9.65206 17.0614 9.41828 17.0808 9.1792C17.0844 9.12715 17.0892 9.07495 17.0888 9.02335V8.93095C17.0577 8.97625 17.0274 9.0217 16.9934 9.06618C16.8867 9.20477 16.7711 9.33625 16.6473 9.45977V9.45895Z" fill="black"/>
</svg>
