<svg width="21" height="20" viewBox="0 0 21 20" fill="none" xmlns="http://www.w3.org/2000/svg">
<path d="M2.26777 2.44702C2.26508 2.44702 2.26239 2.44702 2.25969 2.44702C1.96365 2.44702 1.72144 2.68924 1.72144 2.98528C1.72144 3.01488 1.72413 3.0418 1.72951 3.0714L4.01442 16.9423C4.07363 17.2922 4.37774 17.5506 4.7303 17.5533H15.6919C15.9584 17.556 16.1871 17.3622 16.2302 17.1011L18.5151 3.07409C18.5205 3.04449 18.5232 3.01758 18.5232 2.98797C18.5232 2.69193 18.281 2.44971 17.9849 2.44971C17.9822 2.44971 17.9796 2.44971 17.9769 2.44971L2.26777 2.44702ZM11.8891 12.4721H8.39047L7.44313 7.5228H12.7369L11.8891 12.4721Z" fill="#2684FF"/>
<path d="M17.7885 7.52295H12.737L11.8892 12.4722H8.39054L4.2594 17.3758C4.39127 17.4888 4.55813 17.5507 4.73038 17.5534H15.6947C15.9612 17.5561 16.1899 17.3623 16.233 17.1013L17.7885 7.52295Z" fill="url(#paint0_linear_3755_9793)"/>
<defs>
<linearGradient id="paint0_linear_3755_9793" x1="18.9597" y1="8.9151" x2="9.54677" y2="16.2615" gradientUnits="userSpaceOnUse">
<stop stop-color="#0052CC"/>
<stop offset="0.18" stop-color="#0052CC"/>
<stop offset="1" stop-color="#2684FF"/>
</linearGradient>
</defs>
</svg>
