<svg width="20" height="20" viewBox="0 0 20 20" fill="none" xmlns="http://www.w3.org/2000/svg">
<g clip-path="url(#clip0_4029_9855)">
<path fill-rule="evenodd" clip-rule="evenodd" d="M17.19 0.238016C16.887 0.37409 14.7384 2.55771 12.4154 5.09078C10.0924 7.62386 8.06785 9.69399 7.91635 9.69105C7.76485 9.68812 6.7319 8.61182 5.6209 7.29901C3.12088 4.34504 2.94698 4.19997 1.90925 4.19997C0.342284 4.19997 -0.522095 5.8402 0.34228 7.17303C0.518571 7.44482 1.79906 8.63313 3.18772 9.81391C4.57656 10.9945 5.71235 12.0117 5.71198 12.0743C5.71161 12.1369 4.4752 13.2442 2.96479 14.5348C0.0286304 17.0437 -0.184936 17.356 0.111636 18.7063C0.320614 19.6579 1.52214 20.2005 2.71284 19.881C2.93155 19.8224 4.16687 18.5427 5.4582 17.0372C6.74953 15.5318 7.85686 14.3 7.91911 14.3C7.98136 14.3 9.00366 15.4363 10.1911 16.8249C11.3786 18.2138 12.5713 19.4941 12.8418 19.6704C13.6245 20.1803 14.6411 20.0907 15.2759 19.4559C15.7198 19.0121 15.8127 18.7669 15.8127 18.0397C15.8127 17.2113 15.7549 17.1065 14.8132 16.2302C14.2634 15.7185 13.0297 14.6412 12.0713 13.8359C11.1131 13.0307 10.2897 12.2816 10.2415 12.1714C10.1933 12.0611 11.861 10.3947 13.9473 8.46822C20.5219 2.39758 19.8527 3.11761 19.8527 2.11496C19.8527 1.00249 19.614 0.562134 18.8339 0.23618C18.0788 -0.0791235 17.8962 -0.0789401 17.19 0.238016Z" fill="#4096D2"/>
<path fill-rule="evenodd" clip-rule="evenodd" d="M17.1899 0.238016C16.8869 0.37409 14.7384 2.55771 12.4154 5.09078C10.0924 7.62386 8.06782 9.69399 7.91632 9.69105C7.76482 9.68811 6.73187 8.61182 5.62087 7.29901C3.12085 4.34504 2.94695 4.19997 1.90922 4.19997C1.25254 4.19997 0.988829 4.30464 0.556733 4.73673C-0.0345757 5.32804 -0.162013 6.32831 0.257595 7.08305C0.549944 7.60917 5.19814 11.6049 6.24818 12.2329C6.81341 12.5708 7.31418 12.717 7.9009 12.7148C9.27138 12.7098 9.82082 12.3286 13.7868 8.63037C15.046 7.4562 16.6987 5.92706 17.4595 5.23255C19.77 3.12312 19.8527 3.01386 19.8527 2.07309C19.8527 1.00231 19.607 0.559196 18.8339 0.23618C18.0788 -0.0791235 17.8962 -0.0789401 17.1899 0.238016Z" fill="#F05680"/>
</g>
<defs>
<clipPath id="clip0_4029_9855">
<rect width="20" height="20" fill="white"/>
</clipPath>
</defs>
</svg>
