<svg width="21" height="20" viewBox="0 0 21 20" fill="none" xmlns="http://www.w3.org/2000/svg">
<g clip-path="url(#clip0_4029_9855)">
<path fill-rule="evenodd" clip-rule="evenodd" d="M17.69 0.238016C17.387 0.37409 15.2384 2.55771 12.9154 5.09078C10.5924 7.62386 8.56785 9.69399 8.41635 9.69105C8.26485 9.68811 7.2319 8.61182 6.1209 7.29901C3.62088 4.34504 3.44698 4.19997 2.40925 4.19997C0.842284 4.19997 -0.0220953 5.8402 0.84228 7.17303C1.01857 7.44482 2.29906 8.63313 3.68772 9.81391C5.07656 10.9945 6.21235 12.0117 6.21198 12.0743C6.21161 12.1369 4.9752 13.2442 3.46479 14.5348C0.52863 17.0437 0.315064 17.356 0.611636 18.7063C0.820614 19.6579 2.02214 20.2005 3.21284 19.881C3.43155 19.8224 4.66687 18.5427 5.9582 17.0372C7.24953 15.5318 8.35686 14.3 8.41911 14.3C8.48136 14.3 9.50367 15.4363 10.6911 16.8249C11.8786 18.2138 13.0713 19.4941 13.3418 19.6704C14.1245 20.1803 15.1411 20.0907 15.7759 19.4559C16.2198 19.0121 16.3127 18.7669 16.3127 18.0397C16.3127 17.2113 16.2549 17.1065 15.3132 16.2302C14.7634 15.7185 13.5297 14.6412 12.5713 13.8359C11.6131 13.0307 10.7897 12.2816 10.7415 12.1714C10.6933 12.0611 12.361 10.3947 14.4473 8.46822C21.0219 2.39758 20.3527 3.11761 20.3527 2.11496C20.3527 1.00249 20.114 0.562134 19.3339 0.23618C18.5788 -0.0791235 18.3962 -0.0789401 17.69 0.238016Z" fill="#4096D2"/>
<path fill-rule="evenodd" clip-rule="evenodd" d="M17.6899 0.238016C17.3869 0.37409 15.2384 2.55771 12.9154 5.09078C10.5924 7.62386 8.56782 9.69399 8.41632 9.69105C8.26482 9.68811 7.23187 8.61182 6.12087 7.29901C3.62085 4.34504 3.44695 4.19997 2.40922 4.19997C1.75254 4.19997 1.48883 4.30464 1.05673 4.73673C0.465424 5.32804 0.337987 6.32831 0.757595 7.08305C1.04994 7.60917 5.69814 11.6049 6.74818 12.2329C7.31341 12.5708 7.81418 12.717 8.4009 12.7148C9.77138 12.7098 10.3208 12.3286 14.2868 8.63037C15.546 7.4562 17.1987 5.92706 17.9595 5.23255C20.27 3.12312 20.3527 3.01386 20.3527 2.07309C20.3527 1.00231 20.107 0.559196 19.3339 0.23618C18.5788 -0.0791235 18.3962 -0.0789401 17.6899 0.238016Z" fill="#F05680"/>
</g>
<defs>
<clipPath id="clip0_4029_9855">
<rect width="20" height="20" fill="white" transform="translate(0.5)"/>
</clipPath>
</defs>
</svg>
