<svg width="20" height="20" viewBox="0 0 20 20" fill="none" xmlns="http://www.w3.org/2000/svg">
<path d="M9.24935 15.8332H10.7077V14.7915C11.4021 14.6665 11.9993 14.3957 12.4993 13.979C12.9993 13.5623 13.2493 12.9443 13.2493 12.1248C13.2493 11.5415 13.0827 11.0068 12.7493 10.5207C12.416 10.0346 11.7493 9.61095 10.7493 9.24984C9.91602 8.97206 9.33963 8.729 9.02018 8.52067C8.70074 8.31234 8.54102 8.02762 8.54102 7.6665C8.54102 7.30539 8.66949 7.02067 8.92643 6.81234C9.18338 6.604 9.5549 6.49984 10.041 6.49984C10.4855 6.49984 10.8327 6.60748 11.0827 6.82275C11.3327 7.03803 11.5132 7.30539 11.6243 7.62484L12.9577 7.08317C12.8049 6.59706 12.5237 6.17345 12.1139 5.81234C11.7042 5.45123 11.2493 5.24984 10.7493 5.20817V4.1665H9.29102V5.20817C8.59657 5.36095 8.0549 5.6665 7.66602 6.12484C7.27713 6.58317 7.08268 7.09706 7.08268 7.6665C7.08268 8.31928 7.27365 8.84706 7.6556 9.24984C8.03754 9.65262 8.63824 9.99984 9.45768 10.2915C10.3327 10.6109 10.9403 10.8957 11.2806 11.1457C11.6209 11.3957 11.791 11.7221 11.791 12.1248C11.791 12.5832 11.6278 12.92 11.3014 13.1353C10.975 13.3505 10.5827 13.4582 10.1243 13.4582C9.66602 13.4582 9.25977 13.3158 8.9056 13.0311C8.55143 12.7464 8.29102 12.3193 8.12435 11.7498L6.74935 12.2915C6.94379 12.9582 7.24588 13.4964 7.6556 13.9061C8.06532 14.3158 8.59657 14.5971 9.24935 14.7498V15.8332ZM9.99935 18.3332C8.84657 18.3332 7.76324 18.1144 6.74935 17.6769C5.73546 17.2394 4.85352 16.6457 4.10352 15.8957C3.35352 15.1457 2.75977 14.2637 2.32227 13.2498C1.88477 12.2359 1.66602 11.1526 1.66602 9.99984C1.66602 8.84706 1.88477 7.76373 2.32227 6.74984C2.75977 5.73595 3.35352 4.854 4.10352 4.104C4.85352 3.354 5.73546 2.76025 6.74935 2.32275C7.76324 1.88525 8.84657 1.6665 9.99935 1.6665C11.1521 1.6665 12.2355 1.88525 13.2493 2.32275C14.2632 2.76025 15.1452 3.354 15.8952 4.104C16.6452 4.854 17.2389 5.73595 17.6764 6.74984C18.1139 7.76373 18.3327 8.84706 18.3327 9.99984C18.3327 11.1526 18.1139 12.2359 17.6764 13.2498C17.2389 14.2637 16.6452 15.1457 15.8952 15.8957C15.1452 16.6457 14.2632 17.2394 13.2493 17.6769C12.2355 18.1144 11.1521 18.3332 9.99935 18.3332Z" fill="#F6C23C"/>
</svg>
