<svg width="20" height="20" viewBox="0 0 20 20" fill="none" xmlns="http://www.w3.org/2000/svg">
<g id="Cloud">
<path id="Color" d="M5.41732 16.6668C4.15343 16.6668 3.07357 16.2293 2.17773 15.3543C1.2819 14.4793 0.833984 13.4099 0.833984 12.146C0.833984 11.0627 1.16037 10.0974 1.81315 9.25016C2.46593 8.40294 3.3201 7.86127 4.37565 7.62516C4.72287 6.34738 5.41732 5.31266 6.45898 4.521C7.50065 3.72933 8.68121 3.3335 10.0007 3.3335C11.6257 3.3335 13.0041 3.89947 14.1361 5.03141C15.268 6.16336 15.834 7.54183 15.834 9.16683C16.7923 9.27794 17.5875 9.69113 18.2194 10.4064C18.8513 11.1217 19.1673 11.9585 19.1673 12.9168C19.1673 13.9585 18.8027 14.8439 18.0736 15.5731C17.3444 16.3022 16.459 16.6668 15.4173 16.6668H5.41732Z" fill="#868DFF"/>
</g>
</svg>
