<svg xmlns="http://www.w3.org/2000/svg" fill="none" viewBox="0 0 96 96" id="Crossplane-Icon--Streamline-Svg-Logos" height="24" width="24">
  <desc>
    Crossplane Icon Streamline Icon: https://streamlinehq.com
  </desc>
  <path fill="#f7d186" d="M49.6462 39.9394c-2.6628.0045-4.8183 2.1655-4.8161 4.8283v45.4439c-.0015 1.2789.5049 2.5061 1.4081 3.4117.9032.9055 2.1291 1.4151 3.408 1.4167 2.6612 0 4.8182-2.1611 4.8182-4.8284V44.7677c.0022-2.6628-2.1533-4.8238-4.8161-4.8283"></path>
  <path fill="#ff9234" d="M68.9788 33.9829c.0279-.6047.0279-1.2105 0-1.8152-.461-10.2249-8.8788-18.371-19.1942-18.371-10.3155 0-18.7332 8.1461-19.1984 18.371-.0293.6254-.0286 1.2517.0021 1.877-.0063.1605-.0227.319-.0227.4816v31.6193c0 6.0468 4.9355 10.9946 10.9679 10.9946h16.5063c6.0304 0 10.9658-4.9478 10.9658-10.9946V34.5263c0-.1852-.0186-.3622-.0268-.5434Z"></path>
  <mask id="a" width="46" height="74" x="25" y="1" maskUnits="userSpaceOnUse" style="mask-type:luminance">
    <path fill="#ffffff" d="M30.6811 32.1678c-.0271.6254-.0258 1.2517.0041 1.8769-.0082.1606-.0247.3191-.0247.4817v31.6193c0 6.0468 4.9355 10.9946 10.9679 10.9946h16.5063c6.0304 0 10.9679-4.9478 10.9679-10.9946V34.5264c0-.1853-.0206-.3623-.0288-.5434.0299-.6047.0306-1.2105.002-1.8152-.4651-10.2249-8.8829-18.369-19.1963-18.369-10.3154 0-18.7332 8.1441-19.1984 18.3669v.0021Z"></path>
  </mask>
  <g mask="url(#a)">
    <path fill="#ffcd3c" d="m80.6197 32.7708-47.6728 47.786L18.8281 66.403l47.6707-47.786 14.1209 14.1538Z"></path>
  </g>
  <mask id="b" width="46" height="74" x="25" y="1" maskUnits="userSpaceOnUse" style="mask-type:luminance">
    <path fill="#ffffff" d="M30.6811 32.1678c-.0271.6254-.0258 1.2517.0041 1.8769-.0082.1606-.0247.3191-.0247.4817v31.6193c0 6.0468 4.9355 10.9946 10.9679 10.9946h16.5063c6.0304 0 10.9679-4.9478 10.9679-10.9946V34.5264c0-.1853-.0206-.3623-.0288-.5434.0299-.6047.0306-1.2105.002-1.8152-.4651-10.2249-8.8829-18.369-19.1963-18.369-10.3154 0-18.7332 8.1441-19.1984 18.3669v.0021Z"></path>
  </mask>
  <g mask="url(#b)">
    <path fill="#f3807b" d="M66.4555 18.5715 18.7848 66.3576 1.2164 48.7461 48.8831.96l17.5724 17.6115Z"></path>
  </g>
  <mask id="c" width="46" height="74" x="25" y="1" maskUnits="userSpaceOnUse" style="mask-type:luminance">
    <path fill="#ffffff" d="M30.6811 32.1678c-.0271.6254-.0258 1.2517.0041 1.8769-.0082.1606-.0247.3191-.0247.4817v31.6193c0 6.0468 4.9355 10.9946 10.9679 10.9946h16.5063c6.0304 0 10.9679-4.9478 10.9679-10.9946V34.5264c0-.1853-.0206-.3623-.0288-.5434.0299-.6047.0306-1.2105.002-1.8152-.4651-10.2249-8.8829-18.369-19.1963-18.369-10.3154 0-18.7332 8.1441-19.1984 18.3669v.0021Z"></path>
  </mask>
  <g mask="url(#c)">
    <path fill="#35d0ba" d="M94.7836 46.9698 47.1131 94.7537 32.9943 80.5999l47.6707-47.784 14.1186 14.1539Z"></path>
  </g>
  <path fill="#d8ae64" d="m46.1371 77.1936 8.3561 8.3766v-8.4466l-8.3561.07Z"></path>
</svg>