<svg width="20" height="20" viewBox="0 0 20 20" fill="none" xmlns="http://www.w3.org/2000/svg">
<g clip-path="url(#clip0_5108_10488)">
<path d="M7.43353 3.34257C7.22837 4.42768 6.97696 6.03773 6.84019 7.67092C6.60084 10.5481 6.74867 12.478 6.74867 12.478L2.69588 16.3256C2.69588 16.3256 2.38815 14.1675 2.22825 11.7358C2.13673 10.2283 2.10254 8.90385 2.10254 8.10436C2.10254 8.0591 2.12466 8.01284 2.12466 7.96759C2.12466 7.91026 2.19405 7.37324 2.71901 6.87142C3.28921 6.32334 7.50292 3.02277 7.43353 3.34257Z" fill="#1496FF"/>
<path d="M7.43353 3.34231C7.22837 4.42742 6.97696 6.03747 6.84019 7.67066C6.84019 7.67066 2.35395 7.13364 2.10254 8.21874C2.10254 8.16142 2.18199 7.49869 2.70694 6.99687C3.27815 6.44879 7.50292 3.02251 7.43353 3.34231Z" fill="#1284EA"/>
<path d="M2.58224 6.84828C3.74679 5.74105 6.64609 2.98856 7.21731 2.44048C7.74226 1.93866 8.30141 2.00704 8.35873 2.00704C9.14616 2.0523 10.539 2.15487 12.1259 2.34897C14.5465 2.63457 16.6705 3.03482 16.6705 3.03482L12.6167 6.88247C12.6167 6.88247 10.711 6.64312 7.82171 6.73464C6.18953 6.77989 4.56841 6.95085 3.47224 7.09969C3.25502 7.12282 2.719 7.23646 2.38814 7.65883C2.22824 7.87606 2.14779 8.01283 2.10254 8.20692C2.10254 8.1154 2.10254 8.03596 2.10254 7.95651C2.10254 7.91025 2.05628 7.3511 2.58224 6.84828Z" fill="#B4DC00"/>
<path d="M12.8228 17.3312C12.2979 17.8331 11.7377 17.9356 11.6814 17.9356C11.6241 17.9356 11.5326 17.9819 11.4752 17.9819C10.6767 17.9356 9.36335 17.8451 7.879 17.6732C5.45839 17.3996 3.31232 16.9772 3.31232 16.9772L7.36511 13.1175C7.36511 13.1175 9.2829 13.3569 12.1722 13.2654C13.8043 13.209 15.4255 13.026 16.5216 12.8772C16.8414 12.843 13.393 16.7831 12.8228 17.3312Z" fill="#6F2DA8"/>
<path d="M12.7203 17.4338C12.1943 17.9356 11.4521 17.9708 11.3958 17.9708C12.4799 17.7757 12.1722 13.2654 12.1722 13.2654C13.8044 13.209 15.4255 13.026 16.5216 12.8772C16.8414 12.843 13.2905 16.8857 12.7203 17.4338Z" fill="#591F91"/>
<path d="M11.6351 17.9929C11.5557 17.9929 11.4752 17.9818 11.3837 17.9818C11.5899 17.9476 11.7267 17.8792 11.9439 17.7193C12.3773 17.4106 12.5141 16.8736 12.5603 16.6573C12.7544 15.5722 13.0169 13.9622 13.1426 12.329C13.3709 9.45181 13.2331 7.53302 13.2331 7.53302L17.2869 3.67432C17.2869 3.67432 17.5836 5.82039 17.7546 8.25307C17.8571 9.84 17.8913 11.2449 17.9034 12.0213C17.9034 12.0786 17.9487 12.6377 17.4237 13.1406C16.8525 13.6886 13.9532 16.4512 12.7997 17.5594C12.2516 18.0612 11.6925 17.9929 11.6351 17.9929Z" fill="#73BE28"/>
</g>
<defs>
<clipPath id="clip0_5108_10488">
<rect width="15.8089" height="16" fill="white" transform="translate(2.09552 2)"/>
</clipPath>
</defs>
</svg>
