<svg width="20" height="20" viewBox="0 0 20 20" fill="none" xmlns="http://www.w3.org/2000/svg">
<path d="M8.70768 12.9168C9.0549 13.2641 9.4924 13.4272 10.0202 13.4064C10.548 13.3856 10.9299 13.1946 11.166 12.8335L15.8327 5.8335L8.83268 10.5002C8.47157 10.7502 8.27365 11.1286 8.23893 11.6356C8.20421 12.1425 8.36046 12.5696 8.70768 12.9168ZM4.24935 16.6668C3.94379 16.6668 3.66254 16.6009 3.4056 16.4689C3.14865 16.337 2.94379 16.1391 2.79102 15.8752C2.4299 15.2224 2.15213 14.5453 1.95768 13.8439C1.76324 13.1425 1.66602 12.4168 1.66602 11.6668C1.66602 10.5141 1.88477 9.43072 2.32227 8.41683C2.75977 7.40294 3.35352 6.521 4.10352 5.771C4.85352 5.021 5.73546 4.42725 6.74935 3.98975C7.76324 3.55225 8.84657 3.3335 9.99935 3.3335C11.1382 3.3335 12.2077 3.54877 13.2077 3.97933C14.2077 4.40988 15.0827 4.99669 15.8327 5.73975C16.5827 6.4828 17.1799 7.35086 17.6243 8.34391C18.0688 9.33697 18.298 10.4029 18.3118 11.5418C18.3257 12.3057 18.2389 13.0522 18.0514 13.7814C17.8639 14.5106 17.5757 15.2085 17.1868 15.8752C17.0341 16.1391 16.8292 16.337 16.5723 16.4689C16.3153 16.6009 16.0341 16.6668 15.7285 16.6668H4.24935Z" fill="#FA25A5"/>
</svg>
