<svg width="20" height="20" viewBox="0 0 20 20" fill="none" xmlns="http://www.w3.org/2000/svg">
<path d="M9.54776 12.5115L8.58135 9.3166L6.4619 11.5029L5.644 8.74546L11.2087 3C4.72694 3 2.45898 6.01226 3.07902 8.52697L4.3052 13.2517C4.94947 15.4744 2.63171 16.6283 2 16.8957C3.22708 16.932 4.18137 16.8715 5.03651 16.6041C6.67232 16.1545 7.75044 15.0495 9.54731 12.5106L9.54776 12.5115Z" fill="#FF5300"/>
<path opacity="0.85" d="M15.6948 6.65645C15.0505 4.43337 17.3683 3.27943 18 3.01203C16.7734 2.97569 15.8191 3.03626 14.964 3.30366C13.3156 3.75321 12.2375 4.85824 10.4397 7.39673L11.4066 10.5911L13.5256 8.40485L14.3435 11.1623L8.77966 16.8961C15.2614 16.8961 17.5294 13.8838 16.9093 11.3691L15.6948 6.65645Z" fill="#FF5300"/>
</svg>
