<svg width="20" height="20" viewBox="0 0 20 20" fill="none" xmlns="http://www.w3.org/2000/svg">
<path d="M6.72514 15.4523L3.56116 9.95407L6.72514 4.45581H13.0529L16.2169 9.95407L13.0529 15.4523H6.72514Z" fill="#EFEFEF"/>
<path d="M9.99468 12.4638C8.63483 12.4638 7.5285 11.3538 7.5285 9.98947C7.5285 8.62515 8.63483 7.51514 9.99468 7.51514C11.3545 7.51514 12.4608 8.62515 12.4608 9.98947C12.4608 11.3538 11.3545 12.4638 9.99468 12.4638Z" fill="white"/>
<path d="M14.9561 2.6126C14.7622 2.27567 14.2863 2 13.8985 2H6.10154C5.71378 2 5.23783 2.27567 5.04397 2.6126L2.76573 6.57176C2.74785 6.82755 2.79463 7.09473 2.90699 7.28997L4.44916 9.93541L7.20215 5.16357H15.9036C16.1094 5.16357 16.3398 5.24174 16.54 5.36499L14.9561 2.6126Z" fill="#4B8BF5"/>
<path d="M2.86475 6.39844L2.76507 6.57171C2.74716 6.8275 2.79397 7.09468 2.90633 7.28992L4.4485 9.93536L5.26895 8.51323L2.86475 6.39844Z" fill="#4278DF"/>
<path d="M18.8545 9.38745L16.5399 5.36499C16.3397 5.24174 16.1093 5.16357 15.9035 5.16357H12.7657L15.4788 9.96175L11.1833 17.5762C11.0887 17.7404 10.9271 17.8898 10.7415 18H13.8984C14.2862 18 14.7621 17.7243 14.956 17.3874L18.8545 10.6127C19.0485 10.2757 19.0485 9.7244 18.8545 9.38745Z" fill="#DA4538"/>
<path d="M16.6444 5.54541L16.5406 5.36499C16.3405 5.24174 16.1102 5.16357 15.9043 5.16357H12.7665L13.5833 6.608L16.6444 5.54541Z" fill="#B23F33"/>
<path d="M7.26208 14.7607L2.90695 7.28999C2.79459 7.09475 2.7478 6.82756 2.76569 6.57178L1.14541 9.38746C0.951529 9.72441 0.951529 10.2758 1.14541 10.6127L5.04393 17.3875C5.23779 17.7243 5.71374 18 6.1015 18H10.7415C10.9271 17.8898 11.0888 17.7404 11.1833 17.5762L12.7716 14.7607H7.26208Z" fill="#FFCD41"/>
<path d="M10.4777 18.0001H10.7475C10.9332 17.8899 11.0948 17.7405 11.1893 17.5763L12.7776 14.7607H11.0862L10.4777 18.0001Z" fill="#EFB73B"/>
</svg>
