<svg width="20" height="20" viewBox="0 0 20 20" fill="none" xmlns="http://www.w3.org/2000/svg">
<path d="M17.6985 9.28729L10.7127 2.30181C10.3105 1.8994 9.65801 1.8994 9.25543 2.30181L7.80494 3.75264L9.64495 5.59265C10.0726 5.44812 10.563 5.54511 10.9037 5.88605C11.2466 6.22909 11.3427 6.72361 11.1945 7.15284L12.9682 8.92633C13.3974 8.77832 13.8923 8.87409 14.235 9.2173C14.7138 9.69615 14.7138 10.4721 14.235 10.9513C13.7558 11.4303 12.9799 11.4303 12.5005 10.9513C12.1404 10.5908 12.0512 10.0615 12.2339 9.61779L10.5797 7.96375V12.3164C10.6963 12.3742 10.8066 12.4512 10.9037 12.5484C11.3826 13.0272 11.3826 13.8031 10.9037 14.2825C10.4249 14.7612 9.64844 14.7612 9.16993 14.2825C8.69108 13.803 8.69108 13.027 9.16993 12.5484C9.28834 12.4301 9.42538 12.3406 9.57165 12.2807V7.88748C9.42538 7.82758 9.28869 7.73895 9.16993 7.61985C8.80722 7.25731 8.71999 6.72483 8.90595 6.27941L7.09206 4.46517L2.30181 9.25491C1.8994 9.65766 1.8994 10.3101 2.30181 10.7125L9.28799 17.6982C9.69023 18.1006 10.3425 18.1006 10.7453 17.6982L17.6985 10.7449C18.101 10.3425 18.101 9.6897 17.6985 9.28729Z" fill="#F05133"/>
</svg>
