<svg width="20" height="20" viewBox="0 0 20 20" fill="none" xmlns="http://www.w3.org/2000/svg">
<path d="M2 9.88986C2.0073 9.79777 2.01479 9.70591 2.02173 9.61386C2.15924 7.77345 2.81903 6.15691 4.00676 4.77384C5.02747 3.58516 6.2845 2.76984 7.76599 2.32456C8.68211 2.04912 9.61782 1.95121 10.5697 2.0224C12.1975 2.14429 13.6592 2.71768 14.9397 3.75591C16.386 4.9285 17.3314 6.4402 17.7746 8.27892C17.9672 9.07799 18.0363 9.89075 17.9822 10.7118C17.853 12.6689 17.1389 14.3702 15.8398 15.8078C15.0384 16.6947 14.0849 17.359 12.9942 17.8155C12.8692 17.8678 12.7402 17.9103 12.6149 17.962C12.3811 18.0585 12.1627 17.9586 12.0316 17.8036C11.9103 17.6601 11.8444 17.4948 11.8444 17.3025C11.8449 16.4763 11.8453 15.6504 11.8435 14.8243C11.843 14.5988 11.8393 14.3726 11.7824 14.153C11.7564 14.0527 11.7147 13.9568 11.6788 13.855C11.8011 13.8281 11.9288 13.8018 12.0557 13.772C12.8309 13.5887 13.5575 13.2933 14.1866 12.7804C14.9102 12.1903 15.356 11.4283 15.4871 10.4863C15.6134 9.58 15.511 8.70115 15.1277 7.86661C14.9805 7.54634 14.7851 7.25843 14.5512 6.9982C14.5387 6.98447 14.5272 6.97003 14.5242 6.96634C14.8028 6.26816 14.8216 5.57655 14.5495 4.88255C14.5064 4.77255 14.4353 4.6741 14.3781 4.56979C14.3596 4.53592 14.3339 4.52806 14.2972 4.52895C13.6471 4.54321 13.056 4.74677 12.5268 5.12997C12.3419 5.26397 12.178 5.42864 12.0067 5.58184C11.9816 5.60438 11.9646 5.61149 11.9328 5.60015C11.49 5.44166 11.0302 5.37415 10.5651 5.33993C10.1493 5.30935 9.73306 5.311 9.31765 5.35033C8.88801 5.39117 8.46461 5.46362 8.05742 5.61642C8.02606 5.62815 8.00806 5.62504 7.98401 5.59886C7.49719 5.07215 6.91009 4.72681 6.2152 4.58606C6.04528 4.55166 5.86927 4.54837 5.69636 4.52895C5.65588 4.52441 5.63325 4.54144 5.6108 4.57379C5.43362 4.83006 5.33417 5.11771 5.28965 5.42535C5.22892 5.84393 5.25154 6.25776 5.38478 6.66038C5.42129 6.77074 5.47653 6.87465 5.5264 6.98909C5.46974 7.05514 5.40329 7.12927 5.34061 7.20647C4.87853 7.77656 4.60977 8.43337 4.50894 9.16546C4.43055 9.73426 4.44055 10.2998 4.58018 10.8587C4.7918 11.7057 5.25903 12.3726 5.94233 12.8843C6.47241 13.2813 7.06595 13.5393 7.6976 13.7081C7.89745 13.7615 8.10085 13.8016 8.30252 13.8481C8.31212 13.8503 8.32155 13.8536 8.32584 13.8548C8.28811 13.9762 8.23499 14.0928 8.21756 14.2147C8.18512 14.441 8.17123 14.6703 8.15484 14.899C8.15146 14.9464 8.13918 14.9694 8.09588 14.9844C7.78719 15.0915 7.47028 15.1136 7.14879 15.0812C6.852 15.0512 6.57056 14.9678 6.31123 14.8122C6.06544 14.6647 5.87108 14.465 5.71951 14.2178C5.46424 13.8018 5.11186 13.5225 4.63611 13.4231C4.50163 13.3949 4.36697 13.3934 4.23477 13.4366C4.10192 13.48 4.07575 13.563 4.16659 13.6726C4.2179 13.7346 4.27682 13.7937 4.34257 13.8384C4.64784 14.0461 4.85305 14.3396 5.02422 14.6629C5.07895 14.7662 5.13098 14.872 5.17333 14.9811C5.3317 15.388 5.6076 15.6916 5.9589 15.9266C6.40333 16.2238 6.89854 16.3373 7.42257 16.3151C7.66533 16.3049 7.90688 16.2679 8.15289 16.2426C8.15289 16.2654 8.15289 16.3008 8.15289 16.3363C8.15289 16.663 8.15484 16.9897 8.1522 17.3162C8.15038 17.5474 8.05526 17.7366 7.88249 17.8808C7.73692 18.0024 7.57237 18.0314 7.39194 17.9656C5.55703 17.2953 4.13039 16.1072 3.12203 14.396C2.59085 13.4947 2.24991 12.5181 2.09832 11.4751C2.05629 11.1861 2.03919 10.8933 2.01033 10.6023C2.00801 10.5796 2.00356 10.5573 2 10.5348C2 10.3198 2 10.1048 2 9.88986Z" fill="black"/>
</svg>
