<svg width="20" height="20" viewBox="0 0 20 20" fill="none" xmlns="http://www.w3.org/2000/svg">
<path d="M18.7004 8.19188L18.6751 8.12721L16.2252 1.73335C16.1753 1.60803 16.0871 1.50173 15.9731 1.42968C15.859 1.35886 15.7259 1.32475 15.5918 1.33196C15.4577 1.33917 15.3291 1.38734 15.2233 1.46998C15.1186 1.555 15.0427 1.67019 15.0058 1.79989L13.3516 6.86099H6.65313L4.9989 1.79989C4.96303 1.66949 4.88694 1.55371 4.78146 1.46905C4.67563 1.38641 4.54699 1.33823 4.4129 1.33102C4.27882 1.32382 4.14575 1.35793 4.03167 1.42875C3.91792 1.50108 3.82973 1.60729 3.77955 1.73241L1.32492 8.12346L1.30055 8.18813C0.94787 9.10963 0.904337 10.1208 1.17652 11.0692C1.4487 12.0176 2.02183 12.8518 2.80951 13.446L2.81794 13.4526L2.84044 13.4685L6.57253 16.2634L8.4189 17.6608L9.54359 18.51C9.67514 18.6098 9.83578 18.6639 10.001 18.6639C10.1661 18.6639 10.3268 18.6098 10.4583 18.51L11.583 17.6608L13.4294 16.2634L17.184 13.4517L17.1933 13.4442C17.9793 12.8498 18.5511 12.0165 18.8228 11.0694C19.0946 10.1222 19.0516 9.1125 18.7004 8.19188Z" fill="#E24329"/>
<path d="M18.7004 8.1915L18.6751 8.12683C17.4813 8.37187 16.3564 8.87752 15.3807 9.60767L10 13.6762C11.8323 15.0624 13.4275 16.2668 13.4275 16.2668L17.1821 13.455L17.1915 13.4475C17.9785 12.8532 18.5512 12.0193 18.8233 11.0714C19.0955 10.1235 19.0523 9.1128 18.7004 8.1915Z" fill="#FC6D26"/>
<path d="M6.57251 16.2662L8.41888 17.6636L9.54356 18.5128C9.67512 18.6126 9.83576 18.6667 10.0009 18.6667C10.1661 18.6667 10.3268 18.6126 10.4583 18.5128L11.583 17.6636L13.4294 16.2662C13.4294 16.2662 11.8323 15.0581 10 13.6757C8.16769 15.0581 6.57251 16.2662 6.57251 16.2662Z" fill="#FCA326"/>
<path d="M4.61838 9.60812C3.64346 8.87647 2.51878 8.3695 1.32492 8.12354L1.30055 8.18821C0.94787 9.10971 0.904337 10.1209 1.17652 11.0693C1.4487 12.0177 2.02183 12.8519 2.80951 13.4461L2.81794 13.4527L2.84044 13.4686L6.57253 16.2635C6.57253 16.2635 8.16584 15.0591 10 13.6729L4.61838 9.60812Z" fill="#FC6D26"/>
</svg>
