<svg width="20" height="20" viewBox="0 0 20 20" fill="none" xmlns="http://www.w3.org/2000/svg">
<path d="M9.16659 16.6668H5.41659C4.1527 16.6668 3.07284 16.2293 2.177 15.3543C1.28117 14.4793 0.833252 13.4099 0.833252 12.146C0.833252 11.0627 1.15964 10.0974 1.81242 9.25016C2.4652 8.40294 3.31936 7.86127 4.37492 7.62516C4.72214 6.34739 5.41659 5.31266 6.45825 4.521C7.49992 3.72933 8.68047 3.3335 9.99992 3.3335C11.6249 3.3335 13.0034 3.89947 14.1353 5.03141C15.2673 6.16336 15.8333 7.54183 15.8333 9.16683C16.7916 9.27794 17.5867 9.69114 18.2187 10.4064C18.8506 11.1217 19.1666 11.9585 19.1666 12.9168C19.1666 13.9585 18.802 14.8439 18.0728 15.5731C17.3437 16.3022 16.4583 16.6668 15.4166 16.6668H10.8333V10.7085L12.1666 12.0002L13.3333 10.8335L9.99992 7.50016L6.66659 10.8335L7.83325 12.0002L9.16659 10.7085V16.6668Z" fill="#FA25A5"/>
</svg>
