<svg width="20" height="20" viewBox="0 0 20 20" fill="none" xmlns="http://www.w3.org/2000/svg">
<mask id="mask0_24376_2859" style="mask-type:luminance" maskUnits="userSpaceOnUse" x="3" y="1" width="15" height="18">
<path d="M17.5072 1H3.37225V19H17.5072V1Z" fill="white"/>
</mask>
<g mask="url(#mask0_24376_2859)">
<path fill-rule="evenodd" clip-rule="evenodd" d="M8.75388 16.4206V19C5.6646 18.2627 3.37225 15.5448 3.37225 12.3049C3.37225 10.4368 4.1627 8.95483 5.37161 7.50101C6.37407 6.29547 8.84939 3.10286 9.62856 1.34118C9.81772 0.913482 10.3 0.930009 10.508 1.15981C11.1733 1.89494 11.9934 3.50048 12.2616 5.32166C12.3163 5.69273 12.3388 5.9957 12.3567 6.23639C12.395 6.75287 12.4121 6.98249 12.6798 6.98249C13.1006 6.98249 13.3758 6.34453 13.4363 5.68602C13.4751 5.26408 13.8937 5.12284 14.1823 5.26408C15.5706 5.94331 16.9873 9.17648 17.3298 10.7631C17.4372 11.2606 17.5072 11.7748 17.5072 12.3049C17.5072 15.5376 15.2252 18.2506 12.1463 18.995V16.4206H8.75388ZM10.4398 15.3926C11.5254 15.3926 12.4056 14.5595 12.4056 13.5319C12.4056 11.8928 11.197 10.7216 10.5949 10.3656C10.5542 10.3415 10.5339 10.3295 10.4785 10.331C10.438 10.3321 10.3782 10.3574 10.3493 10.3858C10.3098 10.4245 10.2993 10.4686 10.2784 10.5567C10.1716 11.0056 9.8356 11.3258 9.48198 11.6626C8.99467 12.1269 8.47396 12.6229 8.47396 13.5319C8.47396 14.5595 9.35408 15.3926 10.4398 15.3926Z" fill="#F25533"/>
</g>
</svg>
