<svg width="20" height="20" viewBox="0 0 20 20" fill="none" xmlns="http://www.w3.org/2000/svg">
<path fill-rule="evenodd" clip-rule="evenodd" d="M16.3042 9.67457C16.3042 13.2408 13.4817 16.1318 9.99999 16.1318C6.51831 16.1318 3.6958 13.2408 3.6958 9.67457C3.6958 6.10826 6.51831 3.21718 9.99999 3.21718C13.4817 3.21718 16.3042 6.10826 16.3042 9.67457Z" fill="#D33833"/>
<path d="M3.9526 11.2725C3.9526 11.2725 3.49621 4.53859 9.69242 4.34617L9.26015 3.62468L5.89791 4.75504L4.93724 5.8613L4.09669 7.47267L3.61633 9.34854L3.76043 10.5991" fill="#EF3D3A"/>
<path d="M5.68223 5.26903C4.57614 6.40234 3.89168 7.9671 3.89168 9.69817C3.89168 11.4289 4.57614 12.9938 5.68223 14.1269C6.78885 15.2601 8.31393 15.9592 9.99998 15.9592C11.6861 15.9592 13.2113 15.2601 14.3178 14.1269C15.4238 12.9938 16.1084 11.4289 16.1084 9.69817C16.1084 7.9671 15.4238 6.40234 14.3178 5.26903C13.2113 4.13615 11.6861 3.43695 9.99998 3.43681C8.31393 3.43695 6.78885 4.13615 5.68223 5.26903ZM5.40225 14.4011C4.22673 13.1972 3.5 11.5334 3.5 9.69817C3.5 7.86263 4.22673 6.19903 5.40225 4.99508C6.57749 3.79091 8.20432 3.04453 9.99998 3.04475C11.7957 3.04453 13.4227 3.79091 14.5977 4.99508C15.7733 6.19903 16.5001 7.86278 16.5 9.69817C16.5001 11.5334 15.7733 13.1972 14.5977 14.4011C13.4227 15.6052 11.7957 16.3514 9.99998 16.3514C8.20432 16.3514 6.57749 15.6052 5.40225 14.4011Z" fill="black"/>
<path fill-rule="evenodd" clip-rule="evenodd" d="M12.6538 9.70947L11.6931 9.85377L10.3962 9.99807L9.55558 10.0221L8.73907 9.99807L8.11461 9.80565L7.56223 9.20443L7.12993 7.9779L7.03388 7.71333L6.45749 7.52098L6.12126 6.96782L5.8811 6.17418L6.14532 5.47672L6.76969 5.26027L7.27403 5.50082L7.51424 6.02988L7.80244 5.98176L7.89846 5.86156L7.80244 5.30839L7.77837 4.61093L7.92247 3.64897L7.91684 3.09949L8.35476 2.39842L9.12329 1.84525L10.4682 1.26806L11.9572 1.48451L13.2541 2.42244L13.8545 3.3844L14.2388 4.08186L14.3348 5.81344L14.0466 7.30454L13.5183 8.62724L13.0139 9.3247" fill="#F0D6B7"/>
<path fill-rule="evenodd" clip-rule="evenodd" d="M11.8373 13.8705L8.40291 14.0148V14.592L8.6911 16.6121L8.547 16.7805L6.14542 15.9628L5.97726 15.6742L5.73711 12.9566L5.18482 11.3212L5.0647 10.9365L6.98594 9.61376L7.5864 9.37321L8.11471 10.0226L8.57101 10.4314L9.09941 10.5997L9.33954 10.6719L9.62773 11.9224L9.84388 12.187L10.3963 11.9946L10.012 12.7402L12.1014 13.7262L11.8373 13.8705Z" fill="#335061"/>
<path fill-rule="evenodd" clip-rule="evenodd" d="M6.14543 5.4765L6.7698 5.26005L7.27414 5.5006L7.51435 6.02966L7.80254 5.98154L7.87459 5.69295L7.7305 5.13985L7.87459 3.81708L7.75447 3.09559L8.18676 2.59055L9.1234 1.84503L8.85921 1.48429L7.53833 2.13363L6.98595 2.56652L6.67375 3.23988L6.19341 3.88922L6.04932 4.65884L6.14543 5.4765Z" fill="#6D6B6D"/>
<path fill-rule="evenodd" clip-rule="evenodd" d="M7.12996 3.21567C7.12996 3.21567 7.4902 2.32586 8.93117 1.89297C10.3721 1.46007 9.00322 1.58027 9.00322 1.58027L7.44222 2.18156L6.84177 2.78278L6.57764 3.26379L7.12996 3.21567Z" fill="#DCD9D8"/>
<path fill-rule="evenodd" clip-rule="evenodd" d="M6.40931 5.30787C6.40931 5.30787 5.90498 3.62435 7.82628 3.38388L7.75423 3.09528L6.43338 3.40798L6.04907 4.65853L6.14518 5.4762L6.40931 5.30787Z" fill="#DCD9D8"/>
<path fill-rule="evenodd" clip-rule="evenodd" d="M7.17798 7.54512L7.49243 7.24C7.49243 7.24 7.63436 7.25653 7.65834 7.42485C7.68232 7.59324 7.75437 9.10837 8.78705 9.9261C8.88125 10.0007 8.01858 9.80576 8.01858 9.80576L7.25003 8.60333" fill="#F7E4CD"/>
<path fill-rule="evenodd" clip-rule="evenodd" d="M11.5971 7.08875C11.5971 7.08875 11.6531 6.35975 11.8492 6.41581C12.0452 6.47187 12.0452 6.66819 12.0452 6.66819C12.0452 6.66819 11.5691 6.97663 11.5971 7.08875Z" fill="#F7E4CD"/>
<path d="M13.5902 4.41803C13.5902 4.41803 13.1944 4.50173 13.1579 4.85093C13.1214 5.2002 13.5902 4.92307 13.6622 4.89905" fill="#F7E4CD"/>
<path d="M10.6844 4.44343C10.6844 4.44343 10.156 4.51558 10.156 4.85222C10.156 5.18894 10.7565 5.16492 10.9246 5.02062" fill="#F7E4CD"/>
<path fill-rule="evenodd" clip-rule="evenodd" d="M7.41818 6.00636C7.41818 6.00636 6.50553 5.4532 6.4095 5.98234C6.31345 6.51141 6.09724 6.89625 6.5536 7.44934L6.2414 7.35317L5.9532 6.60765L5.85718 5.88616L6.4095 5.3089L7.03393 5.35702L7.39417 5.64562L7.41818 6.00636Z" fill="#F7E4CD"/>
<path fill-rule="evenodd" clip-rule="evenodd" d="M7.85033 4.49146C7.85033 4.49146 8.25862 2.37511 10.324 1.96625C12.0245 1.62967 12.9177 2.03839 13.254 2.42316C13.254 2.42316 11.741 0.619516 10.3 1.17261C8.85901 1.72577 7.80235 2.73586 7.82633 3.38512C7.86722 4.49102 7.85033 4.49146 7.85033 4.49146Z" fill="#F7E4CD"/>
<path fill-rule="evenodd" clip-rule="evenodd" d="M13.4224 2.66376C13.4224 2.66376 12.726 2.63973 12.7019 3.26505C12.7019 3.26505 12.7018 3.36122 12.7499 3.4574C12.7499 3.4574 13.3024 2.83208 13.6385 3.1688" fill="#F7E4CD"/>
<path fill-rule="evenodd" clip-rule="evenodd" d="M10.3726 3.52138C10.3726 3.52138 10.2527 2.56158 9.43553 3.11958C8.90719 3.48033 8.95526 3.98537 9.05129 4.08154C9.14734 4.17779 9.12122 4.37151 9.19435 4.23854C9.26743 4.10557 9.24337 3.67268 9.50758 3.55248C9.77177 3.4322 10.2048 3.29786 10.3726 3.52138Z" fill="#F7E4CD"/>
<path fill-rule="evenodd" clip-rule="evenodd" d="M8.11471 10.0214L5.85723 11.0315C5.85723 11.0315 6.79386 14.7592 6.3135 15.9136L5.97726 15.7934L5.95326 14.3744L5.32891 11.6809L5.0647 10.9353L7.41823 9.3481L8.11471 10.0214Z" fill="#49728B"/>
<path fill-rule="evenodd" clip-rule="evenodd" d="M8.34663 12.0831L8.66691 12.4744V13.9174H8.2826C8.2826 13.9174 8.23462 12.9073 8.23462 12.787C8.23462 12.6667 8.2826 12.2338 8.2826 12.2338" fill="#49728B"/>
<path fill-rule="evenodd" clip-rule="evenodd" d="M8.35478 14.1342L7.27405 14.1822L7.58631 14.3987L8.35478 14.5189" fill="#49728B"/>
<path fill-rule="evenodd" clip-rule="evenodd" d="M12.0535 13.895L12.942 13.8709L13.1582 16.0835L12.2455 16.2037L12.0535 13.895Z" fill="#335061"/>
<path fill-rule="evenodd" clip-rule="evenodd" d="M12.2937 13.8945L13.6386 13.8224C13.6386 13.8224 14.191 12.4275 14.191 12.3554C14.191 12.2832 14.6713 10.3352 14.6713 10.3352L13.5906 9.20493L13.3744 9.01251L12.798 9.5897V11.8263L12.2937 13.8945Z" fill="#335061"/>
<path fill-rule="evenodd" clip-rule="evenodd" d="M12.894 13.7257L12.0535 13.894L12.1735 14.5675C12.4857 14.7118 13.0141 14.3269 13.0141 14.3269" fill="#49728B"/>
<path fill-rule="evenodd" clip-rule="evenodd" d="M12.918 9.51702L14.5991 10.7676L14.6471 10.1904L13.3743 9.01198L12.918 9.51702Z" fill="#49728B"/>
<path fill-rule="evenodd" clip-rule="evenodd" d="M9.18825 18.6329L8.69103 16.6125L8.44373 15.1217L8.40283 14.0151L10.6533 13.8951L12.0533 13.8949L11.926 16.4204L12.1422 18.3684L12.1182 18.7291L10.293 18.8734L9.18825 18.6329Z" fill="white"/>
<path fill-rule="evenodd" clip-rule="evenodd" d="M11.7413 13.8696C11.7413 13.8696 11.6212 16.3708 11.9815 18.1505C11.9815 18.1505 11.261 18.6075 10.2042 18.7277L12.2216 18.6555L12.4617 18.5112L12.1736 14.5671L12.1015 13.7253" fill="#DCD9D8"/>
<path fill-rule="evenodd" clip-rule="evenodd" d="M13.1992 15.8907L14.1358 15.6262L15.913 15.53L16.1772 14.7123L15.6968 13.2934L15.1445 13.2212L14.376 13.4617L13.6386 13.8222L13.2472 13.7503L12.9421 13.8703" fill="white"/>
<path fill-rule="evenodd" clip-rule="evenodd" d="M13.1824 15.4085C13.1824 15.4085 13.8067 15.12 13.9029 15.144L13.6387 13.8213L13.9509 13.7011C13.9509 13.7011 14.1671 14.9516 14.1671 15.0959C14.1671 15.0959 15.5119 15.168 15.632 15.168C15.632 15.168 15.9202 14.6149 15.8482 14.0377L16.1124 14.8073L16.1364 15.2402L15.7521 15.8174L15.3198 15.9136L14.5994 15.8895L14.3592 15.5769L13.5186 15.6971L13.2544 15.7934" fill="#DCD9D8"/>
<path d="M12.2382 13.7014L11.7099 12.3546L11.1575 11.561C11.1575 11.561 11.2775 11.2243 11.4457 11.2243C11.6138 11.2243 11.9981 11.2243 11.9981 11.2243L12.5264 11.4167L12.4784 12.3065L12.2382 13.7014Z" fill="white"/>
<path fill-rule="evenodd" clip-rule="evenodd" d="M12.3418 13.2443C12.3418 13.2443 11.6693 11.9457 11.6693 11.7533C11.6693 11.7533 11.7893 11.4647 11.9575 11.5368C12.1256 11.609 12.4859 11.8013 12.4859 11.8013V11.3444L11.6693 11.176L11.1169 11.2482L12.0536 13.4608L12.2457 13.4849" fill="#DCD9D8"/>
<path d="M9.40453 10.0709L8.7392 9.9985L8.11475 9.80608V10.0225L8.41986 10.3595L9.38049 10.7924" fill="white"/>
<path fill-rule="evenodd" clip-rule="evenodd" d="M8.33084 10.1425C8.33084 10.1425 9.07539 10.4552 9.31554 10.3831L9.33943 10.6714L8.6671 10.5274L8.25879 10.2388L8.33084 10.1425Z" fill="#DCD9D8"/>
<path fill-rule="evenodd" clip-rule="evenodd" d="M13.1964 11.3059C12.7889 11.2939 12.4207 11.2454 12.0983 11.1544C12.1202 11.0221 12.0792 10.8922 12.1122 10.7969C12.202 10.7321 12.3526 10.7331 12.4884 10.7179C12.371 10.6601 12.206 10.6372 12.0705 10.6706C12.0673 10.5788 12.0261 10.5219 12.0012 10.45C12.2303 10.3681 12.7712 9.83126 13.0755 10.009C13.2204 10.0936 13.282 10.5766 13.2933 10.8114C13.3026 11.0062 13.2756 11.2027 13.1964 11.3059Z" fill="#D33833"/>
<path d="M13.1964 11.3059C12.7889 11.2939 12.4207 11.2454 12.0983 11.1544C12.1202 11.0221 12.0792 10.8922 12.1122 10.7969C12.202 10.7321 12.3526 10.7331 12.4884 10.7179C12.371 10.6601 12.206 10.6372 12.0705 10.6706C12.0673 10.5788 12.0261 10.5219 12.0012 10.45C12.2303 10.3681 12.7712 9.83126 13.0755 10.009C13.2204 10.0936 13.282 10.5766 13.2933 10.8114C13.3026 11.0062 13.2756 11.2027 13.1964 11.3059Z" stroke="#D33833" stroke-width="0.136005"/>
<path fill-rule="evenodd" clip-rule="evenodd" d="M11.2479 10.6391C11.2469 10.67 11.2456 10.7011 11.2443 10.7323C11.1171 10.816 10.9117 10.815 10.7721 10.8853C10.9779 10.8943 11.1399 10.944 11.2801 11.014C11.277 11.0917 11.2741 11.1694 11.2711 11.2472C11.0378 11.4071 10.8248 11.6452 10.5502 11.7951C10.4204 11.866 9.96472 12.0485 9.82659 12.0162C9.74844 11.9981 9.7414 11.9009 9.71016 11.8094C9.6436 11.6134 9.49036 11.3013 9.47699 11.0062C9.45997 10.6335 9.42239 10.0088 9.8235 10.0856C10.1471 10.1474 10.5235 10.2967 10.774 10.4338C10.9271 10.5176 11.0157 10.6212 11.2479 10.6391Z" fill="#D33833"/>
<path d="M11.2479 10.6391C11.2469 10.67 11.2456 10.7011 11.2443 10.7323C11.1171 10.816 10.9117 10.815 10.7721 10.8853C10.9779 10.8943 11.1399 10.944 11.2801 11.014C11.277 11.0917 11.2741 11.1694 11.2711 11.2472C11.0378 11.4071 10.8248 11.6452 10.5502 11.7951C10.4204 11.866 9.96472 12.0485 9.82659 12.0162C9.74844 11.9981 9.7414 11.9009 9.71016 11.8094C9.6436 11.6134 9.49036 11.3013 9.47699 11.0062C9.45997 10.6335 9.42239 10.0088 9.8235 10.0856C10.1471 10.1474 10.5235 10.2967 10.774 10.4338C10.9271 10.5176 11.0157 10.6212 11.2479 10.6391V10.6391Z" stroke="#D33833" stroke-width="0.136005"/>
<path fill-rule="evenodd" clip-rule="evenodd" d="M11.4794 11.0844C11.4438 10.8814 11.4026 10.8235 11.4186 10.6463C11.9593 10.2853 12.0608 11.2665 11.4794 11.0844Z" fill="#D33833"/>
<path d="M11.4794 11.0844C11.4438 10.8814 11.4026 10.8235 11.4186 10.6463C11.9593 10.2853 12.0608 11.2665 11.4794 11.0844Z" stroke="#D33833" stroke-width="0.136005"/>
<path fill-rule="evenodd" clip-rule="evenodd" d="M12.2624 11.2496C12.2624 11.2496 12.0942 11.0091 12.2143 10.9369C12.3344 10.8648 12.4546 10.937 12.5266 10.8167C12.5986 10.6965 12.5266 10.6243 12.5506 10.48C12.5746 10.3357 12.6948 10.3116 12.8148 10.2876C12.9348 10.2636 13.2711 10.2155 13.3191 10.3357L13.175 9.90283L12.8868 9.80666L11.9742 10.3357L11.9261 10.6003V11.1294" fill="#EF3D3A"/>
<path fill-rule="evenodd" clip-rule="evenodd" d="M9.74068 12.0428C9.71183 11.6675 9.6813 11.2927 9.64733 10.9178C9.5965 10.3579 9.78163 10.4556 10.2663 10.4556C10.3403 10.4556 10.722 10.5439 10.7493 10.5999C10.8803 10.8678 10.5303 10.8082 10.9002 11.0102C11.2125 11.1807 11.7641 10.9067 11.6379 10.5277C11.5673 10.4434 11.27 10.5015 11.1635 10.4461C10.9759 10.3487 10.7883 10.2513 10.6006 10.1539C10.3619 10.0299 9.81019 9.84908 9.55569 10.0224C8.91082 10.4616 9.59639 11.5589 9.82643 12.017" fill="#EF3D3A"/>
<path fill-rule="evenodd" clip-rule="evenodd" d="M10.3728 3.52088C9.7182 3.36821 9.39295 3.79519 9.19453 4.23804C9.01736 4.19504 9.08786 3.95377 9.13261 3.83083C9.24978 3.50818 9.72195 3.07868 10.1077 3.1369C10.2738 3.16194 10.4984 3.31395 10.3728 3.52088Z" fill="black"/>
<path fill-rule="evenodd" clip-rule="evenodd" d="M13.562 4.26838C13.5723 4.26881 13.5828 4.26917 13.5931 4.26961C13.741 4.57732 13.869 4.90329 14.0556 5.17493C13.9306 5.46649 13.109 5.72449 13.1217 5.20098C13.2994 5.1232 13.6061 5.18511 13.7636 5.08576C13.6725 4.83547 13.5411 4.62242 13.562 4.26838Z" fill="black"/>
<path fill-rule="evenodd" clip-rule="evenodd" d="M10.7079 4.27565C10.8482 4.5333 10.8939 4.804 11.0934 4.99873C11.1832 5.08639 11.358 5.19324 11.2714 5.43703C11.2511 5.49454 11.1032 5.62274 11.0178 5.64792C10.7059 5.74013 9.97915 5.66697 10.2253 5.27758C10.4832 5.28963 10.8299 5.44533 11.0227 5.25781C10.8747 5.02081 10.6107 4.55191 10.7079 4.27565Z" fill="black"/>
<path fill-rule="evenodd" clip-rule="evenodd" d="M13.445 6.89454C12.9754 7.19663 12.4517 7.52512 11.6822 7.44894C11.5178 7.30579 11.4551 6.98725 11.6149 6.77687C11.698 6.92001 11.6458 7.18328 11.8775 7.22289C12.3141 7.29771 12.8223 6.95544 13.1363 6.83581C13.3311 6.50703 13.1195 6.38611 12.9441 6.1745C12.5849 5.74096 12.1031 5.20359 12.1206 4.55454C12.2658 4.44913 12.2784 4.71543 12.2992 4.76392C12.4867 5.20345 12.9587 5.76556 13.3032 6.14174C13.3878 6.23438 13.527 6.32327 13.5425 6.38452C13.5872 6.56266 13.4263 6.77607 13.445 6.89454Z" fill="black"/>
<path fill-rule="evenodd" clip-rule="evenodd" d="M7.25382 6.57789C7.10663 6.49377 7.07159 6.12321 6.89878 6.11268C6.65182 6.09767 6.69685 6.59341 6.69784 6.8833C6.52785 6.72876 6.49795 6.25294 6.62283 6.00857C6.48051 5.93858 6.41696 6.08577 6.33801 6.13764C6.43947 5.39956 7.41621 5.7953 7.25382 6.57789Z" fill="black"/>
<path fill-rule="evenodd" clip-rule="evenodd" d="M13.7438 7.20219C13.5253 7.61885 13.216 8.07772 12.5746 8.09106C12.5615 7.95651 12.5515 7.75175 12.5753 7.67073C13.0657 7.62354 13.3684 7.37362 13.7438 7.20219Z" fill="black"/>
<path fill-rule="evenodd" clip-rule="evenodd" d="M10.6709 7.473C11.08 7.68844 11.8319 7.7116 12.388 7.69529C12.4178 7.8173 12.4171 7.96801 12.4182 8.11679C11.7035 8.1525 10.8583 7.97537 10.6709 7.473Z" fill="black"/>
<path fill-rule="evenodd" clip-rule="evenodd" d="M10.5932 7.87443C10.8761 8.58575 11.8484 8.50386 12.6684 8.48423C12.6323 8.57659 12.5541 8.68567 12.4568 8.72514C12.1941 8.83221 11.4693 8.91345 11.1045 8.71944C10.8732 8.59628 10.7245 8.318 10.5978 8.15488C10.5366 8.07609 10.2318 7.87487 10.5932 7.87443Z" fill="black"/>
<path fill-rule="evenodd" clip-rule="evenodd" d="M13.4105 11.7969C13.0785 12.3663 12.7608 12.9511 12.3669 13.4534C12.5321 12.9672 12.6028 12.1534 12.6277 11.533C12.9732 11.3711 13.269 11.5694 13.4105 11.7969Z" fill="#81B0C4"/>
<path fill-rule="evenodd" clip-rule="evenodd" d="M15.1972 13.8447C14.8255 13.9192 14.5643 14.2809 14.2017 14.2577C14.4009 13.9764 14.7502 13.8578 15.1972 13.8447Z" fill="black"/>
<path fill-rule="evenodd" clip-rule="evenodd" d="M15.361 14.426C15.058 14.4582 14.7022 14.5075 14.3949 14.4821C14.5404 14.2585 15.1008 14.3357 15.361 14.426Z" fill="black"/>
<path fill-rule="evenodd" clip-rule="evenodd" d="M15.466 14.9295C15.1255 14.9369 14.7023 14.93 14.3787 14.9027C14.5701 14.6958 15.2452 14.8259 15.466 14.9295Z" fill="black"/>
<path fill-rule="evenodd" clip-rule="evenodd" d="M12.7699 16.3034C12.8188 16.7316 12.9883 17.1655 12.9671 17.6345C12.7788 17.698 12.6706 17.7536 12.4184 17.7533C12.4006 17.3547 12.3474 16.7454 12.3633 16.3655C12.4874 16.3737 12.6703 16.2768 12.7699 16.3034Z" fill="#DCD9D8"/>
<path fill-rule="evenodd" clip-rule="evenodd" d="M12.2213 9.99262C12.0503 10.1044 11.9047 10.2439 11.7405 10.3632C11.3764 10.3813 11.1777 10.338 10.9102 10.1286C10.9146 10.1118 10.9414 10.1193 10.9424 10.0987C11.3322 10.2726 11.8277 10.0278 12.2213 9.99262Z" fill="#F0D6B7"/>
<path fill-rule="evenodd" clip-rule="evenodd" d="M10.1748 12.6532C10.2819 12.1885 10.7015 11.9478 11.0826 11.6919C11.4759 12.1918 11.7151 12.8346 11.9785 13.455C11.3561 13.2671 10.7202 12.9623 10.1748 12.6532Z" fill="#81B0C4"/>
<path fill-rule="evenodd" clip-rule="evenodd" d="M12.3634 16.3654C12.3475 16.7453 12.4007 17.3546 12.4185 17.7532C12.6708 17.7535 12.7789 17.6979 12.9672 17.6343C12.9884 17.1654 12.8189 16.7315 12.7701 16.3033C12.6704 16.2767 12.4875 16.3736 12.3634 16.3654ZM8.43576 14.2046C8.60209 15.7358 8.843 17.023 9.28486 18.3789C10.2655 18.6771 11.4478 18.7031 12.3146 18.434C12.1554 17.6688 12.2249 16.7371 12.1319 15.9204C12.0618 15.3066 12.0976 14.689 12.0014 14.0627C10.9511 13.8439 9.46653 14.0115 8.43576 14.2046ZM12.2498 14.0723C12.2409 14.7299 12.2792 15.3786 12.3293 16.0371C12.5815 15.9992 12.7526 15.9738 12.9869 15.9224C12.9108 15.2885 12.9202 14.5752 12.7652 14.0145C12.5861 14.0162 12.4284 14.0124 12.2498 14.0723ZM13.529 13.9663C13.4093 13.9388 13.27 13.9652 13.1557 13.9675C13.2094 14.5035 13.3398 15.0951 13.3857 15.6578C13.5656 15.6634 13.6617 15.5784 13.8097 15.5498C13.8176 15.0559 13.7666 14.3754 13.529 13.9663ZM15.466 15.7385C15.841 15.6473 16.0768 15.1873 15.9719 14.715C15.9015 14.3975 15.7761 13.7998 15.642 13.5967C15.5428 13.4465 15.274 13.2498 15.0594 13.3875C14.7103 13.6113 14.0952 13.6763 13.8406 13.9473C13.9682 14.373 14.0079 14.9577 14.0605 15.4971C14.4967 15.5243 15.0334 15.3769 15.3962 15.5333C15.1429 15.6155 14.8143 15.6161 14.5955 15.7358C14.7743 15.8223 15.193 15.8049 15.466 15.7385ZM11.9786 13.4547C11.7152 12.8344 11.476 12.1915 11.0827 11.6917C10.7016 11.9476 10.282 12.1883 10.1749 12.653C10.7204 12.962 11.3563 13.2668 11.9786 13.4547ZM12.6279 11.5337C12.603 12.1541 12.5323 12.9679 12.3672 13.4541C12.7611 12.9519 13.0787 12.3671 13.4107 11.7976C13.2692 11.5702 12.9734 11.3718 12.6279 11.5337ZM11.8919 11.2718C11.7427 11.2557 11.616 11.4436 11.422 11.3624C11.3775 11.4116 11.3371 11.4649 11.2918 11.513C11.7203 12.0301 11.9151 12.7639 12.2461 13.3716C12.4237 12.7878 12.4032 12.1482 12.4423 11.511C12.1983 11.5265 12.0629 11.29 11.8919 11.2718ZM11.4186 10.6463C11.4027 10.8234 11.4438 10.8814 11.4794 11.0844C12.0608 11.2664 11.9593 10.2853 11.4186 10.6463ZM10.7738 10.4343C10.5233 10.2973 10.1469 10.148 9.82331 10.0861C9.42221 10.0093 9.45978 10.634 9.4768 11.0068C9.49017 11.3019 9.64342 11.6139 9.70997 11.8099C9.74121 11.9015 9.74825 11.9986 9.82641 12.0168C9.96454 12.049 10.4202 11.8666 10.55 11.7956C10.8246 11.6457 11.0377 11.4076 11.2709 11.2477C11.2739 11.17 11.2769 11.0923 11.28 11.0145C11.1397 10.9445 10.9777 10.8949 10.7719 10.8858C10.9115 10.8155 11.1169 10.8165 11.2441 10.7328C11.2454 10.7016 11.2467 10.6705 11.2477 10.6397C11.0155 10.6218 10.9269 10.5182 10.7738 10.4343ZM8.38082 9.99906C8.17289 10.2105 8.96402 10.4986 9.21591 10.5141C9.2145 10.3804 9.29204 10.2543 9.27642 10.1583C8.97725 10.1057 8.58408 10.1404 8.38082 9.99906ZM10.9423 10.0983C10.9413 10.119 10.9144 10.1115 10.91 10.1283C11.1775 10.3377 11.3762 10.3809 11.7403 10.3629C11.9045 10.2436 12.0502 10.104 12.2211 9.99228C11.8275 10.0275 11.332 10.2723 10.9423 10.0983ZM13.2934 10.8123C13.2821 10.5774 13.2205 10.0944 13.0755 10.0099C12.7713 9.83204 12.2304 10.369 12.0013 10.4509C12.0262 10.5227 12.0674 10.5796 12.0705 10.6715C12.2061 10.6381 12.3711 10.661 12.4885 10.7187C12.3527 10.734 12.2021 10.733 12.1123 10.7977C12.0793 10.8931 12.1203 11.0229 12.0984 11.1552C12.4208 11.2463 12.7889 11.2948 13.1964 11.3068C13.2757 11.2036 13.3027 11.0071 13.2934 10.8123ZM8.03077 10.2035C7.96547 10.1569 7.52376 9.58139 7.46324 9.60527C6.66396 9.92092 5.91659 10.4667 5.24874 10.983C5.8855 12.3512 6.14254 14.0275 6.18796 15.6432C6.91739 15.9848 7.55809 16.4773 8.54791 16.5287C8.43337 15.7172 8.32881 14.9932 8.2638 14.2291C8.01509 14.1242 7.65828 14.2339 7.42553 14.1966C7.42356 13.9157 7.78099 14.0736 7.81076 13.8847C7.8332 13.7419 7.6141 13.731 7.68544 13.5061C7.86739 13.5723 7.96294 13.7186 8.15699 13.7735C8.3343 13.3851 8.15451 12.6978 8.18007 12.3731C8.18491 12.3122 8.21046 12.0354 8.34682 12.084C8.46751 12.1269 8.33993 12.82 8.35316 13.1273C8.3652 13.4104 8.31901 13.6843 8.43351 13.8621C9.38998 13.7317 10.3619 13.6474 11.3968 13.619C11.1691 13.5212 10.8987 13.4286 10.6021 13.2612C10.4414 13.1704 9.93465 12.9816 9.88827 12.8287C9.81425 12.5851 10.0825 12.4553 10.1283 12.2464C9.64553 12.5101 9.55133 11.9937 9.43712 11.6278C9.33364 11.2964 9.27473 11.0489 9.24934 10.8578C8.83343 10.6592 8.38876 10.4581 8.03077 10.2035ZM12.8709 9.6749C13.5369 9.35152 13.6569 10.8835 13.3959 11.377C13.4362 11.5241 13.575 11.5805 13.6316 11.7128C13.26 12.3795 12.8472 13.0017 12.468 13.6605C12.7501 13.4847 13.153 13.6291 13.4849 13.4975C13.6063 13.4494 13.6941 13.1713 13.7859 12.9488C14.0386 12.3366 14.3039 11.5648 14.4219 10.9806C14.4486 10.8475 14.5212 10.5575 14.5049 10.439C14.4759 10.2269 14.1885 10.0696 14.0423 9.93846C13.773 9.69618 13.6034 9.48298 13.3225 9.25643C13.2085 9.42483 12.9641 9.53796 12.8709 9.6749ZM6.50776 3.761C6.19043 4.11063 6.25686 4.76575 6.29527 5.23183C6.86884 4.87051 7.63014 5.2604 7.62296 5.87496C7.8968 5.86767 7.72526 5.53247 7.67573 5.31653C7.51385 4.6112 7.94845 3.84491 7.69543 3.1999C7.20418 3.2372 6.80059 3.43813 6.50776 3.761ZM8.77827 1.73174C8.0599 1.93564 7.13922 2.45835 6.84402 3.10459C7.0726 3.07133 7.23128 2.95589 7.45677 2.94161C7.54199 2.93605 7.65364 2.97739 7.75158 2.95301C7.94676 2.90452 8.11148 2.46629 8.25873 2.30323C8.40227 2.144 8.57479 2.07597 8.69285 1.9308C8.7687 1.89415 8.88085 1.89668 8.88516 1.78261C8.85229 1.7474 8.81767 1.72056 8.77827 1.73174ZM12.5178 1.92351C11.7722 1.50224 10.5101 1.18536 9.71696 1.58131C9.07696 1.90086 8.21187 2.42957 7.91692 3.09954C8.19245 3.74607 7.83531 4.33848 7.81251 4.99489C7.80041 5.34416 7.97673 5.64906 7.99024 6.02929C7.89596 6.18506 7.6079 6.20425 7.4085 6.19357C7.34138 5.85721 7.22388 5.47915 6.87799 5.4412C6.38857 5.3876 6.03072 5.79322 6.00848 6.21709C5.98217 6.71557 6.39082 7.54174 6.97002 7.48439C7.19377 7.46224 7.24873 7.23764 7.49252 7.23995C7.62465 7.50394 7.2887 7.58684 7.25414 7.77565C7.24513 7.82442 7.282 8.01504 7.30344 8.10443C7.40864 8.53971 7.64317 9.10304 7.87401 9.43442C8.16698 9.85476 8.74259 9.91811 9.36184 9.95931C9.47244 9.72071 9.87988 9.74034 10.1454 9.80274C9.8272 9.67656 9.5314 9.37064 9.28626 9.09987C9.00468 8.7892 8.71945 8.45594 8.70504 8.04989C9.23716 8.78913 9.67677 9.43471 10.6444 9.75989C11.3765 10.0058 12.2316 9.64719 12.7941 9.2516C13.0276 9.08717 13.1669 8.82628 13.3328 8.58747C13.9537 7.69318 14.2434 6.41673 14.1797 5.17952C14.1535 4.66928 14.1546 4.16078 13.9836 3.81749C13.805 3.45855 13.2006 3.13742 12.8469 3.46209C12.7813 3.11303 13.141 2.89716 13.5636 3.02277C13.2623 2.63339 12.9461 2.1655 12.5178 1.92351ZM13.907 13.4361C14.4896 13.146 15.5783 12.6554 15.9436 13.4372C16.0784 13.7253 16.2365 14.2125 16.3063 14.51C16.405 14.9296 16.1994 15.8117 15.7686 15.9526C15.3882 16.0769 14.9442 16.0694 14.4859 15.9772C14.4319 15.9322 14.3718 15.8539 14.3298 15.7722C14.0026 15.7595 13.6962 15.7898 13.4377 15.9245C13.4622 16.1668 13.2985 16.2057 13.145 16.2557C13.0312 16.7074 13.3726 17.2973 13.2909 17.7092C13.2326 18.0026 12.8721 18.048 12.6071 18.1029C12.5984 18.266 12.6187 18.4021 12.6368 18.54C12.5762 18.7636 12.3044 18.8909 12.0469 18.9221C11.1997 19.0241 9.91332 19.0699 9.09841 18.7765C8.87101 18.2179 8.69186 17.5385 8.50246 16.9007C7.70767 16.9857 7.06487 16.5573 6.45887 16.2767C6.24906 16.1793 5.95881 16.1256 5.88043 15.9584C5.80444 15.7964 5.83554 15.4861 5.81668 15.193C5.7687 14.4443 5.72761 13.7222 5.53017 12.9556C5.44153 12.6116 5.28701 12.308 5.17922 11.9766C5.07959 11.6694 4.90552 11.2897 4.86012 10.9834C4.79281 10.5294 5.21975 10.5041 5.49274 10.3074C5.91476 10.0031 6.24602 9.83485 6.70307 9.56025C6.83845 9.47894 7.24668 9.2731 7.29311 9.1783C7.38542 8.99035 7.13467 8.72534 7.06762 8.57802C6.96158 8.34505 6.90627 8.14715 6.89108 7.91728C6.50767 7.8566 6.21703 7.62811 6.04147 7.37046C5.75105 6.94406 5.54965 6.15519 5.80092 5.55513C5.82062 5.50787 5.9189 5.41494 5.93339 5.34236C5.96199 5.19943 5.87958 5.00939 5.87446 4.85737C5.84806 4.07745 6.00623 3.40545 6.53055 3.17025C6.74341 2.32113 7.50523 2.03881 8.22299 1.61681C8.49129 1.45909 8.78705 1.3583 9.0925 1.24575C10.1882 0.84193 11.8694 0.917976 12.7788 1.60671C13.1644 1.89877 13.7808 2.51542 14.0012 2.96188C14.5835 4.14058 14.5422 6.11045 14.1349 7.54427C14.0801 7.73676 14.0007 8.01973 13.8898 8.25097C13.8125 8.41244 13.5723 8.73552 13.6014 8.87808C13.6315 9.02548 14.1493 9.4192 14.2603 9.52641C14.4602 9.71956 14.8401 9.9759 14.8709 10.2196C14.9039 10.479 14.7567 10.8338 14.6822 11.0841C14.4329 11.9194 14.1896 12.6914 13.907 13.4361Z" fill="black"/>
<path fill-rule="evenodd" clip-rule="evenodd" d="M10.02 7.65467C10.0516 7.61254 10.2254 7.54854 10.4685 7.66578C10.4685 7.66578 10.1803 7.71391 10.2043 8.19507L10.0842 8.17097C10.0842 8.17097 9.96012 7.73469 10.02 7.65467Z" fill="#F7E4CD"/>
<path fill-rule="evenodd" clip-rule="evenodd" d="M12.1253 11.7892C12.1253 11.8622 12.0661 11.9214 11.9931 11.9214C11.9202 11.9214 11.8611 11.8622 11.8611 11.7892C11.8611 11.7161 11.9202 11.6568 11.9931 11.6568C12.0661 11.6568 12.1253 11.7161 12.1253 11.7892Z" fill="#1D1919"/>
<path fill-rule="evenodd" clip-rule="evenodd" d="M12.2575 12.4032C12.2575 12.4762 12.1983 12.5354 12.1254 12.5354C12.0524 12.5354 11.9933 12.4762 11.9933 12.4032C11.9933 12.3301 12.0524 12.2708 12.1254 12.2708C12.1983 12.2708 12.2575 12.3301 12.2575 12.4032Z" fill="#1D1919"/>
</svg>
