<svg width="20" height="20" viewBox="0 0 20 20" fill="none" xmlns="http://www.w3.org/2000/svg">
<path d="M19.4444 9.44018L10.835 0.833929L10.0007 0L3.51974 6.47857L0.556141 9.44018C0.408111 9.58892 0.325012 9.79019 0.325012 10C0.325012 10.2098 0.408111 10.4111 0.556141 10.5598L6.47709 16.4786L10.0007 20L16.4808 13.5214L16.5817 13.4214L19.4444 10.5643C19.5186 10.4907 19.5775 10.4031 19.6177 10.3066C19.6578 10.2102 19.6785 10.1067 19.6785 10.0022C19.6785 9.89774 19.6578 9.79428 19.6177 9.69782C19.5775 9.60136 19.5186 9.51379 19.4444 9.44018ZM10.0007 12.9571L7.04248 10L10.0007 7.04286L12.9581 10L10.0007 12.9571Z" fill="#2684FF"/>
<path d="M10.0008 7.04268C9.07043 6.11287 8.54596 4.85281 8.54194 3.53772C8.53792 2.22263 9.05468 0.959393 9.97935 0.0239258L3.50641 6.49179L7.02915 10.0132L10.0008 7.04268Z" fill="url(#paint0_linear_3115_8519)"/>
<path d="M12.9661 9.99219L10.0007 12.9574C10.9346 13.8912 11.4592 15.1575 11.4592 16.4779C11.4592 17.7983 10.9346 19.0646 10.0007 19.9984L16.4915 13.5136L12.9661 9.99219Z" fill="url(#paint1_linear_3115_8519)"/>
<defs>
<linearGradient id="paint0_linear_3115_8519" x1="9.47113" y1="4.05071" x2="5.34166" y2="8.18082" gradientUnits="userSpaceOnUse">
<stop offset="0.18" stop-color="#0052CC"/>
<stop offset="1" stop-color="#2684FF"/>
</linearGradient>
<linearGradient id="paint1_linear_3115_8519" x1="754.172" y1="868.228" x2="1175.9" y2="1141.73" gradientUnits="userSpaceOnUse">
<stop offset="0.18" stop-color="#0052CC"/>
<stop offset="1" stop-color="#2684FF"/>
</linearGradient>
</defs>
</svg>
