<svg width="20" height="20" viewBox="0 0 20 20" fill="none" xmlns="http://www.w3.org/2000/svg">
<path d="M9.9376 1.26155C9.77848 1.26957 9.62257 1.30902 9.47902 1.3776L3.22133 4.36758C3.05937 4.44493 2.91706 4.55748 2.80497 4.69686C2.69288 4.83625 2.61389 4.99889 2.57388 5.1727L1.03006 11.889C0.994415 12.0437 0.990425 12.204 1.01833 12.3603C1.04624 12.5166 1.10547 12.6657 1.19253 12.7989C1.21364 12.8315 1.23634 12.863 1.26056 12.8934L5.59188 18.2787C5.70399 18.4181 5.84632 18.5306 6.00828 18.6079C6.17025 18.6852 6.3477 18.7253 6.52745 18.7253L13.4734 18.7237C13.6531 18.7238 13.8305 18.6838 13.9925 18.6066C14.1544 18.5295 14.2968 18.4171 14.409 18.2779L18.7387 12.8918C18.8509 12.7524 18.9299 12.5896 18.97 12.4158C19.01 12.2419 19.01 12.0613 18.97 11.8874L17.4238 5.1711C17.3838 4.99729 17.3048 4.83465 17.1927 4.69526C17.0806 4.55588 16.9383 4.44333 16.7763 4.36598L10.5178 1.3776C10.3373 1.29133 10.1378 1.25143 9.9376 1.26155Z" fill="#326CE5"/>
<path d="M9.99973 3.54712C9.79287 3.54714 9.62515 3.73346 9.62518 3.96328C9.62518 3.96681 9.6259 3.97018 9.62598 3.97369C9.62567 4.00492 9.62416 4.04254 9.62518 4.06973C9.63011 4.20229 9.65901 4.30374 9.6764 4.42587C9.70791 4.68726 9.73431 4.90394 9.71801 5.10534C9.70217 5.18128 9.64623 5.25074 9.59637 5.29902L9.58756 5.45748C9.36279 5.4761 9.13651 5.5102 8.91049 5.56152C7.93796 5.78234 7.10062 6.28329 6.46312 6.95968C6.42175 6.93145 6.34939 6.87954 6.32787 6.86364C6.26099 6.87267 6.19341 6.8933 6.10538 6.84203C5.93776 6.7292 5.7851 6.57346 5.60038 6.38585C5.51574 6.2961 5.45444 6.21065 5.35388 6.12414C5.33104 6.1045 5.29619 6.07793 5.27065 6.05772C5.19203 5.99503 5.0993 5.96234 5.00974 5.95928C4.8946 5.95534 4.78376 6.00035 4.71122 6.09133C4.58227 6.25307 4.62356 6.50027 4.80326 6.64355C4.80508 6.645 4.80703 6.64613 4.80886 6.64755C4.83356 6.66757 4.8638 6.69322 4.88649 6.70998C4.99321 6.78877 5.09069 6.8291 5.19702 6.89165C5.42103 7.02999 5.60674 7.1447 5.75404 7.283C5.81156 7.34432 5.82161 7.45236 5.82927 7.49909L5.94932 7.60633C5.30667 8.57347 5.00925 9.76807 5.18501 10.9853L5.02815 11.0309C4.98681 11.0843 4.92839 11.1683 4.86729 11.1934C4.67457 11.2541 4.45767 11.2763 4.19582 11.3038C4.07288 11.314 3.96681 11.3079 3.83648 11.3326C3.80779 11.338 3.76782 11.3485 3.73644 11.3558C3.73535 11.3561 3.73433 11.3564 3.73323 11.3566C3.73152 11.357 3.72928 11.3578 3.72763 11.3582C3.50687 11.4116 3.36505 11.6145 3.41071 11.8144C3.45637 12.0144 3.67201 12.136 3.8941 12.0881C3.8957 12.0877 3.89803 12.0877 3.8997 12.0873C3.90221 12.0867 3.90442 12.0855 3.9069 12.0849C3.93786 12.0781 3.97666 12.0706 4.00374 12.0633C4.13188 12.029 4.22468 11.9786 4.33988 11.9345C4.5877 11.8456 4.79296 11.7713 4.99294 11.7424C5.07645 11.7358 5.16445 11.7939 5.20822 11.8184L5.37149 11.7904C5.74719 12.9552 6.53455 13.8967 7.53154 14.4875L7.46352 14.6507C7.48804 14.7141 7.51508 14.7999 7.49682 14.8625C7.42412 15.051 7.29959 15.25 7.1578 15.4719C7.08914 15.5743 7.01887 15.6539 6.95692 15.7712C6.94209 15.7992 6.92321 15.8424 6.9089 15.872C6.81263 16.078 6.88324 16.3152 7.06816 16.4042C7.25424 16.4938 7.48521 16.3993 7.58517 16.1929C7.58532 16.1927 7.58582 16.1924 7.58596 16.1921C7.58607 16.1919 7.58586 16.1916 7.58596 16.1913C7.6002 16.1621 7.62037 16.1236 7.63238 16.0961C7.68545 15.9745 7.70311 15.8704 7.74043 15.7528C7.83953 15.5038 7.89398 15.2426 8.0304 15.0799C8.06776 15.0353 8.12866 15.0182 8.1918 15.0013L8.27664 14.8476C9.1458 15.1812 10.1187 15.2708 11.0906 15.0501C11.3123 14.9998 11.5263 14.9346 11.7332 14.8564C11.7571 14.8987 11.8014 14.98 11.8132 15.0005C11.8774 15.0213 11.9475 15.0321 12.0045 15.1165C12.1066 15.2909 12.1764 15.4972 12.2614 15.7464C12.2987 15.8639 12.3172 15.9681 12.3703 16.0897C12.3824 16.1174 12.4024 16.1564 12.4167 16.1857C12.5164 16.3928 12.7481 16.4876 12.9345 16.3978C13.1194 16.3088 13.1901 16.0716 13.0938 15.8656C13.0794 15.836 13.0598 15.7928 13.0449 15.7648C12.983 15.6475 12.9127 15.5687 12.8441 15.4663C12.7022 15.2444 12.5846 15.0601 12.5119 14.8716C12.4815 14.7744 12.517 14.7139 12.5407 14.6507C12.5265 14.6345 12.4962 14.5427 12.4783 14.4995C13.5144 13.8877 14.2787 12.9111 14.6376 11.7832C14.686 11.7908 14.7703 11.8057 14.7976 11.8112C14.854 11.7741 14.9058 11.7256 15.0073 11.7336C15.2073 11.7625 15.4125 11.8368 15.6604 11.9257C15.7756 11.9698 15.8684 12.021 15.9965 12.0553C16.0236 12.0626 16.0624 12.0693 16.0933 12.0761C16.0958 12.0767 16.098 12.0779 16.1005 12.0785C16.1022 12.0789 16.1045 12.0789 16.1061 12.0793C16.3282 12.1271 16.5439 12.0056 16.5895 11.8056C16.6351 11.6057 16.4934 11.4027 16.2726 11.3494C16.2405 11.3421 16.195 11.3297 16.1638 11.3238C16.0334 11.2991 15.9274 11.3052 15.8044 11.295C15.5426 11.2676 15.3257 11.2452 15.133 11.1846C15.0544 11.1541 14.9985 11.0606 14.9713 11.0221L14.82 10.9781C14.8985 10.4107 14.8773 9.8202 14.7416 9.22938C14.6046 8.63305 14.3626 8.08765 14.0397 7.60713C14.0785 7.57186 14.1518 7.50697 14.1726 7.48789C14.1787 7.42068 14.1734 7.35022 14.243 7.2758C14.3903 7.13749 14.576 7.0228 14.8 6.88445C14.9064 6.82189 15.0046 6.78157 15.1114 6.70277C15.1355 6.68496 15.1684 6.65674 15.1938 6.63635C15.3735 6.49302 15.4148 6.24583 15.2858 6.08413C15.1568 5.92242 14.9069 5.90719 14.7272 6.05051C14.7016 6.07077 14.6669 6.09719 14.644 6.11694C14.5434 6.20345 14.4813 6.2889 14.3967 6.37864C14.212 6.56626 14.0593 6.72279 13.8917 6.83563C13.819 6.87791 13.7127 6.86328 13.6644 6.86044L13.5219 6.96208C12.7096 6.11027 11.6036 5.56567 10.4127 5.45988C10.4094 5.40997 10.405 5.31976 10.4039 5.29261C10.3551 5.24596 10.2962 5.20613 10.2814 5.10534C10.2651 4.90394 10.2923 4.68726 10.3239 4.42587C10.3412 4.30374 10.3701 4.20229 10.3751 4.06973C10.3762 4.03959 10.3744 3.99587 10.3743 3.96328C10.3743 3.73346 10.2066 3.5471 9.99973 3.54712ZM9.53074 6.45227L9.4195 8.41705L9.41149 8.42106C9.40403 8.59683 9.25937 8.73718 9.08176 8.73718C9.00901 8.73718 8.94185 8.71382 8.88728 8.67396L8.88408 8.67556L7.27304 7.5335C7.76818 7.04662 8.4015 6.68682 9.13138 6.5211C9.26471 6.49083 9.39797 6.46837 9.53074 6.45227ZM10.4695 6.45227C11.3217 6.55708 12.1097 6.94293 12.7136 7.5343L11.113 8.66915L11.1074 8.66675C10.9653 8.77052 10.7651 8.74477 10.6544 8.60593C10.609 8.54905 10.5852 8.48217 10.5824 8.41465L10.5808 8.41386L10.4695 6.45227ZM6.68881 8.26739L8.1598 9.58312L8.15819 9.59112C8.29097 9.70654 8.31055 9.90684 8.19981 10.0457C8.15445 10.1026 8.09373 10.1407 8.02854 10.1585L8.02694 10.1649L6.14139 10.7092C6.04542 9.83163 6.25225 8.97859 6.68881 8.26739ZM13.3002 8.26819C13.5188 8.62245 13.6843 9.01811 13.7828 9.44706C13.8802 9.87087 13.9046 10.2939 13.8645 10.7028L11.9693 10.1569L11.9677 10.1489C11.798 10.1026 11.6937 9.92993 11.7332 9.75678C11.7494 9.68585 11.7871 9.62585 11.8381 9.58151L11.8373 9.57751L13.3002 8.26819ZM9.69801 9.68476H10.3006L10.6752 10.1529L10.5407 10.7372L9.99973 10.9973L9.45711 10.7364L9.32266 10.1521L9.69801 9.68476ZM11.63 11.287C11.6556 11.2857 11.6811 11.288 11.706 11.2926L11.7092 11.2886L13.6596 11.6183C13.3741 12.4203 12.8279 13.115 12.0982 13.5799L11.3411 11.7512L11.3435 11.748C11.2739 11.5864 11.3435 11.3969 11.5035 11.3198C11.5445 11.3001 11.5873 11.2892 11.63 11.287ZM8.35427 11.295C8.50311 11.2971 8.63661 11.4004 8.6712 11.5519C8.68739 11.6228 8.67951 11.6931 8.65279 11.7552L8.65839 11.7624L7.9093 13.5727C7.20893 13.1233 6.65109 12.4504 6.35268 11.6247L8.28625 11.2966L8.28945 11.3006C8.31107 11.2966 8.33301 11.2947 8.35427 11.295ZM9.98772 12.0881C10.0396 12.0862 10.0922 12.0968 10.1422 12.1209C10.2077 12.1525 10.2584 12.2022 10.2902 12.2618H10.2974L11.2506 13.9841C11.1269 14.0255 10.9997 14.061 10.8697 14.0905C10.1407 14.256 9.41402 14.2059 8.75603 13.9817L9.70681 12.2626H9.70841C9.76546 12.1559 9.87366 12.0923 9.98772 12.0881Z" fill="white" stroke="white" stroke-width="0.225"/>
</svg>
