<svg width="20" height="20" viewBox="0 0 20 20" fill="none" xmlns="http://www.w3.org/2000/svg">
<path d="M13.5097 11.0775C12.7401 11.0775 12.0502 11.4225 11.5777 11.9658L10.367 11.0984C10.4955 10.7403 10.5693 10.3558 10.5693 9.95335C10.5693 9.55787 10.4981 9.17981 10.3738 8.82701L11.5818 7.96883C12.0542 8.50934 12.7424 8.85252 13.5097 8.85252C14.9302 8.85252 16.086 7.68301 16.086 6.2453C16.086 4.80759 14.9302 3.63809 13.5097 3.63809C12.0893 3.63809 10.9334 4.80759 10.9334 6.2453C10.9334 6.50264 10.9718 6.75078 11.0408 6.98579L9.832 7.8444C9.32705 7.21045 8.6 6.76781 7.77164 6.6327V5.15837C8.93863 4.91032 9.81792 3.86102 9.81792 2.60721C9.81792 1.1695 8.6621 0 7.24163 0C5.82115 0 4.66533 1.1695 4.66533 2.60721C4.66533 3.84423 5.52184 4.88059 6.6655 5.14634V6.63982C5.10471 6.91707 3.91394 8.29555 3.91394 9.95335C3.91394 11.6192 5.1165 13.0028 6.68856 13.2706V14.8476C5.53321 15.1046 4.66533 16.1473 4.66533 17.3927C4.66533 18.8305 5.82115 20 7.24163 20C8.6621 20 9.81792 18.8305 9.81792 17.3927C9.81792 16.1473 8.95005 15.1046 7.7947 14.8476V13.2705C8.59039 13.1349 9.31025 12.7112 9.82021 12.0784L11.039 12.9514C10.9713 13.1843 10.9334 13.43 10.9334 13.6847C10.9334 15.1224 12.0893 16.2919 13.5097 16.2919C14.9302 16.2919 16.086 15.1224 16.086 13.6847C16.086 12.247 14.9302 11.0775 13.5097 11.0775ZM13.5097 4.9812C14.1985 4.9812 14.7588 5.54841 14.7588 6.2453C14.7588 6.94219 14.1985 7.50936 13.5097 7.50936C12.8209 7.50936 12.2607 6.94219 12.2607 6.2453C12.2607 5.54841 12.8209 4.9812 13.5097 4.9812ZM5.99251 2.60721C5.99251 1.91032 6.55281 1.34316 7.24163 1.34316C7.93044 1.34316 8.49069 1.91032 8.49069 2.60721C8.49069 3.3041 7.93044 3.87127 7.24163 3.87127C6.55281 3.87127 5.99251 3.3041 5.99251 2.60721ZM8.49069 17.3927C8.49069 18.0896 7.93044 18.6568 7.24163 18.6568C6.55281 18.6568 5.99251 18.0896 5.99251 17.3927C5.99251 16.6959 6.55281 16.1287 7.24163 16.1287C7.93044 16.1287 8.49069 16.6959 8.49069 17.3927ZM7.24153 11.7163C6.28084 11.7163 5.49931 10.9255 5.49931 9.95335C5.49931 8.98113 6.28084 8.19022 7.24153 8.19022C8.20218 8.19022 8.98371 8.98113 8.98371 9.95335C8.98371 10.9255 8.20218 11.7163 7.24153 11.7163ZM13.5097 14.9488C12.8209 14.9488 12.2607 14.3816 12.2607 13.6847C12.2607 12.9878 12.8209 12.4206 13.5097 12.4206C14.1985 12.4206 14.7588 12.9878 14.7588 13.6847C14.7588 14.3816 14.1985 14.9488 13.5097 14.9488Z" fill="black"/>
</svg>
