<svg width="21" height="20" viewBox="0 0 21 20" fill="none" xmlns="http://www.w3.org/2000/svg">
<path fill-rule="evenodd" clip-rule="evenodd" d="M19.5001 5.24419V14.7582C19.4835 14.7701 19.4662 14.7813 19.4489 14.7926C19.4103 14.8177 19.3717 14.8428 19.3404 14.8747L19.1499 15.0691C18.788 15.4381 18.4261 15.8072 18.0722 16.1839C17.9463 16.3181 17.8158 16.3695 17.6316 16.3695C13.4616 16.3656 9.29189 16.3657 5.12193 16.3658H5.11896L3.3317 16.3658C3.31825 16.3658 3.30451 16.3667 3.29078 16.3676H3.29077C3.25963 16.3697 3.22855 16.3718 3.2009 16.3632C3.18898 16.3594 3.17672 16.3559 3.16432 16.3522L3.16428 16.3522C3.10005 16.3334 3.03219 16.3135 2.98966 16.2707C2.52659 15.8035 2.06653 15.3337 1.61624 14.854C1.54858 14.7819 1.50498 14.6571 1.5046 14.5564C1.49859 11.5182 1.49821 8.47968 1.50498 5.44077C1.50498 5.33591 1.56023 5.20811 1.6324 5.13068C2.0639 4.66799 2.50366 4.21281 2.9517 3.76628C3.02575 3.69261 3.15392 3.63472 3.25728 3.63472C8.07405 3.62833 12.8908 3.62833 17.7076 3.63435C17.8061 3.63435 17.929 3.68659 17.9989 3.75613C18.2909 4.04592 18.5774 4.34107 18.8639 4.63624L18.8641 4.63638L18.8644 4.63672C19.014 4.79084 19.1636 4.94498 19.314 5.09836C19.3512 5.13599 19.3946 5.16742 19.4381 5.19884L19.4381 5.19885C19.4589 5.21387 19.4797 5.22889 19.4997 5.24457L19.5001 5.24419ZM10.4969 5.37988C9.9782 5.37988 9.45947 5.38132 8.94074 5.38277C7.5676 5.38658 6.19443 5.3904 4.82165 5.36748C4.31009 5.35884 3.91468 5.45806 3.60759 5.87753C3.52603 5.98879 3.46702 6.08126 3.46739 6.22484C3.46816 6.66432 3.46924 7.10382 3.47033 7.54333V7.54335C3.47506 9.46628 3.47979 11.3893 3.45837 13.3119C3.45311 13.8031 3.55384 14.1805 3.95151 14.4778C4.06728 14.5642 4.16388 14.6255 4.31423 14.6251L5.99527 14.6233C9.40034 14.6195 12.8054 14.6157 16.2105 14.6338C16.6969 14.6364 17.0641 14.5368 17.3501 14.1391C17.4302 14.0275 17.4884 13.9339 17.4881 13.7907C17.4873 13.3478 17.4862 12.9049 17.4851 12.462V12.4619V12.4617C17.4804 10.5423 17.4756 8.62275 17.4967 6.70369C17.502 6.21582 17.4125 5.83356 17.0212 5.52685C16.9062 5.43664 16.8115 5.3765 16.6615 5.37688C14.9693 5.38028 13.2773 5.38012 11.5852 5.37995H11.5851L10.4973 5.37988H10.4969ZM11.2441 9.3376C11.2576 8.89107 11.3948 8.33516 11.7662 7.85517C12.2965 7.16883 13.173 7.16508 13.6959 7.85404C14.1379 8.43627 14.2728 9.10118 14.1992 9.81984C14.1495 10.304 14.0011 10.7494 13.6966 11.132C13.1445 11.8262 12.3288 11.8345 11.7699 11.1339C11.4192 10.6945 11.2437 10.1205 11.2445 9.33798L11.2441 9.3376ZM7.28284 7.83938C6.89194 8.31523 6.75475 8.87865 6.75362 9.53455H6.75287C6.75396 9.55586 6.75451 9.58158 6.75513 9.61037C6.75665 9.68107 6.75856 9.77029 6.76978 9.85817C6.84571 10.4588 7.04755 11.0001 7.53355 11.3962C7.92107 11.7123 8.40481 11.7447 8.82015 11.4703C8.96899 11.3718 9.10882 11.2448 9.21744 11.1038C9.88687 10.2337 9.88536 8.76138 9.22496 7.88448C8.6886 7.17183 7.85003 7.1489 7.28284 7.83938Z" fill="#1347FF"/>
</svg>
