<svg width="20" height="20" viewBox="0 0 20 20" fill="none" xmlns="http://www.w3.org/2000/svg">
<g style="mix-blend-mode:multiply">
<path d="M9.2781 11.4436C6.08023 11.4436 3.58398 13.1033 3.58398 15.2217C3.58398 17.3402 6.08023 18.9998 9.2781 18.9998C12.476 18.9998 14.9723 17.3402 14.9723 15.2217C14.9723 13.1033 12.476 11.4436 9.2781 11.4436ZM9.2781 17.4751C7.30811 17.4751 5.10872 16.5441 5.10872 15.2217C5.10872 13.8994 7.30811 12.9684 9.2781 12.9684C9.73687 12.9684 10.2091 13.0224 10.6544 13.1168C11.2886 13.2112 14.2841 14.1288 13.3261 15.748C12.8538 16.7869 10.9783 17.4751 9.2781 17.4751Z" fill="#64E892"/>
</g>
<g style="mix-blend-mode:multiply">
<path d="M12.9348 9.97289C10.7084 7.11229 7.63191 5.87092 5.91828 7.15277C5.35156 7.58457 4.98724 8.23223 4.8793 9.05535C4.66341 10.661 5.39204 12.7255 6.82232 14.5741C8.45499 16.679 10.5464 17.9069 12.2196 17.9069C12.8268 17.9069 13.38 17.745 13.8388 17.4076C14.4055 16.9759 14.7698 16.3282 14.8778 15.5051C15.0937 13.8859 14.365 11.8214 12.9348 9.97289ZM13.1506 15.9909C12.8538 16.3417 12.5839 16.4496 12.3275 16.3822C11.2616 16.4766 9.4805 15.5456 8.00972 13.6431C6.84931 12.1588 6.20163 10.4317 6.36355 9.25774C6.41752 8.83945 6.56595 8.54259 6.80883 8.36717C6.99773 8.23223 7.2541 8.15127 7.55095 8.15127C8.63041 8.15127 10.3171 9.08232 11.7204 10.9039C12.6649 12.1183 13.2721 13.4946 13.3665 14.6011C13.5959 14.9924 13.5959 15.4511 13.1506 15.9909Z" fill="#64E892"/>
</g>
<g style="mix-blend-mode:multiply">
<path d="M12.5704 0.999756C10.0741 0.999756 8.72485 5.34458 8.72485 9.43306C8.72485 13.5215 10.0741 17.8663 12.5704 17.8663C15.0666 17.8663 16.416 13.5215 16.416 9.43306C16.416 5.34458 15.0666 0.999756 12.5704 0.999756ZM12.8268 16.3011C11.5314 17.0972 10.6274 13.1032 10.6274 13.1032H10.6409C10.398 12.0777 10.2496 10.8498 10.2496 9.44652C10.2496 5.22314 11.6259 2.52449 12.5704 2.52449C13.5149 2.52449 14.8912 5.22314 14.8912 9.44652C14.8912 13.2921 13.7443 15.8828 12.8268 16.3011Z" fill="#64E892"/>
</g>
</svg>
