<svg width="20" height="20" viewBox="0 0 20 20" fill="none" xmlns="http://www.w3.org/2000/svg">
<path d="M10.1323 18C10.0668 17.9989 10.0028 17.9799 9.94718 17.945C9.89157 17.9101 9.84648 17.8607 9.81674 17.802C9.78759 17.7453 9.77517 17.6814 9.78095 17.6178C9.78672 17.5542 9.81045 17.4937 9.84934 17.4432L13.5898 12.2674L7.03568 14.9606C6.99146 14.9807 6.94347 14.9912 6.89493 14.9912C6.81954 14.9904 6.74638 14.9654 6.68614 14.9199C6.62589 14.8743 6.58172 14.8106 6.56007 14.7381C6.53867 14.6661 6.54159 14.589 6.5684 14.5188C6.5952 14.4486 6.64438 14.3894 6.70824 14.3502L12.4682 10.9327L2.32477 10.3469C2.23674 10.3411 2.15419 10.3019 2.09387 10.2372C2.03356 10.1725 2 10.0872 2 9.99851C2 9.90986 2.03356 9.82453 2.09387 9.75984C2.15419 9.69514 2.23674 9.65592 2.32477 9.65013L12.4741 9.0643L6.71046 5.64753C6.64746 5.60789 6.59923 5.54847 6.57324 5.47849C6.54726 5.40851 6.54497 5.33187 6.56674 5.26044C6.58804 5.18782 6.63202 5.12401 6.69218 5.07843C6.75235 5.03286 6.82551 5.00794 6.90085 5.00735C6.94934 5.0071 6.99733 5.01725 7.04161 5.03713L13.592 7.73183L9.85082 2.55681C9.81228 2.50603 9.78877 2.44535 9.78301 2.38175C9.77724 2.31815 9.78945 2.25421 9.81822 2.19726C9.84798 2.13832 9.89331 2.08875 9.94923 2.05395C10.0052 2.01916 10.0695 2.0005 10.1353 2C10.1807 2.0003 10.2256 2.00974 10.2674 2.02777C10.3091 2.04579 10.3468 2.07204 10.3783 2.10496L17.8347 9.59654C17.9406 9.70328 18 9.84782 18 9.99851C18 10.1492 17.9406 10.2937 17.8347 10.4005L10.3753 17.895C10.3439 17.928 10.3061 17.9542 10.2644 17.9722C10.2227 17.9903 10.1778 17.9997 10.1323 18Z" fill="black"/>
</svg>
