<svg width="20" height="20" viewBox="0 0 20 20" fill="none" xmlns="http://www.w3.org/2000/svg">
<path d="M2.19607 11.8436C2.16047 11.6919 2.34126 11.5963 2.45149 11.7065L8.29347 17.5485C8.4037 17.6587 8.30811 17.8395 8.15635 17.8039C5.20824 17.1123 2.88765 14.7918 2.19607 11.8436ZM2.0003 9.50225C1.99748 9.54758 2.01452 9.59184 2.04663 9.62395L10.376 17.9534C10.4082 17.9855 10.4524 18.0026 10.4977 17.9997C10.8768 17.9761 11.2488 17.9261 11.6117 17.8515C11.734 17.8264 11.7765 17.6761 11.6882 17.5879L2.41215 8.31176C2.32385 8.22345 2.17356 8.26595 2.14844 8.38827C2.0739 8.75125 2.02391 9.12318 2.0003 9.50225ZM2.67375 6.75286C2.64711 6.81267 2.66068 6.88256 2.70697 6.92886L13.0711 17.293C13.1174 17.3393 13.1873 17.3529 13.2471 17.3263C13.5329 17.199 13.8099 17.0554 14.0768 16.8968C14.1652 16.8443 14.1788 16.7229 14.1061 16.6503L3.34971 5.89387C3.27705 5.82121 3.15567 5.83485 3.10319 5.92318C2.94458 6.19013 2.80104 6.46709 2.67375 6.75286ZM4.02539 4.89184C3.96618 4.83262 3.96251 4.73765 4.0183 4.67518C5.48472 3.03349 7.61782 2 9.9923 2C14.4148 2 18 5.58517 18 10.0077C18 12.3822 16.9665 14.5153 15.3248 15.9817C15.2624 16.0375 15.1674 16.0338 15.1081 15.9746L4.02539 4.89184Z" fill="black"/>
</svg>
