<svg width="20" height="20" viewBox="0 0 20 20" fill="none" xmlns="http://www.w3.org/2000/svg">
<path d="M5.83333 6.49992V4.83325H17.5V6.49992H5.83333ZM5.83333 10.8333V9.16658H17.5V10.8333H5.83333ZM5.83333 15.1666V13.4999H17.5V15.1666H5.83333ZM3.33333 6.49992C3.09722 6.49992 2.89931 6.42006 2.73958 6.26034C2.57986 6.10061 2.5 5.9027 2.5 5.66659C2.5 5.43047 2.57986 5.23256 2.73958 5.07284C2.89931 4.91311 3.09722 4.83325 3.33333 4.83325C3.56944 4.83325 3.76736 4.91311 3.92708 5.07284C4.08681 5.23256 4.16667 5.43047 4.16667 5.66659C4.16667 5.9027 4.08681 6.10061 3.92708 6.26034C3.76736 6.42006 3.56944 6.49992 3.33333 6.49992ZM3.33333 10.8333C3.09722 10.8333 2.89931 10.7534 2.73958 10.5937C2.57986 10.4339 2.5 10.236 2.5 9.99992C2.5 9.76381 2.57986 9.56589 2.73958 9.40617C2.89931 9.24645 3.09722 9.16658 3.33333 9.16658C3.56944 9.16658 3.76736 9.24645 3.92708 9.40617C4.08681 9.56589 4.16667 9.76381 4.16667 9.99992C4.16667 10.236 4.08681 10.4339 3.92708 10.5937C3.76736 10.7534 3.56944 10.8333 3.33333 10.8333ZM3.33333 15.1666C3.09722 15.1666 2.89931 15.0867 2.73958 14.927C2.57986 14.7673 2.5 14.5694 2.5 14.3333C2.5 14.0971 2.57986 13.8992 2.73958 13.7395C2.89931 13.5798 3.09722 13.4999 3.33333 13.4999C3.56944 13.4999 3.76736 13.5798 3.92708 13.7395C4.08681 13.8992 4.16667 14.0971 4.16667 14.3333C4.16667 14.5694 4.08681 14.7673 3.92708 14.927C3.76736 15.0867 3.56944 15.1666 3.33333 15.1666Z" fill="black" fill-opacity="0.4"/>
</svg>
