<svg width="20" height="20" viewBox="0 0 20 20" fill="none" xmlns="http://www.w3.org/2000/svg">
<path fill-rule="evenodd" clip-rule="evenodd" d="M17.1053 9.01408C16.2224 9.01408 15.4805 8.41024 15.2702 7.59303H13.0986C12.6354 7.59303 12.2402 7.92784 12.1641 8.38465L12.0862 8.85189C12.0123 9.29551 11.7879 9.68161 11.4705 9.96145C11.7879 10.2413 12.0123 10.6274 12.0862 11.071L12.1641 11.5383C12.2402 11.9951 12.6354 12.3299 13.0986 12.3299H13.3755C13.5858 11.5127 14.3277 10.9088 15.2105 10.9088C16.257 10.9088 17.1053 11.7571 17.1053 12.8036C17.1053 13.85 16.257 14.6983 15.2105 14.6983C14.3277 14.6983 13.5858 14.0945 13.3755 13.2772H13.0986C12.1723 13.2772 11.3819 12.6076 11.2296 11.694L11.1517 11.2268C11.0756 10.7699 10.6804 10.4351 10.2172 10.4351H9.46662C9.25629 11.2523 8.51446 11.8562 7.63158 11.8562C6.7487 11.8562 6.00687 11.2523 5.79654 10.4351H4.72978C4.51945 11.2523 3.77761 11.8562 2.89474 11.8562C1.8483 11.8562 1 11.0079 1 9.96145C1 8.91501 1.8483 8.06671 2.89474 8.06671C3.77761 8.06671 4.51945 8.67056 4.72978 9.48777H5.79654C6.00687 8.67056 6.7487 8.06671 7.63158 8.06671C8.51446 8.06671 9.25629 8.67056 9.46662 9.48777H10.2172C10.6804 9.48777 11.0756 9.15296 11.1517 8.69615L11.2296 8.2289C11.3819 7.31529 12.1723 6.64566 13.0986 6.64566H15.2702C15.4805 5.82845 16.2224 5.22461 17.1053 5.22461C18.1518 5.22461 19 6.07291 19 7.11935C19 8.16579 18.1518 9.01408 17.1053 9.01408ZM17.1053 8.06671C17.6284 8.06671 18.0526 7.64257 18.0526 7.11935C18.0526 6.59613 17.6284 6.17198 17.1053 6.17198C16.5821 6.17198 16.1579 6.59613 16.1579 7.11935C16.1579 7.64257 16.5821 8.06671 17.1053 8.06671ZM2.89474 10.9088C3.41796 10.9088 3.84211 10.4847 3.84211 9.96145C3.84211 9.43823 3.41796 9.01408 2.89474 9.01408C2.37152 9.01408 1.94737 9.43823 1.94737 9.96145C1.94737 10.4847 2.37152 10.9088 2.89474 10.9088ZM8.57895 9.96145C8.57895 10.4847 8.1548 10.9088 7.63158 10.9088C7.10836 10.9088 6.68421 10.4847 6.68421 9.96145C6.68421 9.43823 7.10836 9.01408 7.63158 9.01408C8.1548 9.01408 8.57895 9.43823 8.57895 9.96145ZM16.1579 12.8036C16.1579 13.3268 15.7337 13.7509 15.2105 13.7509C14.6873 13.7509 14.2632 13.3268 14.2632 12.8036C14.2632 12.2803 14.6873 11.8562 15.2105 11.8562C15.7337 11.8562 16.1579 12.2803 16.1579 12.8036Z" fill="#EA4B71"/>
</svg>
