<svg width="20" height="20" viewBox="0 0 20 20" fill="none" xmlns="http://www.w3.org/2000/svg">
<path d="M2.72861 14.5857C4.07147 13.7286 5.62861 12.2571 5.0429 10.5143C4.71432 9.57143 4.27147 8.75715 4.21432 7.74286C4.15718 6.87143 4.28575 6 4.58575 5.18572C5.78575 1.97143 9.3429 0.457148 12.5572 1.42858C15.5286 2.32858 17.5858 5.78572 16.3572 8.8C15.6429 10.5429 15.3286 11.8857 16.9143 13.2286C17.3429 13.6 18.3858 14.1429 18.3858 14.8C18.3858 15.6571 16.7143 14.6143 16.5286 14.4714C16.7429 14.8429 18.8429 17.0429 17.5 17.2C16.2715 17.3429 15.1715 15.6143 14.4286 14.8857C13.1858 13.6429 13.4 16.4 13.4 16.9571C13.3858 17.8571 12.7572 19.6714 11.6143 18.4857C10.6715 17.5143 11.0286 15.9429 10.3715 14.8571C9.65718 13.6714 8.47147 16.0429 8.17147 16.4857C7.8429 16.9714 6.17147 19.3286 5.51432 18.0714C4.97147 17.0571 5.82861 15.4571 6.25718 14.5286C6.10004 14.8571 5.01432 15.3571 4.70004 15.5143C3.98575 15.8714 3.25718 16.1 2.4429 16.0429C0.771467 15.9286 2.05718 15.0429 2.72861 14.5857Z" fill="#0D80D8"/>
</svg>
