<svg width="20" height="20" viewBox="0 0 20 20" fill="none" xmlns="http://www.w3.org/2000/svg">
<g clip-path="url(#clip0_7680_256)">
<path d="M18.6969 12.5345C18.3779 13.9179 17.677 15.0451 16.521 15.8872C16.1863 16.133 15.6973 16.1906 15.4985 16.5698C15.305 16.9359 15.2396 17.37 15.1141 17.7728C15.033 18.0369 14.8761 18.2304 14.5989 18.3063C13.9686 18.3063 13.3357 18.3089 12.7054 18.3115C12.4831 18.2854 12.3445 18.0814 12.083 18.0892C11.288 18.1154 10.9323 17.8303 10.6813 17.0614C10.6446 16.9516 10.6629 16.7921 10.459 16.7973C10.2576 16.8025 10.2079 16.9307 10.1687 17.085C10.1059 17.3256 10.0484 17.5688 9.96991 17.8068C9.881 18.0814 9.70578 18.2749 9.39979 18.3115C8.82968 18.3115 8.25956 18.3115 7.68944 18.3115C7.38084 18.1023 7.03302 18.1075 6.67735 18.084C6.10461 18.0474 5.64695 17.6185 5.61557 17.0353C5.58941 16.5175 5.39327 16.2298 4.90946 16.0363C4.3838 15.8244 3.94705 15.4478 3.60707 14.9849C3.4737 14.8019 3.32986 14.7757 3.1311 14.8437C2.97942 14.896 2.81989 14.9483 2.66036 14.9588C2.26808 14.9849 1.92287 14.6868 1.84703 14.2605C1.64827 13.17 1.45213 12.0794 1.26645 10.9889C1.16969 10.4266 1.53582 10.0081 2.11117 10.016C2.323 10.0186 2.48514 10.0003 2.56099 9.75447C2.99773 8.32917 3.84768 7.20985 5.08468 6.38605C5.11083 6.36774 5.13437 6.34682 5.17098 6.31544C4.85715 6.10883 4.51979 6.04345 4.17458 6.02515C3.99936 6.01469 3.91306 5.95715 3.9209 5.7767C3.92613 5.60409 3.77968 5.4158 4.08043 5.30857C5.21282 4.90844 6.33214 4.47431 7.4593 4.06372C8.04772 3.84927 8.55246 4.13695 8.69368 4.7463C8.98397 5.98853 9.03628 6.03299 10.2968 6.23175C11.2226 6.3782 12.1484 6.45666 13.0742 6.25529C13.4717 6.16898 13.8248 5.99899 14.1333 5.72178C14.5152 5.37918 14.9284 5.34519 15.3547 5.63286C17.1984 6.88294 18.438 8.53839 18.7571 10.8032M17.4311 8.99867C16.8323 7.83489 15.9875 6.89863 14.8604 6.22914C14.7767 6.20298 14.7009 6.20298 14.6459 6.28405C14.6067 6.31805 14.5675 6.35467 14.5282 6.38866C14.1177 6.70511 13.6574 6.9091 13.15 7.01109C11.8293 7.28046 10.54 7.07909 9.25334 6.78356C8.83229 6.6868 8.542 6.43835 8.3354 6.06699C8.14187 5.71916 8.04249 5.34257 7.97188 4.95813C7.93788 4.77507 7.85943 4.7123 7.68159 4.7803C6.95979 5.04966 6.23799 5.31903 5.47696 5.60409C6.25891 6.08791 6.54136 6.7731 6.45244 7.62567C6.42629 7.87412 6.29814 8.03888 6.03662 8.03626C5.80648 8.03365 5.66526 7.81658 5.70448 7.53675C5.73325 7.33276 5.73064 7.13924 5.64433 6.92479C4.46225 7.6649 3.6803 8.67961 3.2671 9.98461C3.10234 10.505 2.77282 10.777 2.24716 10.7718C2.01702 10.7718 1.99871 10.8503 2.03271 11.0333C2.17916 11.8127 2.31777 12.5946 2.46161 13.374C2.46945 13.4263 2.47207 13.4812 2.48253 13.5335C2.52437 13.7453 2.50868 14.0121 2.6316 14.1507C2.75451 14.2867 2.98204 14.0748 3.17295 14.0644C3.24879 14.0618 3.32463 14.0513 3.39786 14.0435C3.73784 14.0905 4.0072 14.2501 4.20335 14.5377C4.34718 14.747 4.53025 14.9117 4.73162 15.0634C5.31482 15.5001 5.97385 15.8323 6.67735 15.9212C7.44622 16.0206 7.71821 16.3972 7.78359 17.1111C7.82805 17.6106 7.87773 17.6106 8.3877 17.6028C8.66753 17.6002 8.99967 17.7074 9.21411 17.5583C9.4181 17.4145 9.38672 17.064 9.46779 16.8078C9.61947 16.3213 9.93591 16.0703 10.4459 16.052C10.7179 16.0415 10.9899 16.0624 11.2592 16.0467C12.321 15.9866 12.763 16.2533 12.8493 17.3543C12.8624 17.5322 12.933 17.6211 13.1369 17.6106C13.4717 17.5923 13.8091 17.5949 14.1438 17.6106C14.3347 17.6211 14.4106 17.5426 14.4576 17.37C14.5727 16.9516 14.7113 16.5384 14.829 16.1199C14.8735 15.9578 14.9545 15.8715 15.1114 15.8009C17.7659 14.6371 18.7911 11.776 17.4965 9.16081C17.4577 9.08321 17.4626 9.06165 17.4311 8.99867ZM6.33475 16.6378C6.33214 17.166 6.52305 17.3883 6.9101 17.3413C6.95979 17.336 7.01733 17.3543 7.04348 17.2837C7.09578 17.1477 6.90226 16.7764 6.7558 16.7371C6.62243 16.7031 6.48644 16.6718 6.33475 16.6351V16.6378ZM11.4214 16.8313C11.5024 17.2079 11.641 17.3465 11.9183 17.3439C12.0412 17.3439 12.0804 17.3125 12.0673 17.1791C12.0359 16.8261 11.9366 16.7659 11.4214 16.8313Z" fill="#133F2E"/>
<path d="M17.4965 9.15761C18.7884 11.7728 17.7633 14.6339 15.1114 15.7977C14.9545 15.8657 14.8735 15.9546 14.829 16.1168C14.7113 16.5352 14.5753 16.9484 14.4576 17.3668C14.4106 17.5394 14.3347 17.6179 14.1438 17.6074C13.8091 17.5917 13.4717 17.5891 13.1369 17.6074C12.933 17.6179 12.8624 17.529 12.8493 17.3511C12.763 16.2501 12.3184 15.9834 11.2592 16.0435C10.9898 16.0592 10.7179 16.0383 10.4459 16.0488C9.93591 16.0671 9.62209 16.3181 9.46779 16.8046C9.38672 17.0609 9.4181 17.4113 9.21411 17.5551C8.99966 17.7042 8.66753 17.597 8.3877 17.5996C7.87512 17.6074 7.82804 17.6048 7.78359 17.1079C7.71821 16.394 7.44622 16.0174 6.67735 15.918C5.97385 15.8291 5.31482 15.4969 4.73162 15.0602C4.53025 14.9085 4.34457 14.7411 4.20335 14.5345C4.0072 14.2495 3.73784 14.0873 3.39786 14.0403C3.36909 13.5146 3.42924 12.9968 3.52339 12.479C3.54954 12.4423 3.57569 12.4057 3.60184 12.3691C3.79014 12.3325 3.92352 12.1939 4.08828 12.1128C5.21282 11.5401 6.38444 11.4956 7.58483 11.7912C8.58908 12.037 9.49133 11.8696 10.2811 11.1818C10.6316 10.8758 10.9951 10.5829 11.3194 10.2508C12.7107 8.82548 14.4341 8.60318 16.2935 8.81502C16.6832 8.85948 17.0284 9.06608 17.4207 9.08177L17.4024 9.08439C17.4338 9.10792 17.4678 9.13146 17.4991 9.15761H17.4965Z" fill="#9AADA6"/>
<path d="M3.59927 12.3688C3.57311 12.4054 3.54696 12.442 3.52081 12.4786C3.09714 12.693 2.81993 13.0827 2.45641 13.3678C2.31519 12.5884 2.17397 11.8065 2.02752 11.0271C1.99352 10.8415 2.01183 10.763 2.24197 10.7656C2.77024 10.7682 3.09976 10.4963 3.2619 9.97844C3.67511 8.67343 4.45706 7.65872 5.63914 6.91861C5.72544 7.13306 5.72806 7.32659 5.69929 7.53058C5.65745 7.81041 5.80129 8.02747 6.03142 8.03009C6.29295 8.0327 6.42109 7.86794 6.44725 7.6195C6.53616 6.76431 6.2511 6.08174 5.47177 5.59792C6.2328 5.31547 6.9546 5.04611 7.6764 4.77412C7.85424 4.70874 7.93269 4.76889 7.96669 4.95196C8.0373 5.3364 8.13929 5.71561 8.33021 6.06082C8.53681 6.43218 8.8271 6.68063 9.24815 6.77739C10.5348 7.07291 11.8241 7.27428 13.1448 7.00492C13.6522 6.90031 14.1125 6.69632 14.5231 6.38249C14.5387 6.48448 14.5178 6.56817 14.4498 6.65447C13.8326 7.45212 13.0324 7.9804 12.0804 8.28638C11.0056 8.63421 9.88626 8.73097 8.76956 8.82773C7.76009 8.91665 6.78722 9.13633 5.88236 9.6123C5.78559 9.3377 5.62083 9.13895 5.32008 9.08403C4.99318 9.02388 4.70551 9.16248 4.55382 9.44493C4.39168 9.7483 4.46229 10.0517 4.76827 10.3786C4.68458 10.4753 4.6009 10.5773 4.5146 10.6715C4.07001 11.1605 3.74572 11.715 3.59665 12.3635L3.59927 12.3688Z" fill="#FBFBFB"/>
<path d="M3.59917 12.3698C3.75086 11.7212 4.07253 11.1668 4.51712 10.6777C4.60342 10.5809 4.68711 10.4816 4.77079 10.3848C5.3906 10.6986 5.9738 10.275 5.88226 9.61592C6.78713 9.14256 7.75999 8.92027 8.76947 8.83135C9.88617 8.73458 11.0055 8.64044 12.0803 8.28999C13.0297 7.9814 13.8299 7.45312 14.4497 6.65809C14.5151 6.57179 14.536 6.4881 14.523 6.3861C14.5622 6.35211 14.6014 6.31549 14.6406 6.28149C14.704 6.22657 14.7538 6.16617 14.8551 6.22657C15.9823 6.89869 16.8296 7.83233 17.4259 8.99611C17.4363 9.01703 17.499 9.12181 17.4938 9.15058C17.1015 9.13489 16.6779 8.86012 16.2882 8.81566C14.4288 8.60382 12.7054 8.82612 11.3141 10.2514C10.9898 10.5836 10.6263 10.8765 10.2758 11.1824C9.48604 11.8676 8.58379 12.0376 7.57954 11.7918C6.37915 11.4963 5.20754 11.5407 4.08299 12.1135C3.92085 12.1972 3.78485 12.3331 3.59656 12.3698H3.59917Z" fill="#D0D8D4"/>
<path d="M2.45898 13.3687C2.8225 13.0836 3.09971 12.6939 3.52338 12.4795C3.42923 12.9947 3.36908 13.5151 3.39785 14.0408C3.32201 14.0486 3.24617 14.0565 3.17294 14.0617C2.98203 14.0696 2.7545 14.284 2.63159 14.148C2.50606 14.0094 2.52436 13.7427 2.48252 13.5308C2.47206 13.4785 2.46683 13.4236 2.4616 13.3713L2.45898 13.3687Z" fill="#A5B1AC"/>
<path d="M6.33218 16.6343C6.48386 16.6709 6.61985 16.7023 6.75323 16.7363C6.89968 16.7755 7.09059 17.1469 7.0409 17.2829C7.01475 17.3509 6.95722 17.3325 6.90753 17.3404C6.52309 17.3848 6.32956 17.1626 6.33218 16.6369V16.6343Z" fill="#FBFBFB"/>
<path d="M11.4187 16.8282C11.9339 16.7628 12.0333 16.8203 12.0647 17.176C12.0777 17.3094 12.0385 17.3407 11.9156 17.3407C11.6384 17.3407 11.4998 17.2048 11.4187 16.8282Z" fill="#FBFBFB"/>
<path d="M11.5966 5.47195C12.469 5.47195 13.1762 4.76473 13.1762 3.89235C13.1762 3.01996 12.469 2.31274 11.5966 2.31274C10.7242 2.31274 10.017 3.01996 10.017 3.89235C10.017 4.76473 10.7242 5.47195 11.5966 5.47195Z" fill="#0C3C2B"/>
<path d="M5.19191 10.4942C5.58766 10.4942 5.90848 10.1734 5.90848 9.77761C5.90848 9.38186 5.58766 9.06104 5.19191 9.06104C4.79616 9.06104 4.47534 9.38186 4.47534 9.77761C4.47534 10.1734 4.79616 10.4942 5.19191 10.4942Z" fill="#0C3C2B"/>
</g>
<defs>
<clipPath id="clip0_7680_256">
<rect width="17.5037" height="16" fill="white" transform="translate(1.24817 2.31274)"/>
</clipPath>
</defs>
</svg>
