<svg width="20" height="20" viewBox="0 0 20 20" fill="none" xmlns="http://www.w3.org/2000/svg">
<path d="M17.7095 8.33752C18.1179 7.1118 17.9773 5.76909 17.3242 4.65419C16.342 2.94415 14.3676 2.06438 12.4393 2.47839C11.5815 1.512 10.349 0.962423 9.05694 0.970298C7.0859 0.965798 5.33705 2.23483 4.73066 4.11024C3.46445 4.36956 2.37149 5.16214 1.73191 6.28547C0.742452 7.99101 0.968019 10.1409 2.28992 11.6035C1.88154 12.8292 2.02217 14.1719 2.67524 15.2868C3.65739 16.9968 5.63181 17.8766 7.5601 17.4626C8.41737 18.429 9.65039 18.9786 10.9425 18.9701C12.9146 18.9752 14.6641 17.705 15.2705 15.8279C16.5367 15.5686 17.6296 14.776 18.2692 13.6527C19.2575 11.9472 19.0314 9.79892 17.7101 8.33639L17.7095 8.33752ZM10.9436 17.7939C10.1544 17.795 9.38995 17.5188 8.78412 17.0131C8.81169 16.9985 8.8595 16.9721 8.89044 16.953L12.4748 14.8829C12.6581 14.7788 12.7706 14.5837 12.7695 14.3727V9.31966L14.2844 10.1944C14.3007 10.2022 14.3114 10.218 14.3136 10.236V14.4205C14.3114 16.2813 12.8044 17.79 10.9436 17.7939ZM3.6962 14.6984C3.30076 14.0155 3.15844 13.2151 3.29401 12.4382C3.32044 12.454 3.36713 12.4827 3.40032 12.5018L6.98465 14.5718C7.16634 14.6782 7.39134 14.6782 7.5736 14.5718L11.9494 12.045V13.7944C11.9505 13.8124 11.9421 13.8299 11.928 13.8411L8.30486 15.9331C6.69102 16.8624 4.62997 16.31 3.69677 14.6984H3.6962ZM2.75287 6.87442C3.14663 6.19041 3.7682 5.66727 4.50847 5.39558C4.50847 5.42652 4.50678 5.48108 4.50678 5.51933V9.65998C4.50566 9.87036 4.61816 10.0656 4.80098 10.1696L9.17676 12.6959L7.66191 13.5706C7.64672 13.5807 7.6276 13.5824 7.61072 13.5751L3.98702 11.4814C2.37655 10.5488 1.82416 8.48827 2.75231 6.87499L2.75287 6.87442ZM15.199 9.7708L10.8232 7.244L12.3381 6.36985C12.3533 6.35973 12.3724 6.35804 12.3893 6.36535L16.013 8.45733C17.6263 9.38942 18.1792 11.4533 17.2471 13.0666C16.8528 13.7494 16.2318 14.2726 15.4921 14.5448V10.2804C15.4938 10.0701 15.3818 9.87543 15.1996 9.7708H15.199ZM16.7065 7.50163C16.6801 7.48531 16.6334 7.45719 16.6002 7.43806L13.0159 5.36802C12.8342 5.2617 12.6092 5.2617 12.427 5.36802L8.05117 7.89482V6.14541C8.05005 6.12741 8.05848 6.10997 8.07255 6.09872L11.6957 4.00843C13.3095 3.07747 15.3728 3.63154 16.3032 5.24595C16.6964 5.92772 16.8387 6.72592 16.7054 7.50163H16.7065ZM7.22765 10.6196L5.71225 9.74492C5.69593 9.73705 5.68525 9.7213 5.683 9.7033V5.51877C5.68412 3.65573 7.19559 2.14595 9.05863 2.14707C9.84671 2.14707 10.6095 2.42383 11.2153 2.92784C11.1877 2.94247 11.1405 2.9689 11.109 2.98803L7.52466 5.05807C7.34128 5.16214 7.22878 5.35677 7.2299 5.56771L7.22765 10.6185V10.6196ZM8.05061 8.84547L9.99971 7.71988L11.9488 8.8449V11.0955L9.99971 12.2205L8.05061 11.0955V8.84547Z" fill="black"/>
</svg>
