<svg width="20" height="20" viewBox="0 0 20 20" fill="none" xmlns="http://www.w3.org/2000/svg">
<path d="M10.0392 9.97229C12.5168 9.97229 14.5253 7.96377 14.5253 5.48615C14.5253 3.00852 12.5168 1 10.0392 1C7.56156 1 5.55304 3.00852 5.55304 5.48615C5.55304 7.96377 7.56156 9.97229 10.0392 9.97229Z" fill="url(#paint0_linear_4960_10500)"/>
<path d="M9.66998 18.889C6.73459 17.0244 4.29767 14.4583 2.56229 11.4491C2.43306 11.2091 2.5069 10.8952 2.76536 10.766C2.76536 10.766 2.78382 10.766 2.78382 10.7475L6.18075 9.086C6.42075 8.97523 6.69767 9.04907 6.84536 9.28907C8.56229 12.1691 11.11 14.4768 14.1561 15.8983C13.03 17.0244 11.7931 18.0398 10.4454 18.889C10.2054 19.0367 9.89152 19.0367 9.66998 18.889Z" fill="url(#paint1_linear_4960_10500)"/>
<path d="M10.4269 18.889C13.3623 17.0244 15.7992 14.4583 17.5346 11.4491C17.6638 11.2091 17.59 10.8952 17.35 10.766C17.35 10.766 17.3315 10.766 17.3315 10.7475L13.9346 9.086C13.6946 8.97523 13.4177 9.04907 13.27 9.28907C11.5531 12.1691 9.00538 14.4768 5.95923 15.8983C7.08538 17.0244 8.32231 18.0398 9.67 18.889C9.89154 19.0367 10.2054 19.0367 10.4269 18.889Z" fill="#2684FF"/>
<defs>
<linearGradient id="paint0_linear_4960_10500" x1="10.0479" y1="2.492" x2="10.0479" y2="11.7187" gradientUnits="userSpaceOnUse">
<stop stop-color="#2684FF"/>
<stop offset="0.82" stop-color="#0052CC"/>
</linearGradient>
<linearGradient id="paint1_linear_4960_10500" x1="7.27928" y1="11.4605" x2="10.37" y2="17.929" gradientUnits="userSpaceOnUse">
<stop stop-color="#2684FF"/>
<stop offset="0.62" stop-color="#0052CC"/>
</linearGradient>
</defs>
</svg>
