<svg width="20" height="20" viewBox="0 0 20 20" fill="none" xmlns="http://www.w3.org/2000/svg">
<path d="M6.84971 13.7394V18H4.5V13.7394H6.84971ZM9.19679 2.00003C11.2102 2.00225 12.0828 2.11648 13.3229 2.78629C14.6851 3.51771 15.5263 4.97143 15.5263 6.78171C15.5263 8.464 14.8406 9.91771 13.524 10.7863C12.3171 11.5909 10.9457 11.7006 9.11714 11.7006H4.5V2L9.19679 2.00003ZM9.57319 4.05685L9.50114 4.05714L6.84971 4.07543V9.67086H9.65657C11.6223 9.67086 13.1217 8.88457 13.1217 6.80914C13.1217 4.88 11.9149 4.03886 9.50114 4.05714L9.57319 4.05685Z" fill="#06AC38"/>
</svg>
