<svg width="20" height="20" viewBox="0 0 20 20" fill="none" xmlns="http://www.w3.org/2000/svg">
<g id="Reset">
<path id="Union" d="M10.0001 16.6666C11.8612 16.6666 13.4376 16.0208 14.7292 14.7291C16.0209 13.4374 16.6667 11.861 16.6667 9.99992C16.6667 8.13881 16.0209 6.56242 14.7292 5.27075C13.4376 3.97909 11.8612 3.33325 10.0001 3.33325C9.04175 3.33325 8.12508 3.53117 7.25008 3.927C6.37508 4.32284 5.62508 4.88881 5.00008 5.62492V3.33325H3.33342V9.16658H9.16675V7.49992H5.66675C6.11119 6.72214 6.71883 6.11103 7.48967 5.66659C8.2605 5.22214 9.0973 4.99992 10.0001 4.99992C11.389 4.99992 12.5695 5.48603 13.5417 6.45825C14.514 7.43047 15.0001 8.61103 15.0001 9.99992C15.0001 11.3888 14.514 12.5694 13.5417 13.5416C12.5695 14.5138 11.389 14.9999 10.0001 14.9999C8.93064 14.9999 7.96536 14.6944 7.10425 14.0833C6.24314 13.4721 5.63897 12.6666 5.29175 11.6666H3.54175C3.93064 13.1388 4.7223 14.3402 5.91675 15.2708C7.11119 16.2013 8.4723 16.6666 10.0001 16.6666Z" fill="currentColor" fill-opacity="0.6"/>
</g>
</svg>
