<svg width="16" height="16" viewBox="0 0 16 16" fill="none" xmlns="http://www.w3.org/2000/svg">
<path d="M4.6665 1.33319H11.3332V6.56652C11.3332 6.82208 11.2776 7.04986 11.1665 7.24986C11.0554 7.44986 10.8998 7.61097 10.6998 7.73319L8.33317 9.13319L8.79984 10.6665H11.3332L9.2665 12.1332L10.0665 14.6665L7.99984 13.0999L5.93317 14.6665L6.73317 12.1332L4.6665 10.6665H7.19984L7.6665 9.13319L5.29984 7.73319C5.09984 7.61097 4.94428 7.44986 4.83317 7.24986C4.72206 7.04986 4.6665 6.82208 4.6665 6.56652V1.33319ZM7.33317 2.66652V7.36652L7.99984 7.76652L8.6665 7.36652V2.66652H7.33317Z" fill="#4FCD44"/>
</svg>
