<svg width="20" height="20" viewBox="0 0 20 20" fill="none" xmlns="http://www.w3.org/2000/svg">
<path d="M10 19.1665V17.4998H15.8333V16.6665H12.5V9.99984H15.8333V9.1665C15.8333 7.55539 15.2639 6.18039 14.125 5.0415C12.9861 3.90262 11.6111 3.33317 10 3.33317C8.38889 3.33317 7.01389 3.90262 5.875 5.0415C4.73611 6.18039 4.16667 7.55539 4.16667 9.1665V9.99984H7.5V16.6665H4.16667C3.70833 16.6665 3.31597 16.5033 2.98958 16.1769C2.66319 15.8505 2.5 15.4582 2.5 14.9998V9.1665C2.5 8.13873 2.69792 7.16998 3.09375 6.26025C3.48958 5.35053 4.02778 4.55539 4.70833 3.87484C5.38889 3.19428 6.18403 2.65609 7.09375 2.26025C8.00347 1.86442 8.97222 1.6665 10 1.6665C11.0278 1.6665 11.9965 1.86442 12.9062 2.26025C13.816 2.65609 14.6111 3.19428 15.2917 3.87484C15.9722 4.55539 16.5104 5.35053 16.9062 6.26025C17.3021 7.16998 17.5 8.13873 17.5 9.1665V17.4998C17.5 17.9582 17.3368 18.3505 17.0104 18.6769C16.684 19.0033 16.2917 19.1665 15.8333 19.1665H10Z" fill="#FF9A3D"/>
</svg>
