<svg width="20" height="20" viewBox="0 0 20 20" fill="none" xmlns="http://www.w3.org/2000/svg">
<path fill-rule="evenodd" clip-rule="evenodd" d="M14.5188 4.27058C15.8355 5.17657 16.8515 6.45453 17.4365 7.94141C18.0225 9.42727 18.1498 11.0548 17.8033 12.614C17.4569 14.1733 16.6528 15.5939 15.493 16.6935C15.3575 16.825 15.1995 16.932 15.0263 17.0074C14.853 17.0838 14.6676 17.1287 14.479 17.1389C14.2905 17.1501 14.1009 17.1276 13.9205 17.0716C13.7402 17.0166 13.571 16.9299 13.4202 16.8148C12.929 16.4489 12.3827 16.1646 11.8018 15.973C11.2199 15.7804 10.6125 15.6826 10 15.6826C9.38755 15.6826 8.77914 15.7804 8.19825 15.973C7.61736 16.1646 7.0701 16.4489 6.57889 16.8148C6.4301 16.9289 6.26297 17.0166 6.0836 17.0726C5.90424 17.1287 5.71672 17.1521 5.52921 17.1419C5.34169 17.1327 5.15723 17.0899 4.985 17.0155C4.81277 16.9412 4.65481 16.8372 4.51825 16.7078C3.35035 15.6041 2.54016 14.1753 2.19367 12.6059C1.84717 11.0364 1.98067 9.39975 2.57685 7.90778C3.17303 6.41478 4.20335 5.1358 5.53532 4.23593C6.8673 3.33606 8.43876 2.85606 10.0469 2.86013C11.6449 2.87338 13.2021 3.36561 14.5188 4.27058ZM11.545 14.6043C12.0362 14.4087 12.4826 14.1152 12.8566 13.7422C13.2306 13.3682 13.5241 12.9228 13.7198 12.4316C13.9154 11.9414 14.0092 11.4155 13.9949 10.8876C13.9949 9.82879 13.574 8.81376 12.825 8.06472C12.076 7.31567 11.0599 6.89478 10 6.89478C8.94016 6.89478 7.92411 7.31567 7.17507 8.06472C6.42602 8.81376 6.00513 9.82879 6.00513 10.8876C5.99086 11.4155 6.08462 11.9414 6.28029 12.4316C6.47596 12.9228 6.76946 13.3682 7.14347 13.7422C7.51749 14.1152 7.96386 14.4087 8.45405 14.6043C8.94526 14.8 9.47112 14.8938 10 14.8795C10.5279 14.8938 11.0538 14.8 11.545 14.6043Z" fill="#62D84E"/>
</svg>
