<svg width="20" height="20" viewBox="0 0 20 20" fill="none" xmlns="http://www.w3.org/2000/svg">
<path d="M5.65146 11.9789C5.65146 12.8462 4.943 13.5547 4.07573 13.5547C3.20847 13.5547 2.5 12.8462 2.5 11.9789C2.5 11.1117 3.20847 10.4032 4.07573 10.4032H5.65146V11.9789Z" fill="#E01E5A"/>
<path d="M6.44531 11.9789C6.44531 11.1117 7.15381 10.4032 8.02106 10.4032C8.88831 10.4032 9.59681 11.1117 9.59681 11.9789V15.9244C9.59681 16.7916 8.88831 17.5001 8.02106 17.5001C7.15381 17.5001 6.44531 16.7916 6.44531 15.9244V11.9789Z" fill="#E01E5A"/>
<path d="M8.02106 5.65146C7.15381 5.65146 6.44531 4.943 6.44531 4.07573C6.44531 3.20847 7.15381 2.5 8.02106 2.5C8.88831 2.5 9.59681 3.20847 9.59681 4.07573V5.65146H8.02106Z" fill="#36C5F0"/>
<path d="M8.02116 6.44519C8.88841 6.44519 9.59687 7.15365 9.59687 8.02094C9.59687 8.88819 8.88841 9.59665 8.02116 9.59665H4.07573C3.20847 9.59665 2.5 8.88819 2.5 8.02094C2.5 7.15365 3.20847 6.44519 4.07573 6.44519H8.02116Z" fill="#36C5F0"/>
<path d="M14.3485 8.02094C14.3485 7.15365 15.057 6.44519 15.9243 6.44519C16.7915 6.44519 17.5 7.15365 17.5 8.02094C17.5 8.88819 16.7915 9.59665 15.9243 9.59665H14.3485V8.02094Z" fill="#2EB67D"/>
<path d="M13.5547 8.02116C13.5547 8.88841 12.8463 9.59687 11.979 9.59687C11.1117 9.59687 10.4033 8.88841 10.4033 8.02116V4.07573C10.4033 3.20847 11.1117 2.5 11.979 2.5C12.8463 2.5 13.5547 3.20847 13.5547 4.07573V8.02116Z" fill="#2EB67D"/>
<path d="M11.979 14.3486C12.8463 14.3486 13.5547 15.0571 13.5547 15.9243C13.5547 16.7916 12.8463 17.5001 11.979 17.5001C11.1117 17.5001 10.4033 16.7916 10.4033 15.9243V14.3486H11.979Z" fill="#ECB22E"/>
<path d="M11.979 13.5547C11.1117 13.5547 10.4033 12.8462 10.4033 11.9789C10.4033 11.1117 11.1117 10.4032 11.979 10.4032H15.9244C16.7917 10.4032 17.5001 11.1117 17.5001 11.9789C17.5001 12.8462 16.7917 13.5547 15.9244 13.5547H11.979Z" fill="#ECB22E"/>
</svg>
