<svg width="20" height="20" viewBox="0 0 20 20" fill="none" xmlns="http://www.w3.org/2000/svg">
<path d="M14.6708 5.27738H5.35974C5.35974 4.69542 6.20136 2.93629 7.8846 0C7.8846 0 8.11766 1.54859 8.58377 4.64578L11.4284 4.64586L12.1266 0C13.8227 2.97523 14.6708 4.73436 14.6708 5.27738Z" fill="white"/>
<path d="M10.0011 20.0002L3.66992 15.5702V5.23081C3.66992 5.23081 6.01074 4.36816 10.0092 4.36816C14.0076 4.36816 16.3313 5.23081 16.3313 5.23081V15.5702L10.0011 20.0002Z" fill="white"/>
<path d="M10.0011 19.3774L4.07446 15.2478V5.64573C4.07446 5.64573 6.29077 4.8446 10.0011 4.8446V19.3774Z" fill="#DBDBDB"/>
<path d="M10.0091 4.8446C10.0064 4.8446 10.0038 4.84469 10.001 4.8446V19.3652H10.0011L15.8757 15.2475V5.64573C15.8757 5.64573 13.7194 4.8446 10.0091 4.8446Z" fill="#C6C6C6"/>
<path d="M13.2079 17.1178L12.7081 12.7809H9.96149C9.96149 16.2231 9.96149 18.4252 9.96149 19.3872L10.0011 19.4245C11.0696 18.6945 12.1386 17.9256 13.2079 17.1178Z" fill="#3B3B63"/>
<path d="M6.79596 17.1519L10.0011 19.4244L10.0027 12.6487H7.22688L6.79596 17.1519Z" fill="#53537A"/>
<path d="M11.3726 15.8685C11.3726 16.6136 10.6646 16.983 10.0151 16.983C9.36562 16.983 8.64331 16.6136 8.64331 15.8685" fill="#BC9375"/>
<path d="M10.0079 16.2537C9.48652 16.2537 9.23297 15.8777 9.23297 15.1046H9.48159C9.48159 16.0097 9.837 16.0097 10.0079 16.0097C10.1788 16.0097 10.5343 16.0097 10.5343 15.1046H10.7828C10.7828 15.8777 10.5293 16.2537 10.0079 16.2537Z" fill="white"/>
<path d="M10.001 15.2937C10.1615 15.7083 10.4716 15.9156 10.9313 15.9156C11.3814 15.9156 11.8512 15.6827 12.0651 15.1073C12.3639 14.3023 12.3609 13.1819 12.3609 13.1819C12.3609 13.1819 13.6886 11.5485 13.6886 10.9962C13.6886 10.9962 12.4594 10.9962 10.001 10.9962V15.2937Z" fill="#C49A7E"/>
<path d="M6.26001 10.9962C6.26001 11.6358 7.57623 13.1819 7.57623 13.1819C7.57623 13.1819 7.573 14.302 7.8721 15.1073C8.08552 15.6823 8.55573 15.9156 9.00596 15.9156C9.4657 15.9156 9.7974 15.7083 10.001 15.2937V10.9962H6.26001Z" fill="#D8B7A0"/>
<path d="M13.5301 7.31849C12.5066 6.28724 12.2506 4.13684 12.2506 4.13684C12.0595 4.81444 11.6441 6.81228 11.6441 6.81228C11.6441 6.81228 10.8374 6.55589 9.96842 6.55454C9.93989 6.55454 9.93989 9.24632 9.96842 14.6299L10.7957 14.0423L10.9495 11.1907L11.8304 12.1783L12.9651 12.5042C12.9651 12.5042 13.3897 12.2067 13.3897 12.2078C13.57 11.9597 13.6298 11.7484 13.6734 11.6387C13.831 11.2397 13.4771 8.18835 13.4771 8.18835C13.3514 7.92993 13.5301 7.31849 13.5301 7.31849Z" fill="#3B3B63"/>
<path d="M8.37953 6.81167C8.37953 6.81167 7.96401 4.81391 7.77308 4.13623C7.77308 4.13623 7.51727 6.28663 6.4936 7.31788C6.4936 7.31788 6.67223 7.9294 6.54659 8.18774C6.54659 8.18774 6.19272 11.2392 6.35032 11.6376C6.39384 11.7473 6.45411 11.9586 6.63412 12.2067C6.63412 12.2056 7.05895 12.5032 7.05895 12.5032L8.19346 12.1772L9.07417 11.1897L9.22837 14.0413L10.0019 14.6134V6.53895C9.12965 6.54038 8.37953 6.81167 8.37953 6.81167Z" fill="#53537A"/>
<path d="M12.8139 2.14363C12.9837 2.45463 14.4436 5.32978 14.4436 6.32544L13.7961 8.05845C13.9056 9.03633 14.1235 11.1611 13.959 11.5762C13.8575 11.833 13.4704 12.3612 13.1394 12.7889L13.592 16.8483L12.9801 17.2813L12.64 14.3152C12.5932 14.6162 12.5229 14.9376 12.4157 15.2262C12.274 15.6082 12.0235 15.8977 11.7031 16.0691C11.6843 16.9849 10.8249 17.4789 10.0151 17.4789C9.19866 17.4789 8.33203 16.9853 8.31293 16.0698C7.99191 15.8981 7.74111 15.6086 7.5992 15.2262C7.4963 14.9487 7.42696 14.6415 7.37996 14.3506L7.05453 17.3358L6.43937 16.8958L6.88361 12.8013C6.54997 12.3716 6.15548 11.8356 6.05298 11.576C5.8885 11.1608 6.09788 9.03633 6.20759 8.05829L5.52161 6.26456V6.2061C5.52161 5.21044 7.01969 2.45463 7.18975 2.14363L7.67493 1.27051C7.97034 3.29345 8.11793 4.30581 8.11771 4.30761L8.35662 5.94688L8.67093 6.4546C8.97294 6.35446 9.48563 6.2154 10.0048 6.2154C10.5245 6.2154 11.0407 6.35493 11.344 6.45492L11.6581 5.94696L12.3388 1.27051L12.8139 2.14363ZM10.0151 16.828C10.3735 16.828 10.884 16.6688 11.0114 16.2467C10.9977 16.2471 10.9845 16.2482 10.9709 16.2482C10.9011 16.2482 10.8359 16.2418 10.7726 16.2333C10.5878 16.4859 10.2998 16.5625 10.008 16.5625C9.71677 16.5625 9.42932 16.4852 9.24478 16.233C9.18111 16.2419 9.11517 16.2482 9.04487 16.2482C9.03144 16.2482 9.01849 16.2471 9.0053 16.2467C9.13402 16.6688 9.65132 16.828 10.0151 16.828ZM9.59541 16.1342C9.70657 16.216 9.84395 16.2615 10.0083 16.2615C10.1717 16.2615 10.3084 16.2157 10.4194 16.1342C10.3309 16.0956 10.2508 16.0495 10.1802 15.9992C10.1163 16.0178 10.0551 16.0174 10.0079 16.0174C9.96053 16.0174 9.89872 16.0174 9.83432 15.9988C9.76385 16.0495 9.68392 16.0956 9.59541 16.1342ZM12.1421 12.9851C12.5824 12.4479 13.2454 11.5827 13.3414 11.3406C13.4138 11.0913 13.2903 9.43858 13.1331 8.05337L13.1244 7.97657L13.2543 7.63245C12.826 7.1839 12.5271 6.5692 12.3229 5.98874L12.2964 6.17108L11.62 7.26292L11.3559 7.15237C11.3494 7.14959 10.6598 6.86599 10.0052 6.86599C9.34639 6.86599 8.66794 7.14935 8.6613 7.15213L8.39675 7.26364L7.71959 6.17132L7.69952 6.03138C7.49314 6.60621 7.19396 7.21011 6.7676 7.64889L6.8917 7.97681L6.88305 8.05369C6.72577 9.43858 6.60223 11.0913 6.67707 11.3468C6.77067 11.5831 7.43368 12.4483 7.87379 12.9851L7.94725 13.0747L7.94685 13.1897C7.94685 13.2005 7.94814 14.2631 8.22273 15.0027C8.42207 15.5391 8.86429 15.5964 9.04543 15.5964C9.50076 15.5964 9.69339 15.1861 9.70132 15.1686C9.80802 14.9624 9.86137 14.6237 9.86137 14.1523H10.1367C10.1367 14.531 10.194 14.8705 10.3088 15.1708C10.3158 15.1857 10.5133 15.5975 10.9709 15.5975C11.1516 15.5975 11.594 15.5395 11.7932 15.0031C12.0686 14.2609 12.069 13.2005 12.069 13.1901L12.0686 13.0751L12.1421 12.9851Z" fill="#333152"/>
<path d="M12.067 10.0966H11.0727H10.7413V10.1103C10.7413 10.5649 11.1416 10.9331 11.6111 10.9331C12.0809 10.9331 12.4812 10.5648 12.4812 10.1103V10.0966H12.067Z" fill="#333152"/>
<path d="M11.0727 10.0966V10.1103C11.0727 10.3807 11.2944 10.5998 11.5699 10.5998C11.8455 10.5998 12.0671 10.3807 12.0671 10.1103V10.0966H11.0727Z" fill="white"/>
<path d="M11.4902 10.0966C11.488 10.0966 11.486 10.0977 11.484 10.0981C11.5129 10.104 11.5289 10.1684 11.5227 10.2112C11.5134 10.2766 11.4566 10.322 11.3915 10.3231C11.4105 10.4087 11.4815 10.4774 11.5758 10.4905C11.6964 10.5072 11.8078 10.4261 11.8249 10.3078C11.8372 10.2208 11.7945 10.0966 11.7232 10.0966H11.4902Z" fill="#333152"/>
<path d="M8.8668 10.0966H7.87266H7.5412V10.1103C7.5412 10.5649 7.94159 10.9331 8.41107 10.9331C8.8808 10.9331 9.28119 10.5648 9.28119 10.1103V10.0966H8.8668Z" fill="#333152"/>
<path d="M7.87268 10.0966V10.1103C7.87268 10.3807 8.09452 10.5998 8.36967 10.5998C8.64531 10.5998 8.8669 10.3807 8.8669 10.1103V10.0966H7.87268Z" fill="white"/>
<path d="M8.52329 10.0966H8.29005C8.28802 10.0966 8.28584 10.0977 8.28398 10.0981C8.31278 10.104 8.32872 10.1684 8.32265 10.2112C8.31327 10.2766 8.2568 10.322 8.19135 10.3231C8.21052 10.4087 8.28155 10.4774 8.37572 10.4905C8.49619 10.5072 8.60784 10.4261 8.62466 10.3078C8.63712 10.2208 8.59457 10.0966 8.52329 10.0966Z" fill="#333152"/>
<path d="M11.967 9.70846C12.0226 9.64858 12.4952 9.12219 11.8632 9.12219C11.2921 9.12219 10.8812 9.57456 10.7723 9.70846H11.967Z" fill="#C49A7E"/>
<path d="M9.24079 9.70846C9.13198 9.57456 8.72107 9.12219 8.14981 9.12219C7.51812 9.12219 7.99067 9.64858 8.04601 9.70846H9.24079Z" fill="#D8B7A0"/>
<path d="M6.20258 6.1534C6.24011 5.63694 6.78743 4.39953 7.3095 3.35669L7.44865 4.31018C7.39558 4.66669 7.15303 6.06485 6.5024 6.94615L6.20258 6.1534Z" fill="#D8B7A0"/>
<path d="M12.5783 4.23585L12.7065 3.35669C13.2285 4.39945 13.7762 5.63694 13.8137 6.1534L13.5209 6.92733C12.8179 5.95716 12.5974 4.37999 12.5783 4.23585Z" fill="#C49A7E"/>
<path d="M9.52041 14.7315C9.27524 14.5489 9.02374 14.3185 9.02374 14.1417C9.02374 14.0256 9.23288 13.6677 9.23288 13.6677H10.788C10.788 13.6677 10.992 13.985 10.992 14.1417C10.992 14.3063 10.7381 14.5304 10.4848 14.713C10.3986 14.5672 10.2889 14.5419 10.2382 14.6568C10.212 14.7163 10.2069 14.802 10.2196 14.8917C10.0817 14.9792 9.98091 15.0355 9.98091 15.0355C9.98091 15.0355 9.90306 14.9909 9.79176 14.919C9.80971 14.8196 9.80626 14.7223 9.77736 14.6568C9.72623 14.5404 9.61434 14.5679 9.52745 14.7189C9.52506 14.723 9.52271 14.7272 9.52041 14.7315Z" fill="#333152"/>
</svg>
