<svg width="20" height="20" viewBox="0 0 20 20" fill="none" xmlns="http://www.w3.org/2000/svg">
<path d="M10.0001 17.828C12.5831 17.828 14.677 15.7341 14.677 13.1511C14.677 10.5681 12.5831 8.47412 10.0001 8.47412C7.41706 8.47412 5.32312 10.5681 5.32312 13.1511C5.32312 15.7341 7.41706 17.828 10.0001 17.828Z" fill="url(#paint0_linear_12283_5905)"/>
<path d="M0.126268 7.74646L2.6406 10.7245C2.73354 10.8338 2.8664 10.9013 3.00947 10.9119C3.15254 10.9225 3.29388 10.8752 3.40188 10.7808C7.4736 7.12994 12.5157 7.12994 16.5981 10.7808C16.7061 10.8752 16.8475 10.9225 16.9905 10.9119C17.1336 10.9013 17.2665 10.8338 17.3594 10.7245L19.8737 7.74646C20.0637 7.52113 20.0362 7.18467 19.8121 6.99323C13.9149 1.82517 6.09581 1.82517 0.18792 6.99323C-0.0361981 7.18467 -0.0637373 7.52113 0.126268 7.74646Z" fill="#2684FF"/>
<defs>
<linearGradient id="paint0_linear_12283_5905" x1="10.0001" y1="17.828" x2="10.0001" y2="8.47412" gradientUnits="userSpaceOnUse">
<stop stop-color="#2684FF"/>
<stop offset="0.82" stop-color="#0052CC"/>
</linearGradient>
</defs>
</svg>
