<svg width="20" height="20" viewBox="0 0 20 20" fill="none" xmlns="http://www.w3.org/2000/svg">
<path d="M2.27002 5.46953V14.4833L9.98998 19L17.7364 14.4858V5.46924L10.0034 1L2.27002 5.46953Z" fill="white"/>
<path d="M15.4882 6.99541L13.8171 7.96897C14.0441 9.15955 13.8342 10.3921 13.2258 11.4404C12.6226 12.4577 11.576 13.2564 10.1975 13.7521V16.0284C14.107 14.5293 16.4108 10.5958 15.4882 6.99541ZM12.9077 11.2515C13.4477 10.3202 13.648 9.23033 13.4744 8.16782L11.6643 9.21149C11.6553 10.1061 11.1236 10.9064 10.1975 11.4182V13.3677C11.4275 12.8995 12.3634 12.1692 12.9077 11.2515ZM15.8197 6.80224C16.8731 10.6694 14.4154 14.8771 10.1975 16.4231V18.8799L17.7364 14.4863V5.68555L15.8197 6.80224Z" fill="#08B1D5"/>
<path d="M8.36259 9.20001L6.55075 8.15358C6.44112 9.20721 6.67786 10.2679 7.2251 11.1749C7.80954 12.17 8.71012 12.941 9.78344 13.3651V11.4212C9.35826 11.2266 8.99815 10.9136 8.74617 10.5197C8.49419 10.1258 8.36103 9.66761 8.36259 9.20001ZM6.90771 11.365C6.28925 10.3418 6.04063 9.13743 6.20339 7.95299L4.5213 6.98176C3.55516 10.7051 5.79974 14.5648 9.78344 16.0293V13.7728C8.57444 13.3283 7.55775 12.4771 6.90771 11.365ZM4.1895 6.79019L2.27002 5.68164V14.4832L9.78343 18.879V16.4232C5.5571 14.9356 3.1112 10.7227 4.1895 6.79019Z" fill="#1904DA"/>
<path d="M12.7874 4.28391C9.93029 2.89098 6.38327 3.92884 4.67471 6.64471L6.30778 7.58743C7.53065 5.68715 9.97408 4.93425 11.9032 5.87494C12.6642 6.24642 13.2926 6.84308 13.7029 7.58394L15.3297 6.64457C15.3188 6.62929 15.3085 6.61387 15.2991 6.5986C14.7011 5.60214 13.8293 4.79865 12.7874 4.28391ZM11.741 6.20746C9.98412 5.351 7.75408 6.03873 6.62852 7.7726L8.45025 8.82412C8.62381 8.55744 8.8602 8.33745 9.13865 8.18348C9.4171 8.0295 9.7291 7.94625 10.0472 7.94104C10.3085 7.94061 10.5663 7.99997 10.801 8.11457C11.118 8.26961 11.38 8.51806 11.5514 8.82645L13.3825 7.76896C13.0089 7.09207 12.4357 6.54681 11.741 6.20746ZM10.0033 1.00293L2.45398 5.36278L4.35382 6.45954C6.15926 3.57698 9.91997 2.4741 12.9493 3.95139C14.0542 4.49635 14.9791 5.34763 15.6135 6.40369C15.6243 6.42114 15.6374 6.43932 15.6518 6.45838L17.5509 5.36176L10.0033 1.00293Z" fill="#FFC900"/>
<path d="M11.2805 9.0838C11.1406 8.80922 10.9173 8.58603 10.6426 8.44625C10.4778 8.36351 10.2974 8.31609 10.1131 8.30702C9.92886 8.29796 9.74473 8.32744 9.57251 8.39359C9.20947 8.51836 8.90365 8.76995 8.71124 9.10213C8.70688 9.15889 8.70581 9.21586 8.70804 9.27275C8.73058 9.64513 8.84854 10.0054 9.05057 10.3191C9.25261 10.6327 9.53193 10.889 9.86168 11.0635L9.97834 11.1192L10.0796 11.0651C10.8159 10.653 11.2545 9.9999 11.2827 9.27304C11.2828 9.271 11.2859 9.19915 11.2805 9.0838Z" fill="#FF445F"/>
</svg>
