<svg width="20" height="20" viewBox="0 0 20 20" fill="none" xmlns="http://www.w3.org/2000/svg">
<path d="M9.99992 9.99992C9.08325 9.99992 8.29853 9.67353 7.64575 9.02075C6.99297 8.36797 6.66659 7.58325 6.66659 6.66659C6.66659 5.74992 6.99297 4.9652 7.64575 4.31242C8.29853 3.65964 9.08325 3.33325 9.99992 3.33325C10.9166 3.33325 11.7013 3.65964 12.3541 4.31242C13.0069 4.9652 13.3333 5.74992 13.3333 6.66659C13.3333 7.58325 13.0069 8.36797 12.3541 9.02075C11.7013 9.67353 10.9166 9.99992 9.99992 9.99992ZM3.33325 16.6666V14.3333C3.33325 13.861 3.45478 13.427 3.69784 13.0312C3.94089 12.6353 4.26381 12.3333 4.66659 12.1249C5.5277 11.6944 6.4027 11.3714 7.29159 11.1562C8.18047 10.9409 9.08325 10.8333 9.99992 10.8333C10.9166 10.8333 11.8194 10.9409 12.7083 11.1562C13.5971 11.3714 14.4721 11.6944 15.3333 12.1249C15.736 12.3333 16.0589 12.6353 16.302 13.0312C16.5451 13.427 16.6666 13.861 16.6666 14.3333V16.6666H3.33325Z" fill="black" fill-opacity="0.4"/>
</svg>
