<svg width="20" height="20" viewBox="0 0 20 20" fill="none" xmlns="http://www.w3.org/2000/svg">
<path d="M9.4358 8.64392C8.68704 9.90259 7.96967 11.1215 7.23737 12.3312C7.04931 12.6418 6.95626 12.8947 7.10651 13.2895C7.52128 14.3801 6.93617 15.4413 5.8364 15.7294C4.79927 16.0012 3.78879 15.3195 3.58301 14.2092C3.40066 13.2263 4.16337 12.2628 5.24696 12.1092C5.33778 12.0963 5.43042 12.0947 5.58304 12.0833C6.11403 11.1929 6.65798 10.2809 7.23137 9.31929C6.19466 8.28844 5.5776 7.08334 5.71419 5.59015C5.81073 4.5346 6.22577 3.62247 6.98444 2.87483C8.43745 1.44316 10.6542 1.2113 12.365 2.31023C14.0082 3.36577 14.7607 5.4219 14.1192 7.1817C13.6355 7.05055 13.1485 6.9183 12.613 6.77307C12.8145 5.79467 12.6655 4.91603 12.0056 4.16336C11.5696 3.66642 11.0102 3.40595 10.374 3.30997C9.09874 3.1173 7.84662 3.93666 7.4751 5.18835C7.05336 6.609 7.69162 7.76946 9.4358 8.64392Z" fill="#C73A63"/>
<path d="M11.5741 7.15535C12.1015 8.08589 12.6371 9.03052 13.168 9.96651C15.8511 9.13641 17.874 10.6217 18.5997 12.2118C19.4763 14.1326 18.8771 16.4076 17.1555 17.5926C15.3884 18.8092 13.1537 18.6013 11.5881 17.0386C11.9871 16.7046 12.3881 16.3691 12.8165 16.0107C14.3629 17.0123 15.7153 16.9651 16.7194 15.7791C17.5756 14.7674 17.557 13.2588 16.676 12.2683C15.6592 11.1253 14.2973 11.0904 12.6511 12.1877C11.9682 10.9762 11.2734 9.77426 10.6121 8.55395C10.3892 8.14267 10.1429 7.90411 9.64042 7.81705C8.80112 7.67154 8.25926 6.95082 8.22675 6.14333C8.1948 5.34476 8.66524 4.62293 9.4006 4.34168C10.129 4.06307 10.9838 4.28796 11.4737 4.90726C11.8741 5.41326 12.0014 5.98275 11.7907 6.60679C11.7321 6.78076 11.6562 6.94915 11.5741 7.15535Z" fill="black" fill-opacity="0.6"/>
<path d="M12.8348 14.7628H9.60486C9.29528 16.0361 8.6266 17.0642 7.47437 17.7179C6.57871 18.226 5.61329 18.3983 4.58579 18.2324C2.69401 17.9273 1.1471 16.2243 1.01094 14.3066C0.85678 12.1343 2.34997 10.2033 4.34025 9.76953C4.47767 10.2686 4.61648 10.7723 4.7539 11.2701C2.92783 12.2018 2.29584 13.3756 2.80687 14.8434C3.2568 16.1352 4.53473 16.8432 5.92231 16.5693C7.33933 16.2897 8.05377 15.1121 7.96657 13.2222C9.30993 13.2222 10.6544 13.2082 11.9979 13.229C12.5225 13.2372 12.9275 13.1828 13.3227 12.7203C13.9734 11.9593 15.171 12.0279 15.8717 12.7467C16.5878 13.4812 16.5535 14.6632 15.7957 15.3667C15.0645 16.0456 13.9093 16.0093 13.2253 15.2779C13.0847 15.1271 12.9739 14.9481 12.8348 14.7628Z" fill="black" fill-opacity="0.6"/>
</svg>
