<svg width="20" height="20" viewBox="0 0 20 20" fill="none" xmlns="http://www.w3.org/2000/svg">
<path d="M6.01399 10.7809C6.02953 10.8119 6.07615 10.8119 6.07615 10.7809L7.16395 7.95258C7.21057 7.81272 7.35043 7.73502 7.49029 7.73502H8.50039C8.68687 7.73502 8.85781 7.89042 8.85781 8.0769C8.85781 8.12352 8.85781 8.1546 8.84227 8.20122L6.38695 14.8057C6.38695 14.8213 6.30925 14.8834 6.24709 14.93C6.23155 14.9456 6.20047 14.9456 6.16939 14.9456C6.07615 14.9145 5.98291 14.8368 5.95183 14.7436L4.64647 11.5889C4.59985 11.4957 4.49107 11.4491 4.39783 11.4957C4.36675 11.5112 4.32013 11.5423 4.30459 11.5889L2.65735 14.8679C2.64181 14.8834 2.62627 14.899 2.61073 14.8834C2.59519 14.8834 2.59519 14.8679 2.59519 14.8679L0.0310842 8.18568C-0.0310759 7.9992 0.0466242 7.79718 0.233104 7.73502C0.279724 7.71948 0.310804 7.70394 0.357424 7.70394H1.46077C1.60063 7.70394 1.74049 7.79718 1.78711 7.9215L2.87491 10.7653C2.89045 10.7964 2.93707 10.7964 2.93707 10.7653L4.30459 7.79718C4.35121 7.70394 4.45999 7.65732 4.55323 7.70394C4.59985 7.71948 4.63093 7.75056 4.64647 7.79718L6.01399 10.7809ZM18.4926 5.03106C18.4771 4.98444 18.3994 4.98444 18.3838 5.03106C18.3217 5.34186 18.1818 5.80806 17.9332 6.0567C17.6845 6.30534 17.2183 6.4452 16.9075 6.50736C16.8609 6.5229 16.8609 6.6006 16.9075 6.61614C17.2183 6.6783 17.6845 6.81816 17.9332 7.0668C18.2595 7.39314 18.3683 7.8438 18.4149 8.10798C18.4149 8.12352 18.4771 8.12352 18.4771 8.10798C18.5392 7.82826 18.6636 7.33098 18.9277 7.0668C19.1764 6.81816 19.6426 6.6783 19.9534 6.61614C20 6.6006 20 6.5229 19.9534 6.50736C19.6426 6.4452 19.1764 6.30534 18.9277 6.0567C18.6946 5.80806 18.5548 5.34186 18.4926 5.03106ZM9.24631 8.10798C9.24631 7.9215 9.40171 7.75056 9.60373 7.75056H10.6605C10.8469 7.75056 11.0179 7.90596 11.0179 8.10798V14.5882C11.0179 14.7746 10.8625 14.9456 10.6605 14.9456H9.60373C9.41725 14.9456 9.24631 14.7902 9.24631 14.5882V8.10798ZM14.0637 9.59982C14.0793 9.5532 14.0637 9.49104 14.0171 9.4755C14.0016 9.4755 13.986 9.45996 13.9705 9.45996H11.8881C11.7016 9.45996 11.5307 9.30456 11.5307 9.10254V8.10798C11.5307 7.9215 11.6861 7.75056 11.8881 7.75056H16.7211C16.8765 7.75056 17.0785 7.87488 17.0008 7.9992L14.2036 13.2206C14.1725 13.2673 14.2036 13.3294 14.2502 13.345C14.2657 13.345 14.2813 13.3605 14.2968 13.3605H16.8454C17.0319 13.3605 17.2028 13.5159 17.2028 13.7179V14.5882C17.2028 14.7746 17.0474 14.9456 16.8454 14.9456H11.7172C11.5462 14.9456 11.5152 14.6969 11.5929 14.5415L14.0637 9.59982Z" fill="#325FE8"/>
</svg>
