<svg width="150" height="150" viewBox="0 0 150 150" fill="none" xmlns="http://www.w3.org/2000/svg">
<g clip-path="url(#clip0_543_765)">
<path d="M79.0717 102.145C78.2405 102.162 77.562 101.48 77.562 100.662V18.6724C77.562 17.7352 78.3254 16.9685 79.2583 17.0026C101.886 17.9056 119.968 36.614 119.968 59.5651C119.968 82.5844 101.784 101.344 79.0717 102.145Z" fill="url(#paint0_linear_543_765)"/>
<path d="M67.3847 66.3889C67.3847 65.4517 66.6215 64.6851 65.6885 64.6851H31.7636C30.8307 64.6851 30.0674 65.4517 30.0674 66.3889V130.846C30.0674 131.681 30.7458 132.362 31.577 132.328C51.4231 131.511 67.3847 114.677 67.3847 93.9063V66.3889Z" fill="url(#paint1_linear_543_765)"/>
<path d="M67.3846 52.7495C67.3846 53.6866 66.6213 54.4534 65.6883 54.4534H31.7635C30.8305 54.4534 30.0672 53.6866 30.1012 52.7495C30.9662 33.0528 46.7922 17.8713 65.6883 17.0024C66.6213 16.9513 67.3846 17.735 67.3846 18.6722V52.7495Z" fill="url(#paint2_linear_543_765)"/>
</g>
<defs>
<linearGradient id="paint0_linear_543_765" x1="80.9544" y1="92.8246" x2="74.3607" y2="43.1127" gradientUnits="userSpaceOnUse">
<stop offset="0.0746678" stop-color="#2DB8E6"/>
<stop offset="1" stop-color="#4FE8D4"/>
</linearGradient>
<linearGradient id="paint1_linear_543_765" x1="36.0381" y1="132.33" x2="81.2414" y2="110.196" gradientUnits="userSpaceOnUse">
<stop offset="0.0001" stop-color="#4243F6"/>
<stop offset="1" stop-color="#2991F3"/>
</linearGradient>
<linearGradient id="paint2_linear_543_765" x1="58.9034" y1="23.8178" x2="37.5708" y2="54.397" gradientUnits="userSpaceOnUse">
<stop offset="0.112043" stop-color="#FF7826"/>
<stop offset="1" stop-color="#FF6489"/>
</linearGradient>
<clipPath id="clip0_543_765">
<rect width="90" height="115.385" fill="white" transform="translate(30 17)"/>
</clipPath>
</defs>
</svg>
