<svg width="21" height="20" viewBox="0 0 21 20" fill="none" xmlns="http://www.w3.org/2000/svg">
<mask id="mask0_4291_10037" style="mask-type:alpha" maskUnits="userSpaceOnUse" x="0" y="0" width="21" height="20">
<rect x="0.5" width="20" height="20" fill="#D9D9D9"/>
</mask>
<g mask="url(#mask0_4291_10037)">
<rect x="0.5" width="20" height="20" rx="4" fill="#EC961D"/>
<mask id="mask1_4291_10037" style="mask-type:alpha" maskUnits="userSpaceOnUse" x="2" y="2" width="17" height="16">
<rect x="2.5" y="2" width="16" height="16" fill="#D9D9D9"/>
</mask>
<g mask="url(#mask1_4291_10037)">
<path d="M5.08321 14.4169C4.80534 14.4169 4.56641 14.3169 4.36641 14.1169C4.16641 13.9169 4.06641 13.6779 4.06641 13.4001C4.06641 13.1222 4.16641 12.8833 4.36641 12.6833C4.56641 12.4833 4.80534 12.3833 5.08321 12.3833C5.36107 12.3833 5.60001 12.4833 5.80001 12.6833C6.00001 12.8833 6.10001 13.1222 6.10001 13.4001C6.10001 13.6779 6.00001 13.9169 5.80001 14.1169C5.60001 14.3169 5.36107 14.4169 5.08321 14.4169ZM7.30001 14.2169V12.5833H16.5336V14.2169H7.30001ZM5.08321 11.0169C4.80534 11.0169 4.56641 10.9169 4.36641 10.7169C4.16641 10.5169 4.06641 10.2779 4.06641 10.0001C4.06641 9.72219 4.16641 9.48325 4.36641 9.28325C4.56641 9.08325 4.80534 8.98325 5.08321 8.98325C5.36107 8.98325 5.60001 9.08325 5.80001 9.28325C6.00001 9.48325 6.10001 9.72219 6.10001 10.0001C6.10001 10.2779 6.00001 10.5169 5.80001 10.7169C5.60001 10.9169 5.36107 11.0169 5.08321 11.0169ZM7.30001 10.8169V9.18325H16.5336V10.8169H7.30001ZM5.08321 7.61685C4.80534 7.61685 4.56641 7.51685 4.36641 7.31685C4.16641 7.11685 4.06641 6.87792 4.06641 6.60005C4.06641 6.32219 4.16641 6.08325 4.36641 5.88325C4.56641 5.68325 4.80534 5.58325 5.08321 5.58325C5.36107 5.58325 5.60001 5.68325 5.80001 5.88325C6.00001 6.08325 6.10001 6.32219 6.10001 6.60005C6.10001 6.87792 6.00001 7.11685 5.80001 7.31685C5.60001 7.51685 5.36107 7.61685 5.08321 7.61685ZM7.30001 7.41685V5.78325H16.5336V7.41685H7.30001Z" fill="white"/>
</g>
</g>
</svg>
