<svg width="21" height="20" viewBox="0 0 21 20" fill="none" xmlns="http://www.w3.org/2000/svg">
<mask id="mask0_4285_9989" style="mask-type:alpha" maskUnits="userSpaceOnUse" x="0" y="0" width="21" height="20">
<rect x="0.5" width="20" height="20" fill="#D9D9D9"/>
</mask>
<g mask="url(#mask0_4285_9989)">
<rect x="0.5" width="20" height="20" rx="4" fill="#22B149"/>
<mask id="mask1_4285_9989" style="mask-type:alpha" maskUnits="userSpaceOnUse" x="0" y="0" width="15" height="14">
<rect x="0.5" width="14" height="14" fill="#D9D9D9"/>
</mask>
<g mask="url(#mask1_4285_9989)">
<path d="M6.07084 10.7624L2.48334 7.17492L3.59167 6.06659L6.07084 8.56034L11.4083 3.20825L12.5167 4.31659L6.07084 10.7624Z" fill="white"/>
</g>
<mask id="mask2_4285_9989" style="mask-type:alpha" maskUnits="userSpaceOnUse" x="6" y="6" width="15" height="14">
<rect x="6.5" y="6" width="14" height="14" fill="#D9D9D9"/>
</mask>
<g mask="url(#mask2_4285_9989)">
<path d="M10.2333 17.3458L9.15417 16.2667L12.4208 13L9.15417 9.73334L10.2333 8.65417L13.5 11.9208L16.7667 8.65417L17.8458 9.73334L14.5792 13L17.8458 16.2667L16.7667 17.3458L13.5 14.0792L10.2333 17.3458Z" fill="white"/>
</g>
</g>
</svg>
