<svg width="21" height="20" viewBox="0 0 21 20" fill="none" xmlns="http://www.w3.org/2000/svg">
<mask id="mask0_4328_9898" style="mask-type:alpha" maskUnits="userSpaceOnUse" x="0" y="0" width="21" height="20">
<rect x="0.5" width="20" height="20" fill="#D9D9D9"/>
</mask>
<g mask="url(#mask0_4328_9898)">
<rect x="0.5" width="20" height="20" rx="4" fill="#858585"/>
<mask id="mask1_4328_9898" style="mask-type:alpha" maskUnits="userSpaceOnUse" x="2" y="2" width="17" height="16">
<rect x="2.5" y="2" width="16" height="16" fill="#D9D9D9"/>
</mask>
<g mask="url(#mask1_4328_9898)">
<path d="M5.95002 16.9834C5.45002 16.9834 5.03068 16.8138 4.69202 16.4747C4.35291 16.1361 4.18335 15.7167 4.18335 15.2167V6.11672C4.18335 5.61672 4.35291 5.19717 4.69202 4.85806C5.03068 4.51939 5.45002 4.35006 5.95002 4.35006H6.50002V3.01672H8.05002V4.35006H12.95V3.01672H14.5V4.35006H15.05C15.55 4.35006 15.9696 4.51939 16.3087 4.85806C16.6473 5.19717 16.8167 5.61672 16.8167 6.11672V15.2167C16.8167 15.7167 16.6473 16.1361 16.3087 16.4747C15.9696 16.8138 15.55 16.9834 15.05 16.9834H5.95002ZM5.95002 15.2167H15.05V8.66672H5.95002V15.2167ZM5.95002 7.33339H15.05V6.11672H5.95002V7.33339ZM10.5 11.4167C10.2889 11.4167 10.1111 11.3445 9.96668 11.2001C9.82224 11.0556 9.75002 10.8778 9.75002 10.6667C9.75002 10.4556 9.82224 10.2778 9.96668 10.1334C10.1111 9.98895 10.2889 9.91672 10.5 9.91672C10.7111 9.91672 10.8889 9.98895 11.0333 10.1334C11.1778 10.2778 11.25 10.4556 11.25 10.6667C11.25 10.8778 11.1778 11.0556 11.0333 11.2001C10.8889 11.3445 10.7111 11.4167 10.5 11.4167ZM7.83335 11.4167C7.62224 11.4167 7.44446 11.3445 7.30002 11.2001C7.15557 11.0556 7.08335 10.8778 7.08335 10.6667C7.08335 10.4556 7.15557 10.2778 7.30002 10.1334C7.44446 9.98895 7.62224 9.91672 7.83335 9.91672C8.04446 9.91672 8.22224 9.98895 8.36668 10.1334C8.51113 10.2778 8.58335 10.4556 8.58335 10.6667C8.58335 10.8778 8.51113 11.0556 8.36668 11.2001C8.22224 11.3445 8.04446 11.4167 7.83335 11.4167ZM13.1667 11.4167C12.9667 11.4167 12.7918 11.3445 12.642 11.2001C12.4918 11.0556 12.4167 10.8778 12.4167 10.6667C12.4167 10.4556 12.4918 10.2778 12.642 10.1334C12.7918 9.98895 12.9667 9.91672 13.1667 9.91672C13.3778 9.91672 13.5556 9.98895 13.7 10.1334C13.8445 10.2778 13.9167 10.4556 13.9167 10.6667C13.9167 10.8778 13.8445 11.0556 13.7 11.2001C13.5556 11.3445 13.3778 11.4167 13.1667 11.4167ZM10.5 14.0834C10.2889 14.0834 10.1111 14.0085 9.96668 13.8587C9.82224 13.7085 9.75002 13.5334 9.75002 13.3334C9.75002 13.1223 9.82224 12.9445 9.96668 12.8001C10.1111 12.6556 10.2889 12.5834 10.5 12.5834C10.7111 12.5834 10.8889 12.6556 11.0333 12.8001C11.1778 12.9445 11.25 13.1223 11.25 13.3334C11.25 13.5334 11.1778 13.7085 11.0333 13.8587C10.8889 14.0085 10.7111 14.0834 10.5 14.0834ZM7.83335 14.0834C7.62224 14.0834 7.44446 14.0085 7.30002 13.8587C7.15557 13.7085 7.08335 13.5334 7.08335 13.3334C7.08335 13.1223 7.15557 12.9445 7.30002 12.8001C7.44446 12.6556 7.62224 12.5834 7.83335 12.5834C8.04446 12.5834 8.22224 12.6556 8.36668 12.8001C8.51113 12.9445 8.58335 13.1223 8.58335 13.3334C8.58335 13.5334 8.51113 13.7085 8.36668 13.8587C8.22224 14.0085 8.04446 14.0834 7.83335 14.0834ZM13.1667 14.0834C12.9667 14.0834 12.7918 14.0085 12.642 13.8587C12.4918 13.7085 12.4167 13.5334 12.4167 13.3334C12.4167 13.1223 12.4918 12.9445 12.642 12.8001C12.7918 12.6556 12.9667 12.5834 13.1667 12.5834C13.3778 12.5834 13.5556 12.6556 13.7 12.8001C13.8445 12.9445 13.9167 13.1223 13.9167 13.3334C13.9167 13.5334 13.8445 13.7085 13.7 13.8587C13.5556 14.0085 13.3778 14.0834 13.1667 14.0834Z" fill="white"/>
</g>
</g>
</svg>
