<svg width="21" height="20" viewBox="0 0 21 20" fill="none" xmlns="http://www.w3.org/2000/svg">
<mask id="mask0_4371_9954" style="mask-type:alpha" maskUnits="userSpaceOnUse" x="0" y="0" width="21" height="20">
<rect x="0.5" width="20" height="20" fill="#D9D9D9"/>
</mask>
<g mask="url(#mask0_4371_9954)">
<rect x="0.5" width="20" height="20" rx="4" fill="#EC961D"/>
<mask id="mask1_4371_9954" style="mask-type:alpha" maskUnits="userSpaceOnUse" x="2" y="2" width="17" height="16">
<rect x="2.5" y="2" width="16" height="16" fill="#D9D9D9"/>
</mask>
<g mask="url(#mask1_4371_9954)">
<path d="M10.5 12.8C11.2776 12.8 11.9387 12.5278 12.4832 11.9832C13.0277 11.4387 13.3 10.7776 13.3 10C13.3 9.22242 13.0277 8.56136 12.4832 8.01682C11.9387 7.47229 11.2776 7.20002 10.5 7.20002C9.7224 7.20002 9.06133 7.47229 8.5168 8.01682C7.97227 8.56136 7.7 9.22242 7.7 10C7.7 10.7776 7.97227 11.4387 8.5168 11.9832C9.06133 12.5278 9.7224 12.8 10.5 12.8ZM10.5 11.4C10.1112 11.4 9.78053 11.264 9.508 10.992C9.236 10.7195 9.1 10.3888 9.1 10C9.1 9.61122 9.236 9.28056 9.508 9.00802C9.78053 8.73602 10.1112 8.60002 10.5 8.60002C10.8888 8.60002 11.2195 8.73602 11.492 9.00802C11.764 9.28056 11.9 9.61122 11.9 10C11.9 10.3888 11.764 10.7195 11.492 10.992C11.2195 11.264 10.8888 11.4 10.5 11.4ZM10.5 15.1C8.84453 15.1 7.34187 14.6307 5.992 13.692C4.6416 12.7528 3.64427 11.5222 3 10C3.64427 8.47789 4.6416 7.24722 5.992 6.30802C7.34187 5.36936 8.84453 4.90002 10.5 4.90002C12.1555 4.90002 13.6581 5.36936 15.008 6.30802C16.3584 7.24722 17.3557 8.47789 18 10C17.3557 11.5222 16.3584 12.7528 15.008 13.692C13.6581 14.6307 12.1555 15.1 10.5 15.1ZM10.5 13.6C11.7331 13.6 12.8747 13.275 13.9248 12.6248C14.9749 11.9747 15.7832 11.0998 16.3496 10C15.7832 8.90029 14.9749 8.02536 13.9248 7.37522C12.8747 6.72509 11.7331 6.40002 10.5 6.40002C9.26693 6.40002 8.12533 6.72509 7.0752 7.37522C6.02507 8.02536 5.2168 8.90029 4.6504 10C5.2168 11.0998 6.02507 11.9747 7.0752 12.6248C8.12533 13.275 9.26693 13.6 10.5 13.6Z" fill="white"/>
</g>
</g>
</svg>
