<svg width="21" height="20" viewBox="0 0 21 20" fill="none" xmlns="http://www.w3.org/2000/svg">
    <mask id="mask0_4831_10670" style="mask-type:alpha" maskUnits="userSpaceOnUse" x="0" y="0"
        width="21" height="20">
        <rect x="0.5" width="20" height="20" fill="#D9D9D9" />
    </mask>
    <g mask="url(#mask0_4831_10670)">
        <rect x="0.5" width="20" height="20" rx="4" fill="#0969DA" />
        <mask id="mask1_4831_10670" style="mask-type:alpha" maskUnits="userSpaceOnUse" x="2" y="2"
            width="17" height="16">
            <rect x="2.5" y="2" width="16" height="16" fill="#D9D9D9" />
        </mask>
        <g mask="url(#mask1_4831_10670)">
            <path
                d="M6.49999 12.4L9.69999 14.2496V10.4664L6.49999 8.61682V12.4ZM11.3 14.2496L14.5 12.4V8.61682L11.3 10.4664V14.2496ZM7.21679 7.18322L10.5 9.06642L13.7832 7.18322L10.5 5.28322L7.21679 7.18322ZM4.89999 13.3168V7.36642C4.89999 7.14455 4.95279 6.94455 5.05839 6.76642C5.16399 6.58882 5.31119 6.44455 5.49999 6.33362L9.89999 3.78322C10.0888 3.67229 10.2888 3.61682 10.5 3.61682C10.7112 3.61682 10.9112 3.67229 11.1 3.78322L15.5 6.33362C15.6888 6.44455 15.836 6.58882 15.9416 6.76642C16.0472 6.94455 16.1 7.14455 16.1 7.36642V12.6336C16.1 12.8555 16.0472 13.0555 15.9416 13.2336C15.836 13.4112 15.6888 13.5555 15.5 13.6664L11.1 16.2168C10.9112 16.3278 10.7112 16.3832 10.5 16.3832C10.2888 16.3832 10.0888 16.3278 9.89999 16.2168L4.89999 13.3168Z"
                fill="white" />
        </g>
    </g>
</svg>