<svg width="21" height="20" viewBox="0 0 21 20" fill="none" xmlns="http://www.w3.org/2000/svg">
<mask id="mask0_4294_10079" style="mask-type:alpha" maskUnits="userSpaceOnUse" x="0" y="0" width="21" height="20">
<rect x="0.5" width="20" height="20" fill="#D9D9D9"/>
</mask>
<g mask="url(#mask0_4294_10079)">
<rect x="0.5" width="20" height="20" rx="4" fill="#E52F00"/>
<mask id="mask1_4294_10079" style="mask-type:alpha" maskUnits="userSpaceOnUse" x="2" y="2" width="17" height="16">
<rect x="2.5" y="2" width="16" height="16" fill="#D9D9D9"/>
</mask>
<g mask="url(#mask1_4294_10079)">
<path d="M10.5 13.2C11.3891 13.2 12.1445 12.8888 12.7664 12.2664C13.3888 11.6445 13.7 10.8891 13.7 10C13.7 9.11094 13.3888 8.35547 12.7664 7.7336C12.1445 7.1112 11.3891 6.8 10.5 6.8C9.61094 6.8 8.85547 7.1112 8.2336 7.7336C7.6112 8.35547 7.3 9.11094 7.3 10C7.3 10.8891 7.6112 11.6445 8.2336 12.2664C8.85547 12.8888 9.61094 13.2 10.5 13.2ZM10.5 16.7168C9.56667 16.7168 8.6944 16.5419 7.8832 16.192C7.072 15.8416 6.3608 15.3611 5.7496 14.7504C5.13894 14.1392 4.6584 13.428 4.308 12.6168C3.95814 11.8056 3.7832 10.9333 3.7832 10C3.7832 9.05547 3.95814 8.18054 4.308 7.3752C4.6584 6.56934 5.13894 5.86107 5.7496 5.2504C6.3608 4.6392 7.072 4.1584 7.8832 3.808C8.6944 3.45814 9.56667 3.2832 10.5 3.2832C11.4445 3.2832 12.3195 3.45814 13.1248 3.808C13.9307 4.1584 14.6392 4.6392 15.2504 5.2504C15.8611 5.86107 16.3416 6.572 16.692 7.3832C17.0419 8.1944 17.2168 9.06667 17.2168 10C17.2168 10.9333 17.0419 11.8056 16.692 12.6168C16.3416 13.428 15.8611 14.1392 15.2504 14.7504C14.6392 15.3611 13.928 15.8416 13.1168 16.192C12.3056 16.5419 11.4333 16.7168 10.5 16.7168ZM10.5 15.0832C11.9224 15.0832 13.1251 14.5915 14.108 13.608C15.0915 12.6251 15.5832 11.4224 15.5832 10C15.5832 8.5776 15.0915 7.37494 14.108 6.392C13.1251 5.40854 11.9224 4.9168 10.5 4.9168C9.0776 4.9168 7.87494 5.40854 6.892 6.392C5.90854 7.37494 5.4168 8.5776 5.4168 10C5.4168 11.4224 5.90854 12.6251 6.892 13.608C7.87494 14.5915 9.0776 15.0832 10.5 15.0832Z" fill="white"/>
</g>
</g>
</svg>
