<svg width="21" height="20" viewBox="0 0 21 20" fill="none" xmlns="http://www.w3.org/2000/svg">
<mask id="mask0_4293_10058" style="mask-type:alpha" maskUnits="userSpaceOnUse" x="0" y="0" width="21" height="20">
<rect x="0.5" width="20" height="20" fill="#D9D9D9"/>
</mask>
<g mask="url(#mask0_4293_10058)">
<rect x="0.5" width="20" height="20" rx="4" fill="#CA02B6"/>
<mask id="mask1_4293_10058" style="mask-type:alpha" maskUnits="userSpaceOnUse" x="2" y="2" width="17" height="16">
<rect x="2.5" y="2" width="16" height="16" fill="#D9D9D9"/>
</mask>
<g mask="url(#mask1_4293_10058)">
<path d="M12.1 15.0168V13.3832H13.1664C13.3664 13.3832 13.536 13.3138 13.6752 13.1752C13.8139 13.036 13.8832 12.8664 13.8832 12.6664V11.8C13.8832 11.3445 14.036 10.9528 14.3416 10.6248C14.6472 10.2973 15.0277 10.1056 15.4832 10.0496V9.98315C15.0277 9.89409 14.6472 9.68849 14.3416 9.36635C14.036 9.04422 13.8832 8.65542 13.8832 8.19995V7.33355C13.8832 7.13355 13.8139 6.96395 13.6752 6.82475C13.536 6.68609 13.3664 6.61675 13.1664 6.61675H12.1V4.98315H13.5C14.0664 4.98315 14.5443 5.17755 14.9336 5.56635C15.3224 5.95569 15.5168 6.43355 15.5168 6.99995V7.86635C15.5168 8.06635 15.5861 8.23595 15.7248 8.37515C15.864 8.51382 16.0336 8.58315 16.2336 8.58315H17.1168V11.4168H16.2336C16.0336 11.4168 15.864 11.4861 15.7248 11.6248C15.5861 11.764 15.5168 11.9336 15.5168 12.1336V13C15.5168 13.5664 15.3224 14.0442 14.9336 14.4336C14.5443 14.8224 14.0664 15.0168 13.5 15.0168H12.1ZM7.50001 15.0168C6.93361 15.0168 6.45574 14.8224 6.06641 14.4336C5.67761 14.0442 5.48321 13.5664 5.48321 13V12.1336C5.48321 11.9336 5.41388 11.764 5.27521 11.6248C5.13601 11.4861 4.96641 11.4168 4.76641 11.4168H3.88321V8.58315H4.76641C4.96641 8.58315 5.13601 8.51382 5.27521 8.37515C5.41388 8.23595 5.48321 8.06635 5.48321 7.86635V6.99995C5.48321 6.43355 5.67761 5.95569 6.06641 5.56635C6.45574 5.17755 6.93361 4.98315 7.50001 4.98315H8.90001V6.61675H7.83361C7.63361 6.61675 7.46401 6.68609 7.32481 6.82475C7.18614 6.96395 7.11681 7.13355 7.11681 7.33355V8.19995C7.11681 8.66662 6.96401 9.06395 6.65841 9.39195C6.35281 9.71942 5.97228 9.91089 5.51681 9.96635V10.0336C5.97228 10.0778 6.35281 10.2666 6.65841 10.6C6.96401 10.9333 7.11681 11.3333 7.11681 11.8V12.6664C7.11681 12.8664 7.18614 13.036 7.32481 13.1752C7.46401 13.3138 7.63361 13.3832 7.83361 13.3832H8.90001V15.0168H7.50001Z" fill="white"/>
</g>
</g>
</svg>
