<svg width="21" height="20" viewBox="0 0 21 20" fill="none" xmlns="http://www.w3.org/2000/svg">
<rect x="0.5" width="20" height="20" rx="4" fill="#858585"/>
<path d="M7.16998 12C7.72554 12 8.19776 11.8056 8.58665 11.4167C8.97554 11.0278 9.16998 10.5556 9.16998 10C9.16998 9.44444 8.97554 8.97222 8.58665 8.58333C8.19776 8.19444 7.72554 8 7.16998 8C6.61443 8 6.14221 8.19444 5.75332 8.58333C5.36443 8.97222 5.16998 9.44444 5.16998 10C5.16998 10.5556 5.36443 11.0278 5.75332 11.4167C6.14221 11.8056 6.61443 12 7.16998 12ZM7.16998 14C6.05887 14 5.11443 13.6111 4.33665 12.8333C3.55887 12.0556 3.16998 11.1111 3.16998 10C3.16998 8.88889 3.55887 7.94444 4.33665 7.16667C5.11443 6.38889 6.05887 6 7.16998 6C8.06998 6 8.85609 6.25556 9.52832 6.76667C10.2005 7.27778 10.67 7.91111 10.9367 8.66667H16.52L17.8366 9.98333L15.5033 12.65L13.8366 11.3333L12.5033 12.6667L11.17 11.3333H10.9367C10.6589 12.1333 10.1755 12.7778 9.48665 13.2667C8.79776 13.7556 8.02554 14 7.16998 14Z" fill="white"/>
</svg>
