<svg width="21" height="20" viewBox="0 0 21 20" fill="none" xmlns="http://www.w3.org/2000/svg">
<mask id="mask0_4371_9995" style="mask-type:alpha" maskUnits="userSpaceOnUse" x="0" y="0" width="21" height="20">
<rect x="0.5" width="20" height="20" fill="#D9D9D9"/>
</mask>
<g mask="url(#mask0_4371_9995)">
<rect x="0.5" width="20" height="20" rx="4" fill="#22B149"/>
<path d="M5.63296 5.74777C5.5925 6.19752 5.64793 6.6625 5.61799 7.11723C5.58252 7.57223 5.52683 8.02197 5.43593 8.47171C5.30958 9.11349 4.91027 9.59869 4.35965 10.003C5.43121 10.7005 5.55231 11.7817 5.62298 12.8785C5.65844 13.4698 5.6432 14.0662 5.70389 14.6523C5.74933 15.107 5.92613 15.2234 6.39637 15.2383C6.5884 15.2433 6.78516 15.2383 7.00793 15.2383V16.6433C5.61825 16.8807 4.47104 16.4867 4.18785 15.3093C4.09669 14.8797 4.03601 14.44 4.01604 13.9952C3.98557 13.5253 4.03601 13.0553 4.0008 12.5853C3.89967 11.2965 3.73285 10.862 2.5 10.8013V9.19939C2.59089 9.17916 2.6768 9.16392 2.76769 9.15394C3.44493 9.11848 3.73285 8.91121 3.87944 8.24421C3.95037 7.87039 3.99082 7.49131 4.0058 7.10725C4.0565 6.37458 4.03627 5.62667 4.16237 4.89899C4.33916 3.85292 4.98619 3.34748 6.06274 3.2868C6.36589 3.27156 6.6743 3.2868 7.0229 3.2868V4.72219C6.87632 4.73244 6.74996 4.7524 6.61861 4.7524C5.74434 4.72193 5.69863 5.0201 5.63296 5.74777ZM7.31581 9.07303H7.29559C6.79015 9.04781 6.35565 9.44186 6.33017 9.9473C6.30495 10.4577 6.699 10.8925 7.20443 10.9174H7.26511C7.76556 10.9479 8.19481 10.5636 8.22528 10.0634V10.013C8.23553 9.50254 7.82624 9.08328 7.31581 9.07303ZM10.4845 9.07303C9.9943 9.05779 9.58475 9.44186 9.56978 9.92707C9.56978 9.95754 9.56978 9.98276 9.57503 10.013C9.57503 10.5639 9.94886 10.9177 10.515 10.9177C11.0708 10.9177 11.4197 10.5539 11.4197 9.98276C11.4145 9.43188 11.0454 9.06804 10.4845 9.07303ZM13.7291 9.07303C13.2137 9.06278 12.7839 9.47233 12.7689 9.98775C12.7689 10.5032 13.1832 10.9174 13.6986 10.9174H13.7089C14.1739 10.9984 14.6438 10.5486 14.6743 10.008C14.6993 9.50754 14.2445 9.07303 13.7291 9.07303ZM18.1813 9.14869C17.595 9.12347 17.3018 8.92644 17.1555 8.37031C17.0643 8.01671 17.0089 7.64762 16.9887 7.28378C16.9482 6.60654 16.9532 5.92431 16.9078 5.24707C16.8016 3.64013 15.6395 3.07927 13.9514 3.35694V4.75188C14.219 4.75188 14.4263 4.75188 14.6336 4.75687C14.9924 4.76186 15.2654 4.89846 15.3006 5.29777C15.336 5.66161 15.336 6.03044 15.3715 6.39953C15.4424 7.13247 15.4826 7.87512 15.609 8.59781C15.7204 9.19413 16.1297 9.63889 16.6398 10.0027C15.7456 10.604 15.4826 11.4631 15.4372 12.4285C15.412 13.0905 15.3967 13.7575 15.3615 14.4248C15.3311 15.0311 15.1191 15.2281 14.5075 15.2433C14.3357 15.2483 14.1689 15.2636 13.9768 15.2738V16.7039C14.3357 16.7039 14.6641 16.7242 14.9924 16.7039C16.0133 16.6433 16.6298 16.1481 16.8321 15.1574C16.918 14.6115 16.9685 14.0609 16.9837 13.51C17.0189 13.0046 17.0142 12.4942 17.0646 11.994C17.1403 11.2106 17.4991 10.8872 18.2825 10.8368C18.3584 10.8266 18.4291 10.8116 18.5 10.7864V9.18415C18.3684 9.16892 18.2772 9.15394 18.1813 9.14869Z" fill="white"/>
</g>
</svg>
