<svg width="21" height="20" viewBox="0 0 21 20" fill="none" xmlns="http://www.w3.org/2000/svg">
<mask id="mask0_4370_9892" style="mask-type:alpha" maskUnits="userSpaceOnUse" x="0" y="0" width="21" height="20">
<rect x="0.5" width="20" height="20" fill="#D9D9D9"/>
</mask>
<g mask="url(#mask0_4370_9892)">
<rect x="0.5" width="20" height="20" rx="4" fill="#CA02B6"/>
<mask id="mask1_4370_9892" style="mask-type:alpha" maskUnits="userSpaceOnUse" x="2" y="2" width="17" height="16">
<rect x="2.5" y="2" width="16" height="16" fill="#D9D9D9"/>
</mask>
<g mask="url(#mask1_4370_9892)">
<path d="M2.86664 15.8167V13.6C2.86664 13.1667 2.98042 12.7667 3.20797 12.4C3.43597 12.0334 3.73886 11.7556 4.11664 11.5667C4.82775 11.2222 5.54997 10.9582 6.2833 10.7747C7.01664 10.5916 7.76664 10.5 8.5333 10.5C9.29997 10.5 10.0529 10.5889 10.792 10.7667C11.5306 10.9445 12.2444 11.2111 12.9333 11.5667C13.3111 11.7556 13.614 12.0305 13.842 12.3913C14.0695 12.7527 14.1833 13.1556 14.1833 13.6V15.8167H2.86664ZM15.65 15.8167V13.5C15.65 12.9889 15.5195 12.4916 15.2586 12.008C14.9973 11.5249 14.6055 11.0778 14.0833 10.6667C14.5833 10.7445 15.0584 10.8582 15.5086 11.008C15.9584 11.1582 16.3833 11.3445 16.7833 11.5667C17.2166 11.7889 17.55 12.0696 17.7833 12.4087C18.0166 12.7473 18.1333 13.1222 18.1333 13.5333V15.8167H15.65ZM8.5333 9.83335C7.74442 9.83335 7.07508 9.55824 6.5253 9.00802C5.97508 8.45824 5.69997 7.79446 5.69997 7.01668C5.69997 6.22779 5.97508 5.55824 6.5253 5.00802C7.07508 4.45824 7.74442 4.18335 8.5333 4.18335C9.31108 4.18335 9.97508 4.45824 10.5253 5.00802C11.0751 5.55824 11.35 6.22779 11.35 7.01668C11.35 7.79446 11.0751 8.45824 10.5253 9.00802C9.97508 9.55824 9.31108 9.83335 8.5333 9.83335ZM15.65 7.01668C15.65 7.79446 15.3751 8.45824 14.8253 9.00802C14.2751 9.55824 13.6111 9.83335 12.8333 9.83335C12.7 9.83335 12.5417 9.81957 12.3586 9.79202C12.1751 9.76402 12.0111 9.72779 11.8666 9.68335C12.1777 9.31668 12.4166 8.90268 12.5833 8.44135C12.75 7.98046 12.8333 7.50557 12.8333 7.01668C12.8333 6.52779 12.75 6.05268 12.5833 5.59135C12.4166 5.13046 12.1777 4.71668 11.8666 4.35002C12.0333 4.28335 12.1944 4.23891 12.35 4.21668C12.5055 4.19446 12.6666 4.18335 12.8333 4.18335C13.6111 4.18335 14.2751 4.46113 14.8253 5.01668C15.3751 5.57224 15.65 6.23891 15.65 7.01668ZM4.6333 14.05H12.4166V13.65C12.4166 13.5389 12.3862 13.4362 12.3253 13.342C12.264 13.2474 12.1833 13.1722 12.0833 13.1167C11.5166 12.8389 10.9389 12.6278 10.35 12.4834C9.76108 12.3389 9.15553 12.2667 8.5333 12.2667C7.92219 12.2667 7.31375 12.3389 6.70797 12.4834C6.10264 12.6278 5.52219 12.8389 4.96664 13.1167C4.86664 13.1722 4.78619 13.2474 4.7253 13.342C4.66397 13.4362 4.6333 13.5389 4.6333 13.65V14.05ZM8.5333 8.21668C8.85553 8.21668 9.13597 8.10002 9.37464 7.86668C9.61375 7.63335 9.7333 7.35002 9.7333 7.01668C9.7333 6.68335 9.61375 6.40002 9.37464 6.16668C9.13597 5.93335 8.85553 5.81668 8.5333 5.81668C8.19997 5.81668 7.91664 5.93335 7.6833 6.16668C7.44997 6.40002 7.3333 6.68335 7.3333 7.01668C7.3333 7.33891 7.44997 7.61935 7.6833 7.85802C7.91664 8.09713 8.19997 8.21668 8.5333 8.21668Z" fill="white"/>
</g>
</g>
</svg>
