<svg width="21" height="20" viewBox="0 0 21 20" fill="none" xmlns="http://www.w3.org/2000/svg">
<mask id="mask0_4362_9825" style="mask-type:alpha" maskUnits="userSpaceOnUse" x="0" y="0" width="21" height="20">
<rect x="0.5" width="20" height="20" fill="#D9D9D9"/>
</mask>
<g mask="url(#mask0_4362_9825)">
<rect x="0.5" width="20" height="20" rx="4" fill="#4243F6"/>
<mask id="mask1_4362_9825" style="mask-type:alpha" maskUnits="userSpaceOnUse" x="2" y="2" width="17" height="16">
<rect x="2.5" y="2" width="16" height="16" fill="#D9D9D9"/>
</mask>
<g mask="url(#mask1_4362_9825)">
<path d="M8.19999 4.00003V2.3667H12.8V4.00003H8.19999ZM9.69999 11.6H11.3V7.5667H9.69999V11.6ZM10.5 17.2334C9.62221 17.2334 8.80265 17.0696 8.04132 16.742C7.28043 16.414 6.61376 15.9638 6.04132 15.3914C5.46932 14.8194 5.01665 14.15 4.68332 13.3834C4.34999 12.6167 4.18332 11.8 4.18332 10.9334C4.18332 10.0556 4.34999 9.23603 4.68332 8.4747C5.01665 7.71381 5.46932 7.04737 6.04132 6.47537C6.61376 5.90292 7.28043 5.45003 8.04132 5.1167C8.80265 4.78337 9.62221 4.6167 10.5 4.6167C11.2 4.6167 11.8804 4.72781 12.5413 4.95003C13.2027 5.17226 13.8111 5.49448 14.3667 5.9167L15.4167 4.8667L16.5667 6.0167L15.5167 7.0667C15.95 7.63337 16.2751 8.24448 16.492 8.90003C16.7084 9.55559 16.8167 10.2334 16.8167 10.9334C16.8167 11.8 16.65 12.6167 16.3167 13.3834C15.9833 14.15 15.5307 14.8194 14.9587 15.3914C14.3862 15.9638 13.7195 16.414 12.9587 16.742C12.1973 17.0696 11.3778 17.2334 10.5 17.2334ZM10.5 15.4667C11.7667 15.4667 12.8415 15.0278 13.7247 14.15C14.6082 13.2723 15.05 12.2 15.05 10.9334C15.05 9.6667 14.6082 8.59159 13.7247 7.70803C12.8415 6.82492 11.7667 6.38337 10.5 6.38337C9.23332 6.38337 8.15843 6.82492 7.27532 7.70803C6.39176 8.59159 5.94999 9.6667 5.94999 10.9334C5.94999 12.2 6.39176 13.2723 7.27532 14.15C8.15843 15.0278 9.23332 15.4667 10.5 15.4667Z" fill="white"/>
</g>
</g>
</svg>
