<svg width="21" height="20" viewBox="0 0 21 20" fill="none" xmlns="http://www.w3.org/2000/svg">
<mask id="mask0_4325_9868" style="mask-type:alpha" maskUnits="userSpaceOnUse" x="0" y="0" width="21" height="20">
<rect x="0.5" width="20" height="20" fill="#D9D9D9"/>
</mask>
<g mask="url(#mask0_4325_9868)">
<rect x="0.5" width="20" height="20" rx="4" fill="#3ED0DD"/>
<mask id="mask1_4325_9868" style="mask-type:alpha" maskUnits="userSpaceOnUse" x="2" y="2" width="17" height="16">
<rect x="2.5" y="2" width="16" height="16" fill="#D9D9D9"/>
</mask>
<g mask="url(#mask1_4325_9868)">
<path d="M9.5664 13.5168H7.3C6.3224 13.5168 5.49174 13.1752 4.808 12.492C4.1248 11.8082 3.7832 10.9776 3.7832 9.99995C3.7832 9.02235 4.1248 8.19169 4.808 7.50795C5.49174 6.82475 6.3224 6.48315 7.3 6.48315H9.5664V8.11675H7.3C6.77787 8.11675 6.33334 8.29995 5.9664 8.66635C5.6 9.03329 5.4168 9.47782 5.4168 9.99995C5.4168 10.5221 5.6 10.9666 5.9664 11.3336C6.33334 11.7 6.77787 11.8832 7.3 11.8832H9.5664V13.5168ZM7.8832 10.6832V9.31675H13.1168V10.6832H7.8832ZM11.4336 13.5168V11.8832H13.7C14.2221 11.8832 14.6667 11.7 15.0336 11.3336C15.4 10.9666 15.5832 10.5221 15.5832 9.99995C15.5832 9.47782 15.4 9.03329 15.0336 8.66635C14.6667 8.29995 14.2221 8.11675 13.7 8.11675H11.4336V6.48315H13.7C14.6776 6.48315 15.5083 6.82475 16.192 7.50795C16.8752 8.19169 17.2168 9.02235 17.2168 9.99995C17.2168 10.9776 16.8752 11.8082 16.192 12.492C15.5083 13.1752 14.6776 13.5168 13.7 13.5168H11.4336Z" fill="white"/>
</g>
</g>
</svg>
