<svg width="21" height="20" viewBox="0 0 21 20" fill="none" xmlns="http://www.w3.org/2000/svg">
<mask id="mask0_4366_9859" style="mask-type:alpha" maskUnits="userSpaceOnUse" x="0" y="0" width="21" height="20">
<rect x="0.5" width="20" height="20" fill="#D9D9D9"/>
</mask>
<g mask="url(#mask0_4366_9859)">
<rect x="0.5" width="20" height="20" rx="4" fill="#868DFF"/>
<mask id="mask1_4366_9859" style="mask-type:alpha" maskUnits="userSpaceOnUse" x="2" y="2" width="17" height="16">
<rect x="2.5" y="2" width="16" height="16" fill="#D9D9D9"/>
</mask>
<g mask="url(#mask1_4366_9859)">
<path d="M10.5 9.8333C9.67778 9.8333 8.97512 9.54441 8.39201 8.96663C7.80845 8.38886 7.51667 7.6833 7.51667 6.84997C7.51667 6.02775 7.80845 5.32775 8.39201 4.74997C8.97512 4.17219 9.67778 3.8833 10.5 3.8833C11.3222 3.8833 12.0251 4.17219 12.6087 4.74997C13.1918 5.32775 13.4833 6.02775 13.4833 6.84997C13.4833 7.6833 13.1918 8.38886 12.6087 8.96663C12.0251 9.54441 11.3222 9.8333 10.5 9.8333ZM4.85001 15.8166V13.6C4.85001 13.1666 4.96378 12.7666 5.19134 12.4C5.41934 12.0333 5.72223 11.7555 6.10001 11.5666C6.80001 11.2222 7.51956 10.9582 8.25867 10.7746C8.99734 10.5915 9.74445 10.5 10.5 10.5C11.2667 10.5 12.0196 10.5889 12.7587 10.7666C13.4973 10.9444 14.2111 11.2111 14.9 11.5666C15.2778 11.7555 15.5807 12.0304 15.8087 12.3913C16.0362 12.7526 16.15 13.1555 16.15 13.6V15.8166H4.85001ZM6.61667 14.05H14.3833V13.65C14.3833 13.5389 14.3529 13.4362 14.292 13.342C14.2307 13.2473 14.15 13.1722 14.05 13.1166C13.4945 12.8389 12.9196 12.6277 12.3253 12.4833C11.7307 12.3389 11.1222 12.2666 10.5 12.2666C9.8889 12.2666 9.28045 12.3389 8.67467 12.4833C8.06934 12.6277 7.49445 12.8389 6.95001 13.1166C6.85001 13.1722 6.76934 13.2473 6.70801 13.342C6.64712 13.4362 6.61667 13.5389 6.61667 13.65V14.05ZM10.5 8.06663C10.8333 8.06663 11.1196 7.94708 11.3587 7.70797C11.5973 7.4693 11.7167 7.1833 11.7167 6.84997C11.7167 6.51663 11.5973 6.2333 11.3587 5.99997C11.1196 5.76663 10.8333 5.64997 10.5 5.64997C10.1667 5.64997 9.88067 5.76663 9.64201 5.99997C9.40289 6.2333 9.28334 6.51663 9.28334 6.84997C9.28334 7.1833 9.40289 7.4693 9.64201 7.70797C9.88067 7.94708 10.1667 8.06663 10.5 8.06663Z" fill="white"/>
</g>
</g>
</svg>
