<svg width="630" height="630" viewBox="0 0 630 630" fill="none" xmlns="http://www.w3.org/2000/svg">
<g clip-path="url(#clip0_64_1087)">
<rect width="630" height="630" fill="#F7F9FA"/>
<g filter="url(#filter0_d_64_1087)">
<rect x="261" y="448.195" width="120" height="120" rx="24" fill="white" shape-rendering="crispEdges"/>
<rect x="261.75" y="448.945" width="118.5" height="118.5" rx="23.25" stroke="#E3E3E3" stroke-width="1.5" shape-rendering="crispEdges"/>
<path d="M322.25 480.727V484.514C326.487 485.127 329.75 488.752 329.75 493.164C329.75 494.289 329.525 495.352 329.15 496.339L332.4 498.252C333.1 496.702 333.5 494.977 333.5 493.164C333.5 486.689 328.562 481.352 322.25 480.727ZM321 501.914C316.163 501.914 312.25 498.002 312.25 493.164C312.25 488.752 315.512 485.127 319.75 484.514V480.727C313.425 481.352 308.5 486.677 308.5 493.164C308.5 500.064 314.087 505.664 320.987 505.664C325.125 505.664 328.787 503.652 331.062 500.552L327.812 498.639C326.213 500.639 323.762 501.914 321 501.914Z" fill="#F6C23C"/>
<path d="M282.108 532.195V518.195H284.468L289.208 527.655L293.928 518.195H296.308V532.195H294.308V521.695L289.968 530.235H288.428L284.108 521.715V532.195H282.108ZM303.678 532.435C302.718 532.435 301.864 532.215 301.118 531.775C300.371 531.335 299.784 530.722 299.358 529.935C298.944 529.149 298.738 528.235 298.738 527.195C298.738 526.129 298.944 525.202 299.358 524.415C299.784 523.615 300.371 522.995 301.118 522.555C301.864 522.102 302.731 521.875 303.718 521.875C304.704 521.875 305.551 522.095 306.258 522.535C306.964 522.975 307.511 523.562 307.898 524.295C308.284 525.015 308.478 525.815 308.478 526.695C308.478 526.829 308.471 526.975 308.458 527.135C308.458 527.282 308.451 527.449 308.438 527.635H300.198V526.215H306.478C306.438 525.375 306.158 524.722 305.638 524.255C305.118 523.775 304.471 523.535 303.698 523.535C303.151 523.535 302.651 523.662 302.198 523.915C301.744 524.155 301.378 524.515 301.098 524.995C300.831 525.462 300.698 526.055 300.698 526.775V527.335C300.698 528.082 300.831 528.715 301.098 529.235C301.378 529.742 301.744 530.129 302.198 530.395C302.651 530.649 303.144 530.775 303.678 530.775C304.318 530.775 304.844 530.635 305.258 530.355C305.671 530.075 305.978 529.695 306.178 529.215H308.178C308.004 529.829 307.711 530.382 307.298 530.875C306.884 531.355 306.371 531.735 305.758 532.015C305.158 532.295 304.464 532.435 303.678 532.435ZM314.04 532.435C313.213 532.435 312.527 532.295 311.98 532.015C311.433 531.735 311.027 531.362 310.76 530.895C310.493 530.415 310.36 529.902 310.36 529.355C310.36 528.689 310.533 528.122 310.88 527.655C311.227 527.175 311.72 526.809 312.36 526.555C313 526.302 313.767 526.175 314.66 526.175H317.28C317.28 525.589 317.193 525.102 317.02 524.715C316.847 524.329 316.587 524.042 316.24 523.855C315.907 523.655 315.48 523.555 314.96 523.555C314.36 523.555 313.847 523.702 313.42 523.995C312.993 524.275 312.727 524.695 312.62 525.255H310.62C310.7 524.549 310.94 523.949 311.34 523.455C311.753 522.949 312.28 522.562 312.92 522.295C313.56 522.015 314.24 521.875 314.96 521.875C315.907 521.875 316.7 522.042 317.34 522.375C317.98 522.709 318.46 523.182 318.78 523.795C319.113 524.395 319.28 525.115 319.28 525.955V532.195H317.54L317.38 530.495C317.233 530.762 317.06 531.015 316.86 531.255C316.66 531.495 316.42 531.702 316.14 531.875C315.873 532.049 315.56 532.182 315.2 532.275C314.853 532.382 314.467 532.435 314.04 532.435ZM314.42 530.815C314.847 530.815 315.233 530.729 315.58 530.555C315.927 530.382 316.22 530.149 316.46 529.855C316.713 529.549 316.9 529.209 317.02 528.835C317.153 528.449 317.227 528.055 317.24 527.655V527.595H314.86C314.287 527.595 313.82 527.669 313.46 527.815C313.113 527.949 312.86 528.135 312.7 528.375C312.54 528.615 312.46 528.895 312.46 529.215C312.46 529.549 312.533 529.835 312.68 530.075C312.84 530.302 313.067 530.482 313.36 530.615C313.653 530.749 314.007 530.815 314.42 530.815ZM325.733 532.435C324.879 532.435 324.133 532.295 323.493 532.015C322.853 531.735 322.346 531.342 321.973 530.835C321.599 530.329 321.373 529.735 321.293 529.055H323.333C323.399 529.375 323.526 529.669 323.713 529.935C323.913 530.202 324.179 530.415 324.513 530.575C324.859 530.735 325.266 530.815 325.733 530.815C326.173 530.815 326.533 530.755 326.813 530.635C327.106 530.502 327.319 530.329 327.453 530.115C327.586 529.889 327.653 529.649 327.653 529.395C327.653 529.022 327.559 528.742 327.373 528.555C327.199 528.355 326.933 528.202 326.573 528.095C326.226 527.975 325.806 527.869 325.313 527.775C324.846 527.695 324.393 527.589 323.953 527.455C323.526 527.309 323.139 527.129 322.793 526.915C322.459 526.702 322.193 526.435 321.993 526.115C321.793 525.782 321.693 525.375 321.693 524.895C321.693 524.322 321.846 523.809 322.153 523.355C322.459 522.889 322.893 522.529 323.453 522.275C324.026 522.009 324.699 521.875 325.473 521.875C326.593 521.875 327.493 522.142 328.173 522.675C328.853 523.209 329.253 523.962 329.373 524.935H327.433C327.379 524.482 327.179 524.135 326.833 523.895C326.486 523.642 326.026 523.515 325.453 523.515C324.879 523.515 324.439 523.629 324.133 523.855C323.826 524.082 323.673 524.382 323.673 524.755C323.673 524.995 323.759 525.209 323.933 525.395C324.106 525.582 324.359 525.742 324.693 525.875C325.039 525.995 325.459 526.109 325.953 526.215C326.659 526.349 327.293 526.515 327.853 526.715C328.413 526.915 328.859 527.209 329.193 527.595C329.526 527.982 329.693 528.535 329.693 529.255C329.706 529.882 329.546 530.435 329.213 530.915C328.893 531.395 328.433 531.769 327.833 532.035C327.246 532.302 326.546 532.435 325.733 532.435ZM335.748 532.435C334.961 532.435 334.274 532.275 333.688 531.955C333.114 531.635 332.668 531.155 332.348 530.515C332.041 529.875 331.888 529.069 331.888 528.095V522.115H333.888V527.875C333.888 528.822 334.094 529.535 334.508 530.015C334.921 530.495 335.514 530.735 336.288 530.735C336.808 530.735 337.274 530.609 337.688 530.355C338.114 530.102 338.448 529.735 338.688 529.255C338.928 528.775 339.048 528.189 339.048 527.495V522.115H341.048V532.195H339.268L339.128 530.475C338.821 531.089 338.374 531.569 337.788 531.915C337.201 532.262 336.521 532.435 335.748 532.435ZM343.786 532.195V522.115H345.586L345.766 524.015C345.992 523.562 346.286 523.182 346.646 522.875C347.006 522.555 347.426 522.309 347.906 522.135C348.399 521.962 348.959 521.875 349.586 521.875V523.995H348.866C348.452 523.995 348.059 524.049 347.686 524.155C347.312 524.249 346.979 524.415 346.686 524.655C346.406 524.895 346.186 525.222 346.026 525.635C345.866 526.049 345.786 526.562 345.786 527.175V532.195H343.786ZM355.69 532.435C354.73 532.435 353.876 532.215 353.13 531.775C352.383 531.335 351.796 530.722 351.37 529.935C350.956 529.149 350.75 528.235 350.75 527.195C350.75 526.129 350.956 525.202 351.37 524.415C351.796 523.615 352.383 522.995 353.13 522.555C353.876 522.102 354.743 521.875 355.73 521.875C356.716 521.875 357.563 522.095 358.27 522.535C358.976 522.975 359.523 523.562 359.91 524.295C360.296 525.015 360.49 525.815 360.49 526.695C360.49 526.829 360.483 526.975 360.47 527.135C360.47 527.282 360.463 527.449 360.45 527.635H352.21V526.215H358.49C358.45 525.375 358.17 524.722 357.65 524.255C357.13 523.775 356.483 523.535 355.71 523.535C355.163 523.535 354.663 523.662 354.21 523.915C353.756 524.155 353.39 524.515 353.11 524.995C352.843 525.462 352.71 526.055 352.71 526.775V527.335C352.71 528.082 352.843 528.715 353.11 529.235C353.39 529.742 353.756 530.129 354.21 530.395C354.663 530.649 355.156 530.775 355.69 530.775C356.33 530.775 356.856 530.635 357.27 530.355C357.683 530.075 357.99 529.695 358.19 529.215H360.19C360.016 529.829 359.723 530.382 359.31 530.875C358.896 531.355 358.383 531.735 357.77 532.015C357.17 532.295 356.476 532.435 355.69 532.435Z" fill="black"/>
</g>
<g filter="url(#filter1_d_64_1087)">
<rect x="468" y="131.695" width="120" height="120" rx="24" fill="white" shape-rendering="crispEdges"/>
<rect x="468.75" y="132.445" width="118.5" height="118.5" rx="23.25" stroke="#E3E3E3" stroke-width="1.5" shape-rendering="crispEdges"/>
<path d="M536.926 177.87C536.976 177.495 537.001 177.108 537.001 176.695C537.001 176.295 536.976 175.895 536.913 175.52L539.451 173.545C539.676 173.37 539.738 173.033 539.601 172.783L537.201 168.633C537.051 168.358 536.738 168.27 536.463 168.358L533.476 169.558C532.851 169.083 532.188 168.683 531.451 168.383L531.001 165.208C530.951 164.908 530.701 164.695 530.401 164.695H525.601C525.301 164.695 525.063 164.908 525.013 165.208L524.563 168.383C523.826 168.683 523.151 169.095 522.538 169.558L519.551 168.358C519.276 168.258 518.963 168.358 518.813 168.633L516.426 172.783C516.276 173.045 516.326 173.37 516.576 173.545L519.113 175.52C519.051 175.895 519.001 176.308 519.001 176.695C519.001 177.083 519.026 177.495 519.088 177.87L516.551 179.845C516.326 180.02 516.263 180.358 516.401 180.608L518.801 184.758C518.951 185.033 519.263 185.12 519.538 185.033L522.526 183.833C523.151 184.308 523.813 184.708 524.551 185.008L525.001 188.183C525.063 188.483 525.301 188.695 525.601 188.695H530.401C530.701 188.695 530.951 188.483 530.988 188.183L531.438 185.008C532.176 184.708 532.851 184.308 533.463 183.833L536.451 185.033C536.726 185.133 537.038 185.033 537.188 184.758L539.588 180.608C539.738 180.333 539.676 180.02 539.438 179.845L536.926 177.87ZM528.001 181.195C525.526 181.195 523.501 179.17 523.501 176.695C523.501 174.22 525.526 172.195 528.001 172.195C530.476 172.195 532.501 174.22 532.501 176.695C532.501 179.17 530.476 181.195 528.001 181.195Z" fill="#FA25A5"/>
<path d="M506.218 215.695V201.695H511.398C512.371 201.695 513.184 201.855 513.838 202.175C514.491 202.482 514.978 202.909 515.298 203.455C515.631 203.989 515.798 204.595 515.798 205.275C515.798 205.982 515.644 206.575 515.338 207.055C515.031 207.535 514.624 207.909 514.118 208.175C513.624 208.429 513.091 208.575 512.518 208.615L512.798 208.415C513.411 208.429 513.971 208.595 514.478 208.915C514.984 209.222 515.384 209.635 515.678 210.155C515.971 210.675 516.118 211.249 516.118 211.875C516.118 212.595 515.944 213.249 515.598 213.835C515.251 214.409 514.738 214.862 514.058 215.195C513.378 215.529 512.544 215.695 511.558 215.695H506.218ZM508.218 214.035H511.298C512.178 214.035 512.858 213.835 513.338 213.435C513.831 213.022 514.078 212.442 514.078 211.695C514.078 210.962 513.824 210.375 513.318 209.935C512.824 209.495 512.138 209.275 511.258 209.275H508.218V214.035ZM508.218 207.735H511.178C512.018 207.735 512.658 207.542 513.098 207.155C513.538 206.755 513.758 206.209 513.758 205.515C513.758 204.849 513.538 204.322 513.098 203.935C512.658 203.535 511.998 203.335 511.118 203.335H508.218V207.735ZM522.103 215.935C521.316 215.935 520.63 215.775 520.043 215.455C519.47 215.135 519.023 214.655 518.703 214.015C518.396 213.375 518.243 212.569 518.243 211.595V205.615H520.243V211.375C520.243 212.322 520.45 213.035 520.863 213.515C521.276 213.995 521.87 214.235 522.643 214.235C523.163 214.235 523.63 214.109 524.043 213.855C524.47 213.602 524.803 213.235 525.043 212.755C525.283 212.275 525.403 211.689 525.403 210.995V205.615H527.403V215.695H525.623L525.483 213.975C525.176 214.589 524.73 215.069 524.143 215.415C523.556 215.762 522.876 215.935 522.103 215.935ZM530.281 215.695V205.615H532.281V215.695H530.281ZM531.301 203.715C530.915 203.715 530.595 203.595 530.341 203.355C530.101 203.115 529.981 202.809 529.981 202.435C529.981 202.075 530.101 201.782 530.341 201.555C530.595 201.315 530.915 201.195 531.301 201.195C531.675 201.195 531.988 201.315 532.241 201.555C532.495 201.782 532.621 202.075 532.621 202.435C532.621 202.809 532.495 203.115 532.241 203.355C531.988 203.595 531.675 203.715 531.301 203.715ZM535.141 215.695V201.295H537.141V215.695H535.141ZM544.367 215.935C543.407 215.935 542.561 215.709 541.827 215.255C541.094 214.789 540.521 214.162 540.107 213.375C539.707 212.575 539.507 211.669 539.507 210.655C539.507 209.629 539.707 208.722 540.107 207.935C540.521 207.149 541.094 206.529 541.827 206.075C542.574 205.609 543.427 205.375 544.387 205.375C545.174 205.375 545.867 205.535 546.467 205.855C547.067 206.162 547.534 206.602 547.867 207.175V201.295H549.867V215.695H548.067L547.867 214.135C547.667 214.442 547.407 214.735 547.087 215.015C546.767 215.282 546.381 215.502 545.927 215.675C545.474 215.849 544.954 215.935 544.367 215.935ZM544.687 214.195C545.314 214.195 545.867 214.049 546.347 213.755C546.827 213.462 547.194 213.049 547.447 212.515C547.714 211.982 547.847 211.362 547.847 210.655C547.847 209.949 547.714 209.335 547.447 208.815C547.194 208.282 546.827 207.869 546.347 207.575C545.867 207.269 545.314 207.115 544.687 207.115C544.087 207.115 543.547 207.269 543.067 207.575C542.587 207.869 542.214 208.282 541.947 208.815C541.681 209.335 541.547 209.949 541.547 210.655C541.547 211.362 541.681 211.982 541.947 212.515C542.214 213.049 542.587 213.462 543.067 213.755C543.547 214.049 544.087 214.195 544.687 214.195Z" fill="black"/>
</g>
<g filter="url(#filter2_d_64_1087)">
<rect x="49.5" y="131.695" width="120" height="120" rx="24" fill="white" shape-rendering="crispEdges"/>
<rect x="50.25" y="132.445" width="118.5" height="118.5" rx="23.25" stroke="#E3E3E3" stroke-width="1.5" shape-rendering="crispEdges"/>
<path d="M120.75 166.695C119.362 166.258 117.837 166.07 116.375 166.07C113.938 166.07 111.312 166.57 109.5 167.945C107.688 166.57 105.062 166.07 102.625 166.07C100.188 166.07 97.5625 166.57 95.75 167.945V186.258C95.75 186.57 96.0625 186.883 96.375 186.883C96.5 186.883 96.5625 186.82 96.6875 186.82C98.375 186.008 100.812 185.445 102.625 185.445C105.062 185.445 107.688 185.945 109.5 187.32C111.188 186.258 114.25 185.445 116.375 185.445C118.438 185.445 120.562 185.82 122.312 186.758C122.438 186.82 122.5 186.82 122.625 186.82C122.938 186.82 123.25 186.508 123.25 186.195V167.945C122.5 167.383 121.688 167.008 120.75 166.695ZM120.75 183.57C119.375 183.133 117.875 182.945 116.375 182.945C114.25 182.945 111.188 183.758 109.5 184.82V170.445C111.188 169.383 114.25 168.57 116.375 168.57C117.875 168.57 119.375 168.758 120.75 169.195V183.57Z" fill="#3CB3F6"/>
<path d="M116.375 173.57C117.475 173.57 118.538 173.683 119.5 173.895V171.995C118.513 171.808 117.45 171.695 116.375 171.695C114.25 171.695 112.325 172.058 110.75 172.733V174.808C112.163 174.008 114.125 173.57 116.375 173.57Z" fill="#3CB3F6"/>
<path d="M110.75 176.058V178.133C112.163 177.333 114.125 176.895 116.375 176.895C117.475 176.895 118.538 177.008 119.5 177.22V175.32C118.513 175.133 117.45 175.02 116.375 175.02C114.25 175.02 112.325 175.395 110.75 176.058Z" fill="#3CB3F6"/>
<path d="M116.375 178.358C114.25 178.358 112.325 178.72 110.75 179.395V181.47C112.163 180.67 114.125 180.233 116.375 180.233C117.475 180.233 118.538 180.345 119.5 180.558V178.658C118.513 178.458 117.45 178.358 116.375 178.358Z" fill="#3CB3F6"/>
<path d="M84.7686 215.695V201.695H86.7686V214.115H93.1686V215.695H84.7686ZM99.5216 215.935C98.5616 215.935 97.7082 215.715 96.9616 215.275C96.2149 214.835 95.6282 214.222 95.2016 213.435C94.7882 212.649 94.5816 211.735 94.5816 210.695C94.5816 209.629 94.7882 208.702 95.2016 207.915C95.6282 207.115 96.2149 206.495 96.9616 206.055C97.7082 205.602 98.5749 205.375 99.5616 205.375C100.548 205.375 101.395 205.595 102.102 206.035C102.808 206.475 103.355 207.062 103.742 207.795C104.128 208.515 104.322 209.315 104.322 210.195C104.322 210.329 104.315 210.475 104.302 210.635C104.302 210.782 104.295 210.949 104.282 211.135H96.0416V209.715H102.322C102.282 208.875 102.002 208.222 101.482 207.755C100.962 207.275 100.315 207.035 99.5416 207.035C98.9949 207.035 98.4949 207.162 98.0416 207.415C97.5882 207.655 97.2216 208.015 96.9416 208.495C96.6749 208.962 96.5416 209.555 96.5416 210.275V210.835C96.5416 211.582 96.6749 212.215 96.9416 212.735C97.2216 213.242 97.5882 213.629 98.0416 213.895C98.4949 214.149 98.9882 214.275 99.5216 214.275C100.162 214.275 100.688 214.135 101.102 213.855C101.515 213.575 101.822 213.195 102.022 212.715H104.022C103.848 213.329 103.555 213.882 103.142 214.375C102.728 214.855 102.215 215.235 101.602 215.515C101.002 215.795 100.308 215.935 99.5216 215.935ZM109.884 215.935C109.057 215.935 108.37 215.795 107.824 215.515C107.277 215.235 106.87 214.862 106.604 214.395C106.337 213.915 106.204 213.402 106.204 212.855C106.204 212.189 106.377 211.622 106.724 211.155C107.07 210.675 107.564 210.309 108.204 210.055C108.844 209.802 109.61 209.675 110.504 209.675H113.124C113.124 209.089 113.037 208.602 112.864 208.215C112.69 207.829 112.43 207.542 112.084 207.355C111.75 207.155 111.324 207.055 110.804 207.055C110.204 207.055 109.69 207.202 109.264 207.495C108.837 207.775 108.57 208.195 108.464 208.755H106.464C106.544 208.049 106.784 207.449 107.184 206.955C107.597 206.449 108.124 206.062 108.764 205.795C109.404 205.515 110.084 205.375 110.804 205.375C111.75 205.375 112.544 205.542 113.184 205.875C113.824 206.209 114.304 206.682 114.624 207.295C114.957 207.895 115.124 208.615 115.124 209.455V215.695H113.384L113.224 213.995C113.077 214.262 112.904 214.515 112.704 214.755C112.504 214.995 112.264 215.202 111.984 215.375C111.717 215.549 111.404 215.682 111.044 215.775C110.697 215.882 110.31 215.935 109.884 215.935ZM110.264 214.315C110.69 214.315 111.077 214.229 111.424 214.055C111.77 213.882 112.064 213.649 112.304 213.355C112.557 213.049 112.744 212.709 112.864 212.335C112.997 211.949 113.07 211.555 113.084 211.155V211.095H110.704C110.13 211.095 109.664 211.169 109.304 211.315C108.957 211.449 108.704 211.635 108.544 211.875C108.384 212.115 108.304 212.395 108.304 212.715C108.304 213.049 108.377 213.335 108.524 213.575C108.684 213.802 108.91 213.982 109.204 214.115C109.497 214.249 109.85 214.315 110.264 214.315ZM117.676 215.695V205.615H119.476L119.656 207.515C119.883 207.062 120.176 206.682 120.536 206.375C120.896 206.055 121.316 205.809 121.796 205.635C122.29 205.462 122.85 205.375 123.476 205.375V207.495H122.756C122.343 207.495 121.95 207.549 121.576 207.655C121.203 207.749 120.87 207.915 120.576 208.155C120.296 208.395 120.076 208.722 119.916 209.135C119.756 209.549 119.676 210.062 119.676 210.675V215.695H117.676ZM125.313 215.695V205.615H127.113L127.233 207.335C127.553 206.735 128.006 206.262 128.593 205.915C129.18 205.555 129.853 205.375 130.613 205.375C131.413 205.375 132.1 205.535 132.673 205.855C133.246 206.175 133.693 206.662 134.013 207.315C134.333 207.955 134.493 208.762 134.493 209.735V215.695H132.493V209.935C132.493 209.002 132.286 208.295 131.873 207.815C131.46 207.335 130.86 207.095 130.073 207.095C129.553 207.095 129.086 207.222 128.673 207.475C128.26 207.715 127.926 208.075 127.673 208.555C127.433 209.035 127.313 209.622 127.313 210.315V215.695H125.313Z" fill="black"/>
</g>
<path d="M219.933 485.208C220.475 485.512 221.161 485.318 221.464 484.776C221.768 484.234 221.574 483.548 221.032 483.245L219.933 485.208ZM109.962 293.715C109.522 293.275 108.81 293.275 108.371 293.715L101.211 300.874C100.772 301.314 100.772 302.026 101.211 302.465C101.651 302.905 102.363 302.905 102.802 302.465L109.166 296.101L115.53 302.465C115.97 302.905 116.682 302.905 117.121 302.465C117.561 302.026 117.561 301.314 117.121 300.874L109.962 293.715ZM221.032 483.245C154.955 446.27 110.291 375.606 110.291 294.51H108.041C108.041 376.453 153.175 447.852 219.933 485.208L221.032 483.245Z" fill="#D3D3D3"/>
<path d="M210.924 108.049C210.391 108.367 210.216 109.057 210.533 109.591C210.851 110.125 211.542 110.3 212.076 109.982L210.924 108.049ZM431.748 108.558C432.348 108.397 432.705 107.78 432.544 107.18L429.923 97.4C429.762 96.7999 429.146 96.4437 428.545 96.6045C427.945 96.7654 427.589 97.3822 427.75 97.9824L430.079 106.676L421.386 109.005C420.786 109.166 420.43 109.783 420.59 110.383C420.751 110.983 421.368 111.339 421.968 111.178L431.748 108.558ZM212.076 109.982C277.134 71.2457 360.664 67.8979 430.895 108.445L432.02 106.497C361.055 65.5257 276.655 68.9126 210.924 108.049L212.076 109.982Z" fill="#D3D3D3"/>
<path d="M531.218 286.399C531.197 285.778 530.676 285.292 530.055 285.313C529.434 285.335 528.948 285.855 528.969 286.476L531.218 286.399ZM424.396 479.667C424.248 480.27 424.617 480.879 425.22 481.028L435.053 483.442C435.657 483.591 436.266 483.222 436.414 482.618C436.562 482.015 436.193 481.406 435.59 481.257L426.85 479.111L428.996 470.371C429.144 469.767 428.775 469.158 428.172 469.01C427.568 468.862 426.959 469.231 426.811 469.834L424.396 479.667ZM528.969 286.476C531.575 362.149 494.27 436.961 424.906 478.973L426.072 480.897C496.161 438.447 533.85 362.853 531.218 286.399L528.969 286.476Z" fill="#D3D3D3"/>
<g filter="url(#filter3_d_64_1087)">
<rect x="274.5" y="65.4844" width="94.5" height="32" rx="16" fill="white" shape-rendering="crispEdges"/>
<rect x="275.25" y="66.2344" width="93" height="30.5" rx="15.25" stroke="#E3E3E3" stroke-width="1.5" shape-rendering="crispEdges"/>
<circle cx="293.25" cy="81.4844" r="3.75" fill="#868DFF"/>
<path d="M307.487 87.4844V76.2844H309.423V87.4844H307.487ZM314.923 87.7084C314.283 87.7084 313.686 87.5537 313.131 87.2444C312.577 86.9244 312.134 86.4604 311.803 85.8524C311.473 85.2444 311.307 84.5137 311.307 83.6604V83.4044C311.307 82.551 311.473 81.8204 311.803 81.2124C312.134 80.6044 312.571 80.1457 313.115 79.8364C313.67 79.5164 314.273 79.3564 314.923 79.3564C315.414 79.3564 315.83 79.415 316.171 79.5324C316.513 79.6497 316.785 79.799 316.987 79.9804C317.201 80.1617 317.366 80.359 317.483 80.5724H317.755V76.2844H319.579V87.4844H317.787V86.4444H317.515C317.323 86.7644 317.03 87.0577 316.635 87.3244C316.241 87.5804 315.67 87.7084 314.923 87.7084ZM315.467 86.1084C316.129 86.1084 316.678 85.895 317.115 85.4684C317.553 85.031 317.771 84.4124 317.771 83.6124V83.4524C317.771 82.6417 317.553 82.023 317.115 81.5964C316.689 81.1697 316.139 80.9564 315.467 80.9564C314.806 80.9564 314.251 81.1697 313.803 81.5964C313.366 82.023 313.147 82.6417 313.147 83.4524V83.6124C313.147 84.4124 313.366 85.031 313.803 85.4684C314.251 85.895 314.806 86.1084 315.467 86.1084ZM325.526 87.7084C324.737 87.7084 324.038 87.543 323.43 87.2124C322.833 86.871 322.364 86.3964 322.022 85.7884C321.692 85.1697 321.526 84.4497 321.526 83.6284V83.4364C321.526 82.6044 321.692 81.8844 322.022 81.2764C322.353 80.6684 322.817 80.199 323.414 79.8684C324.012 79.527 324.7 79.3564 325.478 79.3564C326.246 79.3564 326.918 79.527 327.494 79.8684C328.07 80.199 328.518 80.6684 328.838 81.2764C329.158 81.8844 329.318 82.5937 329.318 83.4044V84.0604H323.382C323.404 84.679 323.622 85.175 324.038 85.5484C324.454 85.9217 324.966 86.1084 325.574 86.1084C326.172 86.1084 326.614 85.9804 326.902 85.7244C327.19 85.4577 327.409 85.159 327.558 84.8284L329.078 85.6124C328.929 85.9004 328.71 86.2097 328.422 86.5404C328.145 86.8604 327.772 87.1377 327.302 87.3724C326.833 87.5964 326.241 87.7084 325.526 87.7084ZM323.398 82.6684H327.446C327.404 82.1457 327.201 81.7297 326.838 81.4204C326.486 81.111 326.028 80.9564 325.462 80.9564C324.876 80.9564 324.406 81.111 324.054 81.4204C323.702 81.7297 323.484 82.1457 323.398 82.6684ZM333.655 87.7084C333.1 87.7084 332.599 87.6124 332.151 87.4204C331.703 87.2177 331.346 86.9297 331.079 86.5564C330.823 86.183 330.695 85.7244 330.695 85.1804C330.695 84.647 330.823 84.199 331.079 83.8364C331.346 83.4737 331.708 83.2017 332.167 83.0204C332.626 82.8284 333.148 82.7324 333.735 82.7324H336.023V82.2524C336.023 81.8364 335.895 81.5004 335.639 81.2444C335.383 80.9777 334.983 80.8444 334.439 80.8444C333.906 80.8444 333.5 80.9724 333.223 81.2284C332.956 81.4737 332.78 81.7937 332.695 82.1884L330.999 81.6284C331.127 81.2124 331.33 80.8337 331.607 80.4924C331.895 80.151 332.274 79.879 332.743 79.6764C333.212 79.463 333.788 79.3564 334.471 79.3564C335.506 79.3564 336.316 79.6177 336.903 80.1404C337.5 80.6524 337.799 81.399 337.799 82.3804V85.4844C337.799 85.8044 337.948 85.9644 338.247 85.9644H338.919V87.4844H337.623C337.239 87.4844 336.924 87.3884 336.679 87.1964C336.434 87.0044 336.311 86.743 336.311 86.4124V86.3804H336.039C335.975 86.5297 335.863 86.711 335.703 86.9244C335.543 87.1377 335.298 87.3244 334.967 87.4844C334.647 87.6337 334.21 87.7084 333.655 87.7084ZM333.959 86.2044C334.567 86.2044 335.063 86.0337 335.447 85.6924C335.831 85.3404 336.023 84.871 336.023 84.2844V84.1244H333.847C333.452 84.1244 333.132 84.2097 332.887 84.3804C332.642 84.551 332.519 84.8017 332.519 85.1324C332.519 85.4524 332.647 85.7137 332.903 85.9164C333.159 86.1084 333.511 86.2044 333.959 86.2044ZM343.643 87.7084C342.619 87.7084 341.776 87.4844 341.115 87.0364C340.454 86.5884 340.054 85.9324 339.915 85.0684L341.611 84.6364C341.686 85.0417 341.819 85.3617 342.011 85.5964C342.203 85.831 342.438 85.9964 342.715 86.0924C343.003 86.1884 343.312 86.2364 343.643 86.2364C344.144 86.2364 344.518 86.1457 344.763 85.9644C345.019 85.783 345.147 85.5537 345.147 85.2764C345.147 84.9884 345.024 84.775 344.779 84.6364C344.544 84.4977 344.182 84.3804 343.691 84.2844L343.195 84.2044C342.651 84.0977 342.155 83.9537 341.707 83.7724C341.259 83.5804 340.896 83.3244 340.619 83.0044C340.352 82.6737 340.219 82.2577 340.219 81.7564C340.219 80.9884 340.502 80.3964 341.067 79.9804C341.643 79.5644 342.395 79.3564 343.323 79.3564C344.208 79.3564 344.939 79.5537 345.515 79.9484C346.091 80.343 346.464 80.871 346.635 81.5324L344.939 82.0444C344.854 81.5964 344.667 81.2817 344.379 81.1004C344.091 80.9084 343.739 80.8124 343.323 80.8124C342.896 80.8124 342.566 80.887 342.331 81.0364C342.107 81.1857 341.995 81.399 341.995 81.6764C341.995 81.9537 342.112 82.1617 342.347 82.3004C342.582 82.439 342.896 82.5404 343.291 82.6044L343.787 82.7004C344.374 82.807 344.902 82.9457 345.371 83.1164C345.851 83.287 346.23 83.5324 346.507 83.8524C346.784 84.1724 346.923 84.6044 346.923 85.1484C346.923 85.9697 346.624 86.6044 346.027 87.0524C345.44 87.4897 344.646 87.7084 343.643 87.7084Z" fill="black"/>
</g>
<g filter="url(#filter4_d_64_1087)">
<rect x="448.5" y="374.5" width="114.5" height="32" rx="16" fill="white" shape-rendering="crispEdges"/>
<rect x="449.25" y="375.25" width="113" height="30.5" rx="15.25" stroke="#E3E3E3" stroke-width="1.5" shape-rendering="crispEdges"/>
<circle cx="467.25" cy="390.5" r="3.75" fill="#FF7826"/>
<path d="M481.127 396.5V385.3H485.655C486.359 385.3 486.978 385.439 487.511 385.716C488.045 385.993 488.466 386.388 488.775 386.9C489.085 387.401 489.239 387.999 489.239 388.692V388.916C489.239 389.599 489.079 390.196 488.759 390.708C488.45 391.22 488.023 391.615 487.479 391.892C486.946 392.169 486.338 392.308 485.655 392.308H483.063V396.5H481.127ZM483.063 390.564H485.463C486.018 390.564 486.461 390.415 486.791 390.116C487.133 389.817 487.303 389.407 487.303 388.884V388.724C487.303 388.201 487.138 387.791 486.807 387.492C486.477 387.193 486.029 387.044 485.463 387.044H483.063V390.564ZM490.832 396.5V388.596H492.64V389.508H492.912C493.029 389.177 493.227 388.937 493.504 388.788C493.781 388.639 494.112 388.564 494.496 388.564H495.456V390.196H494.464C493.931 390.196 493.499 390.34 493.168 390.628C492.837 390.905 492.672 391.337 492.672 391.924V396.5H490.832ZM500.545 396.724C499.755 396.724 499.046 396.564 498.417 396.244C497.798 395.913 497.307 395.449 496.945 394.852C496.593 394.244 496.417 393.519 496.417 392.676V392.42C496.417 391.577 496.593 390.852 496.945 390.244C497.307 389.636 497.798 389.172 498.417 388.852C499.046 388.532 499.755 388.372 500.545 388.372C501.334 388.372 502.038 388.532 502.657 388.852C503.275 389.172 503.761 389.636 504.113 390.244C504.475 390.852 504.657 391.577 504.657 392.42V392.676C504.657 393.519 504.475 394.244 504.113 394.852C503.761 395.449 503.275 395.913 502.657 396.244C502.038 396.564 501.334 396.724 500.545 396.724ZM500.545 395.092C501.217 395.092 501.766 394.879 502.193 394.452C502.619 394.015 502.833 393.407 502.833 392.628V392.468C502.833 391.689 502.619 391.087 502.193 390.66C501.766 390.223 501.217 390.004 500.545 390.004C499.873 390.004 499.323 390.223 498.897 390.66C498.47 391.087 498.257 391.689 498.257 392.468V392.628C498.257 393.407 498.47 394.015 498.897 394.452C499.323 394.879 499.873 395.092 500.545 395.092ZM509.845 396.724C509.205 396.724 508.608 396.569 508.053 396.26C507.499 395.94 507.056 395.476 506.725 394.868C506.395 394.26 506.229 393.529 506.229 392.676V392.42C506.229 391.567 506.395 390.836 506.725 390.228C507.056 389.62 507.493 389.161 508.037 388.852C508.592 388.532 509.195 388.372 509.845 388.372C510.336 388.372 510.752 388.431 511.093 388.548C511.435 388.665 511.707 388.815 511.909 388.996C512.123 389.177 512.288 389.375 512.405 389.588H512.677V385.3H514.501V396.5H512.709V395.46H512.437C512.245 395.78 511.952 396.073 511.557 396.34C511.163 396.596 510.592 396.724 509.845 396.724ZM510.389 395.124C511.051 395.124 511.6 394.911 512.037 394.484C512.475 394.047 512.693 393.428 512.693 392.628V392.468C512.693 391.657 512.475 391.039 512.037 390.612C511.611 390.185 511.061 389.972 510.389 389.972C509.728 389.972 509.173 390.185 508.725 390.612C508.288 391.039 508.069 391.657 508.069 392.468V392.628C508.069 393.428 508.288 394.047 508.725 394.484C509.173 394.911 509.728 395.124 510.389 395.124ZM519.856 396.628C519.248 396.628 518.709 396.495 518.24 396.228C517.771 395.951 517.408 395.567 517.152 395.076C516.896 394.575 516.768 393.993 516.768 393.332V388.596H518.592V393.188C518.592 393.828 518.747 394.303 519.056 394.612C519.376 394.921 519.824 395.076 520.4 395.076C521.051 395.076 521.563 394.863 521.936 394.436C522.32 394.009 522.512 393.396 522.512 392.596V388.596H524.336V396.5H522.544V395.396H522.272C522.133 395.684 521.877 395.961 521.504 396.228C521.141 396.495 520.592 396.628 519.856 396.628ZM530.372 396.724C529.604 396.724 528.91 396.564 528.292 396.244C527.673 395.924 527.182 395.46 526.82 394.852C526.468 394.244 526.292 393.513 526.292 392.66V392.436C526.292 391.583 526.468 390.852 526.82 390.244C527.182 389.636 527.673 389.172 528.292 388.852C528.91 388.532 529.604 388.372 530.372 388.372C531.129 388.372 531.774 388.505 532.308 388.772C532.852 389.039 533.289 389.407 533.62 389.876C533.95 390.335 534.164 390.852 534.26 391.428L532.484 391.796C532.441 391.465 532.34 391.167 532.18 390.9C532.02 390.623 531.79 390.404 531.492 390.244C531.204 390.084 530.846 390.004 530.42 390.004C529.982 390.004 529.588 390.1 529.236 390.292C528.894 390.473 528.622 390.751 528.42 391.124C528.228 391.497 528.132 391.945 528.132 392.468V392.628C528.132 393.151 528.228 393.599 528.42 393.972C528.622 394.335 528.894 394.612 529.236 394.804C529.588 394.996 529.982 395.092 530.42 395.092C531.07 395.092 531.561 394.927 531.892 394.596C532.233 394.255 532.446 393.817 532.532 393.284L534.308 393.7C534.18 394.255 533.95 394.761 533.62 395.22C533.289 395.679 532.852 396.047 532.308 396.324C531.774 396.591 531.129 396.724 530.372 396.724ZM538.84 396.5C538.328 396.5 537.917 396.351 537.608 396.052C537.309 395.743 537.16 395.327 537.16 394.804V390.116H535.096V388.596H537.16V386.052H539V388.596H541.272V390.116H539V394.5C539 394.82 539.149 394.98 539.448 394.98H541.032V396.5H538.84Z" fill="black"/>
</g>
<g filter="url(#filter5_d_64_1087)">
<rect x="82.5" y="374.5" width="88.5" height="32" rx="16" fill="white" shape-rendering="crispEdges"/>
<rect x="83.25" y="375.25" width="87" height="30.5" rx="15.25" stroke="#E3E3E3" stroke-width="1.5" shape-rendering="crispEdges"/>
<circle cx="101.25" cy="390.5" r="3.75" fill="#4FCD44"/>
<path d="M114.814 396.5V394.804H116.318V386.996H114.814V385.3H119.374C120.867 385.3 122.009 385.679 122.798 386.436C123.587 387.193 123.982 388.329 123.982 389.844V391.956C123.982 393.471 123.587 394.607 122.798 395.364C122.009 396.121 120.867 396.5 119.374 396.5H114.814ZM118.238 394.756H119.39C120.297 394.756 120.969 394.521 121.406 394.052C121.843 393.583 122.062 392.905 122.062 392.02V389.796C122.062 388.889 121.843 388.207 121.406 387.748C120.969 387.279 120.297 387.044 119.39 387.044H118.238V394.756ZM128.335 396.724C127.78 396.724 127.279 396.628 126.831 396.436C126.383 396.233 126.025 395.945 125.759 395.572C125.503 395.199 125.375 394.74 125.375 394.196C125.375 393.663 125.503 393.215 125.759 392.852C126.025 392.489 126.388 392.217 126.847 392.036C127.305 391.844 127.828 391.748 128.415 391.748H130.703V391.268C130.703 390.852 130.575 390.516 130.319 390.26C130.063 389.993 129.663 389.86 129.119 389.86C128.585 389.86 128.18 389.988 127.903 390.244C127.636 390.489 127.46 390.809 127.375 391.204L125.679 390.644C125.807 390.228 126.009 389.849 126.287 389.508C126.575 389.167 126.953 388.895 127.423 388.692C127.892 388.479 128.468 388.372 129.151 388.372C130.185 388.372 130.996 388.633 131.583 389.156C132.18 389.668 132.479 390.415 132.479 391.396V394.5C132.479 394.82 132.628 394.98 132.927 394.98H133.599V396.5H132.303C131.919 396.5 131.604 396.404 131.359 396.212C131.113 396.02 130.991 395.759 130.991 395.428V395.396H130.719C130.655 395.545 130.543 395.727 130.383 395.94C130.223 396.153 129.977 396.34 129.647 396.5C129.327 396.649 128.889 396.724 128.335 396.724ZM128.639 395.22C129.247 395.22 129.743 395.049 130.127 394.708C130.511 394.356 130.703 393.887 130.703 393.3V393.14H128.527C128.132 393.14 127.812 393.225 127.567 393.396C127.321 393.567 127.199 393.817 127.199 394.148C127.199 394.468 127.327 394.729 127.583 394.932C127.839 395.124 128.191 395.22 128.639 395.22ZM137.567 396.5C137.055 396.5 136.644 396.351 136.335 396.052C136.036 395.743 135.887 395.327 135.887 394.804V390.116H133.823V388.596H135.887V386.052H137.727V388.596H139.999V390.116H137.727V394.5C137.727 394.82 137.876 394.98 138.175 394.98H139.759V396.5H137.567ZM144.304 396.724C143.749 396.724 143.248 396.628 142.799 396.436C142.352 396.233 141.994 395.945 141.728 395.572C141.472 395.199 141.344 394.74 141.344 394.196C141.344 393.663 141.472 393.215 141.728 392.852C141.994 392.489 142.357 392.217 142.816 392.036C143.274 391.844 143.797 391.748 144.384 391.748H146.672V391.268C146.672 390.852 146.544 390.516 146.288 390.26C146.032 389.993 145.632 389.86 145.088 389.86C144.554 389.86 144.149 389.988 143.872 390.244C143.605 390.489 143.429 390.809 143.344 391.204L141.648 390.644C141.776 390.228 141.978 389.849 142.256 389.508C142.544 389.167 142.922 388.895 143.392 388.692C143.861 388.479 144.437 388.372 145.12 388.372C146.154 388.372 146.965 388.633 147.552 389.156C148.149 389.668 148.448 390.415 148.448 391.396V394.5C148.448 394.82 148.597 394.98 148.896 394.98H149.568V396.5H148.272C147.888 396.5 147.573 396.404 147.328 396.212C147.082 396.02 146.96 395.759 146.96 395.428V395.396H146.688C146.624 395.545 146.512 395.727 146.352 395.94C146.192 396.153 145.946 396.34 145.616 396.5C145.296 396.649 144.858 396.724 144.304 396.724ZM144.608 395.22C145.216 395.22 145.712 395.049 146.096 394.708C146.48 394.356 146.672 393.887 146.672 393.3V393.14H144.496C144.101 393.14 143.781 393.225 143.536 393.396C143.29 393.567 143.168 393.817 143.168 394.148C143.168 394.468 143.296 394.729 143.552 394.932C143.808 395.124 144.16 395.22 144.608 395.22Z" fill="black"/>
</g>
<g filter="url(#filter6_d_64_1087)">
<rect x="262" y="226" width="120" height="120" rx="24" fill="white" shape-rendering="crispEdges"/>
<rect x="261.25" y="225.25" width="121.5" height="121.5" rx="24.75" stroke="#E3E3E3" stroke-width="1.5" shape-rendering="crispEdges"/>
<path fill-rule="evenodd" clip-rule="evenodd" d="M297.527 292.162L322.131 292.162L297.527 267.559V292.162ZM297.768 300.673C298.894 306.268 303.836 310.482 309.763 310.482H346.471V273.775C346.471 267.837 342.241 262.887 336.63 261.773L336.63 300.675H327.852V300.673L297.768 300.673ZM327.852 261.539L327.852 285.845L303.545 261.539H327.852Z" fill="black"/>
</g>
<path d="M184.441 184.5V173.3H189.145C189.839 173.3 190.447 173.423 190.969 173.668C191.503 173.903 191.913 174.244 192.201 174.692C192.5 175.14 192.649 175.673 192.649 176.292V176.468C192.649 177.172 192.479 177.737 192.137 178.164C191.807 178.58 191.401 178.873 190.921 179.044V179.3C191.327 179.321 191.652 179.46 191.897 179.716C192.143 179.961 192.265 180.319 192.265 180.788V184.5H190.521V181.028C190.521 180.74 190.447 180.511 190.297 180.34C190.148 180.169 189.908 180.084 189.577 180.084H186.169V184.5H184.441ZM186.169 178.516H188.953C189.572 178.516 190.052 178.361 190.393 178.052C190.735 177.732 190.905 177.3 190.905 176.756V176.628C190.905 176.084 190.735 175.657 190.393 175.348C190.063 175.028 189.583 174.868 188.953 174.868H186.169V178.516ZM198.215 184.724C197.415 184.724 196.716 184.559 196.119 184.228C195.521 183.887 195.052 183.412 194.711 182.804C194.38 182.185 194.215 181.471 194.215 180.66V180.468C194.215 179.647 194.38 178.932 194.711 178.324C195.041 177.705 195.5 177.231 196.087 176.9C196.684 176.559 197.372 176.388 198.151 176.388C198.908 176.388 199.569 176.559 200.135 176.9C200.711 177.231 201.159 177.695 201.479 178.292C201.799 178.889 201.959 179.588 201.959 180.388V181.012H195.895C195.916 181.705 196.145 182.26 196.583 182.676C197.031 183.081 197.585 183.284 198.247 183.284C198.865 183.284 199.329 183.145 199.639 182.868C199.959 182.591 200.204 182.271 200.375 181.908L201.735 182.612C201.585 182.911 201.367 183.225 201.079 183.556C200.801 183.887 200.433 184.164 199.975 184.388C199.516 184.612 198.929 184.724 198.215 184.724ZM195.911 179.748H200.279C200.236 179.151 200.023 178.687 199.639 178.356C199.255 178.015 198.753 177.844 198.135 177.844C197.516 177.844 197.009 178.015 196.615 178.356C196.231 178.687 195.996 179.151 195.911 179.748ZM207.175 184.724C206.172 184.724 205.34 184.5 204.679 184.052C204.017 183.604 203.612 182.927 203.463 182.02L204.999 181.652C205.084 182.089 205.228 182.436 205.431 182.692C205.633 182.948 205.884 183.129 206.183 183.236C206.492 183.343 206.823 183.396 207.175 183.396C207.697 183.396 208.097 183.295 208.375 183.092C208.663 182.889 208.807 182.628 208.807 182.308C208.807 181.988 208.673 181.753 208.407 181.604C208.14 181.455 207.745 181.332 207.223 181.236L206.679 181.14C206.145 181.044 205.66 180.905 205.223 180.724C204.785 180.543 204.439 180.292 204.183 179.972C203.927 179.652 203.799 179.241 203.799 178.74C203.799 177.993 204.076 177.417 204.631 177.012C205.185 176.596 205.921 176.388 206.839 176.388C207.724 176.388 208.449 176.591 209.015 176.996C209.591 177.391 209.964 177.929 210.135 178.612L208.599 179.044C208.503 178.564 208.3 178.228 207.991 178.036C207.681 177.833 207.297 177.732 206.839 177.732C206.391 177.732 206.039 177.817 205.783 177.988C205.527 178.148 205.399 178.377 205.399 178.676C205.399 178.996 205.521 179.231 205.767 179.38C206.023 179.529 206.364 179.641 206.791 179.716L207.351 179.812C207.916 179.908 208.433 180.041 208.903 180.212C209.372 180.383 209.74 180.628 210.007 180.948C210.284 181.268 210.423 181.695 210.423 182.228C210.423 183.017 210.129 183.631 209.543 184.068C208.956 184.505 208.167 184.724 207.175 184.724ZM215.373 184.644C214.775 184.644 214.242 184.511 213.773 184.244C213.303 183.977 212.935 183.599 212.669 183.108C212.402 182.617 212.269 182.031 212.269 181.348V176.612H213.917V181.236C213.917 181.919 214.087 182.425 214.429 182.756C214.77 183.076 215.245 183.236 215.853 183.236C216.525 183.236 217.063 183.012 217.469 182.564C217.885 182.105 218.093 181.449 218.093 180.596V176.612H219.741V184.5H218.125V183.316H217.869C217.719 183.636 217.453 183.94 217.069 184.228C216.685 184.505 216.119 184.644 215.373 184.644ZM222.177 184.5V173.3H223.825V184.5H222.177ZM229.231 184.5C228.751 184.5 228.367 184.356 228.079 184.068C227.801 183.78 227.663 183.396 227.663 182.916V178.004H225.487V176.612H227.663V174.004H229.311V176.612H231.663V178.004H229.311V182.628C229.311 182.948 229.46 183.108 229.759 183.108H231.407V184.5H229.231ZM236.831 184.724C235.828 184.724 234.996 184.5 234.335 184.052C233.673 183.604 233.268 182.927 233.119 182.02L234.655 181.652C234.74 182.089 234.884 182.436 235.087 182.692C235.289 182.948 235.54 183.129 235.839 183.236C236.148 183.343 236.479 183.396 236.831 183.396C237.353 183.396 237.753 183.295 238.031 183.092C238.319 182.889 238.463 182.628 238.463 182.308C238.463 181.988 238.329 181.753 238.063 181.604C237.796 181.455 237.401 181.332 236.879 181.236L236.335 181.14C235.801 181.044 235.316 180.905 234.879 180.724C234.441 180.543 234.095 180.292 233.839 179.972C233.583 179.652 233.455 179.241 233.455 178.74C233.455 177.993 233.732 177.417 234.287 177.012C234.841 176.596 235.577 176.388 236.495 176.388C237.38 176.388 238.105 176.591 238.671 176.996C239.247 177.391 239.62 177.929 239.791 178.612L238.255 179.044C238.159 178.564 237.956 178.228 237.647 178.036C237.337 177.833 236.953 177.732 236.495 177.732C236.047 177.732 235.695 177.817 235.439 177.988C235.183 178.148 235.055 178.377 235.055 178.676C235.055 178.996 235.177 179.231 235.423 179.38C235.679 179.529 236.02 179.641 236.447 179.716L237.007 179.812C237.572 179.908 238.089 180.041 238.559 180.212C239.028 180.383 239.396 180.628 239.663 180.948C239.94 181.268 240.079 181.695 240.079 182.228C240.079 183.017 239.785 183.631 239.199 184.068C238.612 184.505 237.823 184.724 236.831 184.724ZM248.739 184.5C248.099 184.5 247.529 184.383 247.027 184.148C246.537 183.913 246.147 183.572 245.859 183.124C245.582 182.676 245.443 182.137 245.443 181.508C245.443 181.039 245.529 180.633 245.699 180.292C245.87 179.951 246.099 179.668 246.387 179.444C246.686 179.209 247.006 179.039 247.347 178.932V178.724C246.835 178.564 246.403 178.287 246.051 177.892C245.699 177.497 245.523 176.964 245.523 176.292C245.523 175.641 245.667 175.097 245.955 174.66C246.254 174.212 246.649 173.876 247.139 173.652C247.63 173.417 248.185 173.3 248.803 173.3H250.691V174.692H249.075C248.542 174.692 248.094 174.836 247.731 175.124C247.369 175.401 247.187 175.833 247.187 176.42C247.187 176.825 247.273 177.156 247.443 177.412C247.625 177.657 247.854 177.844 248.131 177.972C248.419 178.089 248.734 178.148 249.075 178.148H250.947V176.564H252.595V178.148H254.115V179.54H252.595V184.5H248.739ZM249.011 183.108H250.947V179.54H249.011C248.478 179.54 248.025 179.689 247.651 179.988C247.278 180.276 247.091 180.724 247.091 181.332C247.091 181.94 247.283 182.388 247.667 182.676C248.051 182.964 248.499 183.108 249.011 183.108ZM261.148 184.5V178.004H258.94V176.612H261.148V174.884C261.148 174.404 261.292 174.02 261.58 173.732C261.868 173.444 262.252 173.3 262.732 173.3H264.764V174.692H263.26C262.95 174.692 262.796 174.852 262.796 175.172V176.612H265.068V178.004H262.796V184.5H261.148ZM270.043 184.724C269.243 184.724 268.544 184.559 267.947 184.228C267.35 183.887 266.88 183.412 266.539 182.804C266.208 182.185 266.043 181.471 266.043 180.66V180.468C266.043 179.647 266.208 178.932 266.539 178.324C266.87 177.705 267.328 177.231 267.915 176.9C268.512 176.559 269.2 176.388 269.979 176.388C270.736 176.388 271.398 176.559 271.963 176.9C272.539 177.231 272.987 177.695 273.307 178.292C273.627 178.889 273.787 179.588 273.787 180.388V181.012H267.723C267.744 181.705 267.974 182.26 268.411 182.676C268.859 183.081 269.414 183.284 270.075 183.284C270.694 183.284 271.158 183.145 271.467 182.868C271.787 182.591 272.032 182.271 272.203 181.908L273.563 182.612C273.414 182.911 273.195 183.225 272.907 183.556C272.63 183.887 272.262 184.164 271.803 184.388C271.344 184.612 270.758 184.724 270.043 184.724ZM267.739 179.748H272.107C272.064 179.151 271.851 178.687 271.467 178.356C271.083 178.015 270.582 177.844 269.963 177.844C269.344 177.844 268.838 178.015 268.443 178.356C268.059 178.687 267.824 179.151 267.739 179.748ZM279.387 184.724C278.587 184.724 277.888 184.559 277.291 184.228C276.693 183.887 276.224 183.412 275.883 182.804C275.552 182.185 275.387 181.471 275.387 180.66V180.468C275.387 179.647 275.552 178.932 275.883 178.324C276.213 177.705 276.672 177.231 277.259 176.9C277.856 176.559 278.544 176.388 279.323 176.388C280.08 176.388 280.741 176.559 281.307 176.9C281.883 177.231 282.331 177.695 282.651 178.292C282.971 178.889 283.131 179.588 283.131 180.388V181.012H277.067C277.088 181.705 277.317 182.26 277.755 182.676C278.203 183.081 278.757 183.284 279.419 183.284C280.037 183.284 280.501 183.145 280.811 182.868C281.131 182.591 281.376 182.271 281.547 181.908L282.907 182.612C282.757 182.911 282.539 183.225 282.251 183.556C281.973 183.887 281.605 184.164 281.147 184.388C280.688 184.612 280.101 184.724 279.387 184.724ZM277.083 179.748H281.451C281.408 179.151 281.195 178.687 280.811 178.356C280.427 178.015 279.925 177.844 279.307 177.844C278.688 177.844 278.181 178.015 277.787 178.356C277.403 178.687 277.168 179.151 277.083 179.748ZM288.378 184.724C287.728 184.724 287.125 184.564 286.57 184.244C286.016 183.924 285.568 183.465 285.226 182.868C284.896 182.26 284.73 181.529 284.73 180.676V180.436C284.73 179.593 284.896 178.868 285.226 178.26C285.557 177.652 286 177.188 286.554 176.868C287.109 176.548 287.717 176.388 288.378 176.388C288.89 176.388 289.317 176.452 289.658 176.58C290.01 176.708 290.298 176.873 290.522 177.076C290.746 177.268 290.917 177.471 291.034 177.684H291.29V173.3H292.938V184.5H291.322V183.38H291.066C290.864 183.721 290.554 184.031 290.138 184.308C289.733 184.585 289.146 184.724 288.378 184.724ZM288.842 183.284C289.557 183.284 290.144 183.055 290.602 182.596C291.072 182.137 291.306 181.481 291.306 180.628V180.484C291.306 179.641 291.077 178.991 290.618 178.532C290.16 178.073 289.568 177.844 288.842 177.844C288.138 177.844 287.552 178.073 287.082 178.532C286.624 178.991 286.394 179.641 286.394 180.484V180.628C286.394 181.481 286.624 182.137 287.082 182.596C287.552 183.055 288.138 183.284 288.842 183.284ZM299.924 184.724C299.156 184.724 298.564 184.585 298.148 184.308C297.743 184.031 297.439 183.721 297.236 183.38H296.98V184.5H295.364V173.3H297.012V177.684H297.268C297.396 177.471 297.567 177.268 297.78 177.076C297.994 176.873 298.276 176.708 298.628 176.58C298.98 176.452 299.412 176.388 299.924 176.388C300.586 176.388 301.194 176.548 301.748 176.868C302.303 177.188 302.746 177.652 303.076 178.26C303.407 178.868 303.572 179.593 303.572 180.436V180.676C303.572 181.529 303.402 182.26 303.06 182.868C302.73 183.465 302.287 183.924 301.732 184.244C301.188 184.564 300.586 184.724 299.924 184.724ZM299.444 183.284C300.159 183.284 300.746 183.055 301.204 182.596C301.674 182.137 301.908 181.481 301.908 180.628V180.484C301.908 179.641 301.679 178.991 301.22 178.532C300.762 178.073 300.17 177.844 299.444 177.844C298.74 177.844 298.154 178.073 297.684 178.532C297.226 178.991 296.996 179.641 296.996 180.484V180.628C296.996 181.481 297.226 182.137 297.684 182.596C298.154 183.055 298.74 183.284 299.444 183.284ZM308.062 184.724C307.497 184.724 306.99 184.628 306.542 184.436C306.105 184.244 305.753 183.961 305.486 183.588C305.23 183.215 305.102 182.761 305.102 182.228C305.102 181.684 305.23 181.236 305.486 180.884C305.753 180.521 306.11 180.249 306.558 180.068C307.017 179.887 307.534 179.796 308.11 179.796H310.51V179.284C310.51 178.825 310.372 178.457 310.094 178.18C309.817 177.903 309.39 177.764 308.814 177.764C308.249 177.764 307.817 177.897 307.518 178.164C307.22 178.431 307.022 178.777 306.926 179.204L305.39 178.708C305.518 178.281 305.721 177.897 305.998 177.556C306.286 177.204 306.665 176.921 307.134 176.708C307.604 176.495 308.169 176.388 308.83 176.388C309.854 176.388 310.66 176.649 311.246 177.172C311.833 177.695 312.126 178.436 312.126 179.396V182.644C312.126 182.964 312.276 183.124 312.574 183.124H313.246V184.5H312.014C311.641 184.5 311.337 184.404 311.102 184.212C310.868 184.02 310.75 183.759 310.75 183.428V183.38H310.51C310.425 183.54 310.297 183.727 310.126 183.94C309.956 184.153 309.705 184.34 309.374 184.5C309.044 184.649 308.606 184.724 308.062 184.724ZM308.302 183.364C308.964 183.364 309.497 183.177 309.902 182.804C310.308 182.42 310.51 181.897 310.51 181.236V181.076H308.206C307.769 181.076 307.417 181.172 307.15 181.364C306.884 181.545 306.75 181.817 306.75 182.18C306.75 182.543 306.889 182.831 307.166 183.044C307.444 183.257 307.822 183.364 308.302 183.364ZM318.325 184.724C317.568 184.724 316.88 184.564 316.261 184.244C315.653 183.924 315.168 183.46 314.805 182.852C314.453 182.244 314.277 181.513 314.277 180.66V180.452C314.277 179.599 314.453 178.873 314.805 178.276C315.168 177.668 315.653 177.204 316.261 176.884C316.88 176.553 317.568 176.388 318.325 176.388C319.083 176.388 319.728 176.527 320.261 176.804C320.795 177.081 321.221 177.449 321.541 177.908C321.872 178.367 322.085 178.873 322.181 179.428L320.581 179.764C320.528 179.412 320.416 179.092 320.245 178.804C320.075 178.516 319.835 178.287 319.525 178.116C319.216 177.945 318.827 177.86 318.357 177.86C317.899 177.86 317.483 177.967 317.109 178.18C316.747 178.383 316.459 178.681 316.245 179.076C316.032 179.46 315.925 179.929 315.925 180.484V180.628C315.925 181.183 316.032 181.657 316.245 182.052C316.459 182.447 316.747 182.745 317.109 182.948C317.483 183.151 317.899 183.252 318.357 183.252C319.051 183.252 319.579 183.076 319.941 182.724C320.304 182.361 320.533 181.903 320.629 181.348L322.229 181.716C322.101 182.26 321.872 182.761 321.541 183.22C321.221 183.679 320.795 184.047 320.261 184.324C319.728 184.591 319.083 184.724 318.325 184.724ZM324.13 184.5V173.3H325.778V179.684H326.034L329.138 176.612H331.33L327.346 180.436L331.458 184.5H329.282L326.034 181.22H325.778V184.5H324.13Z" fill="#7D7D7D"/>
<path d="M170.25 200H336.75C343.377 200 348.75 194.627 348.75 188V167" stroke="#D3D3D3" stroke-width="2.25" stroke-linecap="round"/>
<path d="M439.312 277.224C437.947 277.224 436.859 276.84 436.048 276.072C435.237 275.293 434.832 274.179 434.832 272.728V270.072C434.832 268.621 435.237 267.512 436.048 266.744C436.859 265.965 437.947 265.576 439.312 265.576C440.677 265.576 441.728 265.949 442.464 266.696C443.211 267.443 443.584 268.467 443.584 269.768V269.864H441.696V269.72C441.696 269.016 441.499 268.44 441.104 267.992C440.72 267.533 440.123 267.304 439.312 267.304C438.523 267.304 437.899 267.549 437.44 268.04C436.992 268.52 436.768 269.187 436.768 270.04V272.76C436.768 273.603 436.992 274.269 437.44 274.76C437.899 275.251 438.523 275.496 439.312 275.496C440.123 275.496 440.72 275.272 441.104 274.824C441.499 274.365 441.696 273.784 441.696 273.08V272.808H443.584V273.032C443.584 274.333 443.211 275.357 442.464 276.104C441.728 276.851 440.677 277.224 439.312 277.224ZM445.449 277V269.096H447.257V270.008H447.529C447.647 269.677 447.844 269.437 448.121 269.288C448.399 269.139 448.729 269.064 449.113 269.064H450.073V270.696H449.081C448.548 270.696 448.116 270.84 447.785 271.128C447.455 271.405 447.289 271.837 447.289 272.424V277H445.449ZM455.034 277.224C454.245 277.224 453.546 277.059 452.938 276.728C452.341 276.387 451.871 275.912 451.53 275.304C451.199 274.685 451.034 273.965 451.034 273.144V272.952C451.034 272.12 451.199 271.4 451.53 270.792C451.861 270.184 452.325 269.715 452.922 269.384C453.519 269.043 454.207 268.872 454.986 268.872C455.754 268.872 456.426 269.043 457.002 269.384C457.578 269.715 458.026 270.184 458.346 270.792C458.666 271.4 458.826 272.109 458.826 272.92V273.576H452.89C452.911 274.195 453.13 274.691 453.546 275.064C453.962 275.437 454.474 275.624 455.082 275.624C455.679 275.624 456.122 275.496 456.41 275.24C456.698 274.973 456.917 274.675 457.066 274.344L458.586 275.128C458.437 275.416 458.218 275.725 457.93 276.056C457.653 276.376 457.279 276.653 456.81 276.888C456.341 277.112 455.749 277.224 455.034 277.224ZM452.906 272.184H456.954C456.911 271.661 456.709 271.245 456.346 270.936C455.994 270.627 455.535 270.472 454.97 270.472C454.383 270.472 453.914 270.627 453.562 270.936C453.21 271.245 452.991 271.661 452.906 272.184ZM463.163 277.224C462.608 277.224 462.107 277.128 461.659 276.936C461.211 276.733 460.854 276.445 460.587 276.072C460.331 275.699 460.203 275.24 460.203 274.696C460.203 274.163 460.331 273.715 460.587 273.352C460.854 272.989 461.216 272.717 461.675 272.536C462.134 272.344 462.656 272.248 463.243 272.248H465.531V271.768C465.531 271.352 465.403 271.016 465.147 270.76C464.891 270.493 464.491 270.36 463.947 270.36C463.414 270.36 463.008 270.488 462.731 270.744C462.464 270.989 462.288 271.309 462.203 271.704L460.507 271.144C460.635 270.728 460.838 270.349 461.115 270.008C461.403 269.667 461.782 269.395 462.251 269.192C462.72 268.979 463.296 268.872 463.979 268.872C465.014 268.872 465.824 269.133 466.411 269.656C467.008 270.168 467.307 270.915 467.307 271.896V275C467.307 275.32 467.456 275.48 467.755 275.48H468.427V277H467.131C466.747 277 466.432 276.904 466.187 276.712C465.942 276.52 465.819 276.259 465.819 275.928V275.896H465.547C465.483 276.045 465.371 276.227 465.211 276.44C465.051 276.653 464.806 276.84 464.475 277C464.155 277.149 463.718 277.224 463.163 277.224ZM463.467 275.72C464.075 275.72 464.571 275.549 464.955 275.208C465.339 274.856 465.531 274.387 465.531 273.8V273.64H463.355C462.96 273.64 462.64 273.725 462.395 273.896C462.15 274.067 462.027 274.317 462.027 274.648C462.027 274.968 462.155 275.229 462.411 275.432C462.667 275.624 463.019 275.72 463.467 275.72ZM472.395 277C471.883 277 471.472 276.851 471.163 276.552C470.864 276.243 470.715 275.827 470.715 275.304V270.616H468.651V269.096H470.715V266.552H472.555V269.096H474.827V270.616H472.555V275C472.555 275.32 472.704 275.48 473.003 275.48H474.587V277H472.395ZM480.034 277.224C479.245 277.224 478.546 277.059 477.938 276.728C477.341 276.387 476.871 275.912 476.53 275.304C476.199 274.685 476.034 273.965 476.034 273.144V272.952C476.034 272.12 476.199 271.4 476.53 270.792C476.861 270.184 477.325 269.715 477.922 269.384C478.519 269.043 479.207 268.872 479.986 268.872C480.754 268.872 481.426 269.043 482.002 269.384C482.578 269.715 483.026 270.184 483.346 270.792C483.666 271.4 483.826 272.109 483.826 272.92V273.576H477.89C477.911 274.195 478.13 274.691 478.546 275.064C478.962 275.437 479.474 275.624 480.082 275.624C480.679 275.624 481.122 275.496 481.41 275.24C481.698 274.973 481.917 274.675 482.066 274.344L483.586 275.128C483.437 275.416 483.218 275.725 482.93 276.056C482.653 276.376 482.279 276.653 481.81 276.888C481.341 277.112 480.749 277.224 480.034 277.224ZM477.906 272.184H481.954C481.911 271.661 481.709 271.245 481.346 270.936C480.994 270.627 480.535 270.472 479.97 270.472C479.383 270.472 478.914 270.627 478.562 270.936C478.21 271.245 477.991 271.661 477.906 272.184ZM437.616 291.224C437.061 291.224 436.56 291.128 436.112 290.936C435.664 290.733 435.307 290.445 435.04 290.072C434.784 289.699 434.656 289.24 434.656 288.696C434.656 288.163 434.784 287.715 435.04 287.352C435.307 286.989 435.669 286.717 436.128 286.536C436.587 286.344 437.109 286.248 437.696 286.248H439.984V285.768C439.984 285.352 439.856 285.016 439.6 284.76C439.344 284.493 438.944 284.36 438.4 284.36C437.867 284.36 437.461 284.488 437.184 284.744C436.917 284.989 436.741 285.309 436.656 285.704L434.96 285.144C435.088 284.728 435.291 284.349 435.568 284.008C435.856 283.667 436.235 283.395 436.704 283.192C437.173 282.979 437.749 282.872 438.432 282.872C439.467 282.872 440.277 283.133 440.864 283.656C441.461 284.168 441.76 284.915 441.76 285.896V289C441.76 289.32 441.909 289.48 442.208 289.48H442.88V291H441.584C441.2 291 440.885 290.904 440.64 290.712C440.395 290.52 440.272 290.259 440.272 289.928V289.896H440C439.936 290.045 439.824 290.227 439.664 290.44C439.504 290.653 439.259 290.84 438.928 291C438.608 291.149 438.171 291.224 437.616 291.224ZM437.92 289.72C438.528 289.72 439.024 289.549 439.408 289.208C439.792 288.856 439.984 288.387 439.984 287.8V287.64H437.808C437.413 287.64 437.093 287.725 436.848 287.896C436.603 288.067 436.48 288.317 436.48 288.648C436.48 288.968 436.608 289.229 436.864 289.432C437.12 289.624 437.472 289.72 437.92 289.72ZM444.402 291V283.096H446.21V284.2H446.482C446.621 283.901 446.872 283.619 447.234 283.352C447.597 283.085 448.146 282.952 448.882 282.952C449.49 282.952 450.029 283.091 450.498 283.368C450.968 283.645 451.33 284.029 451.586 284.52C451.853 285.011 451.986 285.592 451.986 286.264V291H450.146V286.408C450.146 285.768 449.986 285.293 449.666 284.984C449.357 284.664 448.914 284.504 448.338 284.504C447.688 284.504 447.176 284.723 446.802 285.16C446.429 285.587 446.242 286.2 446.242 287V291H444.402ZM458.26 291V279.8H461.86L464.036 289.704H464.308L466.5 279.8H470.084V291H468.228V281.192H467.956L465.78 291H462.58L460.404 281.192H460.132V291H458.26ZM474.499 291L471.523 279.8H473.507L476.035 289.768H476.259L478.803 279.8H480.787L477.795 291H474.499ZM482.198 291V279.8H486.726C487.43 279.8 488.048 279.939 488.582 280.216C489.115 280.493 489.536 280.888 489.846 281.4C490.155 281.901 490.31 282.499 490.31 283.192V283.416C490.31 284.099 490.15 284.696 489.83 285.208C489.52 285.72 489.094 286.115 488.55 286.392C488.016 286.669 487.408 286.808 486.726 286.808H484.134V291H482.198ZM484.134 285.064H486.534C487.088 285.064 487.531 284.915 487.862 284.616C488.203 284.317 488.374 283.907 488.374 283.384V283.224C488.374 282.701 488.208 282.291 487.878 281.992C487.547 281.693 487.099 281.544 486.534 281.544H484.134V285.064Z" fill="#7D7D7D"/>
<path d="M426 308.25H494.25C500.877 308.25 506.25 302.877 506.25 296.25V252" stroke="#D3D3D3" stroke-width="2.25" stroke-linecap="round"/>
<path d="M228.744 421V411.544H225.4V409.8H234.008V411.544H230.664V421H228.744ZM237.659 421.224C236.87 421.224 236.171 421.059 235.563 420.728C234.966 420.387 234.496 419.912 234.155 419.304C233.824 418.685 233.659 417.965 233.659 417.144V416.952C233.659 416.12 233.824 415.4 234.155 414.792C234.486 414.184 234.95 413.715 235.547 413.384C236.144 413.043 236.832 412.872 237.611 412.872C238.379 412.872 239.051 413.043 239.627 413.384C240.203 413.715 240.651 414.184 240.971 414.792C241.291 415.4 241.451 416.109 241.451 416.92V417.576H235.515C235.536 418.195 235.755 418.691 236.171 419.064C236.587 419.437 237.099 419.624 237.707 419.624C238.304 419.624 238.747 419.496 239.035 419.24C239.323 418.973 239.542 418.675 239.691 418.344L241.211 419.128C241.062 419.416 240.843 419.725 240.555 420.056C240.278 420.376 239.904 420.653 239.435 420.888C238.966 421.112 238.374 421.224 237.659 421.224ZM235.531 416.184H239.579C239.536 415.661 239.334 415.245 238.971 414.936C238.619 414.627 238.16 414.472 237.595 414.472C237.008 414.472 236.539 414.627 236.187 414.936C235.835 415.245 235.616 415.661 235.531 416.184ZM246.604 421.224C245.58 421.224 244.737 421 244.076 420.552C243.415 420.104 243.015 419.448 242.876 418.584L244.572 418.152C244.647 418.557 244.78 418.877 244.972 419.112C245.164 419.347 245.399 419.512 245.676 419.608C245.964 419.704 246.273 419.752 246.604 419.752C247.105 419.752 247.479 419.661 247.724 419.48C247.98 419.299 248.108 419.069 248.108 418.792C248.108 418.504 247.985 418.291 247.74 418.152C247.505 418.013 247.143 417.896 246.652 417.8L246.156 417.72C245.612 417.613 245.116 417.469 244.668 417.288C244.22 417.096 243.857 416.84 243.58 416.52C243.313 416.189 243.18 415.773 243.18 415.272C243.18 414.504 243.463 413.912 244.028 413.496C244.604 413.08 245.356 412.872 246.284 412.872C247.169 412.872 247.9 413.069 248.476 413.464C249.052 413.859 249.425 414.387 249.596 415.048L247.9 415.56C247.815 415.112 247.628 414.797 247.34 414.616C247.052 414.424 246.7 414.328 246.284 414.328C245.857 414.328 245.527 414.403 245.292 414.552C245.068 414.701 244.956 414.915 244.956 415.192C244.956 415.469 245.073 415.677 245.308 415.816C245.543 415.955 245.857 416.056 246.252 416.12L246.748 416.216C247.335 416.323 247.863 416.461 248.332 416.632C248.812 416.803 249.191 417.048 249.468 417.368C249.745 417.688 249.884 418.12 249.884 418.664C249.884 419.485 249.585 420.12 248.988 420.568C248.401 421.005 247.607 421.224 246.604 421.224ZM254.598 421C254.086 421 253.675 420.851 253.366 420.552C253.067 420.243 252.918 419.827 252.918 419.304V414.616H250.854V413.096H252.918V410.552H254.758V413.096H257.03V414.616H254.758V419C254.758 419.32 254.907 419.48 255.206 419.48H256.79V421H254.598ZM265.989 421C265.477 421 265.066 420.851 264.757 420.552C264.458 420.243 264.309 419.827 264.309 419.304V414.616H262.245V413.096H264.309V410.552H266.149V413.096H268.421V414.616H266.149V419C266.149 419.32 266.298 419.48 266.597 419.48H268.181V421H265.989ZM270.293 421V409.8H272.133V414.136H272.405C272.49 413.955 272.629 413.773 272.821 413.592C273.013 413.411 273.264 413.261 273.573 413.144C273.893 413.027 274.293 412.968 274.773 412.968C275.381 412.968 275.92 413.107 276.389 413.384C276.858 413.651 277.221 414.029 277.477 414.52C277.744 415.011 277.877 415.592 277.877 416.264V421H276.037V416.408C276.037 415.768 275.877 415.293 275.557 414.984C275.248 414.664 274.805 414.504 274.229 414.504C273.578 414.504 273.066 414.723 272.693 415.16C272.32 415.587 272.133 416.2 272.133 417V421H270.293ZM283.753 421.224C282.963 421.224 282.265 421.059 281.657 420.728C281.059 420.387 280.59 419.912 280.249 419.304C279.918 418.685 279.753 417.965 279.753 417.144V416.952C279.753 416.12 279.918 415.4 280.249 414.792C280.579 414.184 281.043 413.715 281.641 413.384C282.238 413.043 282.926 412.872 283.705 412.872C284.473 412.872 285.145 413.043 285.721 413.384C286.297 413.715 286.745 414.184 287.065 414.792C287.385 415.4 287.545 416.109 287.545 416.92V417.576H281.609C281.63 418.195 281.849 418.691 282.265 419.064C282.681 419.437 283.193 419.624 283.801 419.624C284.398 419.624 284.841 419.496 285.129 419.24C285.417 418.973 285.635 418.675 285.785 418.344L287.305 419.128C287.155 419.416 286.937 419.725 286.649 420.056C286.371 420.376 285.998 420.653 285.529 420.888C285.059 421.112 284.467 421.224 283.753 421.224ZM281.625 416.184H285.673C285.63 415.661 285.427 415.245 285.065 414.936C284.713 414.627 284.254 414.472 283.689 414.472C283.102 414.472 282.633 414.627 282.281 414.936C281.929 415.245 281.71 415.661 281.625 416.184ZM226.104 435V423.8H229.704L231.88 433.704H232.152L234.344 423.8H237.928V435H236.072V425.192H235.8L233.624 435H230.424L228.248 425.192H227.976V435H226.104ZM242.343 435L239.367 423.8H241.351L243.879 433.768H244.103L246.647 423.8H248.631L245.639 435H242.343ZM250.042 435V423.8H254.57C255.274 423.8 255.892 423.939 256.426 424.216C256.959 424.493 257.38 424.888 257.69 425.4C257.999 425.901 258.154 426.499 258.154 427.192V427.416C258.154 428.099 257.994 428.696 257.674 429.208C257.364 429.72 256.938 430.115 256.394 430.392C255.86 430.669 255.252 430.808 254.57 430.808H251.978V435H250.042ZM251.978 429.064H254.378C254.932 429.064 255.375 428.915 255.706 428.616C256.047 428.317 256.218 427.907 256.218 427.384V427.224C256.218 426.701 256.052 426.291 255.722 425.992C255.391 425.693 254.943 425.544 254.378 425.544H251.978V429.064Z" fill="#7D7D7D"/>
<path d="M216 394.5H297.75C304.377 394.5 309.75 399.873 309.75 406.5V447.75" stroke="#D3D3D3" stroke-width="2.25" stroke-linecap="round"/>
</g>
<defs>
<filter id="filter0_d_64_1087" x="246" y="440.695" width="150" height="150" filterUnits="userSpaceOnUse" color-interpolation-filters="sRGB">
<feFlood flood-opacity="0" result="BackgroundImageFix"/>
<feColorMatrix in="SourceAlpha" type="matrix" values="0 0 0 0 0 0 0 0 0 0 0 0 0 0 0 0 0 0 127 0" result="hardAlpha"/>
<feOffset dy="7.5"/>
<feGaussianBlur stdDeviation="7.5"/>
<feComposite in2="hardAlpha" operator="out"/>
<feColorMatrix type="matrix" values="0 0 0 0 0 0 0 0 0 0 0 0 0 0 0 0 0 0 0.05 0"/>
<feBlend mode="normal" in2="BackgroundImageFix" result="effect1_dropShadow_64_1087"/>
<feBlend mode="normal" in="SourceGraphic" in2="effect1_dropShadow_64_1087" result="shape"/>
</filter>
<filter id="filter1_d_64_1087" x="453" y="124.195" width="150" height="150" filterUnits="userSpaceOnUse" color-interpolation-filters="sRGB">
<feFlood flood-opacity="0" result="BackgroundImageFix"/>
<feColorMatrix in="SourceAlpha" type="matrix" values="0 0 0 0 0 0 0 0 0 0 0 0 0 0 0 0 0 0 127 0" result="hardAlpha"/>
<feOffset dy="7.5"/>
<feGaussianBlur stdDeviation="7.5"/>
<feComposite in2="hardAlpha" operator="out"/>
<feColorMatrix type="matrix" values="0 0 0 0 0 0 0 0 0 0 0 0 0 0 0 0 0 0 0.05 0"/>
<feBlend mode="normal" in2="BackgroundImageFix" result="effect1_dropShadow_64_1087"/>
<feBlend mode="normal" in="SourceGraphic" in2="effect1_dropShadow_64_1087" result="shape"/>
</filter>
<filter id="filter2_d_64_1087" x="34.5" y="124.195" width="150" height="150" filterUnits="userSpaceOnUse" color-interpolation-filters="sRGB">
<feFlood flood-opacity="0" result="BackgroundImageFix"/>
<feColorMatrix in="SourceAlpha" type="matrix" values="0 0 0 0 0 0 0 0 0 0 0 0 0 0 0 0 0 0 127 0" result="hardAlpha"/>
<feOffset dy="7.5"/>
<feGaussianBlur stdDeviation="7.5"/>
<feComposite in2="hardAlpha" operator="out"/>
<feColorMatrix type="matrix" values="0 0 0 0 0 0 0 0 0 0 0 0 0 0 0 0 0 0 0.05 0"/>
<feBlend mode="normal" in2="BackgroundImageFix" result="effect1_dropShadow_64_1087"/>
<feBlend mode="normal" in="SourceGraphic" in2="effect1_dropShadow_64_1087" result="shape"/>
</filter>
<filter id="filter3_d_64_1087" x="259.5" y="57.9844" width="124.5" height="62" filterUnits="userSpaceOnUse" color-interpolation-filters="sRGB">
<feFlood flood-opacity="0" result="BackgroundImageFix"/>
<feColorMatrix in="SourceAlpha" type="matrix" values="0 0 0 0 0 0 0 0 0 0 0 0 0 0 0 0 0 0 127 0" result="hardAlpha"/>
<feOffset dy="7.5"/>
<feGaussianBlur stdDeviation="7.5"/>
<feComposite in2="hardAlpha" operator="out"/>
<feColorMatrix type="matrix" values="0 0 0 0 0 0 0 0 0 0 0 0 0 0 0 0 0 0 0.05 0"/>
<feBlend mode="normal" in2="BackgroundImageFix" result="effect1_dropShadow_64_1087"/>
<feBlend mode="normal" in="SourceGraphic" in2="effect1_dropShadow_64_1087" result="shape"/>
</filter>
<filter id="filter4_d_64_1087" x="433.5" y="367" width="144.5" height="62" filterUnits="userSpaceOnUse" color-interpolation-filters="sRGB">
<feFlood flood-opacity="0" result="BackgroundImageFix"/>
<feColorMatrix in="SourceAlpha" type="matrix" values="0 0 0 0 0 0 0 0 0 0 0 0 0 0 0 0 0 0 127 0" result="hardAlpha"/>
<feOffset dy="7.5"/>
<feGaussianBlur stdDeviation="7.5"/>
<feComposite in2="hardAlpha" operator="out"/>
<feColorMatrix type="matrix" values="0 0 0 0 0 0 0 0 0 0 0 0 0 0 0 0 0 0 0.05 0"/>
<feBlend mode="normal" in2="BackgroundImageFix" result="effect1_dropShadow_64_1087"/>
<feBlend mode="normal" in="SourceGraphic" in2="effect1_dropShadow_64_1087" result="shape"/>
</filter>
<filter id="filter5_d_64_1087" x="67.5" y="367" width="118.5" height="62" filterUnits="userSpaceOnUse" color-interpolation-filters="sRGB">
<feFlood flood-opacity="0" result="BackgroundImageFix"/>
<feColorMatrix in="SourceAlpha" type="matrix" values="0 0 0 0 0 0 0 0 0 0 0 0 0 0 0 0 0 0 127 0" result="hardAlpha"/>
<feOffset dy="7.5"/>
<feGaussianBlur stdDeviation="7.5"/>
<feComposite in2="hardAlpha" operator="out"/>
<feColorMatrix type="matrix" values="0 0 0 0 0 0 0 0 0 0 0 0 0 0 0 0 0 0 0.05 0"/>
<feBlend mode="normal" in2="BackgroundImageFix" result="effect1_dropShadow_64_1087"/>
<feBlend mode="normal" in="SourceGraphic" in2="effect1_dropShadow_64_1087" result="shape"/>
</filter>
<filter id="filter6_d_64_1087" x="256.577" y="222.539" width="130.846" height="130.846" filterUnits="userSpaceOnUse" color-interpolation-filters="sRGB">
<feFlood flood-opacity="0" result="BackgroundImageFix"/>
<feColorMatrix in="SourceAlpha" type="matrix" values="0 0 0 0 0 0 0 0 0 0 0 0 0 0 0 0 0 0 127 0" result="hardAlpha"/>
<feOffset dy="1.96146"/>
<feGaussianBlur stdDeviation="1.96146"/>
<feComposite in2="hardAlpha" operator="out"/>
<feColorMatrix type="matrix" values="0 0 0 0 0 0 0 0 0 0 0 0 0 0 0 0 0 0 0.05 0"/>
<feBlend mode="normal" in2="BackgroundImageFix" result="effect1_dropShadow_64_1087"/>
<feBlend mode="normal" in="SourceGraphic" in2="effect1_dropShadow_64_1087" result="shape"/>
</filter>
<clipPath id="clip0_64_1087">
<rect width="630" height="630" fill="white"/>
</clipPath>
</defs>
</svg>
