<svg width="1000" height="400" viewBox="0 0 1000 400" fill="none" xmlns="http://www.w3.org/2000/svg">
<rect width="1000" height="400" fill="white"/>
<rect x="623" y="40" width="320" height="320" rx="160" fill="#F5F5F5"/>
<rect x="623" y="40" width="320" height="320" rx="160" stroke="#858585" stroke-width="0.886003" stroke-linecap="round" stroke-dasharray="0.1 3"/>
<rect x="689" y="120" width="188" height="160" rx="80" fill="white"/>
<rect x="713.25" y="170.25" width="59.5" height="59.5" rx="29.75" stroke="black" stroke-width="0.5" stroke-dasharray="1 1"/>
<path d="M739.58 204.144C738.756 204.144 738.044 203.964 737.444 203.604C736.852 203.236 736.392 202.728 736.064 202.08C735.744 201.424 735.584 200.664 735.584 199.8C735.584 198.944 735.744 198.188 736.064 197.532C736.392 196.876 736.852 196.368 737.444 196.008C738.044 195.64 738.756 195.456 739.58 195.456C740.564 195.456 741.36 195.692 741.968 196.164C742.584 196.636 742.976 197.3 743.144 198.156H741.824C741.704 197.66 741.456 197.264 741.08 196.968C740.712 196.672 740.212 196.524 739.58 196.524C739.012 196.524 738.52 196.656 738.104 196.92C737.688 197.184 737.368 197.56 737.144 198.048C736.92 198.536 736.808 199.12 736.808 199.8C736.808 200.48 736.92 201.068 737.144 201.564C737.368 202.052 737.688 202.428 738.104 202.692C738.52 202.948 739.012 203.076 739.58 203.076C740.212 203.076 740.712 202.936 741.08 202.656C741.456 202.368 741.704 201.98 741.824 201.492H743.144C742.976 202.324 742.584 202.976 741.968 203.448C741.36 203.912 740.564 204.144 739.58 204.144ZM744.579 204V195.6H747.423C748.087 195.6 748.631 195.712 749.055 195.936C749.479 196.16 749.791 196.46 749.991 196.836C750.199 197.204 750.303 197.624 750.303 198.096C750.303 198.544 750.199 198.96 749.991 199.344C749.791 199.72 749.475 200.024 749.043 200.256C748.611 200.48 748.059 200.592 747.387 200.592H745.779V204H744.579ZM748.995 204L747.183 200.268H748.503L750.387 204H748.995ZM745.779 199.68H747.339C747.931 199.68 748.367 199.536 748.647 199.248C748.927 198.952 749.067 198.576 749.067 198.12C749.067 197.656 748.931 197.288 748.659 197.016C748.387 196.744 747.947 196.608 747.339 196.608H745.779V199.68Z" fill="#424141"/>
<rect x="793.5" y="170.5" width="59" height="59" rx="29.5" stroke="#3ED0DD"/>
<path d="M819.58 204.144C818.756 204.144 818.044 203.964 817.444 203.604C816.852 203.236 816.392 202.728 816.064 202.08C815.744 201.424 815.584 200.664 815.584 199.8C815.584 198.944 815.744 198.188 816.064 197.532C816.392 196.876 816.852 196.368 817.444 196.008C818.044 195.64 818.756 195.456 819.58 195.456C820.564 195.456 821.36 195.692 821.968 196.164C822.584 196.636 822.976 197.3 823.144 198.156H821.824C821.704 197.66 821.456 197.264 821.08 196.968C820.712 196.672 820.212 196.524 819.58 196.524C819.012 196.524 818.52 196.656 818.104 196.92C817.688 197.184 817.368 197.56 817.144 198.048C816.92 198.536 816.808 199.12 816.808 199.8C816.808 200.48 816.92 201.068 817.144 201.564C817.368 202.052 817.688 202.428 818.104 202.692C818.52 202.948 819.012 203.076 819.58 203.076C820.212 203.076 820.712 202.936 821.08 202.656C821.456 202.368 821.704 201.98 821.824 201.492H823.144C822.976 202.324 822.584 202.976 821.968 203.448C821.36 203.912 820.564 204.144 819.58 204.144ZM824.579 204V195.6H827.423C828.087 195.6 828.631 195.712 829.055 195.936C829.479 196.16 829.791 196.46 829.991 196.836C830.199 197.204 830.303 197.624 830.303 198.096C830.303 198.544 830.199 198.96 829.991 199.344C829.791 199.72 829.475 200.024 829.043 200.256C828.611 200.48 828.059 200.592 827.387 200.592H825.779V204H824.579ZM828.995 204L827.183 200.268H828.503L830.387 204H828.995ZM825.779 199.68H827.339C827.931 199.68 828.367 199.536 828.647 199.248C828.927 198.952 829.067 198.576 829.067 198.12C829.067 197.656 828.931 197.288 828.659 197.016C828.387 196.744 827.947 196.608 827.339 196.608H825.779V199.68Z" fill="#424141"/>
<rect x="784.5" y="164.5" width="23.6667" height="23.6667" rx="11.8333" fill="black"/>
<rect x="784.5" y="164.5" width="23.6667" height="23.6667" rx="11.8333" stroke="black"/>
<path d="M791.75 181.333V180.083H793.035C792.514 179.621 792.1 179.068 791.793 178.425C791.487 177.783 791.333 177.086 791.333 176.333C791.333 175.164 791.686 174.137 792.393 173.252C793.099 172.366 793.996 171.784 795.083 171.507V172.809C794.354 173.075 793.756 173.524 793.287 174.154C792.818 174.785 792.583 175.512 792.583 176.333C792.583 176.889 792.696 177.404 792.922 177.878C793.147 178.353 793.451 178.758 793.833 179.093V178H795.083V181.333H791.75ZM797.583 181.16V179.858C798.312 179.591 798.911 179.143 799.38 178.513C799.849 177.881 800.083 177.155 800.083 176.333C800.083 175.778 799.971 175.263 799.745 174.788C799.519 174.314 799.216 173.909 798.833 173.573V174.667H797.583V171.333H800.917V172.583H799.632C800.153 173.046 800.567 173.599 800.873 174.242C801.18 174.884 801.333 175.581 801.333 176.333C801.333 177.502 800.98 178.529 800.274 179.415C799.568 180.301 798.671 180.882 797.583 181.16Z" fill="white"/>
<path d="M772.693 147.192C771.584 147.192 770.624 146.952 769.813 146.472C769.013 145.981 768.394 145.304 767.957 144.44C767.53 143.565 767.317 142.557 767.317 141.416C767.317 140.264 767.53 139.256 767.957 138.392C768.394 137.517 769.013 136.835 769.813 136.344C770.624 135.853 771.584 135.608 772.693 135.608C774.026 135.608 775.114 135.939 775.957 136.6C776.8 137.251 777.333 138.173 777.557 139.368H775.445C775.296 138.739 774.992 138.243 774.533 137.88C774.074 137.517 773.456 137.336 772.677 137.336C771.973 137.336 771.365 137.501 770.853 137.832C770.352 138.152 769.962 138.621 769.685 139.24C769.418 139.848 769.285 140.573 769.285 141.416C769.285 142.259 769.418 142.984 769.685 143.592C769.962 144.189 770.352 144.653 770.853 144.984C771.365 145.304 771.973 145.464 772.677 145.464C773.456 145.464 774.074 145.299 774.533 144.968C774.992 144.627 775.296 144.157 775.445 143.56H777.557C777.344 144.691 776.81 145.581 775.957 146.232C775.114 146.872 774.026 147.192 772.693 147.192ZM779.436 147V135.8H783.452C784.337 135.8 785.068 135.955 785.644 136.264C786.23 136.563 786.662 136.968 786.94 137.48C787.228 137.981 787.372 138.552 787.372 139.192C787.372 139.789 787.233 140.344 786.956 140.856C786.678 141.368 786.246 141.779 785.66 142.088C785.073 142.397 784.321 142.552 783.404 142.552H781.356V147H779.436ZM785.276 147L782.924 142.056H785.004L787.468 147H785.276ZM781.356 141.128H783.324C784.038 141.128 784.561 140.957 784.892 140.616C785.233 140.264 785.404 139.805 785.404 139.24C785.404 138.685 785.238 138.243 784.908 137.912C784.577 137.571 784.049 137.4 783.324 137.4H781.356V141.128ZM789.358 147V135.8H792.974C794.275 135.8 795.347 136.029 796.19 136.488C797.043 136.947 797.672 137.597 798.078 138.44C798.494 139.272 798.702 140.264 798.702 141.416C798.702 142.547 798.494 143.533 798.078 144.376C797.672 145.208 797.043 145.853 796.19 146.312C795.347 146.771 794.275 147 792.974 147H789.358ZM791.278 145.368H792.878C793.848 145.368 794.611 145.213 795.166 144.904C795.731 144.584 796.131 144.131 796.366 143.544C796.611 142.947 796.734 142.237 796.734 141.416C796.734 140.584 796.611 139.875 796.366 139.288C796.131 138.691 795.731 138.232 795.166 137.912C794.611 137.581 793.848 137.416 792.878 137.416H791.278V145.368Z" fill="#424141"/>
<path d="M738.146 72.0185C737.892 72.0313 737.642 72.0944 737.412 72.2042L727.4 76.9881C727.141 77.1119 726.913 77.292 726.734 77.515C726.555 77.738 726.428 77.9982 726.364 78.2763L723.894 89.0224C723.837 89.27 723.831 89.5264 723.875 89.7765C723.92 90.0265 724.015 90.2652 724.154 90.4783C724.188 90.5304 724.224 90.5808 724.263 90.6294L731.193 99.2459C731.372 99.4689 731.6 99.6489 731.859 99.7726C732.118 99.8963 732.402 99.9605 732.69 99.9605L743.803 99.9579C744.091 99.9581 744.375 99.8941 744.634 99.7706C744.893 99.6472 745.121 99.4674 745.3 99.2447L752.228 90.6268C752.407 90.4038 752.534 90.1434 752.598 89.8652C752.662 89.587 752.662 89.298 752.598 89.0198L750.124 78.2738C750.06 77.9957 749.934 77.7354 749.754 77.5124C749.575 77.2894 749.347 77.1093 749.088 76.9856L739.075 72.2042C738.786 72.0661 738.466 72.0023 738.146 72.0185Z" fill="#326CE5"/>
<path d="M738.246 75.6755C737.915 75.6756 737.646 75.9737 737.646 76.3414C737.646 76.347 737.647 76.3524 737.648 76.358C737.647 76.408 737.645 76.4682 737.646 76.5117C737.654 76.7238 737.7 76.8861 737.728 77.0815C737.779 77.4998 737.821 77.8465 737.795 78.1687C737.769 78.2902 737.68 78.4013 737.6 78.4786L737.586 78.7321C737.226 78.7619 736.864 78.8165 736.503 78.8986C734.947 79.2519 733.607 80.0534 732.587 81.1356C732.521 81.0905 732.405 81.0074 732.371 80.982C732.264 80.9964 732.155 81.0294 732.015 80.9474C731.746 80.7669 731.502 80.5177 731.207 80.2175C731.071 80.0739 730.973 79.9372 730.812 79.7988C730.776 79.7673 730.72 79.7248 730.679 79.6925C730.553 79.5922 730.405 79.5399 730.262 79.535C730.077 79.5287 729.9 79.6007 729.784 79.7463C729.578 80.0051 729.644 80.4006 729.931 80.6298C729.934 80.6321 729.937 80.634 729.94 80.6362C729.98 80.6683 730.028 80.7093 730.064 80.7361C730.235 80.8622 730.391 80.9267 730.561 81.0268C730.92 81.2481 731.217 81.4317 731.452 81.653C731.544 81.7511 731.561 81.9239 731.573 81.9987L731.765 82.1703C730.737 83.7177 730.261 85.6291 730.542 87.5766L730.291 87.6496C730.225 87.735 730.131 87.8694 730.034 87.9095C729.725 88.0066 729.378 88.0423 728.959 88.0862C728.763 88.1026 728.593 88.0928 728.384 88.1323C728.338 88.141 728.274 88.1577 728.224 88.1695C728.223 88.1698 728.221 88.1703 728.219 88.1707C728.216 88.1714 728.213 88.1727 728.21 88.1733C727.857 88.2586 727.63 88.5833 727.703 88.9032C727.776 89.2231 728.121 89.4177 728.477 89.3411C728.479 89.3405 728.483 89.3404 728.485 89.3398C728.489 89.3389 728.493 89.337 728.497 89.336C728.547 89.3251 728.609 89.313 728.652 89.3014C728.857 89.2465 729.005 89.1659 729.19 89.0953C729.586 88.9531 729.915 88.8342 730.235 88.7879C730.368 88.7775 730.509 88.8704 730.579 88.9096L730.84 88.8648C731.441 90.7285 732.701 92.2349 734.296 93.1801L734.188 93.4413C734.227 93.5428 734.27 93.68 734.241 93.7802C734.125 94.0818 733.925 94.4002 733.698 94.7551C733.589 94.9191 733.476 95.0464 733.377 95.234C733.353 95.2789 733.323 95.3479 733.3 95.3954C733.146 95.7249 733.259 96.1045 733.555 96.2469C733.853 96.3902 734.222 96.2391 734.382 95.9089C734.382 95.9084 734.383 95.908 734.383 95.9076C734.384 95.9072 734.383 95.9067 734.383 95.9063C734.406 95.8595 734.439 95.7979 734.458 95.7539C734.543 95.5594 734.571 95.3927 734.631 95.2046C734.789 94.8063 734.876 94.3884 735.095 94.128C735.154 94.0567 735.252 94.0292 735.353 94.0022L735.489 93.7563C736.879 94.2901 738.436 94.4334 739.991 94.0803C740.346 93.9998 740.688 93.8955 741.019 93.7704C741.057 93.8381 741.128 93.9682 741.147 94.0009C741.25 94.0343 741.362 94.0516 741.453 94.1866C741.616 94.4656 741.728 94.7957 741.864 95.1943C741.924 95.3825 741.953 95.5492 742.038 95.7437C742.058 95.788 742.09 95.8504 742.113 95.8973C742.272 96.2286 742.643 96.3803 742.941 96.2367C743.237 96.0942 743.35 95.7146 743.196 95.3851C743.173 95.3377 743.142 95.2687 743.118 95.2238C743.019 95.0361 742.906 94.9101 742.796 94.7462C742.57 94.3912 742.381 94.0964 742.265 93.7947C742.216 93.6392 742.273 93.5424 742.311 93.4413C742.288 93.4153 742.24 93.2684 742.211 93.1993C743.869 92.2205 745.092 90.6579 745.666 88.8533C745.744 88.8654 745.878 88.8893 745.922 88.8981C746.012 88.8386 746.095 88.7611 746.258 88.7739C746.578 88.8201 746.906 88.939 747.303 89.0812C747.487 89.1518 747.635 89.2337 747.84 89.2886C747.884 89.3002 747.946 89.3111 747.995 89.3219C747.999 89.3229 748.003 89.3248 748.007 89.3258C748.01 89.3264 748.013 89.3265 748.016 89.327C748.371 89.4035 748.716 89.2091 748.789 88.8891C748.862 88.5692 748.635 88.2445 748.282 88.1592C748.231 88.1475 748.158 88.1277 748.108 88.1182C747.899 88.0788 747.73 88.0885 747.533 88.0721C747.114 88.0282 746.767 87.9925 746.459 87.8954C746.333 87.8467 746.244 87.6971 746.2 87.6355L745.958 87.5651C746.083 86.6573 746.05 85.7125 745.833 84.7672C745.613 83.813 745.226 82.9404 744.71 82.1716C744.772 82.1151 744.889 82.0113 744.922 81.9808C744.932 81.8732 744.923 81.7605 745.035 81.6414C745.27 81.4201 745.568 81.2366 745.926 81.0153C746.096 80.9152 746.253 80.8507 746.424 80.7246C746.463 80.6961 746.515 80.6509 746.556 80.6183C746.843 80.389 746.91 79.9935 746.703 79.7348C746.497 79.476 746.097 79.4517 745.809 79.681C745.769 79.7134 745.713 79.7557 745.676 79.7873C745.515 79.9257 745.416 80.0624 745.281 80.206C744.985 80.5062 744.741 80.7566 744.473 80.9371C744.356 81.0048 744.186 80.9814 744.109 80.9768L743.881 81.1395C742.581 79.7766 740.812 78.9052 738.906 78.736C738.901 78.6561 738.894 78.5118 738.892 78.4683C738.814 78.3937 738.72 78.33 738.696 78.1687C738.67 77.8465 738.714 77.4998 738.764 77.0815C738.792 76.8861 738.838 76.7238 738.846 76.5117C738.848 76.4635 738.845 76.3935 738.845 76.3414C738.845 75.9737 738.576 75.6755 738.246 75.6755ZM737.495 80.3238L737.317 83.4674L737.304 83.4738C737.292 83.7551 737.061 83.9796 736.777 83.9796C736.66 83.9796 736.553 83.9423 736.466 83.8785L736.46 83.881L733.883 82.0538C734.675 81.2747 735.688 80.6991 736.856 80.4339C737.069 80.3855 737.283 80.3495 737.495 80.3238ZM738.997 80.3238C740.361 80.4915 741.621 81.1088 742.588 82.055L740.027 83.8708L740.018 83.867C739.79 84.033 739.47 83.9918 739.293 83.7696C739.22 83.6786 739.182 83.5716 739.178 83.4636L739.175 83.4623L738.997 80.3238ZM732.948 83.228L735.302 85.3331L735.299 85.3459C735.511 85.5306 735.543 85.8511 735.366 86.0733C735.293 86.1643 735.196 86.2253 735.092 86.2538L735.089 86.2641L732.072 87.1348C731.919 85.7308 732.25 84.3659 732.948 83.228ZM743.526 83.2293C743.876 83.7961 744.141 84.4291 744.298 85.1154C744.454 85.7935 744.493 86.4704 744.429 87.1246L741.397 86.2513L741.394 86.2385C741.123 86.1642 740.956 85.888 741.019 85.611C741.045 85.4975 741.105 85.4015 741.187 85.3306L741.186 85.3242L743.526 83.2293ZM737.763 85.4958H738.727L739.326 86.2449L739.111 87.1796L738.246 87.5958L737.377 87.1783L737.162 86.2436L737.763 85.4958ZM740.854 88.0593C740.895 88.0573 740.936 88.061 740.976 88.0683L740.981 88.0619L744.101 88.5895C743.645 89.8726 742.771 90.9841 741.603 91.728L740.392 88.802L740.395 88.7969C740.284 88.5383 740.396 88.2351 740.652 88.1118C740.717 88.0803 740.786 88.0628 740.854 88.0593ZM735.613 88.0721C735.851 88.0755 736.065 88.2408 736.12 88.4832C736.146 88.5967 736.133 88.7091 736.09 88.8084L736.099 88.82L734.901 91.7165C733.78 90.9974 732.888 89.9207 732.41 88.5997L735.504 88.0747L735.509 88.0811C735.544 88.0747 735.579 88.0717 735.613 88.0721ZM738.226 89.3411C738.309 89.3381 738.393 89.3551 738.473 89.3936C738.578 89.4441 738.659 89.5237 738.71 89.619H738.722L740.247 92.3747C740.049 92.441 739.846 92.4977 739.637 92.545C738.471 92.8098 737.308 92.7295 736.256 92.3708L737.777 89.6203H737.779C737.871 89.4496 738.044 89.3478 738.226 89.3411Z" fill="white" stroke="white" stroke-width="0.36"/>
<path d="M763.868 87.723L763.516 86.227L767.41 82.3H769.412L763.868 87.723ZM762.625 90V82.3H764.275V90H762.625ZM767.619 90L764.737 86.172L765.87 85.193L769.577 90H767.619ZM773.541 90.033C773.027 90.033 772.562 89.934 772.144 89.736C771.726 89.5307 771.392 89.2557 771.143 88.911C770.893 88.5663 770.769 88.185 770.769 87.767C770.769 87.4957 770.802 87.25 770.868 87.03C770.941 86.81 771.047 86.612 771.187 86.436C771.333 86.26 771.509 86.106 771.715 85.974C771.92 85.842 772.158 85.7283 772.43 85.633L772.32 86.018C772.114 85.9373 771.931 85.842 771.77 85.732C771.608 85.6147 771.469 85.4827 771.352 85.336C771.242 85.1893 771.154 85.0317 771.088 84.863C771.029 84.687 771 84.5037 771 84.313C771 83.917 771.113 83.5613 771.341 83.246C771.568 82.9307 771.872 82.6813 772.254 82.498C772.635 82.3073 773.064 82.212 773.541 82.212C774.01 82.212 774.435 82.3073 774.817 82.498C775.198 82.6813 775.502 82.9307 775.73 83.246C775.957 83.5613 776.071 83.917 776.071 84.313C776.071 84.5037 776.041 84.687 775.983 84.863C775.924 85.0317 775.84 85.1857 775.73 85.325C775.62 85.4643 775.48 85.5927 775.312 85.71C775.15 85.8273 774.96 85.93 774.74 86.018L774.674 85.677C774.916 85.7503 775.136 85.853 775.334 85.985C775.539 86.1097 775.711 86.2637 775.851 86.447C775.997 86.623 776.111 86.821 776.192 87.041C776.272 87.261 776.313 87.503 776.313 87.767C776.313 88.1923 776.188 88.5773 775.939 88.922C775.689 89.2667 775.356 89.538 774.938 89.736C774.52 89.934 774.054 90.033 773.541 90.033ZM773.541 88.68C773.761 88.68 773.962 88.636 774.146 88.548C774.329 88.46 774.472 88.3427 774.575 88.196C774.677 88.042 774.729 87.866 774.729 87.668C774.729 87.4627 774.677 87.283 774.575 87.129C774.472 86.9677 774.329 86.8393 774.146 86.744C773.97 86.6487 773.768 86.601 773.541 86.601C773.313 86.601 773.108 86.6487 772.925 86.744C772.749 86.8393 772.609 86.9677 772.507 87.129C772.404 87.283 772.353 87.4627 772.353 87.668C772.353 87.8587 772.404 88.031 772.507 88.185C772.609 88.3317 772.749 88.4527 772.925 88.548C773.108 88.636 773.313 88.68 773.541 88.68ZM773.541 85.259C773.739 85.259 773.915 85.2223 774.069 85.149C774.223 85.0683 774.344 84.9657 774.432 84.841C774.527 84.709 774.575 84.555 774.575 84.379C774.575 84.2103 774.527 84.06 774.432 83.928C774.344 83.7887 774.223 83.6787 774.069 83.598C773.915 83.5173 773.739 83.477 773.541 83.477C773.343 83.477 773.163 83.5173 773.002 83.598C772.848 83.6787 772.723 83.7887 772.628 83.928C772.54 84.06 772.496 84.2103 772.496 84.379C772.496 84.555 772.54 84.709 772.628 84.841C772.723 84.9657 772.848 85.0683 773.002 85.149C773.163 85.2223 773.343 85.259 773.541 85.259ZM780.843 90.11C780.366 90.11 779.93 90.0513 779.534 89.934C779.145 89.8167 778.797 89.6443 778.489 89.417C778.188 89.1897 777.917 88.9147 777.675 88.592L778.709 87.415C779.068 87.9137 779.424 88.2547 779.776 88.438C780.135 88.614 780.524 88.702 780.942 88.702C781.169 88.702 781.371 88.6727 781.547 88.614C781.73 88.548 781.873 88.4563 781.976 88.339C782.078 88.2217 782.13 88.0823 782.13 87.921C782.13 87.8037 782.104 87.6973 782.053 87.602C782.001 87.4993 781.928 87.4113 781.833 87.338C781.737 87.2573 781.624 87.1877 781.492 87.129C781.36 87.063 781.213 87.008 781.052 86.964C780.89 86.9127 780.714 86.8723 780.524 86.843C780.113 86.7477 779.754 86.634 779.446 86.502C779.138 86.3627 778.881 86.194 778.676 85.996C778.47 85.7907 778.316 85.5597 778.214 85.303C778.118 85.0463 778.071 84.7567 778.071 84.434C778.071 84.104 778.144 83.7997 778.291 83.521C778.437 83.235 778.639 82.9893 778.896 82.784C779.16 82.5787 779.46 82.421 779.798 82.311C780.142 82.201 780.505 82.146 780.887 82.146C781.356 82.146 781.767 82.201 782.119 82.311C782.471 82.4137 782.775 82.564 783.032 82.762C783.296 82.96 783.516 83.202 783.692 83.488L782.647 84.5C782.493 84.2947 782.324 84.1223 782.141 83.983C781.965 83.8437 781.77 83.741 781.558 83.675C781.352 83.6017 781.14 83.565 780.92 83.565C780.678 83.565 780.469 83.598 780.293 83.664C780.117 83.7227 779.977 83.8107 779.875 83.928C779.779 84.0453 779.732 84.1883 779.732 84.357C779.732 84.489 779.765 84.6063 779.831 84.709C779.897 84.8117 779.992 84.9033 780.117 84.984C780.241 85.0573 780.392 85.1233 780.568 85.182C780.744 85.2407 780.938 85.292 781.151 85.336C781.554 85.4167 781.917 85.523 782.24 85.655C782.562 85.787 782.837 85.9483 783.065 86.139C783.299 86.3223 783.479 86.5423 783.604 86.799C783.728 87.0483 783.791 87.3307 783.791 87.646C783.791 88.1667 783.666 88.6103 783.417 88.977C783.167 89.3437 782.823 89.626 782.383 89.824C781.943 90.0147 781.429 90.11 780.843 90.11ZM793.135 90.11C792.57 90.11 792.05 90.0147 791.573 89.824C791.104 89.626 790.693 89.351 790.341 88.999C789.996 88.6397 789.729 88.218 789.538 87.734C789.347 87.2427 789.252 86.7073 789.252 86.128C789.252 85.5633 789.351 85.0427 789.549 84.566C789.747 84.082 790.026 83.664 790.385 83.312C790.744 82.9527 791.166 82.674 791.65 82.476C792.134 82.278 792.658 82.179 793.223 82.179C793.59 82.179 793.949 82.2303 794.301 82.333C794.66 82.4283 794.987 82.5713 795.28 82.762C795.581 82.9527 795.837 83.18 796.05 83.444L795.016 84.588C794.84 84.412 794.657 84.2617 794.466 84.137C794.283 84.005 794.085 83.906 793.872 83.84C793.667 83.7667 793.447 83.73 793.212 83.73C792.897 83.73 792.6 83.7887 792.321 83.906C792.05 84.0233 791.811 84.1883 791.606 84.401C791.401 84.6063 791.236 84.8593 791.111 85.16C790.994 85.4533 790.935 85.7797 790.935 86.139C790.935 86.5057 790.994 86.8393 791.111 87.14C791.228 87.4333 791.393 87.6863 791.606 87.899C791.819 88.1043 792.072 88.2657 792.365 88.383C792.666 88.493 792.996 88.548 793.355 88.548C793.59 88.548 793.817 88.515 794.037 88.449C794.257 88.383 794.459 88.2913 794.642 88.174C794.833 88.0567 795.001 87.921 795.148 87.767L795.951 89.054C795.775 89.252 795.537 89.4317 795.236 89.593C794.943 89.7543 794.613 89.8827 794.246 89.978C793.879 90.066 793.509 90.11 793.135 90.11ZM797.892 90V82.3H799.542V88.515H803.029V90H797.892ZM808.066 90.066C807.443 90.066 806.885 89.9377 806.394 89.681C805.91 89.417 805.529 89.0577 805.25 88.603C804.971 88.141 804.832 87.6203 804.832 87.041V82.289H806.493V86.942C806.493 87.25 806.563 87.5287 806.702 87.778C806.841 88.02 807.028 88.2143 807.263 88.361C807.505 88.5077 807.773 88.581 808.066 88.581C808.367 88.581 808.638 88.5077 808.88 88.361C809.129 88.2143 809.324 88.02 809.463 87.778C809.61 87.5287 809.683 87.25 809.683 86.942V82.289H811.289V87.041C811.289 87.6203 811.15 88.141 810.871 88.603C810.592 89.0577 810.207 89.417 809.716 89.681C809.232 89.9377 808.682 90.066 808.066 90.066ZM816.163 90.11C815.686 90.11 815.25 90.0513 814.854 89.934C814.465 89.8167 814.117 89.6443 813.809 89.417C813.508 89.1897 813.237 88.9147 812.995 88.592L814.029 87.415C814.388 87.9137 814.744 88.2547 815.096 88.438C815.455 88.614 815.844 88.702 816.262 88.702C816.489 88.702 816.691 88.6727 816.867 88.614C817.05 88.548 817.193 88.4563 817.296 88.339C817.398 88.2217 817.45 88.0823 817.45 87.921C817.45 87.8037 817.424 87.6973 817.373 87.602C817.321 87.4993 817.248 87.4113 817.153 87.338C817.057 87.2573 816.944 87.1877 816.812 87.129C816.68 87.063 816.533 87.008 816.372 86.964C816.21 86.9127 816.034 86.8723 815.844 86.843C815.433 86.7477 815.074 86.634 814.766 86.502C814.458 86.3627 814.201 86.194 813.996 85.996C813.79 85.7907 813.636 85.5597 813.534 85.303C813.438 85.0463 813.391 84.7567 813.391 84.434C813.391 84.104 813.464 83.7997 813.611 83.521C813.757 83.235 813.959 82.9893 814.216 82.784C814.48 82.5787 814.78 82.421 815.118 82.311C815.462 82.201 815.825 82.146 816.207 82.146C816.676 82.146 817.087 82.201 817.439 82.311C817.791 82.4137 818.095 82.564 818.352 82.762C818.616 82.96 818.836 83.202 819.012 83.488L817.967 84.5C817.813 84.2947 817.644 84.1223 817.461 83.983C817.285 83.8437 817.09 83.741 816.878 83.675C816.672 83.6017 816.46 83.565 816.24 83.565C815.998 83.565 815.789 83.598 815.613 83.664C815.437 83.7227 815.297 83.8107 815.195 83.928C815.099 84.0453 815.052 84.1883 815.052 84.357C815.052 84.489 815.085 84.6063 815.151 84.709C815.217 84.8117 815.312 84.9033 815.437 84.984C815.561 85.0573 815.712 85.1233 815.888 85.182C816.064 85.2407 816.258 85.292 816.471 85.336C816.874 85.4167 817.237 85.523 817.56 85.655C817.882 85.787 818.157 85.9483 818.385 86.139C818.619 86.3223 818.799 86.5423 818.924 86.799C819.048 87.0483 819.111 87.3307 819.111 87.646C819.111 88.1667 818.986 88.6103 818.737 88.977C818.487 89.3437 818.143 89.626 817.703 89.824C817.263 90.0147 816.749 90.11 816.163 90.11ZM822.761 90V83.785H820.517V82.3H826.721V83.785H824.411V90H822.761ZM828.634 90V82.3H833.837V83.752H830.24V88.548H833.914V90H828.634ZM829.404 86.777V85.369H833.309V86.777H829.404ZM836.166 90V82.3H839.576C840.053 82.3 840.486 82.41 840.874 82.63C841.263 82.8427 841.567 83.1323 841.787 83.499C842.015 83.8657 842.128 84.2837 842.128 84.753C842.128 85.215 842.015 85.6367 841.787 86.018C841.567 86.392 841.263 86.689 840.874 86.909C840.486 87.129 840.053 87.239 839.576 87.239H837.761V90H836.166ZM840.533 90L838.575 86.524L840.269 86.249L842.447 90.011L840.533 90ZM837.761 85.897H839.499C839.697 85.897 839.87 85.853 840.016 85.765C840.17 85.6697 840.288 85.5413 840.368 85.38C840.449 85.2113 840.489 85.0243 840.489 84.819C840.489 84.599 840.442 84.4083 840.346 84.247C840.251 84.0857 840.112 83.961 839.928 83.873C839.745 83.7777 839.532 83.73 839.29 83.73H837.761V85.897Z" fill="black"/>
<rect x="57" y="40" width="320" height="320" rx="160" fill="#F5F5F5"/>
<rect x="57" y="40" width="320" height="320" rx="160" stroke="#858585" stroke-width="0.886003" stroke-linecap="round" stroke-dasharray="0.1 3"/>
<rect x="83" y="120" width="268" height="160" rx="80" fill="white"/>
<rect x="107.25" y="170.25" width="59.5" height="59.5" rx="29.75" stroke="black" stroke-width="0.5" stroke-dasharray="1 1"/>
<path d="M121.136 204V195.6H126.44V196.584H122.336V199.272H126.08V200.232H122.336V203.016H126.44V204H121.136ZM127.931 204V197.952H129.011L129.083 198.984C129.275 198.624 129.547 198.34 129.899 198.132C130.251 197.916 130.655 197.808 131.111 197.808C131.591 197.808 132.003 197.904 132.347 198.096C132.691 198.288 132.959 198.58 133.151 198.972C133.343 199.356 133.439 199.84 133.439 200.424V204H132.239V200.544C132.239 199.984 132.115 199.56 131.867 199.272C131.619 198.984 131.259 198.84 130.787 198.84C130.475 198.84 130.195 198.916 129.947 199.068C129.699 199.212 129.499 199.428 129.347 199.716C129.203 200.004 129.131 200.356 129.131 200.772V204H127.931ZM137.458 204C137.082 204 136.754 203.94 136.474 203.82C136.194 203.7 135.978 203.5 135.826 203.22C135.674 202.94 135.598 202.56 135.598 202.08V198.972H134.554V197.952H135.598L135.742 196.44H136.798V197.952H138.514V198.972H136.798V202.092C136.798 202.436 136.87 202.672 137.014 202.8C137.158 202.92 137.406 202.98 137.758 202.98H138.454V204H137.458ZM139.921 204V197.952H141.121V204H139.921ZM140.533 196.812C140.301 196.812 140.109 196.74 139.957 196.596C139.813 196.452 139.741 196.268 139.741 196.044C139.741 195.828 139.813 195.652 139.957 195.516C140.109 195.372 140.301 195.3 140.533 195.3C140.757 195.3 140.945 195.372 141.097 195.516C141.249 195.652 141.325 195.828 141.325 196.044C141.325 196.268 141.249 196.452 141.097 196.596C140.945 196.74 140.757 196.812 140.533 196.812ZM145.321 204C144.945 204 144.617 203.94 144.337 203.82C144.057 203.7 143.841 203.5 143.689 203.22C143.537 202.94 143.461 202.56 143.461 202.08V198.972H142.417V197.952H143.461L143.605 196.44H144.661V197.952H146.377V198.972H144.661V202.092C144.661 202.436 144.733 202.672 144.877 202.8C145.021 202.92 145.269 202.98 145.621 202.98H146.317V204H145.321ZM148.397 206.64L149.873 203.328H149.525L147.137 197.952H148.433L150.329 202.344L152.237 197.952H153.497L149.657 206.64H148.397Z" fill="#424141"/>
<rect x="187.25" y="170.25" width="59.5" height="59.5" rx="29.75" stroke="black" stroke-width="0.5" stroke-dasharray="1 1"/>
<path d="M201.136 204V195.6H206.44V196.584H202.336V199.272H206.08V200.232H202.336V203.016H206.44V204H201.136ZM207.931 204V197.952H209.011L209.083 198.984C209.275 198.624 209.547 198.34 209.899 198.132C210.251 197.916 210.655 197.808 211.111 197.808C211.591 197.808 212.003 197.904 212.347 198.096C212.691 198.288 212.959 198.58 213.151 198.972C213.343 199.356 213.439 199.84 213.439 200.424V204H212.239V200.544C212.239 199.984 212.115 199.56 211.867 199.272C211.619 198.984 211.259 198.84 210.787 198.84C210.475 198.84 210.195 198.916 209.947 199.068C209.699 199.212 209.499 199.428 209.347 199.716C209.203 200.004 209.131 200.356 209.131 200.772V204H207.931ZM217.458 204C217.082 204 216.754 203.94 216.474 203.82C216.194 203.7 215.978 203.5 215.826 203.22C215.674 202.94 215.598 202.56 215.598 202.08V198.972H214.554V197.952H215.598L215.742 196.44H216.798V197.952H218.514V198.972H216.798V202.092C216.798 202.436 216.87 202.672 217.014 202.8C217.158 202.92 217.406 202.98 217.758 202.98H218.454V204H217.458ZM219.921 204V197.952H221.121V204H219.921ZM220.533 196.812C220.301 196.812 220.109 196.74 219.957 196.596C219.813 196.452 219.741 196.268 219.741 196.044C219.741 195.828 219.813 195.652 219.957 195.516C220.109 195.372 220.301 195.3 220.533 195.3C220.757 195.3 220.945 195.372 221.097 195.516C221.249 195.652 221.325 195.828 221.325 196.044C221.325 196.268 221.249 196.452 221.097 196.596C220.945 196.74 220.757 196.812 220.533 196.812ZM225.321 204C224.945 204 224.617 203.94 224.337 203.82C224.057 203.7 223.841 203.5 223.689 203.22C223.537 202.94 223.461 202.56 223.461 202.08V198.972H222.417V197.952H223.461L223.605 196.44H224.661V197.952H226.377V198.972H224.661V202.092C224.661 202.436 224.733 202.672 224.877 202.8C225.021 202.92 225.269 202.98 225.621 202.98H226.317V204H225.321ZM228.397 206.64L229.873 203.328H229.525L227.137 197.952H228.433L230.329 202.344L232.237 197.952H233.497L229.657 206.64H228.397Z" fill="#424141"/>
<rect x="267.5" y="170.5" width="59" height="59" rx="29.5" stroke="#3ED0DD"/>
<path d="M295.8 196L296.8 190.5H293.925C293.731 190.5 293.602 190.448 293.54 190.344C293.478 190.24 293.488 190.105 293.571 189.938L297.8 182H298.8L298.3 187.5H300.675C300.856 187.5 300.981 187.549 301.05 187.646C301.12 187.743 301.106 187.882 301.008 188.062L296.8 196H295.8Z" fill="#3ED0DD"/>
<path d="M278.949 211L282.033 202.6H283.341L286.425 211H285.141L282.681 204.04L280.209 211H278.949ZM280.341 208.924L280.677 207.964H284.625L284.961 208.924H280.341ZM290.042 211.144C289.458 211.144 288.938 211.012 288.482 210.748C288.026 210.476 287.666 210.104 287.402 209.632C287.146 209.16 287.018 208.612 287.018 207.988C287.018 207.356 287.146 206.804 287.402 206.332C287.666 205.852 288.026 205.48 288.482 205.216C288.938 204.944 289.458 204.808 290.042 204.808C290.778 204.808 291.394 205 291.89 205.384C292.386 205.768 292.702 206.288 292.838 206.944H291.59C291.51 206.592 291.326 206.32 291.038 206.128C290.758 205.936 290.422 205.84 290.03 205.84C289.71 205.84 289.414 205.924 289.142 206.092C288.87 206.252 288.65 206.492 288.482 206.812C288.322 207.124 288.242 207.512 288.242 207.976C288.242 208.32 288.29 208.628 288.386 208.9C288.482 209.164 288.61 209.388 288.77 209.572C288.938 209.756 289.13 209.896 289.346 209.992C289.562 210.08 289.79 210.124 290.03 210.124C290.294 210.124 290.53 210.084 290.738 210.004C290.954 209.916 291.134 209.788 291.278 209.62C291.43 209.452 291.534 209.252 291.59 209.02H292.838C292.702 209.66 292.386 210.176 291.89 210.568C291.394 210.952 290.778 211.144 290.042 211.144ZM296.597 211C296.221 211 295.893 210.94 295.613 210.82C295.333 210.7 295.117 210.5 294.965 210.22C294.813 209.94 294.737 209.56 294.737 209.08V205.972H293.693V204.952H294.737L294.881 203.44H295.937V204.952H297.653V205.972H295.937V209.092C295.937 209.436 296.009 209.672 296.153 209.8C296.297 209.92 296.545 209.98 296.897 209.98H297.593V211H296.597ZM299.06 211V204.952H300.26V211H299.06ZM299.672 203.812C299.44 203.812 299.248 203.74 299.096 203.596C298.952 203.452 298.88 203.268 298.88 203.044C298.88 202.828 298.952 202.652 299.096 202.516C299.248 202.372 299.44 202.3 299.672 202.3C299.896 202.3 300.084 202.372 300.236 202.516C300.388 202.652 300.464 202.828 300.464 203.044C300.464 203.268 300.388 203.452 300.236 203.596C300.084 203.74 299.896 203.812 299.672 203.812ZM304.736 211.144C304.168 211.144 303.656 211.012 303.2 210.748C302.752 210.484 302.396 210.116 302.132 209.644C301.876 209.164 301.748 208.612 301.748 207.988C301.748 207.348 301.88 206.792 302.144 206.32C302.408 205.84 302.768 205.468 303.224 205.204C303.68 204.94 304.192 204.808 304.76 204.808C305.336 204.808 305.848 204.94 306.296 205.204C306.744 205.468 307.096 205.836 307.352 206.308C307.616 206.78 307.748 207.336 307.748 207.976C307.748 208.616 307.616 209.172 307.352 209.644C307.096 210.116 306.74 210.484 306.284 210.748C305.828 211.012 305.312 211.144 304.736 211.144ZM304.736 210.112C305.064 210.112 305.36 210.032 305.624 209.872C305.896 209.712 306.112 209.476 306.272 209.164C306.44 208.844 306.524 208.448 306.524 207.976C306.524 207.504 306.444 207.112 306.284 206.8C306.124 206.48 305.908 206.24 305.636 206.08C305.372 205.92 305.08 205.84 304.76 205.84C304.44 205.84 304.144 205.92 303.872 206.08C303.6 206.24 303.38 206.48 303.212 206.8C303.052 207.112 302.972 207.504 302.972 207.976C302.972 208.448 303.052 208.844 303.212 209.164C303.38 209.476 303.596 209.712 303.86 209.872C304.132 210.032 304.424 210.112 304.736 210.112ZM309.16 211V204.952H310.24L310.312 205.984C310.504 205.624 310.776 205.34 311.128 205.132C311.48 204.916 311.884 204.808 312.34 204.808C312.82 204.808 313.232 204.904 313.576 205.096C313.92 205.288 314.188 205.58 314.38 205.972C314.572 206.356 314.668 206.84 314.668 207.424V211H313.468V207.544C313.468 206.984 313.344 206.56 313.096 206.272C312.848 205.984 312.488 205.84 312.016 205.84C311.704 205.84 311.424 205.916 311.176 206.068C310.928 206.212 310.728 206.428 310.576 206.716C310.432 207.004 310.36 207.356 310.36 207.772V211H309.16Z" fill="#424141"/>
<rect x="258.5" y="164.5" width="27" height="27" rx="13.5" fill="black"/>
<rect x="258.5" y="164.5" width="27" height="27" rx="13.5" stroke="black"/>
<path d="M272 178C273.842 178 275.333 176.508 275.333 174.667C275.333 172.825 273.842 171.333 272 171.333C270.158 171.333 268.667 172.825 268.667 174.667C268.667 176.508 270.158 178 272 178ZM272 179.667C269.775 179.667 265.333 180.783 265.333 183V184.667H278.667V183C278.667 180.783 274.225 179.667 272 179.667Z" fill="white"/>
<path d="M182.873 147V135.8H187.257C188.047 135.8 188.703 135.923 189.225 136.168C189.759 136.413 190.159 136.755 190.425 137.192C190.692 137.619 190.825 138.115 190.825 138.68C190.825 139.245 190.703 139.72 190.457 140.104C190.212 140.488 189.887 140.781 189.481 140.984C189.087 141.187 188.655 141.309 188.185 141.352L188.425 141.176C188.927 141.187 189.375 141.32 189.769 141.576C190.175 141.832 190.495 142.168 190.729 142.584C190.964 142.989 191.081 143.443 191.081 143.944C191.081 144.531 190.937 145.059 190.649 145.528C190.372 145.987 189.961 146.349 189.417 146.616C188.873 146.872 188.207 147 187.417 147H182.873ZM184.793 145.432H187.129C187.759 145.432 188.249 145.283 188.601 144.984C188.953 144.685 189.129 144.269 189.129 143.736C189.129 143.203 188.948 142.781 188.585 142.472C188.223 142.152 187.727 141.992 187.097 141.992H184.793V145.432ZM184.793 140.536H186.985C187.604 140.536 188.073 140.397 188.393 140.12C188.713 139.832 188.873 139.437 188.873 138.936C188.873 138.445 188.713 138.061 188.393 137.784C188.073 137.496 187.599 137.352 186.969 137.352H184.793V140.536ZM192.856 147V135.48H194.776V147H192.856ZM199.911 147.192C199.26 147.192 198.7 147.064 198.231 146.808C197.772 146.541 197.42 146.147 197.175 145.624C196.929 145.091 196.807 144.435 196.807 143.656V138.936H198.727V143.464C198.727 144.157 198.871 144.685 199.159 145.048C199.457 145.4 199.905 145.576 200.503 145.576C200.887 145.576 201.228 145.485 201.527 145.304C201.836 145.123 202.076 144.861 202.247 144.52C202.428 144.168 202.519 143.741 202.519 143.24V138.936H204.439V147H202.743L202.599 145.656C202.353 146.125 201.996 146.499 201.527 146.776C201.068 147.053 200.529 147.192 199.911 147.192ZM210.351 147.192C209.551 147.192 208.847 147.021 208.239 146.68C207.631 146.328 207.156 145.837 206.815 145.208C206.473 144.579 206.303 143.853 206.303 143.032C206.303 142.179 206.468 141.432 206.799 140.792C207.14 140.152 207.615 139.651 208.223 139.288C208.841 138.925 209.556 138.744 210.367 138.744C211.156 138.744 211.844 138.92 212.431 139.272C213.017 139.624 213.471 140.099 213.791 140.696C214.111 141.283 214.271 141.944 214.271 142.68C214.271 142.787 214.271 142.904 214.271 143.032C214.271 143.16 214.26 143.293 214.239 143.432H207.679V142.2H212.335C212.313 141.613 212.116 141.155 211.743 140.824C211.369 140.483 210.905 140.312 210.351 140.312C209.956 140.312 209.593 140.403 209.263 140.584C208.932 140.765 208.671 141.037 208.479 141.4C208.287 141.752 208.191 142.2 208.191 142.744V143.208C208.191 143.709 208.281 144.141 208.463 144.504C208.655 144.867 208.911 145.144 209.231 145.336C209.561 145.517 209.929 145.608 210.335 145.608C210.783 145.608 211.151 145.512 211.439 145.32C211.737 145.128 211.956 144.872 212.095 144.552H214.047C213.897 145.053 213.652 145.507 213.311 145.912C212.969 146.307 212.548 146.621 212.047 146.856C211.545 147.08 210.98 147.192 210.351 147.192ZM216.044 150.52V138.936H217.756L217.964 140.104C218.134 139.869 218.337 139.651 218.572 139.448C218.817 139.235 219.11 139.064 219.452 138.936C219.804 138.808 220.204 138.744 220.652 138.744C221.409 138.744 222.076 138.931 222.652 139.304C223.238 139.677 223.697 140.184 224.028 140.824C224.358 141.453 224.524 142.173 224.524 142.984C224.524 143.795 224.353 144.52 224.012 145.16C223.681 145.789 223.222 146.285 222.636 146.648C222.06 147.011 221.398 147.192 220.652 147.192C220.044 147.192 219.51 147.08 219.052 146.856C218.604 146.621 218.241 146.291 217.964 145.864V150.52H216.044ZM220.252 145.528C220.7 145.528 221.1 145.421 221.452 145.208C221.804 144.995 222.076 144.696 222.268 144.312C222.47 143.928 222.572 143.485 222.572 142.984C222.572 142.472 222.47 142.024 222.268 141.64C222.076 141.256 221.804 140.957 221.452 140.744C221.1 140.531 220.7 140.424 220.252 140.424C219.793 140.424 219.388 140.531 219.036 140.744C218.694 140.957 218.422 141.256 218.22 141.64C218.028 142.024 217.932 142.467 217.932 142.968C217.932 143.48 218.028 143.928 218.22 144.312C218.422 144.685 218.694 144.984 219.036 145.208C219.388 145.421 219.793 145.528 220.252 145.528ZM226.387 147V138.936H228.099L228.275 140.44C228.467 140.088 228.707 139.789 228.995 139.544C229.283 139.288 229.619 139.091 230.003 138.952C230.398 138.813 230.83 138.744 231.299 138.744V140.776H230.627C230.307 140.776 230.003 140.819 229.715 140.904C229.427 140.979 229.177 141.107 228.963 141.288C228.761 141.459 228.601 141.699 228.483 142.008C228.366 142.307 228.307 142.685 228.307 143.144V147H226.387ZM232.827 147V138.936H234.747V147H232.827ZM233.787 137.656C233.435 137.656 233.141 137.549 232.907 137.336C232.683 137.112 232.571 136.84 232.571 136.52C232.571 136.189 232.683 135.923 232.907 135.72C233.141 135.507 233.435 135.4 233.787 135.4C234.139 135.4 234.427 135.507 234.651 135.72C234.885 135.923 235.003 136.189 235.003 136.52C235.003 136.84 234.885 137.112 234.651 137.336C234.427 137.549 234.139 137.656 233.787 137.656ZM236.965 147V138.936H238.661L238.805 140.28C239.051 139.811 239.403 139.437 239.861 139.16C240.32 138.883 240.864 138.744 241.493 138.744C242.144 138.744 242.699 138.883 243.157 139.16C243.616 139.427 243.968 139.821 244.213 140.344C244.469 140.867 244.597 141.517 244.597 142.296V147H242.677V142.472C242.677 141.8 242.528 141.283 242.229 140.92C241.931 140.557 241.488 140.376 240.901 140.376C240.517 140.376 240.171 140.467 239.861 140.648C239.563 140.829 239.323 141.096 239.141 141.448C238.971 141.789 238.885 142.205 238.885 142.696V147H236.965ZM250.126 147C249.582 147 249.107 146.915 248.702 146.744C248.307 146.573 247.998 146.291 247.774 145.896C247.55 145.501 247.438 144.968 247.438 144.296V140.552H246.062V138.936H247.438L247.662 136.808H249.358V138.936H251.55V140.552H249.358V144.296C249.358 144.701 249.443 144.984 249.614 145.144C249.795 145.293 250.094 145.368 250.51 145.368H251.502V147H250.126Z" fill="#424141"/>
<g clip-path="url(#clip0_3221_1962)">
<path d="M247.64 87.9486C246.813 87.9486 246.138 87.6955 245.615 87.1893C245.109 86.6662 244.856 85.9744 244.856 85.1139V78.0272H241.717V75.395H244.856V71.4973H248.045V75.395H251.487V78.0272H248.045V84.5571C248.045 85.0633 248.281 85.3164 248.754 85.3164H251.183V87.9486H247.64Z" fill="black"/>
<path d="M232.796 87.9486V75.3951H235.935V76.8124H236.39C236.576 76.3062 236.879 75.935 237.301 75.6988C237.74 75.4626 238.246 75.3445 238.82 75.3445H240.338V78.1791H238.769C237.959 78.1791 237.293 78.3985 236.77 78.8372C236.247 79.259 235.985 79.9171 235.985 80.8113V87.9486H232.796Z" fill="black"/>
<path d="M224.538 88.3025C223.289 88.3025 222.167 88.0495 221.171 87.5433C220.176 87.0371 219.391 86.3031 218.818 85.3413C218.244 84.3796 217.957 83.2238 217.957 81.8739V81.469C217.957 80.1191 218.244 78.9633 218.818 78.0015C219.391 77.0398 220.176 76.3058 221.171 75.7996C222.167 75.2934 223.289 75.0403 224.538 75.0403C225.786 75.0403 226.908 75.2934 227.904 75.7996C228.899 76.3058 229.684 77.0398 230.258 78.0015C230.831 78.9633 231.118 80.1191 231.118 81.469V81.8739C231.118 83.2238 230.831 84.3796 230.258 85.3413C229.684 86.3031 228.899 87.0371 227.904 87.5433C226.908 88.0495 225.786 88.3025 224.538 88.3025ZM224.538 85.4679C225.516 85.4679 226.326 85.1557 226.967 84.5314C227.608 83.8902 227.929 82.9791 227.929 81.798V81.5449C227.929 80.3638 227.608 79.4611 226.967 78.8368C226.343 78.1956 225.533 77.875 224.538 77.875C223.559 77.875 222.749 78.1956 222.108 78.8368C221.467 79.4611 221.146 80.3638 221.146 81.5449V81.798C221.146 82.9791 221.467 83.8902 222.108 84.5314C222.749 85.1557 223.559 85.4679 224.538 85.4679Z" fill="black"/>
<path d="M203.69 93.0101V75.3946H206.829V76.9132H207.284C207.571 76.4239 208.018 75.9936 208.626 75.6224C209.233 75.2344 210.102 75.0403 211.232 75.0403C212.245 75.0403 213.181 75.2934 214.042 75.7996C214.902 76.2889 215.594 77.0145 216.117 77.9762C216.64 78.938 216.902 80.1022 216.902 81.469V81.8739C216.902 83.2406 216.64 84.4049 216.117 85.3666C215.594 86.3284 214.902 87.0624 214.042 87.5686C213.181 88.0579 212.245 88.3025 211.232 88.3025C210.473 88.3025 209.832 88.2097 209.309 88.0241C208.803 87.8554 208.389 87.6361 208.069 87.3661C207.765 87.0792 207.52 86.7924 207.335 86.5056H206.879V93.0101H203.69ZM210.271 85.5185C211.266 85.5185 212.085 85.2063 212.726 84.582C213.384 83.9409 213.713 83.0128 213.713 81.798V81.5449C213.713 80.33 213.384 79.4104 212.726 78.7861C212.068 78.145 211.249 77.8244 210.271 77.8244C209.292 77.8244 208.474 78.145 207.816 78.7861C207.158 79.4104 206.829 80.33 206.829 81.5449V81.798C206.829 83.0128 207.158 83.9409 207.816 84.582C208.474 85.2063 209.292 85.5185 210.271 85.5185Z" fill="black"/>
<path fill-rule="evenodd" clip-rule="evenodd" d="M181.604 82.2593L190.254 82.2594L181.604 73.6103V82.2593ZM181.615 85.254C181.758 87.1902 183.375 88.7166 185.348 88.7166H198.823V75.2406C198.823 73.2677 197.297 71.6512 195.361 71.5077L195.361 85.254H195.33H192.273L181.615 85.254ZM192.273 71.4973L192.273 80.0433L183.726 71.4973H192.273Z" fill="black"/>
</g>
<circle cx="366.5" cy="179.096" r="6" fill="black"/>
<path d="M366.4 182.096V176.813L365.302 177.092V176.417L366.733 175.796H367.318V182.096H366.4Z" fill="white"/>
<path d="M382.93 183.096V175.68H380.446V174.696H386.626V175.68H384.13V183.096H382.93ZM387.137 183.096V177.048H388.217L388.325 178.188C388.461 177.916 388.637 177.688 388.853 177.504C389.069 177.312 389.321 177.164 389.609 177.06C389.905 176.956 390.241 176.904 390.617 176.904V178.176H390.185C389.937 178.176 389.701 178.208 389.477 178.272C389.253 178.328 389.053 178.428 388.877 178.572C388.709 178.716 388.577 178.912 388.481 179.16C388.385 179.408 388.337 179.716 388.337 180.084V183.096H387.137ZM391.803 183.096V177.048H393.003V183.096H391.803ZM392.415 175.908C392.183 175.908 391.991 175.836 391.839 175.692C391.695 175.548 391.623 175.364 391.623 175.14C391.623 174.924 391.695 174.748 391.839 174.612C391.991 174.468 392.183 174.396 392.415 174.396C392.639 174.396 392.827 174.468 392.979 174.612C393.131 174.748 393.207 174.924 393.207 175.14C393.207 175.364 393.131 175.548 392.979 175.692C392.827 175.836 392.639 175.908 392.415 175.908ZM397.179 185.88C396.627 185.88 396.139 185.808 395.715 185.664C395.291 185.528 394.963 185.316 394.731 185.028C394.499 184.74 394.383 184.388 394.383 183.972C394.383 183.756 394.431 183.536 394.527 183.312C394.623 183.096 394.779 182.888 394.995 182.688C395.211 182.488 395.503 182.308 395.871 182.148L396.543 182.688C396.135 182.84 395.859 183.02 395.715 183.228C395.579 183.444 395.511 183.652 395.511 183.852C395.511 184.092 395.583 184.292 395.727 184.452C395.871 184.612 396.067 184.732 396.315 184.812C396.571 184.892 396.859 184.932 397.179 184.932C397.491 184.932 397.763 184.888 397.995 184.8C398.227 184.712 398.407 184.588 398.535 184.428C398.663 184.268 398.727 184.08 398.727 183.864C398.727 183.608 398.631 183.392 398.439 183.216C398.247 183.048 397.879 182.948 397.335 182.916C396.879 182.884 396.491 182.84 396.171 182.784C395.859 182.728 395.591 182.66 395.367 182.58C395.151 182.5 394.967 182.412 394.815 182.316C394.671 182.22 394.547 182.12 394.443 182.016V181.74L395.643 180.504L396.615 180.84L395.307 182.052L395.559 181.512C395.647 181.568 395.731 181.624 395.811 181.68C395.891 181.728 395.999 181.772 396.135 181.812C396.271 181.852 396.455 181.888 396.687 181.92C396.919 181.952 397.223 181.984 397.599 182.016C398.143 182.056 398.579 182.152 398.907 182.304C399.243 182.456 399.487 182.66 399.639 182.916C399.791 183.172 399.867 183.476 399.867 183.828C399.867 184.172 399.771 184.5 399.579 184.812C399.395 185.124 399.103 185.38 398.703 185.58C398.311 185.78 397.803 185.88 397.179 185.88ZM397.179 181.236C396.667 181.236 396.231 181.14 395.871 180.948C395.519 180.756 395.247 180.496 395.055 180.168C394.871 179.84 394.779 179.476 394.779 179.076C394.779 178.668 394.871 178.304 395.055 177.984C395.247 177.656 395.523 177.396 395.883 177.204C396.243 177.004 396.675 176.904 397.179 176.904C397.683 176.904 398.111 177.004 398.463 177.204C398.823 177.396 399.095 177.656 399.279 177.984C399.471 178.304 399.567 178.668 399.567 179.076C399.567 179.476 399.471 179.84 399.279 180.168C399.095 180.496 398.823 180.756 398.463 180.948C398.111 181.14 397.683 181.236 397.179 181.236ZM397.179 180.276C397.571 180.276 397.883 180.176 398.115 179.976C398.347 179.768 398.463 179.468 398.463 179.076C398.463 178.684 398.347 178.388 398.115 178.188C397.883 177.98 397.571 177.876 397.179 177.876C396.787 177.876 396.471 177.98 396.231 178.188C395.991 178.388 395.871 178.684 395.871 179.076C395.871 179.468 395.991 179.768 396.231 179.976C396.471 180.176 396.787 180.276 397.179 180.276ZM398.163 177.996L397.875 177.048H400.359V177.876L398.163 177.996ZM404.022 185.88C403.47 185.88 402.982 185.808 402.558 185.664C402.134 185.528 401.806 185.316 401.574 185.028C401.342 184.74 401.226 184.388 401.226 183.972C401.226 183.756 401.274 183.536 401.37 183.312C401.466 183.096 401.622 182.888 401.838 182.688C402.054 182.488 402.346 182.308 402.714 182.148L403.386 182.688C402.978 182.84 402.702 183.02 402.558 183.228C402.422 183.444 402.354 183.652 402.354 183.852C402.354 184.092 402.426 184.292 402.57 184.452C402.714 184.612 402.91 184.732 403.158 184.812C403.414 184.892 403.702 184.932 404.022 184.932C404.334 184.932 404.606 184.888 404.838 184.8C405.07 184.712 405.25 184.588 405.378 184.428C405.506 184.268 405.57 184.08 405.57 183.864C405.57 183.608 405.474 183.392 405.282 183.216C405.09 183.048 404.722 182.948 404.178 182.916C403.722 182.884 403.334 182.84 403.014 182.784C402.702 182.728 402.434 182.66 402.21 182.58C401.994 182.5 401.81 182.412 401.658 182.316C401.514 182.22 401.39 182.12 401.286 182.016V181.74L402.486 180.504L403.458 180.84L402.15 182.052L402.402 181.512C402.49 181.568 402.574 181.624 402.654 181.68C402.734 181.728 402.842 181.772 402.978 181.812C403.114 181.852 403.298 181.888 403.53 181.92C403.762 181.952 404.066 181.984 404.442 182.016C404.986 182.056 405.422 182.152 405.75 182.304C406.086 182.456 406.33 182.66 406.482 182.916C406.634 183.172 406.71 183.476 406.71 183.828C406.71 184.172 406.614 184.5 406.422 184.812C406.238 185.124 405.946 185.38 405.546 185.58C405.154 185.78 404.646 185.88 404.022 185.88ZM404.022 181.236C403.51 181.236 403.074 181.14 402.714 180.948C402.362 180.756 402.09 180.496 401.898 180.168C401.714 179.84 401.622 179.476 401.622 179.076C401.622 178.668 401.714 178.304 401.898 177.984C402.09 177.656 402.366 177.396 402.726 177.204C403.086 177.004 403.518 176.904 404.022 176.904C404.526 176.904 404.954 177.004 405.306 177.204C405.666 177.396 405.938 177.656 406.122 177.984C406.314 178.304 406.41 178.668 406.41 179.076C406.41 179.476 406.314 179.84 406.122 180.168C405.938 180.496 405.666 180.756 405.306 180.948C404.954 181.14 404.526 181.236 404.022 181.236ZM404.022 180.276C404.414 180.276 404.726 180.176 404.958 179.976C405.19 179.768 405.306 179.468 405.306 179.076C405.306 178.684 405.19 178.388 404.958 178.188C404.726 177.98 404.414 177.876 404.022 177.876C403.63 177.876 403.314 177.98 403.074 178.188C402.834 178.388 402.714 178.684 402.714 179.076C402.714 179.468 402.834 179.768 403.074 179.976C403.314 180.176 403.63 180.276 404.022 180.276ZM405.006 177.996L404.718 177.048H407.202V177.876L405.006 177.996ZM410.908 183.24C410.332 183.24 409.82 183.108 409.372 182.844C408.924 182.58 408.572 182.212 408.316 181.74C408.068 181.268 407.944 180.72 407.944 180.096C407.944 179.456 408.068 178.9 408.316 178.428C408.572 177.948 408.924 177.576 409.372 177.312C409.82 177.04 410.34 176.904 410.932 176.904C411.524 176.904 412.032 177.036 412.456 177.3C412.88 177.564 413.208 177.916 413.44 178.356C413.672 178.788 413.788 179.268 413.788 179.796C413.788 179.876 413.784 179.964 413.776 180.06C413.776 180.148 413.772 180.248 413.764 180.36H408.82V179.508H412.588C412.564 179.004 412.396 178.612 412.084 178.332C411.772 178.044 411.384 177.9 410.92 177.9C410.592 177.9 410.292 177.976 410.02 178.128C409.748 178.272 409.528 178.488 409.36 178.776C409.2 179.056 409.12 179.412 409.12 179.844V180.18C409.12 180.628 409.2 181.008 409.36 181.32C409.528 181.624 409.748 181.856 410.02 182.016C410.292 182.168 410.588 182.244 410.908 182.244C411.292 182.244 411.608 182.16 411.856 181.992C412.104 181.824 412.288 181.596 412.408 181.308H413.608C413.504 181.676 413.328 182.008 413.08 182.304C412.832 182.592 412.524 182.82 412.156 182.988C411.796 183.156 411.38 183.24 410.908 183.24ZM415.121 183.096V177.048H416.201L416.309 178.188C416.445 177.916 416.621 177.688 416.837 177.504C417.053 177.312 417.305 177.164 417.593 177.06C417.889 176.956 418.225 176.904 418.601 176.904V178.176H418.169C417.921 178.176 417.685 178.208 417.461 178.272C417.237 178.328 417.037 178.428 416.861 178.572C416.693 178.716 416.561 178.912 416.465 179.16C416.369 179.408 416.321 179.716 416.321 180.084V183.096H415.121Z" fill="#424141"/>
<path d="M446 198.096L438.5 193.766L438.5 202.426L446 198.096ZM333 198.846L439.25 198.846L439.25 197.346L333 197.346L333 198.846Z" fill="#576265"/>
<rect x="453" y="142.596" width="114" height="114" rx="57" stroke="#858585" stroke-width="0.886003" stroke-linecap="round" stroke-dasharray="0.1 3"/>
<path d="M504.769 159.596C506.851 159.596 508.538 161.283 508.538 163.364C508.538 165.41 506.908 167.073 504.875 167.13C504.875 167.303 504.883 167.63 504.981 167.827C505.117 168.101 505.932 168.611 506.731 168.611H507.018C507.199 167.326 508.302 166.337 509.637 166.337C510.966 166.337 512.066 167.318 512.253 168.595H513.739C513.926 167.318 515.026 166.337 516.355 166.337C517.816 166.337 519 167.521 519 168.982C519 170.442 517.816 171.626 516.355 171.626C515.026 171.626 513.926 170.645 513.739 169.368H512.253C512.066 170.645 510.966 171.626 509.637 171.626C508.31 171.626 507.211 170.649 507.021 169.375L506.704 169.385C506.181 169.381 505.629 169.241 505.185 168.94C505.064 168.858 504.945 168.771 504.821 168.689L504.821 168.861C504.82 168.917 504.81 169.751 504.809 170.678L504.809 170.874C504.809 171.481 504.814 172.107 504.829 172.564C504.86 173.566 505.675 174.374 506.574 174.563C506.691 174.588 506.892 174.591 507.018 174.58C507.199 173.296 508.302 172.308 509.637 172.308C511.097 172.308 512.282 173.492 512.282 174.952C512.282 176.412 511.097 177.596 509.637 177.596C508.317 177.596 507.223 176.63 507.024 175.366H506.796C505.077 175.273 504.009 173.697 504.028 172.419C504.051 170.81 504.034 169.201 504.033 167.592V167.06C502.304 166.718 501 165.193 501 163.364C501 161.283 502.687 159.596 504.769 159.596ZM509.637 173.081C508.603 173.081 507.765 173.918 507.765 174.952C507.765 175.985 508.603 176.823 509.637 176.823C510.67 176.823 511.508 175.985 511.508 174.952C511.508 173.918 510.67 173.081 509.637 173.081ZM509.637 167.11C508.603 167.11 507.765 167.948 507.765 168.982C507.765 170.015 508.603 170.853 509.637 170.853C510.67 170.853 511.508 170.015 511.508 168.982C511.508 167.948 510.67 167.11 509.637 167.11ZM516.355 167.11C515.321 167.11 514.483 167.948 514.483 168.982C514.483 170.015 515.321 170.853 516.355 170.853C517.389 170.853 518.227 170.015 518.227 168.982C518.227 167.948 517.389 167.11 516.355 167.11ZM517.421 168.194C517.568 168.341 517.572 168.577 517.433 168.728L517.422 168.74L516.275 169.89C516.129 170.036 515.894 170.041 515.742 169.903L515.73 169.892L515.169 169.339C515.017 169.19 515.015 168.945 515.164 168.793C515.31 168.645 515.547 168.639 515.699 168.777L515.711 168.789L515.999 169.072L516.874 168.194C517.025 168.043 517.27 168.043 517.421 168.194ZM510.672 168.188C510.819 168.335 510.823 168.571 510.684 168.723L510.672 168.735L509.526 169.884C509.38 170.03 509.145 170.035 508.993 169.898L508.981 169.886L508.419 169.334C508.267 169.184 508.265 168.939 508.415 168.787C508.561 168.639 508.797 168.633 508.95 168.772L508.962 168.783L509.25 169.066L510.125 168.189C510.276 168.038 510.521 168.037 510.672 168.188ZM504.769 160.369C503.114 160.369 501.773 161.71 501.773 163.364C501.773 165.018 503.114 166.359 504.769 166.359C506.424 166.359 507.765 165.018 507.765 163.364C507.765 161.71 506.424 160.369 504.769 160.369ZM504.457 161.574C505.088 161.953 505.709 162.344 506.323 162.749C506.837 163.088 506.835 163.703 506.316 164.042C505.691 164.451 505.057 164.843 504.413 165.217C503.889 165.523 503.302 165.172 503.288 164.56C503.279 164.167 503.286 163.772 503.286 163.378C503.285 162.994 503.278 162.611 503.287 162.227C503.303 161.577 503.901 161.238 504.457 161.574ZM504.042 162.198V162.47C504.042 162.605 504.042 162.737 504.042 162.869L504.042 163.13V163.515C504.042 163.813 504.042 164.105 504.042 164.398C504.043 164.536 504.114 164.53 504.207 164.473C504.742 164.141 505.277 163.81 505.812 163.479C505.901 163.425 505.903 163.368 505.816 163.313C505.243 162.952 504.669 162.592 504.042 162.198Z" fill="#2088FF"/>
<path d="M510.368 175.338C510.581 175.338 510.754 175.165 510.754 174.951C510.754 174.738 510.581 174.565 510.368 174.565C510.154 174.565 509.981 174.738 509.981 174.951C509.981 175.165 510.154 175.338 510.368 175.338Z" fill="#79B8FF"/>
<path d="M508.888 175.338C509.101 175.338 509.274 175.165 509.274 174.951C509.274 174.738 509.101 174.565 508.888 174.565C508.674 174.565 508.501 174.738 508.501 174.951C508.501 175.165 508.674 175.338 508.888 175.338Z" fill="#79B8FF"/>
<path d="M516.355 176.823C515.321 176.823 514.483 175.985 514.483 174.952C514.483 173.919 515.321 173.081 516.355 173.081C517.389 173.081 518.227 173.919 518.227 174.952C518.227 175.985 517.389 176.823 516.355 176.823ZM516.355 172.308C515.026 172.308 513.926 173.288 513.739 174.566H513.306C513.117 174.566 512.964 174.739 512.964 174.952C512.964 175.165 513.117 175.338 513.306 175.338H513.739C513.926 176.616 515.026 177.596 516.355 177.596C517.816 177.596 519 176.412 519 174.952C519 173.492 517.816 172.308 516.355 172.308Z" fill="#79B8FF"/>
<path d="M490.188 202.788C489.132 202.788 488.209 202.548 487.42 202.068C486.631 201.588 486.017 200.916 485.58 200.052C485.143 199.188 484.924 198.18 484.924 197.028C484.924 195.887 485.143 194.879 485.58 194.004C486.028 193.129 486.663 192.447 487.484 191.956C488.316 191.455 489.297 191.204 490.428 191.204C491.697 191.204 492.759 191.513 493.612 192.132C494.465 192.74 495.015 193.588 495.26 194.676H493.436C493.276 194.057 492.94 193.572 492.428 193.22C491.916 192.857 491.244 192.676 490.412 192.676C489.623 192.676 488.935 192.852 488.348 193.204C487.772 193.556 487.329 194.057 487.02 194.708C486.711 195.359 486.556 196.132 486.556 197.028C486.556 197.935 486.711 198.713 487.02 199.364C487.329 200.015 487.767 200.511 488.332 200.852C488.897 201.193 489.548 201.364 490.284 201.364C491.415 201.364 492.263 201.039 492.828 200.388C493.404 199.737 493.74 198.868 493.836 197.78H490.748V196.548H495.452V202.596H493.996L493.852 200.884C493.596 201.3 493.297 201.652 492.956 201.94C492.625 202.217 492.236 202.431 491.788 202.58C491.34 202.719 490.807 202.788 490.188 202.788ZM497.591 202.596V194.532H499.191V202.596H497.591ZM498.407 193.012C498.097 193.012 497.841 192.916 497.639 192.724C497.447 192.532 497.351 192.287 497.351 191.988C497.351 191.7 497.447 191.465 497.639 191.284C497.841 191.092 498.097 190.996 498.407 190.996C498.705 190.996 498.956 191.092 499.159 191.284C499.361 191.465 499.463 191.7 499.463 191.988C499.463 192.287 499.361 192.532 499.159 192.724C498.956 192.916 498.705 193.012 498.407 193.012ZM504.791 202.596C504.289 202.596 503.852 202.516 503.479 202.356C503.105 202.196 502.817 201.929 502.615 201.556C502.412 201.183 502.311 200.676 502.311 200.036V195.892H500.919V194.532H502.311L502.503 192.516H503.911V194.532H506.199V195.892H503.911V200.052C503.911 200.511 504.007 200.825 504.199 200.996C504.391 201.156 504.721 201.236 505.191 201.236H506.119V202.596H504.791ZM507.963 202.596V191.076H509.563V195.844C509.83 195.375 510.198 195.007 510.667 194.74C511.147 194.473 511.675 194.34 512.251 194.34C512.891 194.34 513.44 194.473 513.899 194.74C514.358 194.996 514.71 195.385 514.955 195.908C515.2 196.42 515.323 197.065 515.323 197.844V202.596H513.739V198.02C513.739 197.263 513.579 196.692 513.259 196.308C512.939 195.913 512.464 195.716 511.835 195.716C511.408 195.716 511.024 195.817 510.683 196.02C510.342 196.223 510.07 196.521 509.867 196.916C509.664 197.3 509.563 197.769 509.563 198.324V202.596H507.963ZM520.329 202.788C519.7 202.788 519.151 202.66 518.681 202.404C518.223 202.148 517.865 201.764 517.609 201.252C517.364 200.74 517.241 200.095 517.241 199.316V194.532H518.841V199.14C518.841 199.897 519.007 200.468 519.337 200.852C519.668 201.236 520.143 201.428 520.761 201.428C521.177 201.428 521.551 201.327 521.881 201.124C522.223 200.921 522.489 200.628 522.681 200.244C522.873 199.86 522.969 199.391 522.969 198.836V194.532H524.569V202.596H523.145L523.033 201.22C522.788 201.711 522.431 202.095 521.961 202.372C521.492 202.649 520.948 202.788 520.329 202.788ZM531.16 202.788C530.723 202.788 530.323 202.724 529.96 202.596C529.608 202.479 529.299 202.313 529.032 202.1C528.765 201.887 528.541 201.641 528.36 201.364L528.2 202.596H526.76V191.076H528.36V195.796C528.616 195.391 528.973 195.049 529.432 194.772C529.901 194.484 530.477 194.34 531.16 194.34C531.928 194.34 532.605 194.527 533.192 194.9C533.779 195.263 534.232 195.764 534.552 196.404C534.883 197.033 535.048 197.759 535.048 198.58C535.048 199.38 534.883 200.1 534.552 200.74C534.232 201.38 533.779 201.881 533.192 202.244C532.605 202.607 531.928 202.788 531.16 202.788ZM530.904 201.396C531.395 201.396 531.827 201.279 532.2 201.044C532.584 200.809 532.883 200.479 533.096 200.052C533.32 199.625 533.432 199.129 533.432 198.564C533.432 197.999 533.32 197.508 533.096 197.092C532.883 196.665 532.584 196.335 532.2 196.1C531.827 195.855 531.395 195.732 530.904 195.732C530.403 195.732 529.96 195.855 529.576 196.1C529.203 196.335 528.909 196.665 528.696 197.092C528.483 197.508 528.376 197.999 528.376 198.564C528.376 199.129 528.483 199.625 528.696 200.052C528.909 200.479 529.203 200.809 529.576 201.044C529.96 201.279 530.403 201.396 530.904 201.396ZM478.962 223.596L476.594 215.532H478.178L479.938 222.252L479.634 222.236L481.586 215.532H483.378L485.33 222.236L485.026 222.252L486.77 215.532H488.386L486.018 223.596H484.37L482.322 216.604H482.642L480.594 223.596H478.962ZM493.229 223.788C492.472 223.788 491.789 223.612 491.181 223.26C490.584 222.908 490.109 222.417 489.757 221.788C489.416 221.148 489.245 220.412 489.245 219.58C489.245 218.727 489.421 217.985 489.773 217.356C490.125 216.716 490.605 216.22 491.213 215.868C491.821 215.516 492.504 215.34 493.261 215.34C494.029 215.34 494.712 215.516 495.309 215.868C495.906 216.22 496.376 216.711 496.717 217.34C497.069 217.969 497.245 218.711 497.245 219.564C497.245 220.417 497.069 221.159 496.717 221.788C496.376 222.417 495.901 222.908 495.293 223.26C494.685 223.612 493.997 223.788 493.229 223.788ZM493.229 222.412C493.666 222.412 494.061 222.305 494.413 222.092C494.776 221.879 495.064 221.564 495.277 221.148C495.501 220.721 495.613 220.193 495.613 219.564C495.613 218.935 495.506 218.412 495.293 217.996C495.08 217.569 494.792 217.249 494.429 217.036C494.077 216.823 493.688 216.716 493.261 216.716C492.834 216.716 492.44 216.823 492.077 217.036C491.714 217.249 491.421 217.569 491.197 217.996C490.984 218.412 490.877 218.935 490.877 219.564C490.877 220.193 490.984 220.721 491.197 221.148C491.421 221.564 491.709 221.879 492.061 222.092C492.424 222.305 492.813 222.412 493.229 222.412ZM499.127 223.596V215.532H500.567L500.711 217.052C500.892 216.689 501.127 216.385 501.415 216.14C501.703 215.884 502.039 215.687 502.423 215.548C502.818 215.409 503.266 215.34 503.767 215.34V217.036H503.191C502.86 217.036 502.546 217.079 502.247 217.164C501.948 217.239 501.682 217.372 501.447 217.564C501.223 217.756 501.047 218.017 500.919 218.348C500.791 218.679 500.727 219.089 500.727 219.58V223.596H499.127ZM510.308 223.596L506.596 219.18L509.956 215.532H511.892L507.892 219.804V218.604L512.324 223.596H510.308ZM505.236 223.596V212.076H506.836V223.596H505.236ZM514.106 223.596V214.444C514.106 213.889 514.197 213.436 514.378 213.084C514.57 212.732 514.847 212.476 515.21 212.316C515.573 212.156 516.01 212.076 516.522 212.076H517.466V213.436H516.778C516.394 213.436 516.117 213.516 515.946 213.676C515.786 213.825 515.706 214.092 515.706 214.476V223.596H514.106ZM512.922 216.892V215.532H517.642V216.892H512.922ZM519.274 223.596V212.076H520.874V223.596H519.274ZM526.729 223.788C525.972 223.788 525.289 223.612 524.681 223.26C524.084 222.908 523.609 222.417 523.257 221.788C522.916 221.148 522.745 220.412 522.745 219.58C522.745 218.727 522.921 217.985 523.273 217.356C523.625 216.716 524.105 216.22 524.713 215.868C525.321 215.516 526.004 215.34 526.761 215.34C527.529 215.34 528.212 215.516 528.809 215.868C529.406 216.22 529.876 216.711 530.217 217.34C530.569 217.969 530.745 218.711 530.745 219.564C530.745 220.417 530.569 221.159 530.217 221.788C529.876 222.417 529.401 222.908 528.793 223.26C528.185 223.612 527.497 223.788 526.729 223.788ZM526.729 222.412C527.166 222.412 527.561 222.305 527.913 222.092C528.276 221.879 528.564 221.564 528.777 221.148C529.001 220.721 529.113 220.193 529.113 219.564C529.113 218.935 529.006 218.412 528.793 217.996C528.58 217.569 528.292 217.249 527.929 217.036C527.577 216.823 527.188 216.716 526.761 216.716C526.334 216.716 525.94 216.823 525.577 217.036C525.214 217.249 524.921 217.569 524.697 217.996C524.484 218.412 524.377 218.935 524.377 219.564C524.377 220.193 524.484 220.721 524.697 221.148C524.921 221.564 525.209 221.879 525.561 222.092C525.924 222.305 526.313 222.412 526.729 222.412ZM533.978 223.596L531.61 215.532H533.194L534.954 222.252L534.65 222.236L536.602 215.532H538.394L540.346 222.236L540.042 222.252L541.786 215.532H543.402L541.034 223.596H539.386L537.338 216.604H537.658L535.61 223.596H533.978Z" fill="#424141"/>
<circle cx="601.5" cy="179.096" r="6" fill="black"/>
<path d="M599.434 182.096V181.448C599.854 181.124 600.253 180.797 600.631 180.467C601.009 180.137 601.345 179.81 601.639 179.486C601.939 179.156 602.173 178.835 602.341 178.523C602.509 178.205 602.593 177.902 602.593 177.614C602.593 177.41 602.557 177.221 602.485 177.047C602.413 176.873 602.299 176.732 602.143 176.624C601.987 176.51 601.774 176.453 601.504 176.453C601.246 176.453 601.03 176.51 600.856 176.624C600.688 176.738 600.559 176.891 600.469 177.083C600.385 177.269 600.343 177.476 600.343 177.704H599.47C599.476 177.272 599.569 176.906 599.749 176.606C599.929 176.306 600.172 176.078 600.478 175.922C600.79 175.766 601.138 175.688 601.522 175.688C601.924 175.688 602.272 175.763 602.566 175.913C602.86 176.057 603.088 176.27 603.25 176.552C603.412 176.828 603.493 177.167 603.493 177.569C603.493 177.857 603.436 178.145 603.322 178.433C603.208 178.715 603.052 178.991 602.854 179.261C602.662 179.531 602.446 179.792 602.206 180.044C601.966 180.29 601.717 180.524 601.459 180.746C601.207 180.968 600.964 181.169 600.73 181.349H603.691V182.096H599.434Z" fill="white"/>
<path d="M618.722 183.24C618.106 183.24 617.566 183.132 617.102 182.916C616.638 182.692 616.278 182.38 616.022 181.98C615.766 181.58 615.638 181.112 615.638 180.576H616.898C616.906 180.88 616.978 181.16 617.114 181.416C617.258 181.664 617.462 181.864 617.726 182.016C617.998 182.16 618.33 182.232 618.722 182.232C619.058 182.232 619.346 182.176 619.586 182.064C619.834 181.952 620.022 181.8 620.15 181.608C620.278 181.408 620.342 181.18 620.342 180.924C620.342 180.628 620.274 180.384 620.138 180.192C620.002 180 619.818 179.844 619.586 179.724C619.362 179.596 619.098 179.484 618.794 179.388C618.498 179.292 618.186 179.188 617.858 179.076C617.194 178.86 616.698 178.58 616.37 178.236C616.05 177.892 615.89 177.444 615.89 176.892C615.89 176.42 616.002 176.012 616.226 175.668C616.45 175.316 616.762 175.044 617.162 174.852C617.57 174.652 618.05 174.552 618.602 174.552C619.146 174.552 619.622 174.652 620.03 174.852C620.438 175.052 620.758 175.328 620.99 175.68C621.222 176.032 621.338 176.444 621.338 176.916H620.066C620.066 176.7 620.01 176.488 619.898 176.28C619.786 176.072 619.618 175.904 619.394 175.776C619.17 175.64 618.894 175.572 618.566 175.572C618.294 175.564 618.05 175.608 617.834 175.704C617.618 175.8 617.45 175.94 617.33 176.124C617.21 176.308 617.15 176.528 617.15 176.784C617.15 177.04 617.202 177.248 617.306 177.408C617.418 177.56 617.578 177.692 617.786 177.804C617.994 177.916 618.234 178.02 618.506 178.116C618.786 178.204 619.094 178.304 619.43 178.416C619.846 178.552 620.214 178.72 620.534 178.92C620.862 179.112 621.118 179.364 621.302 179.676C621.494 179.98 621.59 180.372 621.59 180.852C621.59 181.268 621.482 181.656 621.266 182.016C621.05 182.376 620.73 182.672 620.306 182.904C619.882 183.128 619.354 183.24 618.722 183.24ZM623.653 185.736L625.129 182.424H624.781L622.393 177.048H623.689L625.585 181.44L627.493 177.048H628.753L624.913 185.736H623.653ZM629.812 183.096V177.048H630.892L630.964 178.08C631.156 177.72 631.428 177.436 631.78 177.228C632.132 177.012 632.536 176.904 632.992 176.904C633.472 176.904 633.884 177 634.228 177.192C634.572 177.384 634.84 177.676 635.032 178.068C635.224 178.452 635.32 178.936 635.32 179.52V183.096H634.12V179.64C634.12 179.08 633.996 178.656 633.748 178.368C633.5 178.08 633.14 177.936 632.668 177.936C632.356 177.936 632.076 178.012 631.828 178.164C631.58 178.308 631.38 178.524 631.228 178.812C631.084 179.1 631.012 179.452 631.012 179.868V183.096H629.812ZM639.651 183.24C639.067 183.24 638.547 183.108 638.091 182.844C637.635 182.572 637.275 182.2 637.011 181.728C636.755 181.256 636.627 180.708 636.627 180.084C636.627 179.452 636.755 178.9 637.011 178.428C637.275 177.948 637.635 177.576 638.091 177.312C638.547 177.04 639.067 176.904 639.651 176.904C640.387 176.904 641.003 177.096 641.499 177.48C641.995 177.864 642.311 178.384 642.447 179.04H641.199C641.119 178.688 640.935 178.416 640.647 178.224C640.367 178.032 640.031 177.936 639.639 177.936C639.319 177.936 639.023 178.02 638.751 178.188C638.479 178.348 638.259 178.588 638.091 178.908C637.931 179.22 637.851 179.608 637.851 180.072C637.851 180.416 637.899 180.724 637.995 180.996C638.091 181.26 638.219 181.484 638.379 181.668C638.547 181.852 638.739 181.992 638.955 182.088C639.171 182.176 639.399 182.22 639.639 182.22C639.903 182.22 640.139 182.18 640.347 182.1C640.563 182.012 640.743 181.884 640.887 181.716C641.039 181.548 641.143 181.348 641.199 181.116H642.447C642.311 181.756 641.995 182.272 641.499 182.664C641.003 183.048 640.387 183.24 639.651 183.24ZM650.666 183.24C649.842 183.24 649.13 183.06 648.53 182.7C647.938 182.332 647.478 181.824 647.15 181.176C646.83 180.52 646.67 179.76 646.67 178.896C646.67 178.04 646.83 177.284 647.15 176.628C647.478 175.972 647.938 175.464 648.53 175.104C649.13 174.736 649.842 174.552 650.666 174.552C651.65 174.552 652.446 174.788 653.054 175.26C653.67 175.732 654.062 176.396 654.23 177.252H652.91C652.79 176.756 652.542 176.36 652.166 176.064C651.798 175.768 651.298 175.62 650.666 175.62C650.098 175.62 649.606 175.752 649.19 176.016C648.774 176.28 648.454 176.656 648.23 177.144C648.006 177.632 647.894 178.216 647.894 178.896C647.894 179.576 648.006 180.164 648.23 180.66C648.454 181.148 648.774 181.524 649.19 181.788C649.606 182.044 650.098 182.172 650.666 182.172C651.298 182.172 651.798 182.032 652.166 181.752C652.542 181.464 652.79 181.076 652.91 180.588H654.23C654.062 181.42 653.67 182.072 653.054 182.544C652.446 183.008 651.65 183.24 650.666 183.24ZM655.665 183.096V174.696H658.509C659.173 174.696 659.717 174.808 660.141 175.032C660.565 175.256 660.877 175.556 661.077 175.932C661.285 176.3 661.389 176.72 661.389 177.192C661.389 177.64 661.285 178.056 661.077 178.44C660.877 178.816 660.561 179.12 660.129 179.352C659.697 179.576 659.145 179.688 658.473 179.688H656.865V183.096H655.665ZM660.081 183.096L658.269 179.364H659.589L661.473 183.096H660.081ZM656.865 178.776H658.425C659.017 178.776 659.453 178.632 659.733 178.344C660.013 178.048 660.153 177.672 660.153 177.216C660.153 176.752 660.017 176.384 659.745 176.112C659.473 175.84 659.033 175.704 658.425 175.704H656.865V178.776Z" fill="#424141"/>
<path d="M683 198.096L675.5 193.766V202.426L683 198.096ZM574 198.846H676.25V197.346H574V198.846Z" fill="#576265"/>
<defs>
<clipPath id="clip0_3221_1962">
<rect width="70" height="23.0214" fill="white" transform="translate(181.511 70)"/>
</clipPath>
</defs>
</svg>
