<svg width="1000" height="400" viewBox="0 0 1000 400" fill="none" xmlns="http://www.w3.org/2000/svg">
<rect width="1000" height="400" fill="white"/>
<rect x="71" y="40" width="320" height="320" rx="160" fill="#F5F5F5"/>
<rect x="71" y="40" width="320" height="320" rx="160" stroke="#858585" stroke-width="0.886003" stroke-linecap="round" stroke-dasharray="0.1 3"/>
<rect x="86" y="145" width="110" height="110" rx="55" fill="#FF648A"/>
<rect x="86" y="145" width="110" height="110" rx="55" fill="white"/>
<path d="M130.764 174.815C129.655 174.815 128.695 174.575 127.884 174.095C127.084 173.605 126.465 172.927 126.028 172.063C125.601 171.189 125.388 170.181 125.388 169.039C125.388 167.887 125.601 166.879 126.028 166.015C126.465 165.141 127.084 164.458 127.884 163.967C128.695 163.477 129.655 163.231 130.764 163.231C132.097 163.231 133.185 163.562 134.028 164.223C134.871 164.874 135.404 165.797 135.628 166.991H133.516C133.367 166.362 133.063 165.866 132.604 165.503C132.145 165.141 131.527 164.959 130.748 164.959C130.044 164.959 129.436 165.125 128.924 165.455C128.423 165.775 128.033 166.245 127.756 166.863C127.489 167.471 127.356 168.197 127.356 169.039C127.356 169.882 127.489 170.607 127.756 171.215C128.033 171.813 128.423 172.277 128.924 172.607C129.436 172.927 130.044 173.087 130.748 173.087C131.527 173.087 132.145 172.922 132.604 172.591C133.063 172.25 133.367 171.781 133.516 171.183H135.628C135.415 172.314 134.881 173.205 134.028 173.855C133.185 174.495 132.097 174.815 130.764 174.815ZM137.507 174.623V163.423H141.523C142.408 163.423 143.139 163.578 143.715 163.887C144.301 164.186 144.733 164.591 145.011 165.103C145.299 165.605 145.443 166.175 145.443 166.815C145.443 167.413 145.304 167.967 145.027 168.479C144.749 168.991 144.317 169.402 143.731 169.711C143.144 170.021 142.392 170.175 141.475 170.175H139.427V174.623H137.507ZM143.347 174.623L140.995 169.679H143.075L145.539 174.623H143.347ZM139.427 168.751H141.395C142.109 168.751 142.632 168.581 142.963 168.239C143.304 167.887 143.475 167.429 143.475 166.863C143.475 166.309 143.309 165.866 142.979 165.535C142.648 165.194 142.12 165.023 141.395 165.023H139.427V168.751ZM147.429 174.623V163.423H151.045C152.346 163.423 153.418 163.653 154.261 164.111C155.114 164.57 155.743 165.221 156.149 166.063C156.565 166.895 156.773 167.887 156.773 169.039C156.773 170.17 156.565 171.157 156.149 171.999C155.743 172.831 155.114 173.477 154.261 173.935C153.418 174.394 152.346 174.623 151.045 174.623H147.429ZM149.349 172.991H150.949C151.919 172.991 152.682 172.837 153.237 172.527C153.802 172.207 154.202 171.754 154.437 171.167C154.682 170.57 154.805 169.861 154.805 169.039C154.805 168.207 154.682 167.498 154.437 166.911C154.202 166.314 153.802 165.855 153.237 165.535C152.682 165.205 151.919 165.039 150.949 165.039H149.349V172.991Z" fill="#424141"/>
<rect x="145.88" y="188.873" width="39.5" height="39.5" rx="19.75" stroke="black" stroke-width="0.5" stroke-dasharray="1 1"/>
<path d="M162.21 212.767C161.386 212.767 160.674 212.587 160.074 212.227C159.482 211.859 159.022 211.351 158.694 210.703C158.374 210.047 158.214 209.287 158.214 208.423C158.214 207.567 158.374 206.811 158.694 206.155C159.022 205.499 159.482 204.991 160.074 204.631C160.674 204.263 161.386 204.079 162.21 204.079C163.194 204.079 163.99 204.315 164.598 204.787C165.214 205.259 165.606 205.923 165.774 206.779H164.454C164.334 206.283 164.086 205.887 163.71 205.591C163.342 205.295 162.842 205.147 162.21 205.147C161.642 205.147 161.15 205.279 160.734 205.543C160.318 205.807 159.998 206.183 159.774 206.671C159.55 207.159 159.438 207.743 159.438 208.423C159.438 209.103 159.55 209.691 159.774 210.187C159.998 210.675 160.318 211.051 160.734 211.315C161.15 211.571 161.642 211.699 162.21 211.699C162.842 211.699 163.342 211.559 163.71 211.279C164.086 210.991 164.334 210.603 164.454 210.115H165.774C165.606 210.947 165.214 211.599 164.598 212.071C163.99 212.535 163.194 212.767 162.21 212.767ZM167.209 212.623V204.223H170.053C170.717 204.223 171.261 204.335 171.685 204.559C172.109 204.783 172.421 205.083 172.621 205.459C172.829 205.827 172.933 206.247 172.933 206.719C172.933 207.167 172.829 207.583 172.621 207.967C172.421 208.343 172.105 208.647 171.673 208.879C171.241 209.103 170.689 209.215 170.017 209.215H168.409V212.623H167.209ZM171.625 212.623L169.813 208.891H171.133L173.017 212.623H171.625ZM168.409 208.303H169.969C170.561 208.303 170.997 208.159 171.277 207.871C171.557 207.575 171.697 207.199 171.697 206.743C171.697 206.279 171.561 205.911 171.289 205.639C171.017 205.367 170.577 205.231 169.969 205.231H168.409V208.303Z" fill="#424141"/>
<rect x="96.9266" y="188.873" width="39.5" height="39.5" rx="19.75" stroke="black" stroke-width="0.5" stroke-dasharray="1 1"/>
<path d="M113.256 212.767C112.432 212.767 111.72 212.587 111.12 212.227C110.528 211.859 110.068 211.351 109.74 210.703C109.42 210.047 109.26 209.287 109.26 208.423C109.26 207.567 109.42 206.811 109.74 206.155C110.068 205.499 110.528 204.991 111.12 204.631C111.72 204.263 112.432 204.079 113.256 204.079C114.24 204.079 115.036 204.315 115.644 204.787C116.26 205.259 116.652 205.923 116.82 206.779H115.5C115.38 206.283 115.132 205.887 114.756 205.591C114.388 205.295 113.888 205.147 113.256 205.147C112.688 205.147 112.196 205.279 111.78 205.543C111.364 205.807 111.044 206.183 110.82 206.671C110.596 207.159 110.484 207.743 110.484 208.423C110.484 209.103 110.596 209.691 110.82 210.187C111.044 210.675 111.364 211.051 111.78 211.315C112.196 211.571 112.688 211.699 113.256 211.699C113.888 211.699 114.388 211.559 114.756 211.279C115.132 210.991 115.38 210.603 115.5 210.115H116.82C116.652 210.947 116.26 211.599 115.644 212.071C115.036 212.535 114.24 212.767 113.256 212.767ZM118.256 212.623V204.223H121.1C121.764 204.223 122.308 204.335 122.732 204.559C123.156 204.783 123.468 205.083 123.668 205.459C123.876 205.827 123.98 206.247 123.98 206.719C123.98 207.167 123.876 207.583 123.668 207.967C123.468 208.343 123.152 208.647 122.72 208.879C122.288 209.103 121.736 209.215 121.064 209.215H119.456V212.623H118.256ZM122.672 212.623L120.86 208.891H122.18L124.064 212.623H122.672ZM119.456 208.303H121.016C121.608 208.303 122.044 208.159 122.324 207.871C122.604 207.575 122.744 207.199 122.744 206.743C122.744 206.279 122.608 205.911 122.336 205.639C122.064 205.367 121.624 205.231 121.016 205.231H119.456V208.303Z" fill="#424141"/>
<circle cx="213" cy="178" r="6" fill="black"/>
<path d="M212.9 181V175.717L211.802 175.996V175.321L213.233 174.7H213.818V181H212.9Z" fill="white"/>
<path d="M227.474 182V173.6H230.318C230.982 173.6 231.526 173.712 231.95 173.936C232.374 174.16 232.686 174.46 232.886 174.836C233.094 175.204 233.198 175.624 233.198 176.096C233.198 176.544 233.094 176.96 232.886 177.344C232.686 177.72 232.37 178.024 231.938 178.256C231.506 178.48 230.954 178.592 230.282 178.592H228.674V182H227.474ZM231.89 182L230.078 178.268H231.398L233.282 182H231.89ZM228.674 177.68H230.234C230.826 177.68 231.262 177.536 231.542 177.248C231.822 176.952 231.962 176.576 231.962 176.12C231.962 175.656 231.826 175.288 231.554 175.016C231.282 174.744 230.842 174.608 230.234 174.608H228.674V177.68ZM237.064 182.144C236.488 182.144 235.976 182.012 235.528 181.748C235.08 181.484 234.728 181.116 234.472 180.644C234.224 180.172 234.1 179.624 234.1 179C234.1 178.36 234.224 177.804 234.472 177.332C234.728 176.852 235.08 176.48 235.528 176.216C235.976 175.944 236.496 175.808 237.088 175.808C237.68 175.808 238.188 175.94 238.612 176.204C239.036 176.468 239.364 176.82 239.596 177.26C239.828 177.692 239.944 178.172 239.944 178.7C239.944 178.78 239.94 178.868 239.932 178.964C239.932 179.052 239.928 179.152 239.92 179.264H234.976V178.412H238.744C238.72 177.908 238.552 177.516 238.24 177.236C237.928 176.948 237.54 176.804 237.076 176.804C236.748 176.804 236.448 176.88 236.176 177.032C235.904 177.176 235.684 177.392 235.516 177.68C235.356 177.96 235.276 178.316 235.276 178.748V179.084C235.276 179.532 235.356 179.912 235.516 180.224C235.684 180.528 235.904 180.76 236.176 180.92C236.448 181.072 236.744 181.148 237.064 181.148C237.448 181.148 237.764 181.064 238.012 180.896C238.26 180.728 238.444 180.5 238.564 180.212H239.764C239.66 180.58 239.484 180.912 239.236 181.208C238.988 181.496 238.68 181.724 238.312 181.892C237.952 182.06 237.536 182.144 237.064 182.144ZM243.281 182.144C242.785 182.144 242.373 182.06 242.045 181.892C241.717 181.724 241.473 181.5 241.313 181.22C241.153 180.932 241.073 180.624 241.073 180.296C241.073 179.896 241.177 179.556 241.385 179.276C241.593 178.988 241.889 178.768 242.273 178.616C242.657 178.464 243.117 178.388 243.653 178.388H245.225C245.225 178.036 245.173 177.744 245.069 177.512C244.965 177.28 244.809 177.108 244.601 176.996C244.401 176.876 244.145 176.816 243.833 176.816C243.473 176.816 243.165 176.904 242.909 177.08C242.653 177.248 242.493 177.5 242.429 177.836H241.229C241.277 177.412 241.421 177.052 241.661 176.756C241.909 176.452 242.225 176.22 242.609 176.06C242.993 175.892 243.401 175.808 243.833 175.808C244.401 175.808 244.877 175.908 245.261 176.108C245.645 176.308 245.933 176.592 246.125 176.96C246.325 177.32 246.425 177.752 246.425 178.256V182H245.381L245.285 180.98C245.197 181.14 245.093 181.292 244.973 181.436C244.853 181.58 244.709 181.704 244.541 181.808C244.381 181.912 244.193 181.992 243.977 182.048C243.769 182.112 243.537 182.144 243.281 182.144ZM243.509 181.172C243.765 181.172 243.997 181.12 244.205 181.016C244.413 180.912 244.589 180.772 244.733 180.596C244.885 180.412 244.997 180.208 245.069 179.984C245.149 179.752 245.193 179.516 245.201 179.276V179.24H243.773C243.429 179.24 243.149 179.284 242.933 179.372C242.725 179.452 242.573 179.564 242.477 179.708C242.381 179.852 242.333 180.02 242.333 180.212C242.333 180.412 242.377 180.584 242.465 180.728C242.561 180.864 242.697 180.972 242.873 181.052C243.049 181.132 243.261 181.172 243.509 181.172ZM250.645 182.144C250.069 182.144 249.561 182.008 249.121 181.736C248.681 181.456 248.337 181.08 248.089 180.608C247.849 180.128 247.729 179.584 247.729 178.976C247.729 178.36 247.849 177.816 248.089 177.344C248.337 176.872 248.681 176.5 249.121 176.228C249.569 175.948 250.081 175.808 250.657 175.808C251.129 175.808 251.545 175.904 251.905 176.096C252.265 176.28 252.545 176.544 252.745 176.888V173.36H253.945V182H252.877L252.745 181.064C252.625 181.248 252.469 181.424 252.277 181.592C252.085 181.752 251.853 181.884 251.581 181.988C251.309 182.092 250.997 182.144 250.645 182.144ZM250.837 181.1C251.213 181.1 251.545 181.012 251.833 180.836C252.121 180.66 252.341 180.412 252.493 180.092C252.653 179.772 252.733 179.4 252.733 178.976C252.733 178.552 252.653 178.184 252.493 177.872C252.341 177.552 252.121 177.304 251.833 177.128C251.545 176.944 251.213 176.852 250.837 176.852C250.477 176.852 250.153 176.944 249.865 177.128C249.577 177.304 249.353 177.552 249.193 177.872C249.033 178.184 248.953 178.552 248.953 178.976C248.953 179.4 249.033 179.772 249.193 180.092C249.353 180.412 249.577 180.66 249.865 180.836C250.153 181.012 250.477 181.1 250.837 181.1Z" fill="#424141"/>
<path d="M261 200L253.5 204.33V195.67L261 200ZM201 199.25H254.25V200.75H201V199.25Z" fill="#576265"/>
<rect x="266" y="145" width="110" height="110" rx="55" fill="#FF648A"/>
<rect x="266" y="145" width="110" height="110" rx="55" fill="white"/>
<path d="M288.374 212.623V201.423H292.406C293.302 201.423 294.044 201.578 294.63 201.887C295.217 202.186 295.654 202.591 295.942 203.103C296.23 203.615 296.374 204.202 296.374 204.863C296.374 205.482 296.236 206.053 295.958 206.575C295.681 207.087 295.249 207.503 294.662 207.823C294.076 208.133 293.324 208.287 292.406 208.287H290.294V212.623H288.374ZM290.294 206.719H292.294C293.052 206.719 293.596 206.554 293.926 206.223C294.257 205.882 294.422 205.429 294.422 204.863C294.422 204.277 294.257 203.818 293.926 203.487C293.596 203.157 293.052 202.991 292.294 202.991H290.294V206.719ZM301.305 212.815C300.537 212.815 299.843 212.639 299.225 212.287C298.617 211.925 298.137 211.429 297.785 210.799C297.443 210.159 297.273 209.429 297.273 208.607C297.273 207.765 297.449 207.029 297.801 206.399C298.153 205.759 298.633 205.263 299.241 204.911C299.859 204.549 300.553 204.367 301.321 204.367C302.089 204.367 302.777 204.549 303.385 204.911C304.003 205.263 304.483 205.754 304.825 206.383C305.177 207.013 305.353 207.749 305.353 208.591C305.353 209.434 305.177 210.17 304.825 210.799C304.473 211.429 303.987 211.925 303.369 212.287C302.761 212.639 302.073 212.815 301.305 212.815ZM301.305 211.167C301.689 211.167 302.035 211.071 302.345 210.879C302.665 210.687 302.921 210.399 303.113 210.015C303.305 209.631 303.401 209.157 303.401 208.591C303.401 208.026 303.305 207.557 303.113 207.183C302.931 206.799 302.681 206.511 302.361 206.319C302.051 206.127 301.705 206.031 301.321 206.031C300.947 206.031 300.601 206.127 300.281 206.319C299.961 206.511 299.705 206.799 299.513 207.183C299.321 207.557 299.225 208.026 299.225 208.591C299.225 209.157 299.321 209.631 299.513 210.015C299.705 210.399 299.955 210.687 300.265 210.879C300.585 211.071 300.931 211.167 301.305 211.167ZM307.232 212.623V204.559H308.944L309.12 206.063C309.312 205.711 309.552 205.413 309.84 205.167C310.128 204.911 310.464 204.714 310.848 204.575C311.243 204.437 311.675 204.367 312.144 204.367V206.399H311.472C311.152 206.399 310.848 206.442 310.56 206.527C310.272 206.602 310.022 206.73 309.808 206.911C309.606 207.082 309.446 207.322 309.328 207.631C309.211 207.93 309.152 208.309 309.152 208.767V212.623H307.232ZM317.096 212.623C316.552 212.623 316.077 212.538 315.672 212.367C315.277 212.197 314.968 211.914 314.744 211.519C314.52 211.125 314.408 210.591 314.408 209.919V206.175H313.032V204.559H314.408L314.632 202.431H316.328V204.559H318.52V206.175H316.328V209.919C316.328 210.325 316.413 210.607 316.584 210.767C316.765 210.917 317.064 210.991 317.48 210.991H318.472V212.623H317.096ZM324.296 212.623V201.423H326.216V206.047L330.44 201.423H332.824L328.68 205.871L332.92 212.623H330.584L327.32 207.343L326.216 208.543V212.623H324.296ZM337.809 212.815C337.052 212.815 336.369 212.682 335.761 212.415C335.153 212.138 334.668 211.754 334.305 211.263C333.953 210.762 333.777 210.175 333.777 209.503C333.777 209.055 333.857 208.639 334.017 208.255C334.177 207.871 334.406 207.541 334.705 207.263C335.004 206.975 335.35 206.762 335.745 206.623C335.222 206.389 334.806 206.063 334.497 205.647C334.198 205.221 334.049 204.746 334.049 204.223C334.049 203.679 334.193 203.183 334.481 202.735C334.769 202.287 335.19 201.925 335.745 201.647C336.31 201.37 336.998 201.231 337.809 201.231C338.62 201.231 339.302 201.37 339.857 201.647C340.412 201.925 340.833 202.287 341.121 202.735C341.409 203.183 341.553 203.679 341.553 204.223C341.553 204.735 341.398 205.21 341.089 205.647C340.79 206.074 340.38 206.399 339.857 206.623C340.262 206.762 340.609 206.975 340.897 207.263C341.196 207.551 341.425 207.887 341.585 208.271C341.756 208.645 341.841 209.055 341.841 209.503C341.841 210.175 341.66 210.762 341.297 211.263C340.934 211.754 340.449 212.138 339.841 212.415C339.244 212.682 338.566 212.815 337.809 212.815ZM337.809 211.199C338.513 211.199 339.041 211.029 339.393 210.687C339.756 210.335 339.937 209.893 339.937 209.359C339.937 208.762 339.745 208.303 339.361 207.983C338.988 207.653 338.47 207.487 337.809 207.487C337.148 207.487 336.62 207.653 336.225 207.983C335.841 208.303 335.649 208.762 335.649 209.359C335.649 209.893 335.83 210.335 336.193 210.687C336.566 211.029 337.105 211.199 337.809 211.199ZM337.809 206.031C338.385 206.031 338.833 205.882 339.153 205.583C339.484 205.274 339.649 204.89 339.649 204.431C339.649 203.909 339.484 203.509 339.153 203.231C338.833 202.943 338.385 202.799 337.809 202.799C337.233 202.799 336.78 202.943 336.449 203.231C336.129 203.509 335.969 203.909 335.969 204.431C335.969 204.901 336.129 205.285 336.449 205.583C336.78 205.882 337.233 206.031 337.809 206.031ZM347.697 212.815C346.886 212.815 346.166 212.671 345.537 212.383C344.908 212.095 344.417 211.685 344.065 211.151C343.713 210.618 343.532 209.983 343.521 209.247H345.553C345.553 209.621 345.638 209.957 345.809 210.255C345.99 210.543 346.236 210.773 346.545 210.943C346.865 211.114 347.249 211.199 347.697 211.199C348.081 211.199 348.412 211.141 348.689 211.023C348.977 210.895 349.196 210.719 349.345 210.495C349.505 210.261 349.585 209.989 349.585 209.679C349.585 209.327 349.5 209.039 349.329 208.815C349.169 208.581 348.945 208.383 348.657 208.223C348.369 208.063 348.038 207.925 347.665 207.807C347.292 207.679 346.897 207.546 346.481 207.407C345.596 207.109 344.929 206.73 344.481 206.271C344.033 205.802 343.809 205.178 343.809 204.399C343.809 203.749 343.964 203.189 344.273 202.719C344.582 202.25 345.014 201.887 345.569 201.631C346.134 201.365 346.785 201.231 347.521 201.231C348.268 201.231 348.918 201.365 349.473 201.631C350.038 201.898 350.481 202.271 350.801 202.751C351.132 203.221 351.302 203.786 351.313 204.447H349.265C349.254 204.17 349.18 203.914 349.041 203.679C348.902 203.434 348.7 203.237 348.433 203.087C348.177 202.927 347.862 202.847 347.489 202.847C347.169 202.837 346.881 202.89 346.625 203.007C346.38 203.114 346.182 203.274 346.033 203.487C345.894 203.69 345.825 203.946 345.825 204.255C345.825 204.554 345.889 204.805 346.017 205.007C346.156 205.199 346.353 205.365 346.609 205.503C346.865 205.631 347.164 205.754 347.505 205.871C347.846 205.989 348.22 206.117 348.625 206.255C349.18 206.437 349.681 206.661 350.129 206.927C350.588 207.183 350.95 207.519 351.217 207.935C351.484 208.351 351.617 208.89 351.617 209.551C351.617 210.127 351.468 210.666 351.169 211.167C350.87 211.658 350.433 212.058 349.857 212.367C349.281 212.666 348.561 212.815 347.697 212.815ZM291.399 225.815C290.599 225.815 289.895 225.645 289.287 225.303C288.679 224.951 288.204 224.461 287.863 223.831C287.522 223.202 287.351 222.477 287.351 221.655C287.351 220.802 287.516 220.055 287.847 219.415C288.188 218.775 288.663 218.274 289.271 217.911C289.89 217.549 290.604 217.367 291.415 217.367C292.204 217.367 292.892 217.543 293.479 217.895C294.066 218.247 294.519 218.722 294.839 219.319C295.159 219.906 295.319 220.567 295.319 221.303C295.319 221.41 295.319 221.527 295.319 221.655C295.319 221.783 295.308 221.917 295.287 222.055H288.727V220.823H293.383C293.362 220.237 293.164 219.778 292.791 219.447C292.418 219.106 291.954 218.935 291.399 218.935C291.004 218.935 290.642 219.026 290.311 219.207C289.98 219.389 289.719 219.661 289.527 220.023C289.335 220.375 289.239 220.823 289.239 221.367V221.831C289.239 222.333 289.33 222.765 289.511 223.127C289.703 223.49 289.959 223.767 290.279 223.959C290.61 224.141 290.978 224.231 291.383 224.231C291.831 224.231 292.199 224.135 292.487 223.943C292.786 223.751 293.004 223.495 293.143 223.175H295.095C294.946 223.677 294.7 224.13 294.359 224.535C294.018 224.93 293.596 225.245 293.095 225.479C292.594 225.703 292.028 225.815 291.399 225.815ZM295.824 225.623L298.672 221.591L295.824 217.559H297.888L299.904 220.487L301.92 217.559H303.984L301.136 221.591L303.984 225.623H301.92L299.904 222.695L297.888 225.623H295.824ZM305.357 229.143V217.559H307.069L307.277 218.727C307.448 218.493 307.651 218.274 307.885 218.071C308.131 217.858 308.424 217.687 308.765 217.559C309.117 217.431 309.517 217.367 309.965 217.367C310.723 217.367 311.389 217.554 311.965 217.927C312.552 218.301 313.011 218.807 313.341 219.447C313.672 220.077 313.837 220.797 313.837 221.607C313.837 222.418 313.667 223.143 313.325 223.783C312.995 224.413 312.536 224.909 311.949 225.271C311.373 225.634 310.712 225.815 309.965 225.815C309.357 225.815 308.824 225.703 308.365 225.479C307.917 225.245 307.555 224.914 307.277 224.487V229.143H305.357ZM309.565 224.151C310.013 224.151 310.413 224.045 310.765 223.831C311.117 223.618 311.389 223.319 311.581 222.935C311.784 222.551 311.885 222.109 311.885 221.607C311.885 221.095 311.784 220.647 311.581 220.263C311.389 219.879 311.117 219.581 310.765 219.367C310.413 219.154 310.013 219.047 309.565 219.047C309.107 219.047 308.701 219.154 308.349 219.367C308.008 219.581 307.736 219.879 307.533 220.263C307.341 220.647 307.245 221.09 307.245 221.591C307.245 222.103 307.341 222.551 307.533 222.935C307.736 223.309 308.008 223.607 308.349 223.831C308.701 224.045 309.107 224.151 309.565 224.151ZM319.461 225.815C318.693 225.815 318 225.639 317.381 225.287C316.773 224.925 316.293 224.429 315.941 223.799C315.6 223.159 315.429 222.429 315.429 221.607C315.429 220.765 315.605 220.029 315.957 219.399C316.309 218.759 316.789 218.263 317.397 217.911C318.016 217.549 318.709 217.367 319.477 217.367C320.245 217.367 320.933 217.549 321.541 217.911C322.16 218.263 322.64 218.754 322.981 219.383C323.333 220.013 323.509 220.749 323.509 221.591C323.509 222.434 323.333 223.17 322.981 223.799C322.629 224.429 322.144 224.925 321.525 225.287C320.917 225.639 320.229 225.815 319.461 225.815ZM319.461 224.167C319.845 224.167 320.192 224.071 320.501 223.879C320.821 223.687 321.077 223.399 321.269 223.015C321.461 222.631 321.557 222.157 321.557 221.591C321.557 221.026 321.461 220.557 321.269 220.183C321.088 219.799 320.837 219.511 320.517 219.319C320.208 219.127 319.861 219.031 319.477 219.031C319.104 219.031 318.757 219.127 318.437 219.319C318.117 219.511 317.861 219.799 317.669 220.183C317.477 220.557 317.381 221.026 317.381 221.591C317.381 222.157 317.477 222.631 317.669 223.015C317.861 223.399 318.112 223.687 318.421 223.879C318.741 224.071 319.088 224.167 319.461 224.167ZM325.388 225.623V217.559H327.1L327.276 219.063C327.468 218.711 327.708 218.413 327.996 218.167C328.284 217.911 328.62 217.714 329.004 217.575C329.399 217.437 329.831 217.367 330.3 217.367V219.399H329.628C329.308 219.399 329.004 219.442 328.716 219.527C328.428 219.602 328.178 219.73 327.964 219.911C327.762 220.082 327.602 220.322 327.484 220.631C327.367 220.93 327.308 221.309 327.308 221.767V225.623H325.388ZM335.252 225.623C334.708 225.623 334.233 225.538 333.828 225.367C333.433 225.197 333.124 224.914 332.9 224.519C332.676 224.125 332.564 223.591 332.564 222.919V219.175H331.188V217.559H332.564L332.788 215.431H334.484V217.559H336.676V219.175H334.484V222.919C334.484 223.325 334.569 223.607 334.74 223.767C334.921 223.917 335.22 223.991 335.636 223.991H336.628V225.623H335.252ZM342.055 225.815C341.255 225.815 340.551 225.645 339.943 225.303C339.335 224.951 338.86 224.461 338.519 223.831C338.178 223.202 338.007 222.477 338.007 221.655C338.007 220.802 338.172 220.055 338.503 219.415C338.844 218.775 339.319 218.274 339.927 217.911C340.546 217.549 341.26 217.367 342.071 217.367C342.86 217.367 343.548 217.543 344.135 217.895C344.722 218.247 345.175 218.722 345.495 219.319C345.815 219.906 345.975 220.567 345.975 221.303C345.975 221.41 345.975 221.527 345.975 221.655C345.975 221.783 345.964 221.917 345.943 222.055H339.383V220.823H344.039C344.018 220.237 343.82 219.778 343.447 219.447C343.074 219.106 342.61 218.935 342.055 218.935C341.66 218.935 341.298 219.026 340.967 219.207C340.636 219.389 340.375 219.661 340.183 220.023C339.991 220.375 339.895 220.823 339.895 221.367V221.831C339.895 222.333 339.986 222.765 340.167 223.127C340.359 223.49 340.615 223.767 340.935 223.959C341.266 224.141 341.634 224.231 342.039 224.231C342.487 224.231 342.855 224.135 343.143 223.943C343.442 223.751 343.66 223.495 343.799 223.175H345.751C345.602 223.677 345.356 224.13 345.015 224.535C344.674 224.93 344.252 225.245 343.751 225.479C343.25 225.703 342.684 225.815 342.055 225.815ZM347.748 225.623V217.559H349.46L349.636 219.063C349.828 218.711 350.068 218.413 350.356 218.167C350.644 217.911 350.98 217.714 351.364 217.575C351.759 217.437 352.191 217.367 352.66 217.367V219.399H351.988C351.668 219.399 351.364 219.442 351.076 219.527C350.788 219.602 350.537 219.73 350.324 219.911C350.121 220.082 349.961 220.322 349.844 220.631C349.727 220.93 349.668 221.309 349.668 221.767V225.623H347.748Z" fill="#424141"/>
<path d="M334.507 171.373C334.427 171.308 333.705 170.759 332.156 170.759C331.755 170.759 331.34 170.799 330.94 170.867C330.647 168.823 328.95 167.834 328.882 167.783L328.467 167.541L328.2 167.928C327.867 168.448 327.611 169.036 327.466 169.636C327.185 170.799 327.358 171.893 327.947 172.829C327.239 173.229 326.09 173.323 325.849 173.337H306.881C306.386 173.337 305.986 173.738 305.986 174.233C305.96 175.89 306.239 177.544 306.813 179.108C307.467 180.816 308.442 182.086 309.698 182.86C311.114 183.727 313.425 184.222 316.029 184.222C317.203 184.222 318.379 184.114 319.542 183.901C321.159 183.608 322.708 183.045 324.136 182.232C325.312 181.55 326.367 180.683 327.262 179.668C328.772 177.971 329.667 176.075 330.321 174.392C330.415 174.392 330.494 174.392 330.588 174.392C332.231 174.392 333.246 173.738 333.806 173.176C334.181 172.829 334.46 172.4 334.661 171.919L334.781 171.572L334.507 171.373ZM322.767 172.789H325.305C325.425 172.789 325.532 172.695 325.532 172.561V170.29C325.532 170.171 325.439 170.063 325.305 170.063H322.767C322.647 170.063 322.54 170.157 322.54 170.29V172.561C322.554 172.695 322.647 172.789 322.767 172.789ZM319.228 166.285H321.766C321.886 166.285 321.993 166.191 321.993 166.058V163.786C321.993 163.667 321.886 163.559 321.766 163.559H319.228C319.108 163.559 319 163.653 319 163.786V166.058C319 166.177 319.106 166.285 319.228 166.285ZM319.228 169.543H321.766C321.886 169.543 321.993 169.435 321.993 169.315V167.044C321.993 166.925 321.886 166.817 321.766 166.817H319.228C319.108 166.817 319 166.911 319 167.044V169.315C319 169.437 319.106 169.543 319.228 169.543ZM315.715 169.543H318.253C318.372 169.543 318.48 169.435 318.48 169.315V167.044C318.48 166.925 318.386 166.817 318.253 166.817H315.715C315.595 166.817 315.487 166.911 315.487 167.044V169.315C315.487 169.437 315.581 169.543 315.715 169.543ZM312.147 169.543H314.686C314.805 169.543 314.913 169.435 314.913 169.315V167.044C314.913 166.925 314.819 166.817 314.686 166.817H312.147C312.028 166.817 311.92 166.911 311.92 167.044V169.315C311.934 169.437 312.028 169.543 312.147 169.543ZM319.228 172.789H321.766C321.886 172.789 321.993 172.695 321.993 172.561V170.29C321.993 170.171 321.9 170.063 321.766 170.063H319.228C319.108 170.063 319 170.157 319 170.29V172.561C319 172.695 319.106 172.789 319.228 172.789ZM315.715 172.789H318.253C318.372 172.789 318.48 172.695 318.48 172.561V170.29C318.48 170.171 318.386 170.063 318.253 170.063H315.715C315.595 170.063 315.487 170.157 315.487 170.29V172.561C315.487 172.695 315.581 172.789 315.715 172.789ZM312.147 172.789H314.686C314.805 172.789 314.913 172.695 314.913 172.561V170.29C314.913 170.171 314.819 170.063 314.686 170.063H312.147C312.028 170.063 311.92 170.157 311.92 170.29V172.561C311.934 172.695 312.028 172.789 312.147 172.789ZM308.648 172.789H311.186C311.306 172.789 311.414 172.695 311.414 172.561V170.29C311.414 170.171 311.32 170.063 311.186 170.063H308.648C308.529 170.063 308.421 170.157 308.421 170.29V172.561C308.435 172.695 308.529 172.789 308.648 172.789Z" fill="#0091E2"/>
<path d="M185.9 72.0185C185.646 72.0313 185.396 72.0944 185.166 72.2041L175.154 76.9881C174.895 77.1119 174.667 77.2919 174.488 77.515C174.309 77.738 174.182 77.9982 174.118 78.2763L171.648 89.0223C171.591 89.2699 171.585 89.5263 171.629 89.7764C171.674 90.0265 171.769 90.2652 171.908 90.4783C171.942 90.5304 171.978 90.5808 172.017 90.6294L178.947 99.2459C179.126 99.4689 179.354 99.6489 179.613 99.7726C179.872 99.8963 180.156 99.9605 180.444 99.9604L191.557 99.9579C191.845 99.9581 192.129 99.8941 192.388 99.7706C192.647 99.6471 192.875 99.4674 193.054 99.2446L199.982 90.6268C200.161 90.4037 200.288 90.1434 200.352 89.8652C200.416 89.587 200.416 89.298 200.352 89.0198L197.878 78.2737C197.814 77.9956 197.688 77.7354 197.508 77.5124C197.329 77.2894 197.101 77.1093 196.842 76.9855L186.829 72.2041C186.54 72.0661 186.22 72.0023 185.9 72.0185Z" fill="#326CE5"/>
<path d="M186 75.6755C185.669 75.6755 185.4 75.9737 185.4 76.3414C185.4 76.347 185.401 76.3524 185.402 76.358C185.401 76.408 185.399 76.4682 185.4 76.5117C185.408 76.7238 185.454 76.8861 185.482 77.0815C185.533 77.4997 185.575 77.8464 185.549 78.1687C185.523 78.2902 185.434 78.4013 185.354 78.4785L185.34 78.7321C184.98 78.7619 184.618 78.8164 184.257 78.8986C182.701 79.2519 181.361 80.0534 180.341 81.1356C180.275 81.0905 180.159 81.0074 180.125 80.9819C180.018 80.9964 179.909 81.0294 179.769 80.9474C179.5 80.7668 179.256 80.5177 178.961 80.2175C178.825 80.0739 178.727 79.9372 178.566 79.7988C178.53 79.7673 178.474 79.7248 178.433 79.6925C178.307 79.5922 178.159 79.5399 178.016 79.535C177.831 79.5287 177.654 79.6007 177.538 79.7463C177.332 80.005 177.398 80.4006 177.685 80.6298C177.688 80.6321 177.691 80.6339 177.694 80.6362C177.734 80.6682 177.782 80.7093 177.818 80.7361C177.989 80.8622 178.145 80.9267 178.315 81.0268C178.674 81.2481 178.971 81.4316 179.206 81.6529C179.298 81.751 179.315 81.9239 179.327 81.9987L179.519 82.1703C178.491 83.7177 178.015 85.629 178.296 87.5766L178.045 87.6496C177.979 87.735 177.885 87.8694 177.788 87.9095C177.479 88.0066 177.132 88.0423 176.713 88.0862C176.517 88.1026 176.347 88.0928 176.138 88.1323C176.092 88.141 176.028 88.1577 175.978 88.1694C175.977 88.1698 175.975 88.1703 175.973 88.1707C175.97 88.1714 175.967 88.1727 175.964 88.1733C175.611 88.2586 175.384 88.5833 175.457 88.9032C175.53 89.2231 175.875 89.4177 176.231 89.3411C176.233 89.3405 176.237 89.3404 176.239 89.3398C176.243 89.3389 176.247 89.337 176.251 89.336C176.301 89.3251 176.363 89.313 176.406 89.3014C176.611 89.2465 176.759 89.1659 176.944 89.0952C177.34 88.953 177.669 88.8342 177.989 88.7879C178.122 88.7775 178.263 88.8704 178.333 88.9096L178.594 88.8648C179.195 90.7285 180.455 92.2349 182.05 93.1801L181.942 93.4413C181.981 93.5427 182.024 93.68 181.995 93.7801C181.879 94.0818 181.679 94.4002 181.452 94.7551C181.343 94.9191 181.23 95.0463 181.131 95.234C181.107 95.2789 181.077 95.3479 181.054 95.3954C180.9 95.7249 181.013 96.1045 181.309 96.2469C181.607 96.3902 181.976 96.239 182.136 95.9088C182.136 95.9084 182.137 95.908 182.138 95.9076C182.138 95.9072 182.137 95.9066 182.138 95.9063C182.16 95.8595 182.193 95.7979 182.212 95.7539C182.297 95.5594 182.325 95.3927 182.385 95.2046C182.543 94.8063 182.63 94.3884 182.849 94.1279C182.908 94.0566 183.006 94.0292 183.107 94.0022L183.243 93.7563C184.633 94.2901 186.19 94.4333 187.745 94.0803C188.1 93.9997 188.442 93.8955 188.773 93.7704C188.811 93.8381 188.882 93.9681 188.901 94.0009C189.004 94.0343 189.116 94.0515 189.207 94.1866C189.371 94.4656 189.482 94.7956 189.618 95.1943C189.678 95.3824 189.707 95.5491 189.792 95.7437C189.812 95.788 189.844 95.8504 189.867 95.8973C190.026 96.2286 190.397 96.3803 190.695 96.2366C190.991 96.0941 191.104 95.7146 190.95 95.3851C190.927 95.3377 190.896 95.2687 190.872 95.2238C190.773 95.0361 190.66 94.9101 190.55 94.7461C190.324 94.3912 190.135 94.0963 190.019 93.7947C189.97 93.6392 190.027 93.5424 190.065 93.4413C190.042 93.4153 189.994 93.2684 189.965 93.1993C191.623 92.2204 192.846 90.6579 193.42 88.8532C193.498 88.8654 193.632 88.8893 193.676 88.8981C193.766 88.8386 193.849 88.761 194.012 88.7738C194.332 88.8201 194.66 88.939 195.057 89.0812C195.241 89.1518 195.389 89.2337 195.594 89.2886C195.638 89.3002 195.7 89.311 195.749 89.3219C195.753 89.3229 195.757 89.3248 195.761 89.3257C195.764 89.3263 195.767 89.3264 195.77 89.327C196.125 89.4035 196.47 89.2091 196.543 88.8891C196.616 88.5692 196.389 88.2444 196.036 88.1592C195.985 88.1475 195.912 88.1277 195.862 88.1182C195.653 88.0787 195.484 88.0885 195.287 88.0721C194.868 88.0282 194.521 87.9925 194.213 87.8954C194.087 87.8466 193.998 87.697 193.954 87.6355L193.712 87.565C193.838 86.6572 193.804 85.7124 193.587 84.7671C193.367 83.813 192.98 82.9404 192.464 82.1715C192.526 82.1151 192.643 82.0113 192.676 81.9807C192.686 81.8732 192.677 81.7605 192.789 81.6414C193.024 81.4201 193.322 81.2366 193.68 81.0152C193.85 80.9152 194.007 80.8506 194.178 80.7246C194.217 80.6961 194.269 80.6509 194.31 80.6183C194.597 80.389 194.664 79.9935 194.457 79.7347C194.251 79.476 193.851 79.4516 193.563 79.6809C193.523 79.7134 193.467 79.7556 193.43 79.7872C193.269 79.9256 193.17 80.0624 193.035 80.206C192.739 80.5061 192.495 80.7566 192.227 80.9371C192.11 81.0048 191.94 80.9814 191.863 80.9768L191.635 81.1394C190.335 79.7766 188.566 78.9052 186.66 78.7359C186.655 78.6561 186.648 78.5117 186.646 78.4683C186.568 78.3937 186.474 78.3299 186.45 78.1687C186.424 77.8464 186.468 77.4997 186.518 77.0815C186.546 76.8861 186.592 76.7238 186.6 76.5117C186.602 76.4635 186.599 76.3935 186.599 76.3414C186.599 75.9737 186.33 75.6755 186 75.6755ZM185.249 80.3238L185.071 83.4674L185.058 83.4738C185.046 83.755 184.815 83.9796 184.531 83.9796C184.414 83.9796 184.307 83.9422 184.22 83.8785L184.214 83.881L181.637 82.0537C182.429 81.2747 183.442 80.699 184.61 80.4339C184.823 80.3854 185.037 80.3495 185.249 80.3238ZM186.751 80.3238C188.115 80.4914 189.376 81.1088 190.342 82.055L187.781 83.8708L187.772 83.8669C187.544 84.033 187.224 83.9918 187.047 83.7696C186.974 83.6786 186.936 83.5716 186.932 83.4636L186.929 83.4623L186.751 80.3238ZM180.702 83.228L183.056 85.3331L183.053 85.3459C183.266 85.5306 183.297 85.8511 183.12 86.0732C183.047 86.1643 182.95 86.2253 182.846 86.2538L182.843 86.264L179.826 87.1348C179.673 85.7307 180.004 84.3659 180.702 83.228ZM191.28 83.2292C191.63 83.796 191.895 84.4291 192.052 85.1154C192.208 85.7935 192.247 86.4704 192.183 87.1245L189.151 86.2512L189.148 86.2384C188.877 86.1642 188.71 85.888 188.773 85.611C188.799 85.4975 188.859 85.4015 188.941 85.3305L188.94 85.3241L191.28 83.2292ZM185.517 85.4957H186.481L187.08 86.2448L186.865 87.1796L186 87.5958L185.131 87.1783L184.916 86.2436L185.517 85.4957ZM188.608 88.0593C188.649 88.0572 188.69 88.0609 188.73 88.0683L188.735 88.0619L191.855 88.5894C191.399 89.8725 190.525 90.9841 189.357 91.728L188.146 88.802L188.149 88.7969C188.038 88.5383 188.15 88.2351 188.406 88.1118C188.471 88.0802 188.54 88.0628 188.608 88.0593ZM183.367 88.0721C183.605 88.0755 183.819 88.2407 183.874 88.4832C183.9 88.5966 183.887 88.7091 183.844 88.8084L183.853 88.8199L182.655 91.7164C181.534 90.9974 180.642 89.9207 180.164 88.5997L183.258 88.0747L183.263 88.0811C183.298 88.0747 183.333 88.0716 183.367 88.0721ZM185.98 89.3411C186.063 89.3381 186.147 89.3551 186.227 89.3936C186.332 89.4441 186.413 89.5236 186.464 89.619H186.476L188.001 92.3746C187.803 92.441 187.6 92.4977 187.391 92.5449C186.225 92.8098 185.062 92.7295 184.01 92.3708L185.531 89.6203H185.533C185.625 89.4496 185.798 89.3478 185.98 89.3411Z" fill="white" stroke="white" stroke-width="0.36"/>
<path d="M211.622 87.723L211.27 86.227L215.164 82.3H217.166L211.622 87.723ZM210.379 90V82.3H212.029V90H210.379ZM215.373 90L212.491 86.172L213.624 85.193L217.331 90H215.373ZM221.295 90.033C220.781 90.033 220.316 89.934 219.898 89.736C219.48 89.5307 219.146 89.2557 218.897 88.911C218.647 88.5663 218.523 88.185 218.523 87.767C218.523 87.4957 218.556 87.25 218.622 87.03C218.695 86.81 218.801 86.612 218.941 86.436C219.087 86.26 219.263 86.106 219.469 85.974C219.674 85.842 219.912 85.7283 220.184 85.633L220.074 86.018C219.868 85.9373 219.685 85.842 219.524 85.732C219.362 85.6147 219.223 85.4827 219.106 85.336C218.996 85.1893 218.908 85.0317 218.842 84.863C218.783 84.687 218.754 84.5037 218.754 84.313C218.754 83.917 218.867 83.5613 219.095 83.246C219.322 82.9307 219.626 82.6813 220.008 82.498C220.389 82.3073 220.818 82.212 221.295 82.212C221.764 82.212 222.189 82.3073 222.571 82.498C222.952 82.6813 223.256 82.9307 223.484 83.246C223.711 83.5613 223.825 83.917 223.825 84.313C223.825 84.5037 223.795 84.687 223.737 84.863C223.678 85.0317 223.594 85.1857 223.484 85.325C223.374 85.4643 223.234 85.5927 223.066 85.71C222.904 85.8273 222.714 85.93 222.494 86.018L222.428 85.677C222.67 85.7503 222.89 85.853 223.088 85.985C223.293 86.1097 223.465 86.2637 223.605 86.447C223.751 86.623 223.865 86.821 223.946 87.041C224.026 87.261 224.067 87.503 224.067 87.767C224.067 88.1923 223.942 88.5773 223.693 88.922C223.443 89.2667 223.11 89.538 222.692 89.736C222.274 89.934 221.808 90.033 221.295 90.033ZM221.295 88.68C221.515 88.68 221.716 88.636 221.9 88.548C222.083 88.46 222.226 88.3427 222.329 88.196C222.431 88.042 222.483 87.866 222.483 87.668C222.483 87.4627 222.431 87.283 222.329 87.129C222.226 86.9677 222.083 86.8393 221.9 86.744C221.724 86.6487 221.522 86.601 221.295 86.601C221.067 86.601 220.862 86.6487 220.679 86.744C220.503 86.8393 220.363 86.9677 220.261 87.129C220.158 87.283 220.107 87.4627 220.107 87.668C220.107 87.8587 220.158 88.031 220.261 88.185C220.363 88.3317 220.503 88.4527 220.679 88.548C220.862 88.636 221.067 88.68 221.295 88.68ZM221.295 85.259C221.493 85.259 221.669 85.2223 221.823 85.149C221.977 85.0683 222.098 84.9657 222.186 84.841C222.281 84.709 222.329 84.555 222.329 84.379C222.329 84.2103 222.281 84.06 222.186 83.928C222.098 83.7887 221.977 83.6787 221.823 83.598C221.669 83.5173 221.493 83.477 221.295 83.477C221.097 83.477 220.917 83.5173 220.756 83.598C220.602 83.6787 220.477 83.7887 220.382 83.928C220.294 84.06 220.25 84.2103 220.25 84.379C220.25 84.555 220.294 84.709 220.382 84.841C220.477 84.9657 220.602 85.0683 220.756 85.149C220.917 85.2223 221.097 85.259 221.295 85.259ZM228.597 90.11C228.12 90.11 227.684 90.0513 227.288 89.934C226.899 89.8167 226.551 89.6443 226.243 89.417C225.942 89.1897 225.671 88.9147 225.429 88.592L226.463 87.415C226.822 87.9137 227.178 88.2547 227.53 88.438C227.889 88.614 228.278 88.702 228.696 88.702C228.923 88.702 229.125 88.6727 229.301 88.614C229.484 88.548 229.627 88.4563 229.73 88.339C229.832 88.2217 229.884 88.0823 229.884 87.921C229.884 87.8037 229.858 87.6973 229.807 87.602C229.755 87.4993 229.682 87.4113 229.587 87.338C229.491 87.2573 229.378 87.1877 229.246 87.129C229.114 87.063 228.967 87.008 228.806 86.964C228.644 86.9127 228.468 86.8723 228.278 86.843C227.867 86.7477 227.508 86.634 227.2 86.502C226.892 86.3627 226.635 86.194 226.43 85.996C226.224 85.7907 226.07 85.5597 225.968 85.303C225.872 85.0463 225.825 84.7567 225.825 84.434C225.825 84.104 225.898 83.7997 226.045 83.521C226.191 83.235 226.393 82.9893 226.65 82.784C226.914 82.5787 227.214 82.421 227.552 82.311C227.896 82.201 228.259 82.146 228.641 82.146C229.11 82.146 229.521 82.201 229.873 82.311C230.225 82.4137 230.529 82.564 230.786 82.762C231.05 82.96 231.27 83.202 231.446 83.488L230.401 84.5C230.247 84.2947 230.078 84.1223 229.895 83.983C229.719 83.8437 229.524 83.741 229.312 83.675C229.106 83.6017 228.894 83.565 228.674 83.565C228.432 83.565 228.223 83.598 228.047 83.664C227.871 83.7227 227.731 83.8107 227.629 83.928C227.533 84.0453 227.486 84.1883 227.486 84.357C227.486 84.489 227.519 84.6063 227.585 84.709C227.651 84.8117 227.746 84.9033 227.871 84.984C227.995 85.0573 228.146 85.1233 228.322 85.182C228.498 85.2407 228.692 85.292 228.905 85.336C229.308 85.4167 229.671 85.523 229.994 85.655C230.316 85.787 230.591 85.9483 230.819 86.139C231.053 86.3223 231.233 86.5423 231.358 86.799C231.482 87.0483 231.545 87.3307 231.545 87.646C231.545 88.1667 231.42 88.6103 231.171 88.977C230.921 89.3437 230.577 89.626 230.137 89.824C229.697 90.0147 229.183 90.11 228.597 90.11ZM240.889 90.11C240.324 90.11 239.804 90.0147 239.327 89.824C238.858 89.626 238.447 89.351 238.095 88.999C237.75 88.6397 237.483 88.218 237.292 87.734C237.101 87.2427 237.006 86.7073 237.006 86.128C237.006 85.5633 237.105 85.0427 237.303 84.566C237.501 84.082 237.78 83.664 238.139 83.312C238.498 82.9527 238.92 82.674 239.404 82.476C239.888 82.278 240.412 82.179 240.977 82.179C241.344 82.179 241.703 82.2303 242.055 82.333C242.414 82.4283 242.741 82.5713 243.034 82.762C243.335 82.9527 243.591 83.18 243.804 83.444L242.77 84.588C242.594 84.412 242.411 84.2617 242.22 84.137C242.037 84.005 241.839 83.906 241.626 83.84C241.421 83.7667 241.201 83.73 240.966 83.73C240.651 83.73 240.354 83.7887 240.075 83.906C239.804 84.0233 239.565 84.1883 239.36 84.401C239.155 84.6063 238.99 84.8593 238.865 85.16C238.748 85.4533 238.689 85.7797 238.689 86.139C238.689 86.5057 238.748 86.8393 238.865 87.14C238.982 87.4333 239.147 87.6863 239.36 87.899C239.573 88.1043 239.826 88.2657 240.119 88.383C240.42 88.493 240.75 88.548 241.109 88.548C241.344 88.548 241.571 88.515 241.791 88.449C242.011 88.383 242.213 88.2913 242.396 88.174C242.587 88.0567 242.755 87.921 242.902 87.767L243.705 89.054C243.529 89.252 243.291 89.4317 242.99 89.593C242.697 89.7543 242.367 89.8827 242 89.978C241.633 90.066 241.263 90.11 240.889 90.11ZM245.646 90V82.3H247.296V88.515H250.783V90H245.646ZM255.82 90.066C255.197 90.066 254.639 89.9377 254.148 89.681C253.664 89.417 253.283 89.0577 253.004 88.603C252.725 88.141 252.586 87.6203 252.586 87.041V82.289H254.247V86.942C254.247 87.25 254.317 87.5287 254.456 87.778C254.595 88.02 254.782 88.2143 255.017 88.361C255.259 88.5077 255.527 88.581 255.82 88.581C256.121 88.581 256.392 88.5077 256.634 88.361C256.883 88.2143 257.078 88.02 257.217 87.778C257.364 87.5287 257.437 87.25 257.437 86.942V82.289H259.043V87.041C259.043 87.6203 258.904 88.141 258.625 88.603C258.346 89.0577 257.961 89.417 257.47 89.681C256.986 89.9377 256.436 90.066 255.82 90.066ZM263.917 90.11C263.44 90.11 263.004 90.0513 262.608 89.934C262.219 89.8167 261.871 89.6443 261.563 89.417C261.262 89.1897 260.991 88.9147 260.749 88.592L261.783 87.415C262.142 87.9137 262.498 88.2547 262.85 88.438C263.209 88.614 263.598 88.702 264.016 88.702C264.243 88.702 264.445 88.6727 264.621 88.614C264.804 88.548 264.947 88.4563 265.05 88.339C265.153 88.2217 265.204 88.0823 265.204 87.921C265.204 87.8037 265.178 87.6973 265.127 87.602C265.076 87.4993 265.002 87.4113 264.907 87.338C264.812 87.2573 264.698 87.1877 264.566 87.129C264.434 87.063 264.287 87.008 264.126 86.964C263.965 86.9127 263.789 86.8723 263.598 86.843C263.187 86.7477 262.828 86.634 262.52 86.502C262.212 86.3627 261.955 86.194 261.75 85.996C261.545 85.7907 261.391 85.5597 261.288 85.303C261.193 85.0463 261.145 84.7567 261.145 84.434C261.145 84.104 261.218 83.7997 261.365 83.521C261.512 83.235 261.713 82.9893 261.97 82.784C262.234 82.5787 262.535 82.421 262.872 82.311C263.217 82.201 263.58 82.146 263.961 82.146C264.43 82.146 264.841 82.201 265.193 82.311C265.545 82.4137 265.849 82.564 266.106 82.762C266.37 82.96 266.59 83.202 266.766 83.488L265.721 84.5C265.567 84.2947 265.398 84.1223 265.215 83.983C265.039 83.8437 264.845 83.741 264.632 83.675C264.427 83.6017 264.214 83.565 263.994 83.565C263.752 83.565 263.543 83.598 263.367 83.664C263.191 83.7227 263.052 83.8107 262.949 83.928C262.854 84.0453 262.806 84.1883 262.806 84.357C262.806 84.489 262.839 84.6063 262.905 84.709C262.971 84.8117 263.066 84.9033 263.191 84.984C263.316 85.0573 263.466 85.1233 263.642 85.182C263.818 85.2407 264.012 85.292 264.225 85.336C264.628 85.4167 264.991 85.523 265.314 85.655C265.637 85.787 265.912 85.9483 266.139 86.139C266.374 86.3223 266.553 86.5423 266.678 86.799C266.803 87.0483 266.865 87.3307 266.865 87.646C266.865 88.1667 266.74 88.6103 266.491 88.977C266.242 89.3437 265.897 89.626 265.457 89.824C265.017 90.0147 264.504 90.11 263.917 90.11ZM270.515 90V83.785H268.271V82.3H274.475V83.785H272.165V90H270.515ZM276.388 90V82.3H281.591V83.752H277.994V88.548H281.668V90H276.388ZM277.158 86.777V85.369H281.063V86.777H277.158ZM283.92 90V82.3H287.33C287.807 82.3 288.24 82.41 288.628 82.63C289.017 82.8427 289.321 83.1323 289.541 83.499C289.769 83.8657 289.882 84.2837 289.882 84.753C289.882 85.215 289.769 85.6367 289.541 86.018C289.321 86.392 289.017 86.689 288.628 86.909C288.24 87.129 287.807 87.239 287.33 87.239H285.515V90H283.92ZM288.287 90L286.329 86.524L288.023 86.249L290.201 90.011L288.287 90ZM285.515 85.897H287.253C287.451 85.897 287.624 85.853 287.77 85.765C287.924 85.6697 288.042 85.5413 288.122 85.38C288.203 85.2113 288.243 85.0243 288.243 84.819C288.243 84.599 288.196 84.4083 288.1 84.247C288.005 84.0857 287.866 83.961 287.682 83.873C287.499 83.7777 287.286 83.73 287.044 83.73H285.515V85.897Z" fill="black"/>
<circle cx="466.245" cy="177.798" r="6" fill="black"/>
<path d="M464.179 180.798V180.15C464.599 179.826 464.998 179.499 465.376 179.169C465.754 178.839 466.09 178.512 466.384 178.188C466.684 177.858 466.918 177.537 467.086 177.225C467.254 176.907 467.338 176.604 467.338 176.316C467.338 176.112 467.302 175.923 467.23 175.749C467.158 175.575 467.044 175.434 466.888 175.326C466.732 175.212 466.519 175.155 466.249 175.155C465.991 175.155 465.775 175.212 465.601 175.326C465.433 175.44 465.304 175.593 465.214 175.785C465.13 175.971 465.088 176.178 465.088 176.406H464.215C464.221 175.974 464.314 175.608 464.494 175.308C464.674 175.008 464.917 174.78 465.223 174.624C465.535 174.468 465.883 174.39 466.267 174.39C466.669 174.39 467.017 174.465 467.311 174.615C467.605 174.759 467.833 174.972 467.995 175.254C468.157 175.53 468.238 175.869 468.238 176.271C468.238 176.559 468.181 176.847 468.067 177.135C467.953 177.417 467.797 177.693 467.599 177.963C467.407 178.233 467.191 178.494 466.951 178.746C466.711 178.992 466.462 179.226 466.204 179.448C465.952 179.67 465.709 179.871 465.475 180.051H468.436V180.798H464.179Z" fill="white"/>
<path d="M482.675 181.798V174.382H480.191V173.398H486.371V174.382H483.875V181.798H482.675ZM486.881 181.798V175.75H487.961L488.069 176.89C488.205 176.618 488.381 176.39 488.597 176.206C488.813 176.014 489.065 175.866 489.353 175.762C489.649 175.658 489.985 175.606 490.361 175.606V176.878H489.929C489.681 176.878 489.445 176.91 489.221 176.974C488.997 177.03 488.797 177.13 488.621 177.274C488.453 177.418 488.321 177.614 488.225 177.862C488.129 178.11 488.081 178.418 488.081 178.786V181.798H486.881ZM493.467 181.942C492.971 181.942 492.559 181.858 492.231 181.69C491.903 181.522 491.659 181.298 491.499 181.018C491.339 180.73 491.259 180.422 491.259 180.094C491.259 179.694 491.363 179.354 491.571 179.074C491.779 178.786 492.075 178.566 492.459 178.414C492.843 178.262 493.303 178.186 493.839 178.186H495.411C495.411 177.834 495.359 177.542 495.255 177.31C495.151 177.078 494.995 176.906 494.787 176.794C494.587 176.674 494.331 176.614 494.019 176.614C493.659 176.614 493.351 176.702 493.095 176.878C492.839 177.046 492.679 177.298 492.615 177.634H491.415C491.463 177.21 491.607 176.85 491.847 176.554C492.095 176.25 492.411 176.018 492.795 175.858C493.179 175.69 493.587 175.606 494.019 175.606C494.587 175.606 495.063 175.706 495.447 175.906C495.831 176.106 496.119 176.39 496.311 176.758C496.511 177.118 496.611 177.55 496.611 178.054V181.798H495.567L495.471 180.778C495.383 180.938 495.279 181.09 495.159 181.234C495.039 181.378 494.895 181.502 494.727 181.606C494.567 181.71 494.379 181.79 494.163 181.846C493.955 181.91 493.723 181.942 493.467 181.942ZM493.695 180.97C493.951 180.97 494.183 180.918 494.391 180.814C494.599 180.71 494.775 180.57 494.919 180.394C495.071 180.21 495.183 180.006 495.255 179.782C495.335 179.55 495.379 179.314 495.387 179.074V179.038H493.959C493.615 179.038 493.335 179.082 493.119 179.17C492.911 179.25 492.759 179.362 492.663 179.506C492.567 179.65 492.519 179.818 492.519 180.01C492.519 180.21 492.563 180.382 492.651 180.526C492.747 180.662 492.883 180.77 493.059 180.85C493.235 180.93 493.447 180.97 493.695 180.97ZM498.143 181.798V175.75H499.223L499.295 176.782C499.487 176.422 499.759 176.138 500.111 175.93C500.463 175.714 500.867 175.606 501.323 175.606C501.803 175.606 502.215 175.702 502.559 175.894C502.903 176.086 503.171 176.378 503.363 176.77C503.555 177.154 503.651 177.638 503.651 178.222V181.798H502.451V178.342C502.451 177.782 502.327 177.358 502.079 177.07C501.831 176.782 501.471 176.638 500.999 176.638C500.687 176.638 500.407 176.714 500.159 176.866C499.911 177.01 499.711 177.226 499.559 177.514C499.415 177.802 499.343 178.154 499.343 178.57V181.798H498.143ZM507.526 181.942C507.014 181.942 506.566 181.858 506.182 181.69C505.798 181.522 505.494 181.286 505.27 180.982C505.046 180.678 504.91 180.322 504.862 179.914H506.086C506.126 180.106 506.202 180.282 506.314 180.442C506.434 180.602 506.594 180.73 506.794 180.826C507.002 180.922 507.246 180.97 507.526 180.97C507.79 180.97 508.006 180.934 508.174 180.862C508.35 180.782 508.478 180.678 508.558 180.55C508.638 180.414 508.678 180.27 508.678 180.118C508.678 179.894 508.622 179.726 508.51 179.614C508.406 179.494 508.246 179.402 508.03 179.338C507.822 179.266 507.57 179.202 507.274 179.146C506.994 179.098 506.722 179.034 506.458 178.954C506.202 178.866 505.97 178.758 505.762 178.63C505.562 178.502 505.402 178.342 505.282 178.15C505.162 177.95 505.102 177.706 505.102 177.418C505.102 177.074 505.194 176.766 505.378 176.494C505.562 176.214 505.822 175.998 506.158 175.846C506.502 175.686 506.906 175.606 507.37 175.606C508.042 175.606 508.582 175.766 508.99 176.086C509.398 176.406 509.638 176.858 509.71 177.442H508.546C508.514 177.17 508.394 176.962 508.186 176.818C507.978 176.666 507.702 176.59 507.358 176.59C507.014 176.59 506.75 176.658 506.566 176.794C506.382 176.93 506.29 177.11 506.29 177.334C506.29 177.478 506.342 177.606 506.446 177.718C506.55 177.83 506.702 177.926 506.902 178.006C507.11 178.078 507.362 178.146 507.658 178.21C508.082 178.29 508.462 178.39 508.798 178.51C509.134 178.63 509.402 178.806 509.602 179.038C509.802 179.27 509.902 179.602 509.902 180.034C509.91 180.41 509.814 180.742 509.614 181.03C509.422 181.318 509.146 181.542 508.786 181.702C508.434 181.862 508.014 181.942 507.526 181.942ZM511.639 181.798V174.934C511.639 174.518 511.707 174.178 511.843 173.914C511.987 173.65 512.195 173.458 512.467 173.338C512.739 173.218 513.067 173.158 513.451 173.158H514.159V174.178H513.643C513.355 174.178 513.147 174.238 513.019 174.358C512.899 174.47 512.839 174.67 512.839 174.958V181.798H511.639ZM510.751 176.77V175.75H514.291V176.77H510.751ZM518.036 181.942C517.468 181.942 516.956 181.81 516.5 181.546C516.052 181.282 515.696 180.914 515.432 180.442C515.176 179.962 515.048 179.41 515.048 178.786C515.048 178.146 515.18 177.59 515.444 177.118C515.708 176.638 516.068 176.266 516.524 176.002C516.98 175.738 517.492 175.606 518.06 175.606C518.636 175.606 519.148 175.738 519.596 176.002C520.044 176.266 520.396 176.634 520.652 177.106C520.916 177.578 521.048 178.134 521.048 178.774C521.048 179.414 520.916 179.97 520.652 180.442C520.396 180.914 520.04 181.282 519.584 181.546C519.128 181.81 518.612 181.942 518.036 181.942ZM518.036 180.91C518.364 180.91 518.66 180.83 518.924 180.67C519.196 180.51 519.412 180.274 519.572 179.962C519.74 179.642 519.824 179.246 519.824 178.774C519.824 178.302 519.744 177.91 519.584 177.598C519.424 177.278 519.208 177.038 518.936 176.878C518.672 176.718 518.38 176.638 518.06 176.638C517.74 176.638 517.444 176.718 517.172 176.878C516.9 177.038 516.68 177.278 516.512 177.598C516.352 177.91 516.272 178.302 516.272 178.774C516.272 179.246 516.352 179.642 516.512 179.962C516.68 180.274 516.896 180.51 517.16 180.67C517.432 180.83 517.724 180.91 518.036 180.91ZM522.46 181.798V175.75H523.54L523.648 176.89C523.784 176.618 523.96 176.39 524.176 176.206C524.392 176.014 524.644 175.866 524.932 175.762C525.228 175.658 525.564 175.606 525.94 175.606V176.878H525.508C525.26 176.878 525.024 176.91 524.8 176.974C524.576 177.03 524.376 177.13 524.2 177.274C524.032 177.418 523.9 177.614 523.804 177.862C523.708 178.11 523.66 178.418 523.66 178.786V181.798H522.46ZM527.042 181.798V175.75H528.122L528.206 176.602C528.398 176.29 528.654 176.046 528.974 175.87C529.294 175.694 529.654 175.606 530.054 175.606C530.358 175.606 530.634 175.65 530.882 175.738C531.13 175.818 531.35 175.942 531.542 176.11C531.734 176.278 531.89 176.486 532.01 176.734C532.226 176.382 532.514 176.106 532.874 175.906C533.242 175.706 533.63 175.606 534.038 175.606C534.526 175.606 534.946 175.706 535.298 175.906C535.65 176.098 535.918 176.39 536.102 176.782C536.286 177.166 536.378 177.646 536.378 178.222V181.798H535.19V178.342C535.19 177.782 535.074 177.358 534.842 177.07C534.618 176.782 534.286 176.638 533.846 176.638C533.55 176.638 533.286 176.714 533.054 176.866C532.822 177.018 532.638 177.238 532.502 177.526C532.374 177.814 532.31 178.166 532.31 178.582V181.798H531.11V178.342C531.11 177.782 530.994 177.358 530.762 177.07C530.538 176.782 530.206 176.638 529.766 176.638C529.486 176.638 529.23 176.714 528.998 176.866C528.766 177.018 528.582 177.238 528.446 177.526C528.31 177.814 528.242 178.166 528.242 178.582V181.798H527.042ZM540.268 181.942C539.756 181.942 539.308 181.858 538.924 181.69C538.54 181.522 538.236 181.286 538.012 180.982C537.788 180.678 537.652 180.322 537.604 179.914H538.828C538.868 180.106 538.944 180.282 539.056 180.442C539.176 180.602 539.336 180.73 539.536 180.826C539.744 180.922 539.988 180.97 540.268 180.97C540.532 180.97 540.748 180.934 540.916 180.862C541.092 180.782 541.22 180.678 541.3 180.55C541.38 180.414 541.42 180.27 541.42 180.118C541.42 179.894 541.364 179.726 541.252 179.614C541.148 179.494 540.988 179.402 540.772 179.338C540.564 179.266 540.312 179.202 540.016 179.146C539.736 179.098 539.464 179.034 539.2 178.954C538.944 178.866 538.712 178.758 538.504 178.63C538.304 178.502 538.144 178.342 538.024 178.15C537.904 177.95 537.844 177.706 537.844 177.418C537.844 177.074 537.936 176.766 538.12 176.494C538.304 176.214 538.564 175.998 538.9 175.846C539.244 175.686 539.648 175.606 540.112 175.606C540.784 175.606 541.324 175.766 541.732 176.086C542.14 176.406 542.38 176.858 542.452 177.442H541.288C541.256 177.17 541.136 176.962 540.928 176.818C540.72 176.666 540.444 176.59 540.1 176.59C539.756 176.59 539.492 176.658 539.308 176.794C539.124 176.93 539.032 177.11 539.032 177.334C539.032 177.478 539.084 177.606 539.188 177.718C539.292 177.83 539.444 177.926 539.644 178.006C539.852 178.078 540.104 178.146 540.4 178.21C540.824 178.29 541.204 178.39 541.54 178.51C541.876 178.63 542.144 178.806 542.344 179.038C542.544 179.27 542.644 179.602 542.644 180.034C542.652 180.41 542.556 180.742 542.356 181.03C542.164 181.318 541.888 181.542 541.528 181.702C541.176 181.862 540.756 181.942 540.268 181.942Z" fill="#424141"/>
<path d="M605.489 200.202L597.981 204.517L597.998 195.857L605.489 200.202ZM398.001 199.048L598.741 199.439L598.738 200.939L397.999 200.548L398.001 199.048Z" fill="#576265"/>
<rect x="612.489" y="40" width="320" height="320" rx="160" fill="#F5F5F5"/>
<rect x="612.489" y="40" width="320" height="320" rx="160" stroke="#858585" stroke-width="0.886003" stroke-linecap="round" stroke-dasharray="0.1 3"/>
<rect x="638.489" y="120" width="268" height="160" rx="80" fill="white"/>
<rect x="662.739" y="170.25" width="59.5" height="59.5" rx="29.75" stroke="black" stroke-width="0.5" stroke-dasharray="1 1"/>
<path d="M691.29 196L692.29 190.5H689.415C689.22 190.5 689.092 190.448 689.03 190.344C688.967 190.24 688.977 190.105 689.061 189.938L693.29 182H694.29L693.79 187.5H696.165C696.345 187.5 696.47 187.549 696.54 187.646C696.609 187.743 696.595 187.882 696.498 188.062L692.29 196H691.29Z" fill="black" fill-opacity="0.6"/>
<path d="M674.439 211L677.523 202.6H678.831L681.915 211H680.631L678.171 204.04L675.699 211H674.439ZM675.831 208.924L676.167 207.964H680.115L680.451 208.924H675.831ZM685.531 211.144C684.947 211.144 684.427 211.012 683.971 210.748C683.515 210.476 683.155 210.104 682.891 209.632C682.635 209.16 682.507 208.612 682.507 207.988C682.507 207.356 682.635 206.804 682.891 206.332C683.155 205.852 683.515 205.48 683.971 205.216C684.427 204.944 684.947 204.808 685.531 204.808C686.267 204.808 686.883 205 687.379 205.384C687.875 205.768 688.191 206.288 688.327 206.944H687.079C686.999 206.592 686.815 206.32 686.527 206.128C686.247 205.936 685.911 205.84 685.519 205.84C685.199 205.84 684.903 205.924 684.631 206.092C684.359 206.252 684.139 206.492 683.971 206.812C683.811 207.124 683.731 207.512 683.731 207.976C683.731 208.32 683.779 208.628 683.875 208.9C683.971 209.164 684.099 209.388 684.259 209.572C684.427 209.756 684.619 209.896 684.835 209.992C685.051 210.08 685.279 210.124 685.519 210.124C685.783 210.124 686.019 210.084 686.227 210.004C686.443 209.916 686.623 209.788 686.767 209.62C686.919 209.452 687.023 209.252 687.079 209.02H688.327C688.191 209.66 687.875 210.176 687.379 210.568C686.883 210.952 686.267 211.144 685.531 211.144ZM692.086 211C691.71 211 691.382 210.94 691.102 210.82C690.822 210.7 690.606 210.5 690.454 210.22C690.302 209.94 690.226 209.56 690.226 209.08V205.972H689.182V204.952H690.226L690.37 203.44H691.426V204.952H693.142V205.972H691.426V209.092C691.426 209.436 691.498 209.672 691.642 209.8C691.786 209.92 692.034 209.98 692.386 209.98H693.082V211H692.086ZM694.55 211V204.952H695.75V211H694.55ZM695.162 203.812C694.93 203.812 694.738 203.74 694.586 203.596C694.442 203.452 694.37 203.268 694.37 203.044C694.37 202.828 694.442 202.652 694.586 202.516C694.738 202.372 694.93 202.3 695.162 202.3C695.386 202.3 695.574 202.372 695.726 202.516C695.878 202.652 695.954 202.828 695.954 203.044C695.954 203.268 695.878 203.452 695.726 203.596C695.574 203.74 695.386 203.812 695.162 203.812ZM700.226 211.144C699.658 211.144 699.146 211.012 698.69 210.748C698.242 210.484 697.886 210.116 697.622 209.644C697.366 209.164 697.238 208.612 697.238 207.988C697.238 207.348 697.37 206.792 697.634 206.32C697.898 205.84 698.258 205.468 698.714 205.204C699.17 204.94 699.682 204.808 700.25 204.808C700.826 204.808 701.338 204.94 701.786 205.204C702.234 205.468 702.586 205.836 702.842 206.308C703.106 206.78 703.238 207.336 703.238 207.976C703.238 208.616 703.106 209.172 702.842 209.644C702.586 210.116 702.23 210.484 701.774 210.748C701.318 211.012 700.802 211.144 700.226 211.144ZM700.226 210.112C700.554 210.112 700.85 210.032 701.114 209.872C701.386 209.712 701.602 209.476 701.762 209.164C701.93 208.844 702.014 208.448 702.014 207.976C702.014 207.504 701.934 207.112 701.774 206.8C701.614 206.48 701.398 206.24 701.126 206.08C700.862 205.92 700.57 205.84 700.25 205.84C699.93 205.84 699.634 205.92 699.362 206.08C699.09 206.24 698.87 206.48 698.702 206.8C698.542 207.112 698.462 207.504 698.462 207.976C698.462 208.448 698.542 208.844 698.702 209.164C698.87 209.476 699.086 209.712 699.35 209.872C699.622 210.032 699.914 210.112 700.226 210.112ZM704.649 211V204.952H705.729L705.801 205.984C705.993 205.624 706.265 205.34 706.617 205.132C706.969 204.916 707.373 204.808 707.829 204.808C708.309 204.808 708.721 204.904 709.065 205.096C709.409 205.288 709.677 205.58 709.869 205.972C710.061 206.356 710.157 206.84 710.157 207.424V211H708.957V207.544C708.957 206.984 708.833 206.56 708.585 206.272C708.337 205.984 707.977 205.84 707.505 205.84C707.193 205.84 706.913 205.916 706.665 206.068C706.417 206.212 706.217 206.428 706.065 206.716C705.921 207.004 705.849 207.356 705.849 207.772V211H704.649Z" fill="#424141"/>
<rect x="742.739" y="170.25" width="59.5" height="59.5" rx="29.75" stroke="black" stroke-width="0.5" stroke-dasharray="1 1"/>
<path d="M756.625 204V195.6H761.929V196.584H757.825V199.272H761.569V200.232H757.825V203.016H761.929V204H756.625ZM763.421 204V197.952H764.501L764.573 198.984C764.765 198.624 765.037 198.34 765.389 198.132C765.741 197.916 766.145 197.808 766.601 197.808C767.081 197.808 767.493 197.904 767.837 198.096C768.181 198.288 768.449 198.58 768.641 198.972C768.833 199.356 768.929 199.84 768.929 200.424V204H767.729V200.544C767.729 199.984 767.605 199.56 767.357 199.272C767.109 198.984 766.749 198.84 766.277 198.84C765.965 198.84 765.685 198.916 765.437 199.068C765.189 199.212 764.989 199.428 764.837 199.716C764.693 200.004 764.621 200.356 764.621 200.772V204H763.421ZM772.948 204C772.572 204 772.244 203.94 771.964 203.82C771.684 203.7 771.468 203.5 771.316 203.22C771.164 202.94 771.088 202.56 771.088 202.08V198.972H770.044V197.952H771.088L771.232 196.44H772.288V197.952H774.004V198.972H772.288V202.092C772.288 202.436 772.36 202.672 772.504 202.8C772.648 202.92 772.896 202.98 773.248 202.98H773.944V204H772.948ZM775.411 204V197.952H776.611V204H775.411ZM776.023 196.812C775.791 196.812 775.599 196.74 775.447 196.596C775.303 196.452 775.231 196.268 775.231 196.044C775.231 195.828 775.303 195.652 775.447 195.516C775.599 195.372 775.791 195.3 776.023 195.3C776.247 195.3 776.435 195.372 776.587 195.516C776.739 195.652 776.815 195.828 776.815 196.044C776.815 196.268 776.739 196.452 776.587 196.596C776.435 196.74 776.247 196.812 776.023 196.812ZM780.811 204C780.435 204 780.107 203.94 779.827 203.82C779.547 203.7 779.331 203.5 779.179 203.22C779.027 202.94 778.951 202.56 778.951 202.08V198.972H777.907V197.952H778.951L779.095 196.44H780.151V197.952H781.867V198.972H780.151V202.092C780.151 202.436 780.223 202.672 780.367 202.8C780.511 202.92 780.759 202.98 781.111 202.98H781.807V204H780.811ZM783.886 206.64L785.362 203.328H785.014L782.626 197.952H783.922L785.818 202.344L787.726 197.952H788.986L785.146 206.64H783.886Z" fill="#424141"/>
<rect x="822.739" y="170.25" width="59.5" height="59.5" rx="29.75" stroke="black" stroke-width="0.5" stroke-dasharray="1 1"/>
<path d="M836.625 204V195.6H841.929V196.584H837.825V199.272H841.569V200.232H837.825V203.016H841.929V204H836.625ZM843.421 204V197.952H844.501L844.573 198.984C844.765 198.624 845.037 198.34 845.389 198.132C845.741 197.916 846.145 197.808 846.601 197.808C847.081 197.808 847.493 197.904 847.837 198.096C848.181 198.288 848.449 198.58 848.641 198.972C848.833 199.356 848.929 199.84 848.929 200.424V204H847.729V200.544C847.729 199.984 847.605 199.56 847.357 199.272C847.109 198.984 846.749 198.84 846.277 198.84C845.965 198.84 845.685 198.916 845.437 199.068C845.189 199.212 844.989 199.428 844.837 199.716C844.693 200.004 844.621 200.356 844.621 200.772V204H843.421ZM852.948 204C852.572 204 852.244 203.94 851.964 203.82C851.684 203.7 851.468 203.5 851.316 203.22C851.164 202.94 851.088 202.56 851.088 202.08V198.972H850.044V197.952H851.088L851.232 196.44H852.288V197.952H854.004V198.972H852.288V202.092C852.288 202.436 852.36 202.672 852.504 202.8C852.648 202.92 852.896 202.98 853.248 202.98H853.944V204H852.948ZM855.411 204V197.952H856.611V204H855.411ZM856.023 196.812C855.791 196.812 855.599 196.74 855.447 196.596C855.303 196.452 855.231 196.268 855.231 196.044C855.231 195.828 855.303 195.652 855.447 195.516C855.599 195.372 855.791 195.3 856.023 195.3C856.247 195.3 856.435 195.372 856.587 195.516C856.739 195.652 856.815 195.828 856.815 196.044C856.815 196.268 856.739 196.452 856.587 196.596C856.435 196.74 856.247 196.812 856.023 196.812ZM860.811 204C860.435 204 860.107 203.94 859.827 203.82C859.547 203.7 859.331 203.5 859.179 203.22C859.027 202.94 858.951 202.56 858.951 202.08V198.972H857.907V197.952H858.951L859.095 196.44H860.151V197.952H861.867V198.972H860.151V202.092C860.151 202.436 860.223 202.672 860.367 202.8C860.511 202.92 860.759 202.98 861.111 202.98H861.807V204H860.811ZM863.886 206.64L865.362 203.328H865.014L862.626 197.952H863.922L865.818 202.344L867.726 197.952H868.986L865.146 206.64H863.886Z" fill="#424141"/>
<path d="M738.363 147V135.8H742.747C743.536 135.8 744.192 135.923 744.715 136.168C745.248 136.413 745.648 136.755 745.915 137.192C746.181 137.619 746.315 138.115 746.315 138.68C746.315 139.245 746.192 139.72 745.947 140.104C745.701 140.488 745.376 140.781 744.971 140.984C744.576 141.187 744.144 141.309 743.675 141.352L743.915 141.176C744.416 141.187 744.864 141.32 745.259 141.576C745.664 141.832 745.984 142.168 746.219 142.584C746.453 142.989 746.571 143.443 746.571 143.944C746.571 144.531 746.427 145.059 746.139 145.528C745.861 145.987 745.451 146.349 744.907 146.616C744.363 146.872 743.696 147 742.907 147H738.363ZM740.283 145.432H742.619C743.248 145.432 743.739 145.283 744.091 144.984C744.443 144.685 744.619 144.269 744.619 143.736C744.619 143.203 744.437 142.781 744.075 142.472C743.712 142.152 743.216 141.992 742.587 141.992H740.283V145.432ZM740.283 140.536H742.475C743.093 140.536 743.563 140.397 743.883 140.12C744.203 139.832 744.363 139.437 744.363 138.936C744.363 138.445 744.203 138.061 743.883 137.784C743.563 137.496 743.088 137.352 742.459 137.352H740.283V140.536ZM748.345 147V135.48H750.265V147H748.345ZM755.4 147.192C754.749 147.192 754.189 147.064 753.72 146.808C753.261 146.541 752.909 146.147 752.664 145.624C752.419 145.091 752.296 144.435 752.296 143.656V138.936H754.216V143.464C754.216 144.157 754.36 144.685 754.648 145.048C754.947 145.4 755.395 145.576 755.992 145.576C756.376 145.576 756.717 145.485 757.016 145.304C757.325 145.123 757.565 144.861 757.736 144.52C757.917 144.168 758.008 143.741 758.008 143.24V138.936H759.928V147H758.232L758.088 145.656C757.843 146.125 757.485 146.499 757.016 146.776C756.557 147.053 756.019 147.192 755.4 147.192ZM765.84 147.192C765.04 147.192 764.336 147.021 763.728 146.68C763.12 146.328 762.646 145.837 762.304 145.208C761.963 144.579 761.792 143.853 761.792 143.032C761.792 142.179 761.958 141.432 762.288 140.792C762.63 140.152 763.104 139.651 763.712 139.288C764.331 138.925 765.046 138.744 765.856 138.744C766.646 138.744 767.334 138.92 767.92 139.272C768.507 139.624 768.96 140.099 769.28 140.696C769.6 141.283 769.76 141.944 769.76 142.68C769.76 142.787 769.76 142.904 769.76 143.032C769.76 143.16 769.75 143.293 769.728 143.432H763.168V142.2H767.824C767.803 141.613 767.606 141.155 767.232 140.824C766.859 140.483 766.395 140.312 765.84 140.312C765.446 140.312 765.083 140.403 764.752 140.584C764.422 140.765 764.16 141.037 763.968 141.4C763.776 141.752 763.68 142.2 763.68 142.744V143.208C763.68 143.709 763.771 144.141 763.952 144.504C764.144 144.867 764.4 145.144 764.72 145.336C765.051 145.517 765.419 145.608 765.824 145.608C766.272 145.608 766.64 145.512 766.928 145.32C767.227 145.128 767.446 144.872 767.584 144.552H769.536C769.387 145.053 769.142 145.507 768.8 145.912C768.459 146.307 768.038 146.621 767.536 146.856C767.035 147.08 766.47 147.192 765.84 147.192ZM771.533 150.52V138.936H773.245L773.453 140.104C773.624 139.869 773.826 139.651 774.061 139.448C774.306 139.235 774.6 139.064 774.941 138.936C775.293 138.808 775.693 138.744 776.141 138.744C776.898 138.744 777.565 138.931 778.141 139.304C778.728 139.677 779.186 140.184 779.517 140.824C779.848 141.453 780.013 142.173 780.013 142.984C780.013 143.795 779.842 144.52 779.501 145.16C779.17 145.789 778.712 146.285 778.125 146.648C777.549 147.011 776.888 147.192 776.141 147.192C775.533 147.192 775 147.08 774.541 146.856C774.093 146.621 773.73 146.291 773.453 145.864V150.52H771.533ZM775.741 145.528C776.189 145.528 776.589 145.421 776.941 145.208C777.293 144.995 777.565 144.696 777.757 144.312C777.96 143.928 778.061 143.485 778.061 142.984C778.061 142.472 777.96 142.024 777.757 141.64C777.565 141.256 777.293 140.957 776.941 140.744C776.589 140.531 776.189 140.424 775.741 140.424C775.282 140.424 774.877 140.531 774.525 140.744C774.184 140.957 773.912 141.256 773.709 141.64C773.517 142.024 773.421 142.467 773.421 142.968C773.421 143.48 773.517 143.928 773.709 144.312C773.912 144.685 774.184 144.984 774.525 145.208C774.877 145.421 775.282 145.528 775.741 145.528ZM781.877 147V138.936H783.589L783.765 140.44C783.957 140.088 784.197 139.789 784.485 139.544C784.773 139.288 785.109 139.091 785.493 138.952C785.887 138.813 786.319 138.744 786.789 138.744V140.776H786.117C785.797 140.776 785.493 140.819 785.205 140.904C784.917 140.979 784.666 141.107 784.453 141.288C784.25 141.459 784.09 141.699 783.973 142.008C783.855 142.307 783.797 142.685 783.797 143.144V147H781.877ZM788.316 147V138.936H790.236V147H788.316ZM789.276 137.656C788.924 137.656 788.631 137.549 788.396 137.336C788.172 137.112 788.06 136.84 788.06 136.52C788.06 136.189 788.172 135.923 788.396 135.72C788.631 135.507 788.924 135.4 789.276 135.4C789.628 135.4 789.916 135.507 790.14 135.72C790.375 135.923 790.492 136.189 790.492 136.52C790.492 136.84 790.375 137.112 790.14 137.336C789.916 137.549 789.628 137.656 789.276 137.656ZM792.455 147V138.936H794.151L794.295 140.28C794.54 139.811 794.892 139.437 795.351 139.16C795.809 138.883 796.353 138.744 796.983 138.744C797.633 138.744 798.188 138.883 798.647 139.16C799.105 139.427 799.457 139.821 799.703 140.344C799.959 140.867 800.087 141.517 800.087 142.296V147H798.167V142.472C798.167 141.8 798.017 141.283 797.719 140.92C797.42 140.557 796.977 140.376 796.391 140.376C796.007 140.376 795.66 140.467 795.351 140.648C795.052 140.829 794.812 141.096 794.631 141.448C794.46 141.789 794.375 142.205 794.375 142.696V147H792.455ZM805.615 147C805.071 147 804.596 146.915 804.191 146.744C803.796 146.573 803.487 146.291 803.263 145.896C803.039 145.501 802.927 144.968 802.927 144.296V140.552H801.551V138.936H802.927L803.151 136.808H804.847V138.936H807.039V140.552H804.847V144.296C804.847 144.701 804.932 144.984 805.103 145.144C805.284 145.293 805.583 145.368 805.999 145.368H806.991V147H805.615Z" fill="#424141"/>
<g clip-path="url(#clip0_3221_2525)">
<path d="M803.129 87.9486C802.302 87.9486 801.628 87.6955 801.104 87.1893C800.598 86.6662 800.345 85.9744 800.345 85.1139V78.0272H797.207V75.395H800.345V71.4973H803.534V75.395H806.976V78.0272H803.534V84.5571C803.534 85.0633 803.77 85.3164 804.243 85.3164H806.673V87.9486H803.129Z" fill="black"/>
<path d="M788.286 87.9486V75.3951H791.424V76.8124H791.88C792.065 76.3062 792.369 75.935 792.791 75.6988C793.229 75.4626 793.736 75.3445 794.309 75.3445H795.828V78.1791H794.259C793.449 78.1791 792.782 78.3985 792.259 78.8372C791.736 79.259 791.475 79.9171 791.475 80.8113V87.9486H788.286Z" fill="black"/>
<path d="M780.027 88.3026C778.778 88.3026 777.656 88.0495 776.661 87.5433C775.665 87.0371 774.881 86.3031 774.307 85.3413C773.733 84.3796 773.446 83.2238 773.446 81.8739V81.469C773.446 80.1191 773.733 78.9633 774.307 78.0015C774.881 77.0398 775.665 76.3058 776.661 75.7996C777.656 75.2934 778.778 75.0403 780.027 75.0403C781.276 75.0403 782.398 75.2934 783.393 75.7996C784.389 76.3058 785.173 77.0398 785.747 78.0015C786.321 78.9633 786.607 80.1191 786.607 81.469V81.8739C786.607 83.2238 786.321 84.3796 785.747 85.3413C785.173 86.3031 784.389 87.0371 783.393 87.5433C782.398 88.0495 781.276 88.3026 780.027 88.3026ZM780.027 85.4679C781.006 85.4679 781.815 85.1557 782.457 84.5314C783.098 83.8902 783.418 82.9791 783.418 81.798V81.5449C783.418 80.3638 783.098 79.4611 782.457 78.8368C781.832 78.1956 781.022 77.875 780.027 77.875C779.048 77.875 778.238 78.1956 777.597 78.8368C776.956 79.4611 776.635 80.3638 776.635 81.5449V81.798C776.635 82.9791 776.956 83.8902 777.597 84.5314C778.238 85.1557 779.048 85.4679 780.027 85.4679Z" fill="black"/>
<path d="M759.18 93.0101V75.3947H762.318V76.9132H762.773C763.06 76.4239 763.507 75.9937 764.115 75.6224C764.722 75.2344 765.591 75.0403 766.722 75.0403C767.734 75.0403 768.671 75.2934 769.531 75.7996C770.392 76.2889 771.083 77.0145 771.607 77.9762C772.13 78.938 772.391 80.1022 772.391 81.469V81.8739C772.391 83.2406 772.13 84.4049 771.607 85.3666C771.083 86.3284 770.392 87.0624 769.531 87.5686C768.671 88.0579 767.734 88.3026 766.722 88.3026C765.963 88.3026 765.321 88.2098 764.798 88.0241C764.292 87.8554 763.879 87.6361 763.558 87.3661C763.254 87.0793 763.01 86.7924 762.824 86.5056H762.369V93.0101H759.18ZM765.76 85.5185C766.756 85.5185 767.574 85.2063 768.215 84.582C768.873 83.9409 769.202 83.0128 769.202 81.798V81.5449C769.202 80.33 768.873 79.4104 768.215 78.7861C767.557 78.145 766.739 77.8244 765.76 77.8244C764.781 77.8244 763.963 78.145 763.305 78.7861C762.647 79.4104 762.318 80.33 762.318 81.5449V81.798C762.318 83.0128 762.647 83.9409 763.305 84.582C763.963 85.2063 764.781 85.5185 765.76 85.5185Z" fill="black"/>
<path fill-rule="evenodd" clip-rule="evenodd" d="M737.094 82.2594L745.743 82.2594L737.094 73.6103V82.2594ZM737.104 85.254C737.248 87.1903 738.864 88.7166 740.837 88.7166H754.313V75.2406C754.313 73.2677 752.787 71.6513 750.85 71.5077L750.85 85.254H750.82H747.762L737.104 85.254ZM747.762 71.4973L747.762 80.0433L739.216 71.4973H747.762Z" fill="black"/>
</g>
<defs>
<clipPath id="clip0_3221_2525">
<rect width="70" height="23.0214" fill="white" transform="translate(737 70)"/>
</clipPath>
</defs>
</svg>
