<svg width="159" height="152" viewBox="0 0 159 152" fill="none" xmlns="http://www.w3.org/2000/svg">
<rect width="159" height="152" fill="black"/>
<path d="M79.5 133C64.2625 133 50.9849 128.171 39.6672 118.513C28.3495 108.854 21.8625 96.7944 20.2063 82.3331H33.7875C35.3333 93.3113 40.4401 102.389 49.1078 109.567C57.7755 116.744 67.9063 120.333 79.5 120.333C92.4187 120.333 103.378 116.032 112.376 107.429C121.376 98.8266 125.875 88.35 125.875 76C125.875 63.65 121.376 53.1736 112.376 44.5708C103.378 35.9681 92.4187 31.6667 79.5 31.6667C71.8813 31.6667 64.7593 33.3556 58.1344 36.7333C51.5094 40.1111 45.9334 44.7556 41.4062 50.6667H59.625V63.3333H19.875V25.3333H33.125V40.2167C38.7562 33.4611 45.6297 28.2361 53.7453 24.5417C61.8609 20.8473 70.4458 19 79.5 19C87.7815 19 95.5383 20.5042 102.77 23.5125C110.003 26.5208 116.297 30.5848 121.652 35.7042C127.007 40.8236 131.258 46.8402 134.404 53.7542C137.552 60.6681 139.125 68.0833 139.125 76C139.125 83.9169 137.552 91.3322 134.404 98.246C131.258 105.16 127.007 111.177 121.652 116.296C116.297 121.415 110.003 125.479 102.77 128.487C95.5383 131.496 87.7815 133 79.5 133ZM98.0497 102.6L72.875 78.5331V44.3333H86.1247V73.4667L107.325 93.7331L98.0497 102.6Z" fill="#BBBBBB" fill-opacity="0.733333"/>
</svg>
