<svg width="20" height="20" viewBox="0 0 20 20" fill="none" xmlns="http://www.w3.org/2000/svg">
<path d="M6.29139 8.63079C6.29139 8.83771 6.31463 9.00584 6.35447 9.12546C6.39763 9.24832 6.45407 9.38411 6.53375 9.52637C6.56363 9.57163 6.57359 9.6169 6.57359 9.65569C6.57359 9.71066 6.54039 9.76562 6.46735 9.82382L6.10879 10.0566C6.05899 10.0889 6.00919 10.1051 5.96271 10.1051C5.90627 10.1051 5.84983 10.0792 5.79339 10.0275C5.71371 9.94344 5.64731 9.85615 5.59087 9.76562C5.53443 9.67186 5.47799 9.56517 5.41491 9.43907C4.97335 9.94991 4.41891 10.2053 3.75159 10.2053C3.27683 10.2053 2.89835 10.0728 2.62279 9.80442C2.34391 9.5393 2.20447 9.18366 2.20447 8.73749C2.20447 8.26545 2.37379 7.88071 2.71907 7.59296C3.06435 7.30198 3.52251 7.15972 4.10351 7.15972C4.29607 7.15972 4.49195 7.17589 4.70111 7.20176C4.91027 7.23085 5.12607 7.27612 5.35183 7.32461V6.92047C5.35183 6.49694 5.26219 6.20272 5.08623 6.03137C4.90695 5.85678 4.60151 5.77272 4.16659 5.77272C3.96739 5.77272 3.76487 5.79535 3.55571 5.84708C3.34655 5.89557 3.14403 5.957 2.94483 6.0346C2.85519 6.0734 2.78547 6.09603 2.74563 6.10896C2.70579 6.11866 2.67923 6.12513 2.65599 6.12513C2.57631 6.12513 2.53647 6.07016 2.53647 5.95054V5.67896C2.53647 5.59166 2.54975 5.52377 2.57631 5.48497C2.60619 5.44617 2.65599 5.40737 2.73567 5.36858C2.93487 5.26835 3.17059 5.18429 3.44947 5.11639C3.72503 5.04526 4.02051 5.01293 4.32927 5.01293C5.00323 5.01293 5.49459 5.16166 5.80999 5.46234C6.12207 5.76302 6.28143 6.21889 6.28143 6.82995V8.63079H6.29139ZM3.99395 9.47787C4.18319 9.47787 4.37575 9.44231 4.57827 9.37764C4.78079 9.30975 4.96339 9.18689 5.11611 9.022C5.20575 8.91531 5.27215 8.79892 5.30867 8.66636C5.34187 8.53057 5.36511 8.36891 5.36511 8.18139V7.94861C5.19911 7.90981 5.02315 7.87424 4.84387 7.85485C4.66127 7.83221 4.48863 7.81928 4.31267 7.81928C3.93419 7.81928 3.65531 7.89364 3.46939 8.04237C3.28347 8.19109 3.19383 8.40448 3.19383 8.68252C3.19383 8.94441 3.26023 9.13839 3.40299 9.27095C3.53911 9.40998 3.73499 9.47787 3.99395 9.47787ZM8.53571 10.0792C8.43279 10.0792 8.36639 10.0598 8.31991 10.021C8.27675 9.98871 8.23691 9.91111 8.20039 9.80442L6.87239 5.5076C6.83919 5.39767 6.82259 5.32331 6.82259 5.28451C6.82259 5.19722 6.86907 5.14549 6.95871 5.14549H7.51315C7.61939 5.14549 7.69243 5.16166 7.73227 5.20045C7.77875 5.23602 7.81195 5.31361 7.84515 5.41707L8.79467 9.0996L9.67779 5.41707C9.70435 5.30715 9.74087 5.23602 9.78403 5.20045C9.83051 5.16812 9.91019 5.14549 10.0098 5.14549H10.4646C10.5709 5.14549 10.6439 5.16166 10.6904 5.20045C10.7336 5.23602 10.7734 5.31361 10.7966 5.41707L11.6897 9.14486L12.6691 5.41707C12.7023 5.30715 12.7422 5.23602 12.782 5.20045C12.8252 5.16812 12.8982 5.14549 13.0011 5.14549H13.529C13.6186 5.14549 13.6684 5.19075 13.6684 5.28451C13.6684 5.31361 13.6618 5.33948 13.6585 5.37504C13.6518 5.40737 13.6419 5.45264 13.6186 5.51407L12.2541 9.81088C12.2209 9.92081 12.1811 9.99517 12.1379 10.0275C12.0914 10.0598 12.0184 10.0825 11.9221 10.0825H11.4341C11.3278 10.0825 11.2548 10.0663 11.2083 10.0275C11.1652 9.9887 11.1253 9.91758 11.1021 9.80442L10.2256 6.21889L9.35575 9.80118C9.32587 9.91111 9.29267 9.98224 9.24951 10.021C9.20303 10.0598 9.12335 10.0792 9.02043 10.0792H8.53571ZM15.7999 10.228C15.5077 10.228 15.2122 10.1956 14.93 10.1277C14.6478 10.0598 14.4254 9.9887 14.2793 9.90464C14.1897 9.85615 14.1266 9.80118 14.1034 9.74945C14.0801 9.70096 14.0702 9.64276 14.0702 9.59426V9.30975C14.0702 9.19336 14.1166 9.13839 14.1996 9.13839C14.2328 9.13839 14.2694 9.14486 14.3026 9.15456C14.3358 9.16749 14.3856 9.18689 14.442 9.20952C14.6346 9.29358 14.8437 9.36148 15.0662 9.40351C15.2919 9.44877 15.511 9.47141 15.7368 9.47141C16.0954 9.47141 16.3709 9.40998 16.5635 9.28712C16.756 9.16426 16.8556 8.98644 16.8556 8.76012C16.8556 8.60493 16.8058 8.4756 16.7062 8.36891C16.6033 8.26545 16.4108 8.17169 16.1352 8.08116L15.3152 7.83221C14.9002 7.70289 14.5947 7.51537 14.4088 7.26318C14.2229 7.0207 14.1266 6.74589 14.1266 6.45814C14.1266 6.22535 14.1764 6.01843 14.2793 5.84061C14.3822 5.66279 14.5184 5.5076 14.6877 5.38474C14.857 5.25542 15.0496 5.16166 15.2753 5.09376C15.5011 5.0291 15.7368 5 15.9858 5C16.112 5 16.2414 5.00647 16.3643 5.02263C16.4971 5.0388 16.6133 5.06143 16.7328 5.08406C16.8457 5.11316 16.9552 5.13902 17.0548 5.17459C17.1578 5.20692 17.2374 5.23925 17.2939 5.27158C17.3736 5.31685 17.43 5.36211 17.4632 5.41061C17.4964 5.45587 17.513 5.5173 17.513 5.59489V5.85678C17.513 5.97317 17.4698 6.0346 17.3835 6.0346C17.337 6.0346 17.264 6.01197 17.1677 5.96994C16.8457 5.82445 16.4838 5.75008 16.0821 5.75008C15.76 5.75008 15.5077 5.80181 15.3318 5.90851C15.1558 6.01197 15.0662 6.17362 15.0662 6.40317C15.0662 6.55836 15.1226 6.69092 15.2355 6.79761C15.3484 6.90107 15.5575 7.00777 15.8563 7.10153L16.6598 7.35371C17.0681 7.4798 17.3603 7.65762 17.5362 7.88718C17.7122 8.11349 17.7952 8.37538 17.7952 8.66636C17.7952 8.90561 17.7454 9.12223 17.6491 9.30975C17.5462 9.5005 17.4134 9.66539 17.2374 9.79795C17.0615 9.93697 16.8523 10.0372 16.61 10.1116C16.3543 10.1892 16.0887 10.228 15.7999 10.228Z" fill="white"/>
<path d="M16.869 12.9308C15.0098 14.2822 12.3073 14.9999 9.98327 14.9999C6.72635 14.9999 3.79147 13.8134 1.57703 11.8444C1.40107 11.6892 1.55711 11.4791 1.76959 11.6019C4.16663 12.9696 7.12143 13.7972 10.1792 13.7972C12.2442 13.7972 14.5118 13.3769 16.5967 12.5072C16.9088 12.3682 17.1744 12.7077 16.869 12.9308ZM17.6425 12.0643C17.4068 11.7636 16.0722 11.9188 15.4679 11.9899C15.2853 12.0125 15.2588 11.8574 15.4214 11.741C16.4838 11.007 18.2302 11.2172 18.436 11.4629C18.6385 11.7119 18.3796 13.4319 17.3836 14.2531C17.2308 14.3824 17.0848 14.3145 17.1512 14.1464C17.3769 13.5968 17.8816 12.3585 17.6425 12.0643Z" fill="#FF9900"/>
</svg>
