<svg width="20" height="20" viewBox="0 0 20 20" fill="none" xmlns="http://www.w3.org/2000/svg">
<path d="M15.0645 13.3595L13.7287 12.4815L12.6145 14.3362L11.3186 13.9587L10.1775 15.6942L10.236 16.2403L16.4404 15.1011L16.0801 11.238L15.0645 13.3595ZM9.27859 11.6942L10.2742 11.5578C10.4351 11.6299 10.5472 11.6574 10.7403 11.7063C11.0412 11.7842 11.3892 11.8592 11.9047 11.6004C12.0246 11.5411 12.2747 11.3135 12.3756 11.1835L16.4541 10.4464L16.8701 15.4642L9.88263 16.719L9.27859 11.6942ZM16.8544 9.88618L16.4518 9.96261L15.6783 2L2.5 3.52264L4.12373 16.6511L5.66643 16.4279C5.54316 16.2527 5.35139 16.0406 5.02386 15.7693C4.56958 15.3933 4.73002 14.7543 4.99833 14.3508C5.35285 13.6692 7.17971 12.803 7.07624 11.7136C7.03906 11.3175 6.97602 10.8021 6.60677 10.4485C6.59288 10.5952 6.61796 10.7362 6.61796 10.7362C6.61796 10.7362 6.46634 10.5436 6.39099 10.281C6.31597 10.1802 6.25709 10.1481 6.1774 10.0135C6.12043 10.1691 6.12802 10.3496 6.12802 10.3496C6.12802 10.3496 6.00402 10.0579 5.984 9.81148C5.91061 9.92176 5.89211 10.131 5.89211 10.131C5.89211 10.131 5.73121 9.67105 5.76794 9.42313C5.69449 9.20755 5.47663 8.77959 5.53815 7.80728C5.94019 8.08792 6.8257 8.0214 7.17066 7.51476C7.28499 7.34681 7.36372 6.88881 7.11346 5.98604C6.95279 5.40728 6.55492 4.54547 6.39982 4.21833L6.38131 4.23173C6.46308 4.49521 6.63162 5.04724 6.69641 5.31527C6.89228 6.12726 6.94475 6.41025 6.85286 6.78475C6.77452 7.11028 6.58709 7.32311 6.11183 7.56116C5.63651 7.79994 5.0057 7.21865 4.96588 7.18671C4.50401 6.82 4.14679 6.22213 4.10703 5.93135C4.06553 5.61339 4.29098 5.42247 4.40464 5.16245C4.24189 5.20863 4.06069 5.29106 4.06069 5.29106C4.06069 5.29106 4.27709 5.06791 4.54382 4.87503C4.64556 4.80935 4.74307 4.73735 4.83564 4.65934C4.66704 4.65659 4.53016 4.66141 4.53016 4.66141C4.53016 4.66141 4.81129 4.51011 5.10254 4.39988C4.88951 4.39058 4.68532 4.39837 4.68532 4.39837C4.68532 4.39837 5.31258 4.1187 5.80786 3.91376C6.14849 3.7745 6.48125 3.81563 6.66829 4.08524C6.91377 4.43827 7.17167 4.62992 7.71801 4.74867C8.05358 4.60033 8.15537 4.52446 8.57692 4.4098C8.94786 4.00304 9.23923 3.95054 9.23923 3.95054C9.23923 3.95054 9.0947 4.0827 9.05601 4.29016C9.26628 4.12501 9.49685 3.98711 9.49685 3.98711C9.49685 3.98711 9.40743 4.09682 9.32426 4.27128L9.34349 4.30008C9.58891 4.15331 9.87746 4.0378 9.87746 4.0378C9.87746 4.0378 9.79496 4.14172 9.69823 4.27604C9.88353 4.27458 10.2588 4.284 10.4046 4.30025C11.2647 4.31919 11.4432 3.38521 11.7732 3.26795C12.1864 3.1209 12.3712 3.03185 13.0754 3.7213C13.6795 4.31347 14.1518 5.37259 13.9172 5.60986C13.7205 5.80683 13.3328 5.53292 12.9031 4.99938C12.6762 4.71667 12.5042 4.38257 12.4238 3.95788C12.356 3.59955 12.0918 3.39175 12.0918 3.39175C12.0918 3.39175 12.2449 3.73218 12.2449 4.03201C12.2449 4.19593 12.2655 4.8084 12.5291 5.15236C12.503 5.20257 12.4908 5.401 12.4621 5.43917C12.1552 5.06971 11.4966 4.80538 11.3891 4.72754C11.7527 5.02432 12.5883 5.70613 12.9091 6.36004C13.2128 6.97808 13.0339 7.54474 13.1876 7.69128C13.2314 7.73308 13.8404 8.4896 13.9577 8.86959C14.1621 9.53185 13.9698 10.2281 13.7022 10.6598L12.955 10.7758C12.8457 10.7456 12.772 10.7304 12.6741 10.6739C12.7282 10.5785 12.8355 10.341 12.8366 10.2918L12.7943 10.2183C12.5618 10.5466 12.1723 10.8653 11.8486 11.0483C11.425 11.2877 10.9367 11.2506 10.6189 11.1528C9.71702 10.8756 8.86396 10.2682 8.65818 10.1086C8.65818 10.1086 8.65183 10.2359 8.69058 10.2646C8.91789 10.5204 9.43887 10.9826 9.94275 11.3051L8.86896 11.4228L9.37672 15.361C9.15161 15.393 9.11646 15.409 8.8702 15.4438C8.65307 14.6794 8.23781 14.1804 7.78375 13.8896C7.38346 13.6332 6.83132 13.5754 6.30292 13.6798L6.26895 13.7192C6.63641 13.681 7.07016 13.734 7.51584 14.0151C7.9532 14.2908 8.30569 15.0027 8.43549 15.4311C8.60172 15.9788 8.71667 16.565 8.26919 17.1861C7.95112 17.6276 7.02236 17.8714 6.27171 17.3437C6.47219 17.6649 6.74297 17.9274 7.1079 17.9768C7.6494 18.0502 8.16341 17.9564 8.5172 17.5946C8.81913 17.2852 8.97952 16.6381 8.93729 15.9566L9.41536 15.8875L9.58795 17.1105L17.5 16.1611L16.8545 9.88618H16.8544ZM12.0406 6.5648C12.0185 6.61496 11.9837 6.64796 12.0358 6.81143L12.0388 6.82073L12.0472 6.84202L12.0689 6.89089C12.1628 7.08226 12.2658 7.26259 12.4384 7.35488C12.4843 7.34709 12.5306 7.34216 12.5771 7.33998C12.7391 7.33291 12.8413 7.35841 12.9058 7.39316C12.9117 7.36082 12.9129 7.31403 12.9093 7.24471C12.8967 7.00229 12.9575 6.5903 12.49 6.37343C12.3137 6.29195 12.0662 6.31689 11.9837 6.41882C11.9986 6.42078 12.012 6.42387 12.0226 6.42734C12.1476 6.47055 12.0631 6.51336 12.0406 6.5648ZM13.3511 8.82577C13.2897 8.79192 13.0032 8.80531 12.8018 8.82924C12.4181 8.87441 12.0038 9.00677 11.9133 9.07749C11.7483 9.20453 11.8232 9.42599 11.9452 9.517C12.287 9.77141 12.5867 9.9421 12.9028 9.90052C13.0969 9.87508 13.2681 9.56872 13.3895 9.29072C13.4725 9.0994 13.4725 8.89279 13.3509 8.82577H13.3511ZM9.95456 6.86455C10.0625 6.76217 9.41575 6.62773 8.91367 6.96895C8.54346 7.22061 8.53154 7.76032 8.88617 8.06612C8.92154 8.09638 8.9509 8.11784 8.97795 8.13549C9.09391 8.08074 9.2133 8.0335 9.33533 7.994C9.56456 7.91997 9.75543 7.88158 9.91205 7.86118C9.98695 7.77763 10.0743 7.6307 10.0524 7.36441C10.0227 7.00296 9.74828 7.06018 9.95456 6.86455Z" fill="#BCBCFF"/>
</svg>
