<?xml version="1.0" encoding="UTF-8"?>
<svg xmlns="http://www.w3.org/2000/svg" xmlns:xlink="http://www.w3.org/1999/xlink" width="20px" height="20px" viewBox="0 0 20 20" version="1.1">
<g id="surface1">
<path style=" stroke:none;fill-rule:nonzero;fill:rgb(100%,100%,100%);fill-opacity:0.4;" d="M 5.832031 6.5 L 5.832031 4.835938 L 17.5 4.835938 L 17.5 6.5 Z M 5.832031 10.835938 L 5.832031 9.167969 L 17.5 9.167969 L 17.5 10.835938 Z M 5.832031 15.167969 L 5.832031 13.5 L 17.5 13.5 L 17.5 15.167969 Z M 3.332031 6.5 C 3.097656 6.5 2.898438 6.421875 2.738281 6.261719 C 2.578125 6.101562 2.5 5.902344 2.5 5.667969 C 2.5 5.429688 2.578125 5.234375 2.738281 5.074219 C 2.898438 4.914062 3.097656 4.835938 3.332031 4.835938 C 3.570312 4.835938 3.765625 4.914062 3.925781 5.074219 C 4.085938 5.234375 4.167969 5.429688 4.167969 5.667969 C 4.167969 5.902344 4.085938 6.101562 3.925781 6.261719 C 3.765625 6.421875 3.570312 6.5 3.332031 6.5 Z M 3.332031 10.835938 C 3.097656 10.835938 2.898438 10.753906 2.738281 10.59375 C 2.578125 10.433594 2.5 10.238281 2.5 10 C 2.5 9.765625 2.578125 9.566406 2.738281 9.40625 C 2.898438 9.246094 3.097656 9.167969 3.332031 9.167969 C 3.570312 9.167969 3.765625 9.246094 3.925781 9.40625 C 4.085938 9.566406 4.167969 9.765625 4.167969 10 C 4.167969 10.238281 4.085938 10.433594 3.925781 10.59375 C 3.765625 10.753906 3.570312 10.835938 3.332031 10.835938 Z M 3.332031 15.167969 C 3.097656 15.167969 2.898438 15.085938 2.738281 14.929688 C 2.578125 14.769531 2.5 14.570312 2.5 14.335938 C 2.5 14.097656 2.578125 13.898438 2.738281 13.742188 C 2.898438 13.582031 3.097656 13.5 3.332031 13.5 C 3.570312 13.5 3.765625 13.582031 3.925781 13.742188 C 4.085938 13.898438 4.167969 14.097656 4.167969 14.335938 C 4.167969 14.570312 4.085938 14.769531 3.925781 14.929688 C 3.765625 15.085938 3.570312 15.167969 3.332031 15.167969 Z M 3.332031 15.167969 "/>
</g>
</svg>
