<svg width="20" height="20" viewBox="0 0 20 20" fill="none" xmlns="http://www.w3.org/2000/svg">
<path fill-rule="evenodd" clip-rule="evenodd" d="M10.8017 2.11144L10.4724 6.16539C10.3168 6.14734 10.1612 6.1383 10.0015 6.1383C9.80169 6.1383 9.6059 6.15134 9.41414 6.18247L9.2274 4.21874C9.22337 4.15649 9.27256 4.10228 9.33481 4.10228H9.66816L9.5075 2.11646C9.5035 2.05421 9.55269 2 9.60993 2H10.6993C10.7616 2 10.8108 2.05421 10.8017 2.11144ZM9.13401 6.23167C8.7826 6.31199 8.44926 6.44048 8.142 6.60916L7.29259 4.82714C7.26647 4.77394 7.29259 4.70766 7.35082 4.68457L7.6661 4.56912L6.83475 2.75598C6.80864 2.70277 6.83475 2.63651 6.89298 2.61342L7.9161 2.23994C7.97334 2.21786 8.03559 2.254 8.05365 2.31123C8.05768 2.31123 9.13401 6.23167 9.13401 6.23167ZM5.54554 3.44067L7.89804 6.75573C7.59982 6.95151 7.32873 7.1824 7.09781 7.44946L5.68712 6.06301C5.64295 6.01882 5.64796 5.94754 5.69214 5.90738L5.95018 5.69355L4.54853 4.27596C4.50435 4.23179 4.50937 4.16051 4.55757 4.12035L5.38992 3.4226C5.43812 3.38245 5.50539 3.39148 5.54052 3.44067H5.54554ZM6.92008 7.67134C6.70623 7.95144 6.53352 8.26267 6.40402 8.59597L4.60777 7.77375C4.54954 7.75164 4.52745 7.68036 4.55857 7.62715L4.72725 7.33801L2.92198 6.48467C2.86876 6.45856 2.84667 6.39128 2.8778 6.33808L3.41998 5.39638C3.45111 5.34317 3.5224 5.3251 3.5716 5.36022L6.92008 7.67134ZM2.24123 7.92032C2.25027 7.85808 2.31252 7.82293 2.36975 7.83599L6.30562 8.86303C6.20319 9.19633 6.14597 9.54771 6.13693 9.91217L4.16699 9.75152C4.10474 9.74751 4.05956 9.68927 4.07362 9.62703L4.13085 9.29874L2.14284 9.112C2.08059 9.10699 2.04143 9.04976 2.04946 8.98751L2.23621 7.91629L2.24123 7.92032ZM2.09063 10.5778L6.14194 10.2043C6.16003 10.5647 6.2313 10.9161 6.34176 11.2444L4.43909 11.7695C4.38085 11.7825 4.3186 11.7474 4.30957 11.6851L4.25234 11.3558L2.32156 11.8578C2.26433 11.8719 2.20208 11.8357 2.19304 11.7735L2.00127 10.7023C1.99223 10.64 2.03239 10.5828 2.09464 10.5778H2.09063ZM2.72719 13.3959C2.69607 13.3427 2.71816 13.2764 2.77137 13.2493L6.44518 11.5075C6.58273 11.8357 6.76948 12.1429 6.99138 12.418L5.38189 13.5645C5.3327 13.6007 5.2614 13.5866 5.23027 13.5334L5.06159 13.2403L3.42099 14.3737C3.37179 14.4089 3.3005 14.3918 3.26938 14.3386C3.26938 14.3386 2.72217 13.3959 2.72719 13.3959ZM8.00545 13.3025L6.88495 14.9289C6.8498 14.9831 6.77852 14.9912 6.72931 14.952L6.47129 14.7341L5.31563 16.3605C5.27949 16.4097 5.2132 16.4188 5.16402 16.3786L4.32764 15.6809C4.27945 15.6407 4.27443 15.5695 4.31861 15.5253L7.17813 12.6319C7.4231 12.8889 7.70324 13.1158 8.00545 13.3025ZM6.61386 17.2762C6.55561 17.2541 6.52952 17.1868 6.55561 17.1336L8.25046 13.436C8.56172 13.5957 8.90008 13.7161 9.25148 13.7824L8.75246 15.6939C8.73942 15.7511 8.67316 15.7873 8.6149 15.7652L8.29964 15.6497L7.77051 17.5743C7.75245 17.6316 7.69019 17.6677 7.63196 17.6446L6.60983 17.2722L6.61386 17.2762ZM10.0025 13.8627C10.2023 13.8627 10.3981 13.8487 10.5889 13.8175L10.7756 15.7823C10.7806 15.8445 10.7314 15.8977 10.6692 15.8977H10.3358L10.4955 17.8846C10.5045 17.9468 10.4563 18 10.3941 18H9.30368C9.24647 18 9.19725 17.9468 9.20128 17.8846L9.5306 13.8316C9.68625 13.8537 9.84186 13.8627 10.0025 13.8627ZM11.7546 6.55092C11.4433 6.39531 11.11 6.27483 10.7535 6.20455L11.2515 4.29303C11.2696 4.2348 11.3319 4.19966 11.3901 4.22175L11.7054 4.3372L12.2345 2.41262C12.2526 2.3554 12.3148 2.31926 12.3731 2.34134L13.3952 2.71481C13.4534 2.7369 13.4805 2.79915 13.4534 2.85738L11.7546 6.55092ZM15.6864 4.47073L12.8259 7.36413C12.5859 7.10611 12.3108 6.88022 12.0036 6.69349L13.1241 5.06607C13.1602 5.01788 13.2315 5.00383 13.2797 5.04399L13.5378 5.26184L14.6944 3.63544C14.7296 3.58625 14.8009 3.57721 14.845 3.61737L15.6814 4.31512C15.7306 4.35527 15.7306 4.42656 15.6864 4.47073ZM17.2296 6.7507L13.5558 8.49356C13.4133 8.16429 13.2315 7.85707 13.0086 7.58198L14.6181 6.43547C14.6673 6.39531 14.7386 6.41339 14.7697 6.46659L14.9384 6.75573L16.58 5.62227C16.6292 5.59114 16.6995 5.60419 16.7306 5.65739L17.2778 6.60012C17.3089 6.65333 17.2919 6.71957 17.2336 6.74669L17.2296 6.7507ZM17.812 8.2215L17.9987 9.29272C18.0078 9.35496 17.9676 9.40817 17.9054 9.41721L13.854 9.7947C13.8359 9.43025 13.7647 9.0839 13.6542 8.7546L15.5579 8.23054C15.6151 8.21246 15.6774 8.25262 15.6864 8.31486L15.7446 8.64416L17.6744 8.14117C17.7327 8.12813 17.7949 8.16426 17.8029 8.22653L17.812 8.2215ZM17.6252 12.15L13.6894 11.1229C13.7918 10.7896 13.85 10.4392 13.859 10.0748L15.829 10.2344C15.8912 10.2435 15.9314 10.2967 15.9224 10.3589L15.8641 10.6882L17.8521 10.875C17.9144 10.883 17.9545 10.9362 17.9455 10.9984L17.7588 12.0697C17.7497 12.1319 17.6875 12.168 17.6302 12.155L17.6252 12.15ZM16.58 14.5986C16.5489 14.6518 16.4776 14.6649 16.4284 14.6337L13.0799 12.3226C13.2938 12.0425 13.4665 11.7313 13.596 11.398L15.3922 12.2202C15.4504 12.2474 15.4726 12.3136 15.4414 12.3668L15.2727 12.656L17.078 13.5093C17.1312 13.5364 17.1533 13.6027 17.1222 13.6559L16.58 14.5986ZM12.0969 13.2342C12.3951 13.0435 12.6622 12.8076 12.8982 12.5415L14.3079 13.928C14.352 13.9721 14.352 14.0434 14.3028 14.0836L14.0448 14.2964L15.4464 15.715C15.4866 15.7592 15.4866 15.8305 15.4374 15.8696L14.6061 16.5684C14.5609 16.6075 14.4896 16.5995 14.4544 16.5503L12.102 13.2342H12.0969ZM12.0789 17.75C12.0216 17.7721 11.9594 17.737 11.9413 17.6787L10.865 13.7593C11.2164 13.679 11.5498 13.5505 11.857 13.3808L12.7064 15.1638C12.7325 15.2211 12.7064 15.2883 12.6482 15.3054L12.3329 15.4209L13.1643 17.235C13.1903 17.2922 13.1643 17.3545 13.106 17.3765L12.0839 17.75H12.0789Z" fill="white"/>
</svg>
