<svg width="20" height="20" viewBox="0 0 20 20" fill="none" xmlns="http://www.w3.org/2000/svg">
<path d="M17.7094 8.33752C18.1178 7.1118 17.9772 5.76909 17.3241 4.65419C16.342 2.94415 14.3676 2.06438 12.4393 2.47839C11.5814 1.512 10.349 0.962423 9.05688 0.970298C7.08584 0.965798 5.33699 2.23483 4.7306 4.11024C3.46439 4.36956 2.37143 5.16214 1.73185 6.28547C0.742391 7.99101 0.967958 10.1409 2.28986 11.6035C1.88148 12.8292 2.02211 14.1719 2.67518 15.2868C3.65733 16.9968 5.63175 17.8766 7.56004 17.4626C8.4173 18.429 9.65033 18.9786 10.9424 18.9701C12.9146 18.9752 14.664 17.705 15.2704 15.8279C16.5366 15.5686 17.6296 14.776 18.2691 13.6527C19.2575 11.9472 19.0313 9.79892 17.71 8.33639L17.7094 8.33752ZM10.9435 17.7939C10.1543 17.795 9.38989 17.5188 8.78406 17.0131C8.81163 16.9985 8.85944 16.9721 8.89038 16.953L12.4747 14.8829C12.6581 14.7788 12.7706 14.5837 12.7695 14.3727V9.31966L14.2843 10.1944C14.3006 10.2022 14.3113 10.218 14.3136 10.236V14.4205C14.3113 16.2813 12.8043 17.79 10.9435 17.7939ZM3.69614 14.6984C3.3007 14.0155 3.15838 13.2151 3.29395 12.4382C3.32038 12.454 3.36707 12.4827 3.40026 12.5018L6.98459 14.5718C7.16628 14.6782 7.39128 14.6782 7.57354 14.5718L11.9493 12.045V13.7944C11.9504 13.8124 11.942 13.8299 11.9279 13.8411L8.3048 15.9331C6.69096 16.8624 4.62991 16.31 3.6967 14.6984H3.69614ZM2.75281 6.87442C3.14657 6.19041 3.76814 5.66727 4.50841 5.39558C4.50841 5.42652 4.50672 5.48108 4.50672 5.51933V9.65998C4.5056 9.87036 4.6181 10.0656 4.80092 10.1696L9.1767 12.6959L7.66185 13.5706C7.64666 13.5807 7.62754 13.5824 7.61066 13.5751L3.98696 11.4814C2.37649 10.5488 1.8241 8.48827 2.75225 6.87499L2.75281 6.87442ZM15.1989 9.7708L10.8232 7.244L12.338 6.36985C12.3532 6.35973 12.3723 6.35804 12.3892 6.36535L16.0129 8.45733C17.6262 9.38942 18.1791 11.4533 17.2471 13.0666C16.8527 13.7494 16.2317 14.2726 15.492 14.5448V10.2804C15.4937 10.0701 15.3818 9.87543 15.1995 9.7708H15.1989ZM16.7065 7.50163C16.68 7.48531 16.6334 7.45719 16.6002 7.43806L13.0158 5.36802C12.8341 5.2617 12.6091 5.2617 12.4269 5.36802L8.05111 7.89482V6.14541C8.04998 6.12741 8.05842 6.10997 8.07248 6.09872L11.6956 4.00843C13.3095 3.07747 15.3728 3.63154 16.3032 5.24595C16.6964 5.92772 16.8387 6.72592 16.7054 7.50163H16.7065ZM7.22759 10.6196L5.71218 9.74492C5.69587 9.73705 5.68518 9.7213 5.68293 9.7033V5.51877C5.68406 3.65573 7.19553 2.14595 9.05857 2.14707C9.84665 2.14707 10.6094 2.42383 11.2152 2.92784C11.1877 2.94247 11.1404 2.9689 11.1089 2.98803L7.5246 5.05807C7.34122 5.16214 7.22872 5.35677 7.22984 5.56771L7.22759 10.6185V10.6196ZM8.05055 8.84547L9.99965 7.71988L11.9488 8.8449V11.0955L9.99965 12.2205L8.05055 11.0955V8.84547Z" fill="white"/>
</svg>
