<svg width="20" height="20" viewBox="0 0 20 20" fill="none" xmlns="http://www.w3.org/2000/svg">
<path d="M2.86317 13.2639C3.38473 13.2623 3.9048 13.2753 4.42467 13.3196C4.4455 13.3213 4.44553 13.3213 4.46682 13.3231C4.99553 13.3675 5.52117 13.4351 6.04246 13.5342C6.05919 13.5374 6.05929 13.5373 6.07632 13.5405C6.88012 13.6938 7.66153 13.9267 8.39449 14.2937C8.40759 14.3003 8.42072 14.3069 8.43422 14.3136C8.98948 14.5917 9.53991 14.9892 9.9155 15.4894C9.92413 15.5007 9.93279 15.512 9.94169 15.5237C9.96135 15.5496 9.98087 15.5757 10.0001 15.6019C10.0397 15.5637 10.0745 15.5241 10.1083 15.4806C10.1578 15.4181 10.2098 15.3584 10.2636 15.2996C10.2853 15.2758 10.3069 15.2518 10.3281 15.2277C10.3843 15.164 10.441 15.1048 10.506 15.0501C10.5386 15.0224 10.5699 14.9936 10.6013 14.9646C10.8237 14.765 11.078 14.5951 11.3381 14.4484C11.3561 14.4382 11.3562 14.4382 11.3747 14.4278C12.455 13.822 13.6881 13.5529 16.1266 13.2951C16.1376 13.2945 16.1487 13.2938 16.16 13.2933C16.3703 13.2827 16.5801 13.2785 16.7907 13.2781C16.8225 13.278 16.8544 13.2779 16.8863 13.2777C16.9874 13.2775 17.0886 13.2775 17.1899 13.2775C17.207 13.2774 17.2242 13.2773 17.2418 13.2773C18.0641 13.2768 18.0642 13.2769 18.454 13.3003C18.4688 13.3012 18.4836 13.3021 18.4988 13.303C18.6665 13.3135 18.8331 13.3298 18.9997 13.3512C19.0012 13.4506 18.9977 13.5477 18.987 13.6465C18.9856 13.6595 18.9842 13.6726 18.9829 13.686C18.9785 13.7287 18.9739 13.7714 18.9693 13.8141C18.9662 13.844 18.963 13.8738 18.9599 13.9036C18.9534 13.966 18.9468 14.0284 18.9402 14.0907C18.9317 14.1706 18.9234 14.2505 18.9151 14.3304C18.9086 14.392 18.9021 14.4536 18.8956 14.5152C18.8926 14.5447 18.8893 14.5741 18.8862 14.6036C18.8819 14.6447 18.8778 14.6859 18.8733 14.727C18.8721 14.7391 18.8707 14.7512 18.8694 14.7637C18.8636 14.8187 18.857 14.8726 18.8448 14.9267C18.8277 14.9255 18.8104 14.9243 18.7927 14.9231C18.7275 14.9185 18.6623 14.914 18.597 14.9095C18.5691 14.9076 18.5412 14.9056 18.5132 14.9037C18.4725 14.9008 18.4316 14.8979 18.3909 14.8951C18.3729 14.8938 18.3729 14.8938 18.3546 14.8925C18.1052 14.8755 17.8561 14.8681 17.6063 14.8675C17.5774 14.8674 17.5486 14.8675 17.5198 14.8674C17.4284 14.8671 17.3369 14.867 17.2453 14.8669C17.2298 14.8669 17.2141 14.867 17.198 14.8669C16.735 14.8668 16.274 14.8705 15.8122 14.9095C15.7742 14.9127 15.7363 14.9156 15.6983 14.9186C14.465 15.0148 13.1357 15.2273 11.3909 16.4301C11.07 16.8295 10.9704 17.246 10.9297 17.7541H9.07049C9.0612 17.6381 9.05192 17.522 9.04235 17.4025C8.94267 16.8052 8.61275 16.3448 8.12601 15.9958C7.04336 15.2396 5.59141 15.0192 4.2638 14.9157C4.22577 14.9127 4.18775 14.9096 4.14973 14.9064C3.7077 14.8698 3.26578 14.8663 2.82253 14.866C2.77761 14.866 2.73263 14.866 2.68769 14.8659C2.17527 14.8652 1.66621 14.887 1.1554 14.9267C1.12023 14.6474 1.09058 14.3676 1.06179 14.0875C1.05537 14.0252 1.04891 13.9627 1.04238 13.9003C1.03729 13.8516 1.03233 13.8029 1.02733 13.7542C1.02496 13.7312 1.02253 13.7081 1.02011 13.6851C1.00789 13.5688 0.997474 13.4543 1.00054 13.3372C1.17009 13.3179 1.3398 13.3045 1.51011 13.2942C1.5282 13.293 1.5464 13.2918 1.56504 13.2907C1.61457 13.2878 1.66416 13.2851 1.71372 13.2826C1.7361 13.2814 1.75847 13.2802 1.78084 13.2789C2.08097 13.2624 2.3815 13.2642 2.68198 13.2642C2.74237 13.2642 2.80279 13.2641 2.86317 13.2639ZM9.85936 8.14614C9.9114 8.16348 9.92403 8.1834 9.95794 8.22606C9.96921 8.24018 9.98049 8.2544 9.99211 8.26895C10.001 8.28023 10.0011 8.28029 10.0102 8.29182C10.028 8.31448 10.0461 8.33703 10.0642 8.35954C10.3607 8.73061 10.6267 9.12331 10.8311 9.55278C10.8361 9.56315 10.8412 9.57355 10.8464 9.58425C11.1094 10.1272 11.2631 10.7778 11.0705 11.3674C10.9509 11.698 10.7374 11.9632 10.4207 12.1209C10.2686 12.1875 10.1194 12.2192 9.95358 12.2175C9.9382 12.2174 9.92276 12.2174 9.90692 12.2172C9.59851 12.2108 9.35136 12.0777 9.13927 11.858C8.82835 11.5037 8.73817 11.0236 8.76078 10.5656C8.79242 10.1228 8.93564 9.69741 9.12693 9.29951C9.13286 9.28706 9.13887 9.27456 9.14499 9.26174C9.32498 8.88613 9.55492 8.43749 9.85936 8.14614ZM15.8024 8.9427C16.0367 8.9433 16.262 8.95959 16.4924 9.00425C16.508 9.00719 16.5237 9.01009 16.5397 9.01313C16.8781 9.07864 17.2074 9.17788 17.5286 9.30222C17.5375 9.30568 17.5465 9.30919 17.5557 9.31275C17.6776 9.36023 17.7967 9.41233 17.9151 9.46836C17.8719 9.54864 17.8209 9.61857 17.7644 9.68989C17.7556 9.70107 17.7468 9.71237 17.7377 9.7239C17.6711 9.80839 17.6039 9.89233 17.5347 9.97476C17.5287 9.9819 17.5227 9.98909 17.5167 9.99644C17.3415 10.2059 17.1561 10.4156 16.9482 10.5934C16.923 10.6151 16.898 10.6371 16.873 10.6592C16.3591 11.1121 15.7289 11.452 15.0278 11.4096C14.7157 11.3824 14.4463 11.2506 14.225 11.0299C14.2162 11.0213 14.2075 11.0127 14.1985 11.0038C13.9888 10.7826 13.9214 10.4947 13.9253 10.1992C13.9353 9.8909 14.0948 9.62911 14.3148 9.42185C14.59 9.184 14.9108 9.04185 15.2671 8.97611C15.2873 8.97235 15.2874 8.97226 15.3079 8.96844C15.4587 8.94355 15.6085 8.94238 15.761 8.9427C15.7815 8.9427 15.7815 8.94269 15.8024 8.9427ZM4.14386 8.9427C4.3675 8.94141 4.58386 8.96357 4.7988 9.02803C4.81104 9.03163 4.82335 9.03513 4.83597 9.03886C5.21992 9.15581 5.57984 9.39379 5.78377 9.74616C5.92406 10.0097 5.9498 10.2918 5.87361 10.5788C5.815 10.7682 5.71635 10.9165 5.57788 11.0571C5.56717 11.068 5.55642 11.0788 5.54538 11.0901C5.28088 11.343 4.93067 11.4187 4.57532 11.4123C4.03727 11.3946 3.53657 11.1211 3.12729 10.7898C3.11303 10.7786 3.09878 10.7673 3.08409 10.7557C2.93175 10.6339 2.79096 10.4988 2.65308 10.3611C2.63159 10.3396 2.61 10.3183 2.58837 10.297C2.5092 10.2183 2.4357 10.1376 2.36595 10.0503C2.3433 10.022 2.32015 9.99453 2.29612 9.9674C2.18689 9.84391 2.08901 9.71334 1.99258 9.57973C1.97837 9.56018 1.96364 9.54088 1.94864 9.52194C1.93016 9.4957 1.93013 9.49566 1.93013 9.46761C2.51853 9.17087 3.23689 8.94751 3.90096 8.9442C3.92033 8.94409 3.92033 8.94403 3.94009 8.9439C3.96731 8.94377 3.9946 8.94381 4.02181 8.94375C4.06248 8.94361 4.10318 8.94313 4.14386 8.9427ZM4.7222 5.37168C5.49058 5.31368 6.32092 5.39663 6.93036 5.90864C6.94324 5.91869 6.94324 5.9187 6.95638 5.92895C7.03475 5.99149 7.09438 6.06897 7.15564 6.14776C7.16559 6.16031 7.17549 6.17293 7.18573 6.18584C7.37502 6.43298 7.45224 6.73658 7.4172 7.04455C7.38077 7.25549 7.29544 7.43454 7.15564 7.5967C7.14114 7.61356 7.14108 7.61353 7.1263 7.63071C6.90712 7.86628 6.59085 7.97658 6.27542 7.99235C5.74875 8.00486 5.27085 7.7361 4.89376 7.38873C4.87092 7.36769 4.84774 7.34687 4.82438 7.32642C4.74036 7.25282 4.66527 7.17477 4.59232 7.0903C4.58064 7.07705 4.56899 7.06377 4.55695 7.05011C4.2303 6.67612 3.97128 6.24431 3.74671 5.80314C3.73783 5.78571 3.72889 5.7683 3.71992 5.75093C3.70749 5.72674 3.69521 5.7024 3.68305 5.67809C3.67607 5.6642 3.66904 5.65024 3.66183 5.63596C3.64785 5.59687 3.64785 5.58094 3.66289 5.54294C4.0031 5.46677 4.34284 5.4011 4.6909 5.37409C4.70635 5.37287 4.70643 5.37293 4.7222 5.37168ZM14.5985 5.3592C15.1192 5.34767 15.7007 5.38475 16.197 5.55709C16.1772 5.62158 16.151 5.68091 16.1204 5.74084C16.1155 5.75048 16.1106 5.7601 16.1055 5.77004C16.0948 5.79111 16.0841 5.81222 16.0733 5.83324C16.0618 5.85565 16.0504 5.87805 16.039 5.90052C15.8267 6.31971 15.5734 6.72641 15.2539 7.07314C15.2278 7.10152 15.2027 7.13053 15.1777 7.15982C15.0679 7.28523 14.948 7.39549 14.8169 7.49828C14.8033 7.5094 14.7897 7.52055 14.7758 7.53199C14.3907 7.84114 13.9164 8.02016 13.4197 7.97369C13.147 7.93829 12.9129 7.81607 12.7183 7.62484C12.7035 7.61037 12.7035 7.61028 12.6885 7.5955C12.492 7.38933 12.4036 7.11851 12.4084 6.83717C12.4244 6.56036 12.5389 6.31449 12.7183 6.10563C12.7279 6.09424 12.7378 6.0829 12.7478 6.07117C13.1687 5.59023 13.7953 5.41281 14.4143 5.36627C14.4756 5.36242 14.537 5.36082 14.5985 5.3592ZM9.81723 2.23755C9.93033 2.28876 10.0037 2.40091 10.0795 2.49519C10.1009 2.52142 10.1226 2.54728 10.1444 2.57315C10.263 2.71445 10.3735 2.85997 10.4791 3.01122C10.4852 3.01988 10.4913 3.02865 10.4976 3.03756C10.9332 3.65923 11.3081 4.44896 11.1807 5.22766C11.1161 5.57948 10.9446 5.90151 10.6469 6.10804C10.379 6.27938 10.0846 6.34626 9.77059 6.28712C9.60155 6.24482 9.45905 6.17336 9.32423 6.06379C9.30803 6.05131 9.30797 6.05126 9.29142 6.03852C9.0121 5.81023 8.85134 5.40465 8.8094 5.05536C8.74967 4.42156 8.92568 3.81729 9.19751 3.25052C9.2029 3.23916 9.20837 3.22774 9.21392 3.21604C9.36805 2.89269 9.55963 2.49484 9.81723 2.23755Z" fill="#FBB040"/>
</svg>
