<svg width="20" height="20" viewBox="0 0 20 20" fill="none" xmlns="http://www.w3.org/2000/svg">
<path d="M11.4321 2.81439C11.2824 2.56592 11.071 2.36037 10.8184 2.21767C10.5659 2.07498 10.2807 2 9.9906 2C9.70051 2 9.41535 2.07498 9.16278 2.21767C8.91021 2.36037 8.69881 2.56592 8.5491 2.81439L6.17783 6.87582C7.98938 7.78025 9.53285 9.14281 10.655 10.8282C11.7771 12.5136 12.4388 14.4632 12.5745 16.4834H10.9096C10.7741 14.7517 10.1889 13.0854 9.21172 11.6493C8.23454 10.2133 6.89931 9.05725 5.33816 8.2957L3.14347 12.0904C4.0211 12.4841 4.78569 13.092 5.36693 13.8584C5.94816 14.6247 6.32739 15.525 6.46973 16.4762H2.64615C2.60081 16.473 2.55697 16.4586 2.5186 16.4342C2.48023 16.4098 2.44853 16.3763 2.42636 16.3366C2.4042 16.2969 2.39226 16.2523 2.39162 16.2068C2.39098 16.1614 2.40167 16.1165 2.42272 16.0762L3.48222 14.2743C3.12327 13.9748 2.71302 13.7428 2.27136 13.5896L1.22267 15.3915C1.1135 15.5787 1.04262 15.7858 1.01416 16.0007C0.985704 16.2156 1.00023 16.434 1.05689 16.6432C1.11356 16.8525 1.21123 17.0483 1.34424 17.2195C1.47726 17.3906 1.64295 17.5337 1.8317 17.6402C2.0804 17.7804 2.36071 17.8548 2.64615 17.8565H7.88241C7.97965 16.6564 7.76536 15.4516 7.26027 14.3587C6.75517 13.2658 5.97641 12.3219 4.9994 11.6184L5.83187 10.1769C7.06487 11.0237 8.05574 12.1774 8.70667 13.5242C9.35761 14.8709 9.64612 16.3642 9.54374 17.8565H13.98C14.0833 15.5958 13.5915 13.3477 12.5537 11.3366C11.5159 9.32561 9.96856 7.62216 8.0662 6.39652L9.74915 3.51352C9.78665 3.45068 9.84745 3.40521 9.91832 3.38698C9.98919 3.36876 10.0644 3.37927 10.1275 3.41622C10.3185 3.52072 17.4396 15.9465 17.5729 16.0906C17.5964 16.1327 17.6083 16.1803 17.6075 16.2285C17.6068 16.2768 17.5932 16.3239 17.5684 16.3652C17.5435 16.4066 17.5082 16.4406 17.4659 16.4639C17.4237 16.4872 17.3761 16.4989 17.3278 16.4978H15.6125C15.6341 16.9567 15.6341 17.4144 15.6125 17.8709H17.3351C17.5538 17.8723 17.7706 17.8303 17.973 17.7474C18.1755 17.6645 18.3594 17.5422 18.5143 17.3877C18.6691 17.2332 18.7918 17.0495 18.8751 16.8473C18.9585 16.645 19.0009 16.4283 19 16.2095C19.0002 15.9206 18.9231 15.6369 18.7766 15.3879L11.4321 2.81439Z" fill="white"/>
</svg>
