<svg width="20" height="20" viewBox="0 0 20 20" fill="none" xmlns="http://www.w3.org/2000/svg">
<path d="M18.9211 10.9594L16.5214 3.8331C16.4357 3.57971 16.2846 3.35345 16.0833 3.17726C15.8821 3.00106 15.6378 2.88119 15.3753 2.82978L7.88501 1.36832C7.36255 1.26633 6.81815 1.44994 6.46429 1.84682L1.38397 7.54058C1.20622 7.74038 1.08439 7.98358 1.0308 8.24558C0.977212 8.50758 0.993764 8.77908 1.07878 9.03263L3.47854 16.1589C3.56407 16.4124 3.71515 16.6387 3.91645 16.815C4.11775 16.9912 4.36209 17.111 4.62466 17.1622L12.115 18.6237C12.2095 18.6421 12.3057 18.6513 12.4021 18.6511C12.8296 18.6511 13.2461 18.4692 13.5356 18.1451L18.6159 12.4514C18.9776 12.0465 19.0944 11.4747 18.9211 10.9593M16.0217 4.00186L17.6001 8.68836L14.2456 3.3962C14.1743 3.28362 14.0865 3.18234 13.9852 3.09573L15.2757 3.34752C15.4466 3.38122 15.6056 3.45946 15.7366 3.57435C15.8677 3.68924 15.966 3.83676 16.0217 4.00186ZM13.549 16.3613L10.6252 16.5096L15.3549 13.7717C15.3619 13.7678 15.369 13.7631 15.376 13.7584L14.2377 15.9212C14.1709 16.0479 14.0723 16.1551 13.9515 16.2323C13.8308 16.3094 13.6921 16.3539 13.549 16.3613ZM6.2007 16.315L4.54854 13.7089C4.57992 13.7316 4.61208 13.7529 4.64582 13.7725L9.41316 16.5324C9.4351 16.5449 9.4579 16.5574 9.48063 16.5685L6.93972 16.6971C6.6424 16.7113 6.35923 16.5653 6.20078 16.3151M6.451 3.63156L9.37478 3.48333L4.6459 6.22114C4.63882 6.22507 4.63174 6.22979 4.62474 6.23451L5.76301 4.07169C5.8298 3.94507 5.92831 3.83795 6.0489 3.7608C6.16949 3.68365 6.30804 3.63912 6.451 3.63156ZM13.8001 3.67866L15.4521 6.28468C15.4208 6.26191 15.3883 6.24071 15.3549 6.22114L10.5875 3.4621C10.5656 3.44951 10.5428 3.43701 10.52 3.426L13.061 3.29735C13.3567 3.28013 13.6407 3.42757 13.7999 3.67858M15.412 12.7582C15.4118 12.8713 15.382 12.9823 15.3256 13.0803C15.2692 13.1783 15.1881 13.2598 15.0904 13.3168L10.3231 16.0758C10.2248 16.1325 10.1133 16.1623 9.99987 16.1623C9.88642 16.1623 9.77496 16.1325 9.67667 16.0758L4.91027 13.316C4.81254 13.2591 4.73141 13.1776 4.67498 13.0796C4.61855 12.9816 4.58879 12.8705 4.58865 12.7574V7.23461C4.58886 7.12154 4.61866 7.01049 4.67509 6.9125C4.73151 6.81452 4.81259 6.733 4.91027 6.67605L9.67761 3.91701C9.7758 3.86012 9.88733 3.83034 10.0008 3.83074C10.1122 3.83074 10.2244 3.85976 10.324 3.91701L15.0905 6.67692C15.1883 6.73374 15.2694 6.81523 15.3259 6.91325C15.3823 7.01126 15.412 7.12237 15.4121 7.23547L15.412 12.7582ZM4.08097 12.9708L2.69634 10.7861C2.61888 10.6634 2.57505 10.5224 2.56927 10.3774C2.56349 10.2324 2.59595 10.0885 2.66339 9.95999L4.06068 7.30452V12.7575C4.06068 12.8305 4.06768 12.9011 4.08097 12.9708ZM15.9197 7.02205L17.3043 9.20681C17.3818 9.32952 17.4256 9.47044 17.4314 9.61544C17.4372 9.76044 17.4047 9.9044 17.3373 10.0329L15.9394 12.6884V7.23539C15.9394 7.16321 15.9322 7.0918 15.9197 7.02205ZM6.85896 2.19825C6.95204 2.0944 7.06595 2.01133 7.19327 1.95442C7.32058 1.89752 7.45846 1.86806 7.59791 1.86798C7.65988 1.86798 7.72263 1.87427 7.78538 1.88598L12.4617 2.79833L6.42505 3.1043C6.25795 3.11295 6.09713 3.15298 5.94812 3.21887L6.85896 2.19825ZM1.77786 7.89201L5.13777 4.12736L2.19676 9.71528C2.11 9.8813 2.05847 10.0635 2.04539 10.2503L1.57938 8.86569C1.52375 8.70032 1.51281 8.52319 1.54766 8.35223C1.58252 8.18127 1.66193 8.02256 1.77786 7.89217M3.97835 15.9912L2.39988 11.3046L5.75436 16.5968C5.82589 16.7092 5.91366 16.8105 6.0148 16.8972L4.72508 16.6454C4.37759 16.578 4.09206 16.327 3.97835 15.9912ZM13.1419 17.7955C13.0276 17.9231 12.8821 18.019 12.7198 18.0737C12.5574 18.1284 12.3836 18.1401 12.2154 18.1077L7.53909 17.1953L13.5757 16.8894C13.7428 16.8807 13.9036 16.8407 14.0526 16.7748L13.1419 17.7955ZM18.2222 12.101L14.863 15.8665L17.804 10.2786C17.891 10.1126 17.9425 9.93041 17.9554 9.74351L18.4214 11.1281C18.4768 11.2935 18.4876 11.4705 18.4526 11.6413C18.4176 11.8121 18.3381 11.9707 18.2221 12.1009" fill="white" fill-opacity="0.9"/>
</svg>

