<svg width="20" height="20" viewBox="0 0 20 20" fill="none" xmlns="http://www.w3.org/2000/svg">
<path d="M5.79883 13.8555C5.96301 14.6227 6.29379 15.4667 6.77637 15.9492C7.25926 16.4321 8.10391 16.7627 8.87109 16.9268C8.10406 17.0914 7.25998 17.4216 6.77734 17.9043C6.29431 18.3874 5.96402 19.2313 5.7998 19.999C5.63545 19.2312 5.30418 18.3881 4.82129 17.9053C4.33846 17.4221 3.49484 17.0924 2.72754 16.9277C3.49469 16.7634 4.33837 16.4325 4.82129 15.9502C5.30416 15.4674 5.63446 14.6228 5.79883 13.8555ZM14.834 9.39355C15.0294 10.3078 15.4233 11.3136 15.998 11.8887C16.5735 12.4637 17.5794 12.8574 18.4932 13.0527C17.5793 13.2487 16.5731 13.6417 15.998 14.2168C15.4231 14.7921 15.0294 15.7974 14.834 16.7119C14.6383 15.798 14.2451 14.7928 13.6699 14.2178C13.0945 13.6424 12.0892 13.2484 11.1748 13.0527C12.0888 12.857 13.0945 12.4634 13.6699 11.8887C14.2452 11.3133 14.6383 10.3077 14.834 9.39355ZM7.79492 0C8.12199 1.53046 8.78126 3.21255 9.74414 4.17578C10.7074 5.1386 12.3896 5.79795 13.9199 6.125C12.3898 6.45273 10.707 7.11134 9.74414 8.07422C8.78141 9.03746 8.12199 10.7202 7.79492 12.251C7.46735 10.7206 6.80854 9.0381 5.8457 8.0752C4.88282 7.11192 3.20069 6.45305 1.66992 6.12598C3.20004 5.79825 4.8828 5.13929 5.8457 4.17676C6.80895 3.21352 7.46734 1.53078 7.79492 0Z" fill="black" fill-opacity="0.4"/>
</svg>
