<svg width="20" height="20" viewBox="0 0 20 20" fill="none" xmlns="http://www.w3.org/2000/svg">
<path d="M16.0938 7.5V15.833C16.0938 16.2913 15.9344 16.6844 15.6162 17.0107C15.298 17.337 14.9155 17.5 14.4688 17.5H5.53125C5.0845 17.5 4.70197 17.337 4.38379 17.0107C4.06556 16.6844 3.90625 16.2913 3.90625 15.833V4.16699C3.90625 3.70866 4.06556 3.31565 4.38379 2.98926C4.70197 2.66305 5.0845 2.5 5.53125 2.5H11.2188L16.0938 7.5ZM7.5625 14.167H12.4375V12.5H7.5625V14.167ZM9.1875 7.5H7.5625V9.16699H9.1875V10.833H10.8125V9.16699H12.4375V7.5H10.8125V5.83301H9.1875V7.5Z" fill="black" fill-opacity="0.4"/>
</svg>
