<svg width="20" height="20" viewBox="0 0 20 20" fill="none" xmlns="http://www.w3.org/2000/svg">
<path d="M5.00008 17.5C4.08341 17.5 3.29869 17.1736 2.64591 16.5208C1.99314 15.8681 1.66675 15.0833 1.66675 14.1667C1.66675 13.25 1.99314 12.4653 2.64591 11.8125C3.29869 11.1597 4.08341 10.8333 5.00008 10.8333C5.91675 10.8333 6.70147 11.1597 7.35425 11.8125C8.00703 12.4653 8.33341 13.25 8.33341 14.1667C8.33341 15.0833 8.00703 15.8681 7.35425 16.5208C6.70147 17.1736 5.91675 17.5 5.00008 17.5ZM15.0001 17.5C14.0834 17.5 13.2987 17.1736 12.6459 16.5208C11.9931 15.8681 11.6667 15.0833 11.6667 14.1667C11.6667 13.25 11.9931 12.4653 12.6459 11.8125C13.2987 11.1597 14.0834 10.8333 15.0001 10.8333C15.9167 10.8333 16.7015 11.1597 17.3542 11.8125C18.007 12.4653 18.3334 13.25 18.3334 14.1667C18.3334 15.0833 18.007 15.8681 17.3542 16.5208C16.7015 17.1736 15.9167 17.5 15.0001 17.5ZM10.0001 9.16667C9.08341 9.16667 8.29869 8.84028 7.64591 8.1875C6.99314 7.53472 6.66675 6.75 6.66675 5.83333C6.66675 4.91667 6.99314 4.13194 7.64591 3.47917C8.29869 2.82639 9.08341 2.5 10.0001 2.5C10.9167 2.5 11.7015 2.82639 12.3542 3.47917C13.007 4.13194 13.3334 4.91667 13.3334 5.83333C13.3334 6.75 13.007 7.53472 12.3542 8.1875C11.7015 8.84028 10.9167 9.16667 10.0001 9.16667Z" fill="#F6C23C"/>
</svg>
