<svg width="20" height="20" viewBox="0 0 20 20" fill="none" xmlns="http://www.w3.org/2000/svg">
<path d="M9.74375 4.17578C8.78086 3.21254 8.1218 1.53047 7.79473 0C7.46715 1.53078 6.80879 3.2132 5.84555 4.17644C4.88266 5.13902 3.20008 5.79809 1.66992 6.12582C3.2007 6.45289 4.88297 7.11156 5.84586 8.07484C6.80875 9.03773 7.46781 10.7202 7.79539 12.2506C8.12246 10.7198 8.78133 9.03742 9.74406 8.07418C10.707 7.11129 12.3895 6.45254 13.9197 6.1248C12.3893 5.79773 10.707 5.13871 9.74375 4.17578Z" fill="black"/>
<path d="M15.9982 11.8882C15.4234 11.3132 15.0291 10.3078 14.8337 9.39355C14.6379 10.3078 14.2449 11.3132 13.6695 11.8886C13.0941 12.4633 12.0889 12.8573 11.1748 13.0531C12.0892 13.2488 13.0941 13.6422 13.6695 14.2176C14.2449 14.7927 14.6386 15.798 14.8343 16.7123C15.0297 15.7977 15.4234 14.7927 15.9985 14.2173C16.5736 13.6422 17.5789 13.2484 18.4929 13.0524C17.579 12.857 16.5736 12.4633 15.9982 11.8882Z" fill="black"/>
<path d="M5.7991 13.855C5.63477 14.6225 5.30477 15.4668 4.8218 15.9497C4.33891 16.4323 3.49492 16.763 2.72754 16.9274C3.49492 17.0921 4.33891 17.4217 4.8218 17.905C5.30477 18.3879 5.63543 19.2315 5.79977 19.9994C5.96395 19.2315 6.2941 18.3879 6.77723 17.9047C7.2598 17.4218 8.10395 17.0914 8.87117 16.9267C8.10398 16.7627 7.2598 16.4324 6.77691 15.9494C6.2941 15.4669 5.96328 14.6225 5.7991 13.855Z" fill="black"/>
</svg>
