<svg width="20" height="20" viewBox="0 0 20 20" fill="none" xmlns="http://www.w3.org/2000/svg">
<path d="M0.833252 16.6666V14.3333C0.833252 13.861 0.95478 13.427 1.19784 13.0312C1.44089 12.6353 1.76381 12.3333 2.16659 12.1249C3.0277 11.6944 3.9027 11.3714 4.79159 11.1562C5.68047 10.9409 6.58325 10.8333 7.49992 10.8333C8.41659 10.8333 9.31936 10.9409 10.2083 11.1562C11.0971 11.3714 11.9721 11.6944 12.8333 12.1249C13.236 12.3333 13.5589 12.6353 13.802 13.0312C14.0451 13.427 14.1666 13.861 14.1666 14.3333V16.6666H0.833252ZM15.8333 16.6666V14.1666C15.8333 13.5555 15.6631 12.9687 15.3228 12.4062C14.9826 11.8437 14.4999 11.361 13.8749 10.9583C14.5833 11.0416 15.2499 11.1839 15.8749 11.3853C16.4999 11.5867 17.0833 11.8333 17.6249 12.1249C18.1249 12.4027 18.5069 12.7117 18.7708 13.052C19.0346 13.3923 19.1666 13.7638 19.1666 14.1666V16.6666H15.8333ZM7.49992 9.99992C6.58325 9.99992 5.79853 9.67353 5.14575 9.02075C4.49297 8.36797 4.16659 7.58325 4.16659 6.66659C4.16659 5.74992 4.49297 4.9652 5.14575 4.31242C5.79853 3.65964 6.58325 3.33325 7.49992 3.33325C8.41659 3.33325 9.20131 3.65964 9.85409 4.31242C10.5069 4.9652 10.8333 5.74992 10.8333 6.66659C10.8333 7.58325 10.5069 8.36797 9.85409 9.02075C9.20131 9.67353 8.41659 9.99992 7.49992 9.99992ZM15.8333 6.66659C15.8333 7.58325 15.5069 8.36797 14.8541 9.02075C14.2013 9.67353 13.4166 9.99992 12.4999 9.99992C12.3471 9.99992 12.1527 9.98256 11.9166 9.94783C11.6805 9.91311 11.486 9.87492 11.3333 9.83325C11.7083 9.38881 11.9964 8.89575 12.1978 8.35409C12.3992 7.81242 12.4999 7.24992 12.4999 6.66659C12.4999 6.08325 12.3992 5.52075 12.1978 4.97909C11.9964 4.43742 11.7083 3.94436 11.3333 3.49992C11.5277 3.43047 11.7221 3.38534 11.9166 3.3645C12.111 3.34367 12.3055 3.33325 12.4999 3.33325C13.4166 3.33325 14.2013 3.65964 14.8541 4.31242C15.5069 4.9652 15.8333 5.74992 15.8333 6.66659Z" fill="black" fill-opacity="0.4"/>
</svg>
