<svg width="20" height="20" viewBox="0 0 20 20" fill="none" xmlns="http://www.w3.org/2000/svg">
<path d="M9.99992 13.3333C11.0416 13.3333 11.927 12.9687 12.6562 12.2395C13.3853 11.5103 13.7499 10.6249 13.7499 9.58325C13.7499 8.54158 13.3853 7.65617 12.6562 6.927C11.927 6.19784 11.0416 5.83325 9.99992 5.83325C8.95825 5.83325 8.07284 6.19784 7.34367 6.927C6.6145 7.65617 6.24992 8.54158 6.24992 9.58325C6.24992 10.6249 6.6145 11.5103 7.34367 12.2395C8.07284 12.9687 8.95825 13.3333 9.99992 13.3333ZM9.99992 11.8333C9.37492 11.8333 8.84367 11.6145 8.40617 11.177C7.96867 10.7395 7.74992 10.2083 7.74992 9.58325C7.74992 8.95825 7.96867 8.427 8.40617 7.9895C8.84367 7.552 9.37492 7.33325 9.99992 7.33325C10.6249 7.33325 11.1562 7.552 11.5937 7.9895C12.0312 8.427 12.2499 8.95825 12.2499 9.58325C12.2499 10.2083 12.0312 10.7395 11.5937 11.177C11.1562 11.6145 10.6249 11.8333 9.99992 11.8333ZM9.99992 15.8333C7.97214 15.8333 6.12492 15.2673 4.45825 14.1353C2.79159 13.0034 1.58325 11.486 0.833252 9.58325C1.58325 7.68047 2.79159 6.16311 4.45825 5.03117C6.12492 3.89922 7.97214 3.33325 9.99992 3.33325C12.0277 3.33325 13.8749 3.89922 15.5416 5.03117C17.2083 6.16311 18.4166 7.68047 19.1666 9.58325C18.4166 11.486 17.2083 13.0034 15.5416 14.1353C13.8749 15.2673 12.0277 15.8333 9.99992 15.8333Z" fill="black" fill-opacity="0.4"/>
</svg>
