<svg width="20" height="20" viewBox="0 0 20 20" fill="none" xmlns="http://www.w3.org/2000/svg">
<path d="M9.16675 16.229L5.00008 13.8332C4.73619 13.6804 4.53133 13.4755 4.3855 13.2186C4.23966 12.9616 4.16675 12.6873 4.16675 12.3957V7.604C4.16675 7.31234 4.23966 7.03803 4.3855 6.78109C4.53133 6.52414 4.73619 6.31928 5.00008 6.1665L9.16675 3.77067C9.43064 3.61789 9.70841 3.5415 10.0001 3.5415C10.2917 3.5415 10.5695 3.61789 10.8334 3.77067L15.0001 6.1665C15.264 6.31928 15.4688 6.52414 15.6147 6.78109C15.7605 7.03803 15.8334 7.31234 15.8334 7.604V12.3957C15.8334 12.6873 15.7605 12.9616 15.6147 13.2186C15.4688 13.4755 15.264 13.6804 15.0001 13.8332L10.8334 16.229C10.5695 16.3818 10.2917 16.4582 10.0001 16.4582C9.70841 16.4582 9.43064 16.3818 9.16675 16.229ZM1.66675 5.83317V3.33317C1.66675 2.87484 1.82994 2.48248 2.15633 2.15609C2.48272 1.8297 2.87508 1.6665 3.33341 1.6665H5.83341V3.33317H3.33341V5.83317H1.66675ZM5.83341 18.3332H3.33341C2.87508 18.3332 2.48272 18.17 2.15633 17.8436C1.82994 17.5172 1.66675 17.1248 1.66675 16.6665V14.1665H3.33341V16.6665H5.83341V18.3332ZM14.1667 18.3332V16.6665H16.6667V14.1665H18.3334V16.6665C18.3334 17.1248 18.1702 17.5172 17.8438 17.8436C17.5174 18.17 17.1251 18.3332 16.6667 18.3332H14.1667ZM16.6667 5.83317V3.33317H14.1667V1.6665H16.6667C17.1251 1.6665 17.5174 1.8297 17.8438 2.15609C18.1702 2.48248 18.3334 2.87484 18.3334 3.33317V5.83317H16.6667ZM6.70841 7.104L5.83341 7.604V8.5415L9.16675 10.479V14.3123L10.0001 14.7915L10.8334 14.3123V10.479L14.1667 8.5415V7.604L13.2917 7.104L10.0001 9.0415L6.70841 7.104Z" fill="#F6C23C"/>
</svg>
