<svg width="44" height="43" viewBox="0 0 44 43" fill="none" xmlns="http://www.w3.org/2000/svg">
<g clip-path="url(#clip0_6473_47184)">
<mask id="mask0_6473_47184" style="mask-type:luminance" maskUnits="userSpaceOnUse" x="0" y="0" width="44" height="43">
<path d="M44 0H0V43H44V0Z" fill="white"/>
</mask>
<g mask="url(#mask0_6473_47184)">
<path d="M20.3994 11C20.3996 17.4062 25.5938 22.6004 32 22.6006V36.5996C32 40.1342 29.1342 43 25.5996 43H6.40039C2.86577 43 0 40.1342 0 36.5996V17.4004C0 13.8658 2.86577 11 6.40039 11H20.3994Z" fill="black" fill-opacity="0.6"/>
<path d="M10.672 30.2001C11.5609 30.2001 12.3164 29.889 12.9386 29.2668C13.5609 28.6445 13.872 27.889 13.872 27.0001C13.872 26.1112 13.5609 25.3557 12.9386 24.7334C12.3164 24.1112 11.5609 23.8001 10.672 23.8001C9.78308 23.8001 9.02753 24.1112 8.40531 24.7334C7.78308 25.3557 7.47197 26.1112 7.47197 27.0001C7.47197 27.889 7.78308 28.6445 8.40531 29.2668C9.02753 29.889 9.78308 30.2001 10.672 30.2001ZM10.672 33.4001C8.8942 33.4001 7.38308 32.7779 6.13864 31.5334C4.89419 30.289 4.27197 28.7779 4.27197 27.0001C4.27197 25.2223 4.89419 23.7112 6.13864 22.4668C7.38308 21.2223 8.8942 20.6001 10.672 20.6001C12.112 20.6001 13.3698 21.009 14.4453 21.8268C15.5209 22.6445 16.272 23.6579 16.6986 24.8668H25.632L27.7386 26.9734L24.0053 31.2401L21.3386 29.1334L19.2053 31.2668L17.072 29.1334H16.6986C16.2542 30.4134 15.4809 31.4445 14.3786 32.2268C13.2764 33.009 12.0409 33.4001 10.672 33.4001Z" fill="white"/>
<path d="M31.9514 16.76C32.2874 16.76 32.5714 16.6441 32.8034 16.412C33.0354 16.18 33.1514 15.896 33.1514 15.56C33.1514 15.224 33.0354 14.9401 32.8034 14.708C32.5714 14.476 32.2874 14.36 31.9514 14.36C31.6154 14.36 31.3314 14.476 31.0994 14.708C30.8674 14.9401 30.7514 15.224 30.7514 15.56C30.7514 15.896 30.8674 16.18 31.0994 16.412C31.3314 16.6441 31.6154 16.76 31.9514 16.76ZM31.0874 13.064H32.8634C32.8634 12.536 32.9234 12.1201 33.0434 11.816C33.1634 11.512 33.5034 11.096 34.0634 10.568C34.4794 10.1521 34.8074 9.75603 35.0474 9.38002C35.2874 9.00402 35.4074 8.55202 35.4074 8.02402C35.4074 7.12803 35.0794 6.44002 34.4234 5.96002C33.7674 5.48002 32.9914 5.24002 32.0954 5.24002C31.1834 5.24002 30.4434 5.48002 29.8754 5.96002C29.3074 6.44002 28.9114 7.01602 28.6874 7.68802L30.2714 8.31202C30.3514 8.02402 30.5314 7.71202 30.8114 7.37602C31.0914 7.04002 31.5194 6.87202 32.0954 6.87202C32.6074 6.87202 32.9914 7.01202 33.2474 7.29202C33.5034 7.57203 33.6314 7.88003 33.6314 8.21603C33.6314 8.53602 33.5354 8.83602 33.3434 9.11603C33.1514 9.39603 32.9114 9.65603 32.6234 9.89603C31.9194 10.52 31.4874 10.9921 31.3274 11.312C31.1674 11.632 31.0874 12.2161 31.0874 13.064ZM31.9994 20.6C30.6714 20.6 29.4234 20.348 28.2554 19.844C27.0874 19.34 26.0714 18.656 25.2074 17.792C24.3434 16.928 23.6594 15.9121 23.1554 14.744C22.6514 13.576 22.3994 12.328 22.3994 11C22.3994 9.67203 22.6514 8.42403 23.1554 7.25602C23.6594 6.08802 24.3434 5.07202 25.2074 4.20802C26.0714 3.34402 27.0874 2.66002 28.2554 2.15602C29.4234 1.65202 30.6714 1.40002 31.9994 1.40002C33.3274 1.40002 34.5754 1.65202 35.7434 2.15602C36.9114 2.66002 37.9274 3.34402 38.7914 4.20802C39.6554 5.07202 40.3394 6.08802 40.8434 7.25602C41.3474 8.42403 41.5994 9.67203 41.5994 11C41.5994 12.328 41.3474 13.576 40.8434 14.744C40.3394 15.9121 39.6554 16.928 38.7914 17.792C37.9274 18.656 36.9114 19.34 35.7434 19.844C34.5754 20.348 33.3274 20.6 31.9994 20.6Z" fill="#C7C7C7"/>
</g>
</g>
<defs>
<clipPath id="clip0_6473_47184">
<rect width="44" height="43" fill="white"/>
</clipPath>
</defs>
</svg>
