<svg width="44" height="43" viewBox="0 0 44 43" fill="none" xmlns="http://www.w3.org/2000/svg">
<g clip-path="url(#clip0_6471_47085)">
<path d="M20.3994 11C20.3996 17.4062 25.5938 22.6004 32 22.6006V36.5996C32 40.1342 29.1342 43 25.5996 43H6.40039C2.86577 43 0 40.1342 0 36.5996V17.4004C0 13.8658 2.86577 11 6.40039 11H20.3994Z" fill="black" fill-opacity="0.6"/>
<path d="M10.672 30.2001C11.5609 30.2001 12.3164 29.889 12.9386 29.2668C13.5609 28.6445 13.872 27.889 13.872 27.0001C13.872 26.1112 13.5609 25.3557 12.9386 24.7334C12.3164 24.1112 11.5609 23.8001 10.672 23.8001C9.78308 23.8001 9.02753 24.1112 8.40531 24.7334C7.78308 25.3557 7.47197 26.1112 7.47197 27.0001C7.47197 27.889 7.78308 28.6445 8.40531 29.2668C9.02753 29.889 9.78308 30.2001 10.672 30.2001ZM10.672 33.4001C8.8942 33.4001 7.38308 32.7779 6.13864 31.5334C4.89419 30.289 4.27197 28.7779 4.27197 27.0001C4.27197 25.2223 4.89419 23.7112 6.13864 22.4668C7.38308 21.2223 8.8942 20.6001 10.672 20.6001C12.112 20.6001 13.3698 21.009 14.4453 21.8268C15.5209 22.6445 16.272 23.6579 16.6986 24.8668H25.632L27.7386 26.9734L24.0053 31.2401L21.3386 29.1334L19.2053 31.2668L17.072 29.1334H16.6986C16.2542 30.4134 15.4809 31.4445 14.3786 32.2268C13.2764 33.009 12.0409 33.4001 10.672 33.4001Z" fill="white"/>
<path d="M32 1.40039C33.328 1.4004 34.5762 1.65161 35.7441 2.15527C36.9121 2.65959 37.928 3.34403 38.792 4.20801C39.656 5.07199 40.3401 6.08788 40.8438 7.25586C41.3481 8.42385 41.5996 9.67201 41.5996 11C41.5996 12.328 41.3481 13.5761 40.8438 14.7441C40.3401 15.9121 39.656 16.928 38.792 17.792C37.928 18.656 36.9121 19.3401 35.7441 19.8438C34.5762 20.3481 33.328 20.5996 32 20.5996C30.672 20.5996 29.4238 20.3481 28.2559 19.8438C27.0879 19.3401 26.072 18.656 25.208 17.792C24.344 16.928 23.6599 15.9121 23.1562 14.7441C22.6519 13.5761 22.3994 12.328 22.3994 11C22.3994 9.67201 22.6519 8.42385 23.1562 7.25586C23.6599 6.0879 24.344 5.07199 25.208 4.20801C26.072 3.34404 27.0879 2.65958 28.2559 2.15527C29.4238 1.65161 30.672 1.40039 32 1.40039ZM30.6562 12.7275L27.9199 9.99219L26.5762 11.3359L30.6562 15.416L37.4238 8.64844L36.0801 7.30371L30.6562 12.7275Z" fill="#4FCD44"/>
</g>
<defs>
<clipPath id="clip0_6471_47085">
<rect width="44" height="43" fill="white"/>
</clipPath>
</defs>
</svg>
